<?xml version="1.0" encoding="utf-8"?>
<!-- Generator: Adobe Illustrator 16.0.0, SVG Export Plug-In . SVG Version: 6.00 Build 0)  -->
<!DOCTYPE svg PUBLIC "-//W3C//DTD SVG 1.1//EN" "http://www.w3.org/Graphics/SVG/1.1/DTD/svg11.dtd">
<svg version="1.1" id="Layer_1" xmlns="http://www.w3.org/2000/svg" xmlns:xlink="http://www.w3.org/1999/xlink" x="0px" y="0px"
	 width="120px" height="120px" viewBox="0 0 120 120" enable-background="new 0 0 120 120" xml:space="preserve">
<path id="at" fill="#8F8F8F" d="M1.393,66.618c0,1.244,2.312,1.6,1.6,3.377c-0.178,0.355-0.889,0.178-1.066,0.355
	c-0.178,0.533-0.711,1.955-1.244,3.559L0,77.582l1.57,0.414c1.778,0.178,4.624,0.533,4.802,0.533
	c0.355,0.355-0.533,0.889-0.178,1.244c0.889,1.07,1.955,1.781,3.199,2.314c2.846,1.422,3.381-3.381,5.336-3.025
	c3.733,0.533-0.178,2.492,1.066,3.025c2.845,1.422,0.355-0.355,3.2,0c1.424,0.178,2.846,3.91,5.691,2.311L27,79.596
	c1.422-1.066,7.646-0.355,9.245-0.533c2.668-0.178,4.803-2.488,7.469-2.488c0.712,0-1.244,0.889-1.422,1.6
	c-0.889,3.736,1.422,1.244,2.845,3.381c0.355,0.533-0.533,1.244-0.178,1.955c0.178,0.355,0.711-0.355,1.066,0
	c3.379,2.488,4.268,2.844,8.893,3.559c5.333,0.711,10.846,0.889,16.358,1.777c1.422,0.178,2.844,1.243,4.27,1.421
	c1.422,0.178,2.844-0.888,4.266-0.71c0.889,0.178,1.425,1.421,2.313,1.421c0.355,0.178,0.178-0.889,0.533-1.066
	c0.889-0.888,2.311-1.243,3.199-2.31c0.711-0.533,0.178-1.781,0.711-2.314c3.381-2.666,6.936,0.711,10.138-0.711
	c1.066-0.533,1.244-2.133,2.311-2.488c0.178-0.178,6.047,0.711,6.225,0.533c0.533-0.178-0.533-0.889-0.711-1.422
	c-0.355-1.781,0.355-2.848,1.6-3.203l0,0c3.202-3.554,4.624-4.087,6.224-6.757c0.355-0.711-2.844-4.443-1.955-6.225
	c1.244-2.488,4.266,0.178,3.91-3.376c-0.178-3.024-5.51-2.669-4.443-3.558c2.488-2.133,8.891,0.711,9.957-1.244
	c0.178-0.711-2.311-6.402,0.178-7.468c-2.133-2.312-3.91-4.625-5.514-7.292c-1.422-2.311,3.736-6.044,0-8.712
	c-0.533-0.355-1.244,0.711-1.777,0.711c-0.889-0.178-2.666-2.49-3.91-2.133c-0.892,0.355-1.247,1.777-2.313,2.311
	c-0.711,0.178-1.6-0.178-2.311-0.178c-4.803-0.533-8.891-4.445-14.048-4.445c-0.889,0-1.6,1.066-2.492,1.066
	c-0.355-0.178,0-1.066-0.355-1.244c-0.711-0.355-1.777-0.711-2.311-0.178c-0.178,0.355,0.178,5.511-0.178,5.867
	c-0.355,0.535-1.6-0.711-2.311-0.178l-1.425,4.625c-1.244,0.355-2.488-1.246-3.732-1.246c-0.711,0-0.533,1.423-1.244,1.601
	c-3.736,1.422-5.869-2.312-8.713-3.734h-0.181c0.181,0.533,0.358,1.066,0.358,1.6c-0.178,4.802-1.247,3.734-4.979,2.845
	c-0.355,0-0.711,0.178-0.889,0.533c-0.355,1.779,0.711,3.734-1.067,5.158c-1.602,1.244-9.069,3.023-9.247,5.867
	c0,0,4.268,5.869,4.268,6.046c0.178,0.178-2.312,2.312-1.422,3.024c1.955,1.776,3.911-0.89,2.311,4.976
	c0,0.359-0.355,0.893-0.711,0.893c-5.691-1.604-1.244-4.447-3.912-4.625c-1.424,0-2.668,1.244-4.09,1.066
	c-0.711-0.178-0.533-1.422-1.068-1.599c-1.066-0.355-2.134,0.532-3.022,0.177c-0.355-0.177,0.355-1.244,0-1.244
	c-2.133,0.178-0.178,3.021-0.711,3.199c-2.488,0.711-6.58-0.355-8.891,0.533c-0.711,0.355-0.355,1.6-1.068,1.959
	c-0.711,0.533-1.6-0.355-2.312,0.178c-0.533,0.178,0.179,1.066-0.178,1.422c-0.178,0.178-6.223,1.777-6.936,1.422
	c-0.355-0.355,0-1.244-0.355-1.6c-0.178-0.355-1.066-0.355-1.244-0.711s0.889-0.178,0.711-0.533c-0.711-2.314-5.69,0.533-7.112-1.07
	c0,0,0.355-0.178,0.355-0.355c-1.066-0.711,0,2.314-0.355,3.559c0,0.711-3.379,4.803-4.623,3.555
	c-0.711-0.711,1.244-1.777,0.711-2.488c-0.178-0.178-0.711,0.533-1.066,0.533s-0.891-0.178-1.068-0.533
	c-0.355-0.533,0.891-1.244,0-1.955c-0.711-0.533-1.066-1.422-1.777-1.781c-0.533-0.355-1.244,0.537-1.957,0.359
	c-0.355-0.359,0-1.248-0.355-1.604c-0.889-0.711-0.711,2.492-3.556,1.604C1.748,66.44,1.57,66.44,1.393,66.44V66.618z"/>
</svg>
