<?xml version="1.0" encoding="utf-8"?>
<!-- Generator: Adobe Illustrator 16.0.0, SVG Export Plug-In . SVG Version: 6.00 Build 0)  -->
<!DOCTYPE svg PUBLIC "-//W3C//DTD SVG 1.1//EN" "http://www.w3.org/Graphics/SVG/1.1/DTD/svg11.dtd">
<svg version="1.1" id="Layer_1" xmlns="http://www.w3.org/2000/svg" xmlns:xlink="http://www.w3.org/1999/xlink" x="0px" y="0px"
	 width="120px" height="120px" viewBox="0 0 120 120" enable-background="new 0 0 120 120" xml:space="preserve">
<path id="be" fill="#8F8F8F" d="M98.414,110.451c-1.145-0.382-2.296-0.763-3.439-0.763c-2.669-0.382-5.337,2.295-7.624,1.144
	c-1.906-0.763-0.382-4.193-1.525-5.719c-0.763-1.144-2.669-0.381-3.82-1.144c-0.381-0.381,1.533-1.144,1.533-1.524
	c-0.382-0.763-0.763-1.525-1.533-1.906c-0.763-0.382-1.906,1.144-2.287,0.763c-1.525-1.145-1.906-3.432-3.432-4.575
	c-2.668-1.151-6.48,0-8.005-2.295c-1.533-1.525,1.524-3.812,1.524-5.719c-0.381-1.524-2.677-1.906-2.677-3.431
	c0-1.906,1.533-3.432,1.914-4.964c0.382-1.144,2.288-2.288,1.525-3.05c-2.669-2.288-4.964,4.582-7.631,6.87
	c-5.34,4.955-17.929,1.905-16.785-0.382c1.147-1.906,3.054-3.058,3.054-4.964c0-1.144-3.054-1.144-2.672-2.668
	c0-2.288,3.054-4.194,3.054-6.481c-0.763-6.488-16.401-2.668-17.163-5.727c-0.381-1.524,0.762-3.431,0.381-4.958
	c-1.148-6.1-9.539,0-11.826-5.337c-1.525-3.054,0.763-11.826-4.197-13.732c-2.288-1.144-4.194,4.193-7.244,4.193
	c-8.395,0-8.776-14.494-9.539-19.832c0.381-0.381,0.381-0.381,0.381-0.381c6.866-1.91,17.548-10.301,26.32-12.969l0.763,1.524
	c-0.763,9.916,7.247,3.435,12.97,6.104c0.762,0.381-0.763,1.906,0,2.668c4.575,3.054,8.391-2.288,11.44-4.956
	c2.292,1.906,4.579,3.431,5.341,3.05c1.144-0.762,0.763-2.287,0-3.812c1.144,0.381,1.906,0.762,3.05,0.381
	c2.672,0-4.575-8.776,4.576-6.104c0.763,0-0.763,1.906-0.381,2.288c4.582,3.816,5.726-5.341,9.157-2.669
	c1.144,1.144-3.05,3.431-1.906,4.194c8.769,4.579,1.144-1.144,8.006-2.668c1.144-0.381,3.058,10.678,5.727,11.059
	c6.1,1.148,14.113,0.767,19.069,7.248c0.381,0.766-1.525,1.529-1.906,2.291c-0.763,2.288-2.669,4.194-3.05,6.485
	c0,0.763,1.906,0.381,1.524,1.144c-0.381,1.144-2.287,1.525-2.668,3.05c-2.677,9.535,3.812,6.866,9.911,7.247h0.382
	c1.524,2.668,3.82,6.866,4.201,6.866c0.763,0.762,3.05-0.763,3.05,0.381c0.381,1.525-2.669,3.054-2.287,4.578
	c0.762,2.287,4.193,1.906,5.337,3.812c4.193,6.869-6.1,8.014-8.776,15.257c-4.193-7.243-11.817,6.87-13.343,11.063
	c-1.151,3.431,10.293,18.307,1.906,17.544L98.414,110.451L98.414,110.451z"/>
</svg>
