<?xml version="1.0" encoding="utf-8"?>
<!-- Generator: Adobe Illustrator 16.0.0, SVG Export Plug-In . SVG Version: 6.00 Build 0)  -->
<!DOCTYPE svg PUBLIC "-//W3C//DTD SVG 1.1//EN" "http://www.w3.org/Graphics/SVG/1.1/DTD/svg11.dtd">
<svg version="1.1" id="Layer_1" xmlns="http://www.w3.org/2000/svg" xmlns:xlink="http://www.w3.org/1999/xlink" x="0px" y="0px"
	 width="120px" height="120px" viewBox="0 0 120 120" enable-background="new 0 0 120 120" xml:space="preserve">
<path id="bg" fill="#8F8F8F" d="M87.729,81.511c-1.023-0.205-2.047-0.205-2.66-0.205c-7.984,1.638,4.915,7.367,0.409,10.85
	c0,0-6.348,2.046-6.553,2.046c-2.864,1.023-7.575,4.711-10.645,4.506c-0.613,0-0.204-1.022-0.613-1.228
	c-2.047-1.027-4.711-2.255-6.963-1.641c-0.818,0.204-0.818,1.846-1.637,2.05c-0.614,0.205-1.023-1.231-1.637-1.437
	c-0.409-0.204-1.025,0.618-1.229,0.205c-1.433-0.818-1.842-3.069-3.481-3.274c-1.228-0.409-1.841,1.637-3.069,1.842
	c-0.82,0.409-1.844-1.228-2.458-0.818c-3.685,2.251-5.118,4.71-10.851,6.757c-2.456,0.818-5.527,0-7.78,1.432
	c-0.818,0.41-0.818,2.047-1.637,2.46c-0.614,0.614-1.639,0-2.458,0s-1.844,0-2.662,0c-0.205,0.205,0,0.614,0,0.614
	c0.409-1.232,0-11.877-0.205-11.877c-1.433-1.433-3.684-5.528-5.527-6.757c-1.023-0.613-2.458,0-3.685-0.613
	c-0.409-0.205-5.938-4.502-5.938-4.911c1.025-1.846,3.892-2.255,2.867-4.915c-0.205-0.818-0.819-1.228-1.433-1.637
	c-0.409-0.205-1.025,0.204-1.23-0.205c-0.205-1.023,0-2.051,0-3.073c-0.205-1.228-1.637-2.456-1.023-3.479
	c5.938-9.828-0.818,2.251,5.734-2.869c0.614-0.614,4.913-8.188,3.683-9.416c-1.637-1.228-9.417-4.913-9.826-5.322
	c-2.456-2.048-6.348-10.646-4.913-13.718c0.614-1.433,2.867-1.228,3.686-2.456c0.614-1.435-0.205-3.276,0.409-4.71
	c2.66,1.229,5.938,2.048,7.371,2.867c1.841,0.818-5.938,5.324-2.458,6.757c4.913,2.046,6.347-1.637,10.851-2.048
	c5.731-0.614,12.488,2.662,18.22,0.616c1.23-0.409,1.639-2.048,2.867-2.458c3.072-1.023,6.552-0.818,9.829-0.614
	c4.094,0.205,7.166,1.841,11.259-0.614c4.507-2.867,5.12-7.166,8.599-10.647c3.074-3.071,10.235-6.347,14.128-7.984
	c9.212-3.48,6.347,1.433,9.825,1.023c1.638-0.205,2.869-2.046,4.507-2.046c5.319-0.205-1.229,3.89,3.683,1.228
	c0.614-0.205,1.023-1.023,1.637-1.228c1.232-0.614,1.437,2.25,2.46,3.069c3.069,2.662,8.394,0.82,11.668,0.207h0.409
	c0.818,5.118,1.228,9.826-0.205,10.645c-0.818,0.409-1.841-1.023-2.864-0.818c-7.575,2.048-2.66,1.844-4.915,6.348
	c-0.205,0.818-1.637,0.818-2.047,1.432c0,0.409,1.229,0.205,1.229,0.614c0.409,3.276,0.204,5.322,1.022,8.599
	c0.205,1.229,1.433,2.867,0.818,3.89c-0.613,1.025-2.455,0.409-3.479,1.025c-0.204,0,0.614,0.409,0.614,0.614
	c-0.409,0.818-1.433,1.023-1.637,1.842c-0.205,0.614,1.022,1.229,0.613,1.639c-0.818,1.228-2.66,1.637-3.482,2.864
	c-3.684,4.915,5.324-2.455,7.575,3.073c0.204,0.409-0.409,1.023-0.409,1.433c0.204,0.204,4.71,2.864,5.733,3.683
	c0.614,0.823,1.228,1.437,1.433,2.051h-0.409c-1.228,0.204-2.456,0-3.684,0.409c-1.637,0.614-2.869,2.046-4.301,3.069
	c-0.409,0.205,0,1.023-0.205,0.818c-4.706-1.023-6.143-4.706-10.849-2.251l-3.483,3.888c-1.433,0.618-3.273-0.409-4.297,0.618
	c-1.228,1.023,0,3.069-0.818,4.297C89.983,79.051,85.887,78.438,87.729,81.511L87.729,81.511z"/>
</svg>
