<?xml version="1.0" encoding="utf-8"?>
<!-- Generator: Adobe Illustrator 16.0.0, SVG Export Plug-In . SVG Version: 6.00 Build 0)  -->
<!DOCTYPE svg PUBLIC "-//W3C//DTD SVG 1.1//EN" "http://www.w3.org/Graphics/SVG/1.1/DTD/svg11.dtd">
<svg version="1.1" id="Layer_1" xmlns="http://www.w3.org/2000/svg" xmlns:xlink="http://www.w3.org/1999/xlink" x="0px" y="0px"
	 width="120px" height="120px" viewBox="0 0 120 120" enable-background="new 0 0 120 120" xml:space="preserve">
<path id="hr_1_" fill="#8F8F8F" d="M110.114,116.131l-0.437-1.529c-2.62-4.371-6.773-2.842-11.578-6.555
	c-1.314-1.092-1.751-3.062-3.279-3.498c-0.874-0.438-1.966,0.436-3.058,0.654c0.437,0.223,0.655,0.223,1.092,0.441
	s0.874,1.529,0.437,1.529c-3.493-0.219-6.118-3.498-9.612-3.936c-1.528-0.219-3.279,0.219-4.809,0c-0.437,0-0.873-1.092-1.092-0.873
	c-0.437,0.219-0.437,1.311,0,1.527c1.311,0.438,2.839-0.217,4.372,0c1.311,0.219,2.839,0.656,4.367,1.533
	c0.437,0.219,0.219,1.092,0.655,1.311c7.429,3.932,5.9-2.406,17.478,6.773C106.18,114.602,108.149,115.693,110.114,116.131
	L110.114,116.131z M113.39,45.415c-1.965-2.184,1.314-1.092,2.188-2.62c0.218-0.218,0.218-0.655,0-0.874
	c-2.844-2.839-0.874-3.931-0.655-6.773c0.218-1.092,5.677,3.28,5.022-1.092c-3.058,0-6.556-0.874-9.176-2.621
	c-1.092-0.874,0.873-1.31,0.873-1.528c0-0.655-2.184-1.097-0.873-2.407c0.218-0.218,1.747,1.092,1.965-0.218
	c0.219-2.402-4.367,0.437-4.367-1.747c0.437-5.027,1.311-3.712-2.406-8.957l-0.219-0.437c-0.654,0.219-1.31,0.219-2.401,0.437
	c-1.528,0-1.747,3.057-2.184,3.494c-2.839,2.407-12.456,2.625-15.513,1.315c-1.528-0.66-2.839-2.188-4.586-2.843
	c-0.441-0.219-4.809,0.437-5.464-0.437c-4.59-5.9-9.612-8.521-15.512-13.324c-1.53-0.219-5.246-1.097-6.12-0.878
	c-2.402,0.441,0.874,3.498-0.437,4.372c-1.092,0.437-2.402-0.218-3.494,0.218c-0.437,0.218,0.218,1.092-0.218,1.528
	c-2.184,1.747-5.682,1.965-7.866,3.935c-2.62,2.402,4.804,8.521,1.529,10.923c-7.647,5.463-2.839-3.712-7.866,3.494
	c-0.655,0.878,1.965,1.096,2.402,2.188c0.437,0.874-2.184,0.655-2.184,1.529c0,0.437,2.184,3.275,1.311,4.367
	c-2.402,2.406-5.896-1.31-8.084-1.31c-3.275,0,3.062,3.062-2.402,1.528c-1.529-0.437-3.495-2.839-4.15-4.149
	c-0.437-0.437-0.876-1.747-1.094-1.31c-0.874,1.31-0.655,2.839-1.528,3.931c-2.839,3.716-6.774,0-10.049,1.092
	c-0.437,0.218,0.437,1.092,0,1.533c-1.967,1.092-5.9,0.874-7.866,0c-0.655,0-1.967-0.66-1.967,0
	c0.221,1.747,1.749,3.057,2.404,4.585c0,0.219-0.437,0.219-0.437,0.437c0.219,1.747-0.218,3.498,0.655,4.809
	c0,0,0.218,0,0.218,0.218c-0.874,1.31,2.623,2.838,3.714,4.367c0.874,1.31,1.529,6.992,2.623,5.682
	c1.092-1.31,1.747-3.057,2.621-4.59c0.218-0.655,0.437-1.31,0.437-1.965c0-0.218-0.655,0-0.655-0.437c0-0.219,0-1.092,0.218-0.874
	c0.874,0.218,0.218,5.245,2.623,1.31c0.437-1.092,0.437-2.184,0.437-3.494c0-0.218-0.437-0.437-0.437-0.874
	c0-0.218,0.218,0.655,0.437,0.437c1.747-0.873,0.218-6.773,2.186-6.773c6.334-0.437,4.149,1.965,8.083,5.241
	c0.874,0.66,2.184,0,2.839,0.66c3.935,4.585-0.655,10.267,3.717,15.07c1.31,1.533,5.022,4.809,6.551,5.9
	c1.751,0.873,7.21,1.746,5.463,2.402c-3.057,0.873-8.739-5.459-7.866,2.842c0.219,2.621,10.268,8.303,11.801,10.268
	c0.437,0.219-1.751-0.654-1.315-0.436c1.315,0.873,6.992,2.619,7.21,3.275c0.437,1.527-0.873,3.934,0.219,5.244
	c0.655,0.438,7.43-1.965,7.647-2.184c4.372-0.877,1.311,0.873,6.773,2.84c1.747,0.436,3.713-0.219,5.464,0.436
	c2.402,0.873,3.931,4.809,6.551,6.119c3.062,1.311,5.027,2.184,5.9,3.057c0,0.219,0.219,0,0.219,0c0.437,0,0.873-0.436,1.092,0
	c0.873,1.529-0.438,1.529,1.528,2.402c0.659-0.654,2.188-0.654,2.406-1.529c1.092-2.838-8.302-6.555-9.176-8.084
	c-0.873-1.309-0.218-3.275-1.092-4.584c-0.655-0.875-2.188-0.656-3.28-1.092c-4.585-2.844-7.429-8.084-11.358-11.365
	c-1.311-0.873-6.337-5.9-7.867-6.555c-0.655-0.219-1.528,0.654-2.184,0.219c-1.092-1.092,1.529-3.494,1.529-3.932
	c-0.218-0.873-1.31-1.092-1.965-1.746c-1.751-2.624-2.407-6.118-4.809-8.301c-0.874-1.092-2.62-1.092-3.712-1.965
	c-0.878-0.66-2.407-13.329,2.402-13.111c2.184,0,5.9,4.809,7.866,5.9l1.747-0.219l-1.747,0.219c2.621-0.219,2.185-4.372,3.495-6.119
	c2.401-2.839,3.498,0.655,6.555,0c0.874-0.219,0.874-1.965,1.747-2.621c0,0,1.311,1.31,5.026,2.402
	c0.438,0.219,1.092,0.437,1.747,0.219c0.437,0,0.655-0.874,1.311-1.092c2.62-0.219,8.521,3.057,11.363,2.62
	c0.655,0,1.311-0.437,1.529-1.092c0.654-0.437,0.437-1.965,1.31-1.965c1.311-0.218,2.184,1.092,3.494,1.529
	c2.406,0.655-0.437-1.092,0.873-1.529c1.314-0.437,2.844-0.437,4.153,0c0.874,0.218,1.529,1.529,2.402,1.529
	c0.655,0,0-1.529,0.655-1.529c5.026,0.218,3.717,5.677,6.118,6.114C110.987,46.293,112.298,45.852,113.39,45.415L113.39,45.415z"/>
</svg>
