<?xml version="1.0" encoding="utf-8"?>
<!-- Generator: Adobe Illustrator 16.0.0, SVG Export Plug-In . SVG Version: 6.00 Build 0)  -->
<!DOCTYPE svg PUBLIC "-//W3C//DTD SVG 1.1//EN" "http://www.w3.org/Graphics/SVG/1.1/DTD/svg11.dtd">
<svg version="1.1" id="Layer_1" xmlns="http://www.w3.org/2000/svg" xmlns:xlink="http://www.w3.org/1999/xlink" x="0px" y="0px"
	 width="120px" height="120px" viewBox="0 0 120 120" enable-background="new 0 0 120 120" xml:space="preserve">
<path id="cy" fill="#8F8F8F" d="M120,6.253c-0.548,8.773-25.217,30.154-29.601,40.022c-4.942,12.06,19.727,13.704,16.986,18.096
	c-1.644,2.191-6.027-0.548-8.219,0.548c-2.192,0.548-2.74,3.836-4.932,4.932c-3.288,2.191-8.778,0-11.519,2.739
	c-2.191,2.74,0.549,7.671-1.096,10.411c-4.383,7.683-23.572,13.162-27.959,19.189c-1.644,2.191,1.65,6.038,0,8.778
	c-4.383,8.219-8.772-4.384-10.417-4.384c-3.288,0-5.479,4.384-8.767,5.479c-1.65,0.548-19.737-2.192-20.285-2.192
	c-1.65-1.096-1.096-3.835-2.198-5.49C10.353,102.739-3.9,87.396,1.032,87.944c2.74,0,4.383,2.74,7.129,2.74
	c4.937-0.548,6.033-10.423,7.129-12.066c3.835-6.027,14.252-1.644,18.087-4.932c2.746-1.644,2.198-6.027,1.65-9.314
	c-0.548-2.751-5.485-6.036-3.293-8.776c1.649-2.191,6.033,1.096,9.321,0.548c6.581-0.548,22.474-4.389,28.512-7.677
	C77.238,44.084,119.452,5.706,120,6.253L120,6.253z"/>
</svg>
