<?xml version="1.0" encoding="utf-8"?>
<!-- Generator: Adobe Illustrator 16.0.0, SVG Export Plug-In . SVG Version: 6.00 Build 0)  -->
<!DOCTYPE svg PUBLIC "-//W3C//DTD SVG 1.1//EN" "http://www.w3.org/Graphics/SVG/1.1/DTD/svg11.dtd">
<svg version="1.1" id="Layer_1" xmlns="http://www.w3.org/2000/svg" xmlns:xlink="http://www.w3.org/1999/xlink" x="0px" y="0px"
	 width="120px" height="120px" viewBox="0 0 120 120" enable-background="new 0 0 120 120" xml:space="preserve">
<path id="cz" fill="#8F8F8F" d="M88.985,89.301c3.1-12.203,9.925-1.86,16.129-9.718c0.414-0.62-0.206-1.654,0.207-2.278
	c0.62-0.827,2.066-0.413,2.687-1.24c0,0,1.654-6.407,1.654-6.613c1.859-3.312,6.824-5.998,10.338-7.651
	c-0.827-1.038-0.207-2.897-1.033-3.93c-0.827-0.829-2.48-0.207-3.307-0.829c-0.207-0.207-2.067-5.169-2.274-5.375
	c-1.037-0.827-2.897-0.207-4.138-0.62c-1.033-0.207-3.307-0.827-4.134-1.447c-0.413-0.207-0.413-1.036-0.831-0.829
	c-3.513,1.449,3.312,1.862-2.687,2.482c-0.413,0-1.033-0.207-1.446-0.62c-0.62-0.62-0.414-1.655-1.034-2.275
	c-0.826-0.62-3.725-0.827-2.897-1.447c2.691-2.482,4.345,0.62,1.864-4.343c0-0.207-0.413-0.207-0.62,0
	c-0.206,0.414,0,1.24-0.413,1.447c-0.831,0.414-1.864,0-2.691,0c-0.826,0-1.86,0.414-2.687,0.207
	c-1.86-0.62-5.378-3.723-8.479-3.309c-1.24,0.207,3.307,4.758,3.101,5.171c-0.62,1.24-2.688,0.827-3.721,1.653
	c-0.62,0.62-0.413,2.069-1.24,2.482c-3.104,1.24-4.345-4.136-4.964-4.965L71.61,42.36c-0.413-2.689,7.445-3.722,1.865-6.412
	c-1.038-0.62-5.585,1.862-5.585,1.862c-0.62-0.622,0-1.655-0.62-2.275c-0.207-0.414-0.827,0-1.447,0.207
	c-0.206,0-0.413,0.62-0.826,0.414c-0.418-0.62-0.207-1.654-1.038-2.273c-2.687-1.656-5.375,0.207-8.684-2.482
	c-2.276-1.654,0.827-3.309-2.896-3.723c-5.789-1.033,0.827,3.516-4.755,4.343c-0.414,0.827-0.62,1.447-1.24,1.447
	c-2.689,0.622-7.032-10.752-9.307-4.343c-0.414,1.036,3.309,1.862,2.482,2.482c-2.482,2.069-5.996,2.276-8.479,3.723
	c-0.413,0.207,0,1.24-0.413,1.447c-1.656,0.829-3.929-0.414-5.169,0.62c-1.036,0.829-0.62,2.482-1.656,3.309
	c-0.413,0.414-0.827-1.033-1.447-0.827c-1.862,0.414-2.069,2.896-3.309,3.723c-0.62,0.62-1.86-0.414-2.482,0.207
	c-0.62,0.414,0,1.653-0.62,2.276c-0.827,1.033-3.103-0.829-3.723-0.829c-5.169,0.829-5.996,4.758-7.651,8.065
	c-0.414,0.829-0.414-2.067-1.24-2.687c-0.62-0.827-1.86-1.036-2.896-1.242c-1.86-0.413,2.069,6.205,6.205,8.894
	c0.414,0.207,1.86,0.413,2.067,1.652c0.622,2.897-2.067,1.864-2.48,4.138c-0.207,0.619,4.342,8.271,4.962,8.892
	c3.516,3.513,4.342,1.033,6.618,3.307c1.447,1.451,1.653,3.725,3.1,4.965c2.896,2.066,10.134,4.758,11.581,8.892h0.207
	c3.309,1.653,5.792,5.998,10.134,4.345c0.827-0.207,0.62-1.865,1.447-1.865c1.447,0,2.896,1.865,4.342,1.451l1.656-5.378
	c0.827-0.62,2.273,0.827,2.687,0.207c0.414-0.413,0-6.411,0.207-6.825c0.62-0.62,1.862-0.206,2.689,0.207
	c0.413,0.207,0,1.24,0.413,1.446c1.036,0,1.862-1.239,2.896-1.239c5.999,0,10.752,4.551,16.337,5.171
	c0.827,0,1.86,0.413,2.687,0.207c1.24-0.62,1.653-2.278,2.691-2.691c1.447-0.413,3.514,2.277,4.547,2.484
	c0.62,0,1.447-1.24,2.067-0.827C88.571,87.647,88.985,88.475,88.985,89.301L88.985,89.301z"/>
</svg>
