<?xml version="1.0" encoding="utf-8"?>
<!-- Generator: Adobe Illustrator 16.0.0, SVG Export Plug-In . SVG Version: 6.00 Build 0)  -->
<!DOCTYPE svg PUBLIC "-//W3C//DTD SVG 1.1//EN" "http://www.w3.org/Graphics/SVG/1.1/DTD/svg11.dtd">
<svg version="1.1" id="Layer_1" xmlns="http://www.w3.org/2000/svg" xmlns:xlink="http://www.w3.org/1999/xlink" x="0px" y="0px"
	 width="120px" height="120px" viewBox="0 0 120 120" enable-background="new 0 0 120 120" xml:space="preserve">
<path id="dk" fill="#8F8F8F" d="M74.875,112.553c-2.491-0.383-4.979-1.726-7.467-2.108c-0.573,0-2.874,0.191-4.213,0
	c0-0.957,0-1.914,0.191-3.062c0-0.957,1.53-2.104,0.765-2.87c0.766-0.961-0.382-2.491-0.382-3.831
	c-0.191-1.147,0.382-2.87-0.383-3.635c-1.723-1.727-6.701,0.191-7.658-3.257c-0.573-2.105,1.34-4.401,1.34-6.893
	c0.191,0.191,0.191,0.191,0.383,0.383c5.936,2.874,2.108-4.783,1.726-5.553c-0.191-0.383-0.383-1.53-0.96-1.148
	c-0.957,0.383-0.766,2.109-1.723,2.301c-0.574,0.191-0.191-1.344-0.191-1.918c0.191-1.339,0.574-2.679,0.574-3.826
	c0.191-1.148-0.957-2.683,0-3.448c0.191-0.191,0.574-0.383,0.766-0.383c-0.191-0.383-0.957-8.614,0.96-7.849
	c1.148,0.383,0.383,2.3,0.957,3.257c1.723,4.018,9.954-5.936,10.336-5.936c4.022-1.148-0.573,5.17,0.191,6.127
	c0.766,0.956,2.297,0.191,3.64-0.191c-0.383,0-0.574,0-0.574-0.191c-0.387-0.957,0.766-2.109,0.191-2.874
	c-0.387-0.574-1.534,0.956-1.726,0.383c-0.383-0.766,1.147-1.34,1.147-2.105c0.191-4.404-2.679-3.061,0.961-5.744
	c0.766-0.765,3.062-0.573,3.636,0c0.383,0.383-0.574,2.109-0.191,1.727c0.766-0.77,0.766-2.491,1.722-3.065
	c0.766-0.383,1.727,0,2.491,0c0.957,0.574,5.549,1.722,5.549,1.722c0.383,1.152-0.573,2.491-0.383,3.831
	c0,0.957,1.535,1.913,1.152,2.87c-0.387,0.766-1.726-0.191-2.491,0c-1.148,0.191,2.874,0.956,2.683,2.108
	c0,0.383-0.191,0.574-0.191,0.766c0.766,0.191,0.957,1.913,1.913,2.104c2.297,0.574,5.744-2.679,6.701,1.722
	c0.383,1.531-4.213,9.188-5.744,8.423c-1.339-0.765-1.339-3.252-2.874-3.826c-1.722-0.574-1.53,9.38-2.104,10.527
	c-0.957,2.491-2.487,4.214-5.166,4.214c-1.344,0-4.214-2.105-3.831-0.766c0.574,1.339,3.636,0.574,4.405,2.104
	c0,0.191,0,0.383,0,0.574c0.19,0,0.382,0,0.382,0c0.766,0,0.957,1.339,1.531,1.339c2.104-0.573,3.635-3.826,5.744-3.061
	c1.147,0.573,1.722,2.296,3.062,2.487c0.765,0.191,0.956-1.148,1.53-1.531c3.448,7.084-0.766,0.957,0.574,3.636
	c1.148,2.108,4.787,10.914-2.296,10.148c-1.531-0.191-2.87-1.339-4.405-1.722c-0.574,0-1.53,0.957-2.104,0.383
	c-1.53-1.152,3.831-0.766,0.766-2.491c-4.783-2.487,0,1.726-1.531,1.726c-0.573,0-1.913-5.744-1.913-5.936
	c-0.574-1.339-2.491-2.108-2.874-3.64c0-0.19,0.191-0.19,0.191-0.19c-1.53,0.573-3.636,0.956-3.636,1.147
	c-0.383,0.766,1.914,0,2.296,0.766c0.191,0.578-1.147,0.77-1.147,1.343c-0.191,1.148,0,2.297,0.383,3.253
	c0.191,0.574,1.147,0.766,1.147,1.34c0,2.108-3.443,2.874-3.826,4.979c0,0.766,1.53-0.383,2.104,0
	c1.339,0.957,2.487,2.296,2.679,3.827c0.191,0.769-1.34-1.531-2.104-1.34C76.597,110.062,75.448,111.787,74.875,112.553
	L74.875,112.553z M0.574,21.837C0.382,23.562,0,26.625,0,26.625S0.382,23.562,0.574,21.837z M3.446,3.076
	C1.148,7.864,4.405,1.928,4.979,4.8c0,0.383-0.958,0.383-0.958,0.574C4.403,6.14,5.935,5.948,5.935,6.713
	c0,1.342-0.382,3.638-1.724,3.638c-1.148-0.191,0.191-2.487,0-3.638C3.637,4.8-2.105,2.693,3.446,3.076L3.446,3.076z
	 M111.058,80.771v0.191c2.104-1.53,5.357-0.765,7.657-0.383c0.191,0.383,0.957,0.766,0.957,1.152
	c-0.191,1.148-1.34,1.913-1.34,3.062c0.191,3.827,3.253,3.636,0.574,6.701c-0.957,0.956-2.491,1.147-3.448,2.104
	c-1.722,1.913,0.383,2.487,2.109,3.448l1.147,2.87c-1.53,1.339-5.744,0.765-5.744,2.487c0.191,2.108,4.787,4.979,0,5.17
	c-1.722,0-3.062-1.148-4.596-1.913c0.765,0.382,1.726,0.765,1.917,0.19c0.383-1.339-0.77-2.874-1.726-4.021
	c-0.383-0.383-0.574,0.766-0.957,0.766c-1.148,0-1.913-0.957-2.87-1.148s-1.913,0.574-2.683,0.383c-0.383,0-0.383-0.574-0.383-0.766
	c1.152-3.062-2.296-2.296-2.104-2.87c0.191-0.766,1.53-0.574,1.722-1.339c0.766-5.553-0.956-4.022-4.018-6.701
	c-0.383-0.383-1.531-1.344-0.957-1.534c1.722-0.957,10.91,1.151,9.188-4.784c-0.383-1.339-2.487-0.956-3.64-1.722
	c-0.574-0.383,1.344,0.383,1.917,0.383c0.957,0.383,1.914,0.766,2.87,0.766c2.87,0,7.467-1.34,6.51,4.592
	c-0.191,0.956-2.679,1.917-1.913,2.491c3.444,2.87,2.296-4.022,1.722-6.701c-0.191-1.147-3.253-0.191-2.87-1.147
	C110.292,81.728,110.675,81.345,111.058,80.771L111.058,80.771z M114.884,111.405h-0.956c0,0.19,0,0.382,0,0.382
	c0.191,0.383,0,0.574,0,0.766c-0.574,0.383-1.34,0.957-1.531,1.34c-0.573,0.382-0.956,0.765-1.147,1.339l-0.191,0.191
	c0,0.191,0,0.191,0,0.191s0-0.191,0-0.383c-1.148,0-2.491-0.191-3.065,0c-0.957,0.191-1.722,1.913-2.87,1.723
	c-1.531-0.191-2.296-2.105-3.64-2.87c-0.956-0.574-2.296-0.957-3.062-1.723c-0.573-0.383,1.531-0.766,3.444-4.213
	c2.683,2.296,6.701,2.87,9.001,4.787c0.191,0.191,0.191,0.191,0.191,0.191c-1.148-1.722-3.64-3.065-2.683-4.597
	c0.383-0.765,1.534-0.382,2.108-0.573c1.34,1.339,4.21,1.147,4.592,2.87C115.075,111.019,115.075,111.214,114.884,111.405z
	 M57.068,83.453c0,0.383,0,0.957,0,1.531C56.877,83.836,56.877,82.688,57.068,83.453z M90.572,46.888
	c0.574,2.105-1.339,12.441-4.787,11.293c-1.148-0.383-2.104-1.722-3.444-1.722c1.34-1.722-4.404-0.383-5.936,0
	c-1.339,0.383-2.487,1.53-3.826,1.722c-0.578,0-0.961-0.956-1.535-0.956c-1.53-0.191-3.062,0-4.4,0.383
	c-0.574,0.19-0.191,1.339-0.766,1.722c-2.683,1.152,0.191-6.506-3.64,3.639c-0.191,0.191,0.957,5.553,0.766,5.553
	c-6.318-0.191-2.87-12.062,0.766-13.402c3.256-1.53,7.849,0.191,11.105-1.147c4.4-2.108,3.443-8.231,7.466-10.531
	c1.34-0.574,3.062-0.191,4.4-0.766c1.344-0.766,2.109-3.444,3.64-3.444c2.87,0-1.53,2.104-1.722,3.827
	C88.276,45.741,89.615,44.014,90.572,46.888z M108.184,111.979l-1.723,0.191c1.34,0.383,2.488,0.957,3.448,1.914h0.191
	C109.526,113.318,108.758,112.744,108.184,111.979L108.184,111.979z"/>
</svg>
