<?xml version="1.0" encoding="utf-8"?>
<!-- Generator: Adobe Illustrator 16.0.0, SVG Export Plug-In . SVG Version: 6.00 Build 0)  -->
<!DOCTYPE svg PUBLIC "-//W3C//DTD SVG 1.1//EN" "http://www.w3.org/Graphics/SVG/1.1/DTD/svg11.dtd">
<svg version="1.1" id="Layer_1" xmlns="http://www.w3.org/2000/svg" xmlns:xlink="http://www.w3.org/1999/xlink" x="0px" y="0px"
	 width="120px" height="120px" viewBox="0 0 120 120" enable-background="new 0 0 120 120" xml:space="preserve">
<path id="ee" fill="#8F8F8F" d="M52.373,94.101c2.271-0.568,11.079-8.807,13.634-10.794c1.704-1.136,4.827,4.258,3.975,0.567
	c0-0.284-0.283-0.284-0.283-0.567c0-0.568-0.568-1.42,0-1.42c2.555,0,5.684,4.259,7.387,4.826c0.852,0.284,1.704-1.419,2.556-1.419
	c0.852,0.283,0.567,1.987,1.419,2.271c1.704,0.568,3.413-1.136,5.116-0.567c0.852,0.284-0.284,1.987,0.284,2.555
	c1.136,1.704,10.227,7.672,12.214,7.388c0.283,0,5.678-5.968,5.678-5.968c1.136-0.284,9.658,2.845,9.942,1.419
	c0.567-1.419-1.42-5.394-0.568-6.245c0.568-0.568,1.987-0.568,2.271-1.42c0.284-0.567-0.852-0.852-0.852-1.703
	c-0.284-0.568-0.284-1.426,0-1.993c3.413-2.839,3.696,0.284,4.832-3.123c0.284-0.852-2.271-0.284-3.123-1.136
	c-1.993-1.987-0.857-3.406-1.425-5.394c-0.284-0.858-4.826-3.413-5.679-4.265c-2.271-3.975,0.284-2.271,0.284-5.964
	c0-5.113-5.684-10.51-6.535-15.623c-0.284-3.126,3.129-5.397,3.98-7.668l0.283-7.104c0-1.419-1.135-3.123-0.283-4.261
	c2.839-5.965,7.665-3.407,0.852-7.668c-0.284,1.136-0.852,2.271-2.845,3.41c-2.556,1.704-29.254,1.987-33.802,1.419
	c-0.852,0-1.42-1.419-2.556-1.135c-5.394,1.135,6.819,4.261-2.271,3.123c-1.42-0.284-1.704-3.407-3.123-3.123
	c-1.136,0.284,0.852,2.555,0.283,3.69c-0.852,1.707-2.561,3.41-4.262,4.262c-2.842,1.419-5.965,1.99-9.09,1.419
	c-1.136-0.284-1.987-2.555-2.839-1.987c-1.422,0.852,1.987,3.978,0.568,4.261c-2.842,0.852-11.362,1.136-13.068,5.397
	c-0.568,1.419,2.558,2.839,1.706,3.978c-1.422,2.271-9.942,1.704-11.078,4.259c-3.978,10.794,3.41,3.978,5.113,8.522
	c0.852,2.555-3.41,5.683-2.274,8.237c1.139,3.123,5.681,6.252,6.249,7.388c1.707,2.555-1.136,5.395,2.558,7.382
	c1.419,0.567,3.126-0.853,4.545-0.284c1.419,0.284,2.271,3.129,3.69,2.271c1.99-1.136,1.99-11.93,7.955-4.827
	c0.568,0.853-1.419,1.704-1.419,2.84c0,2.276,1.136,4.548,1.136,6.819c0,5.678-2.271,2.555-1.704,7.671L52.373,94.101L52.373,94.101
	z M21.411,72.229c3.693,2.555,3.407,2.839,7.955,4.826c1.987,1.136-3.41-2.556-2.274-0.284c1.136,2.556,0.284-1.136-1.703-0.852
	c-1.707,0.284,0,3.975-1.423,5.395c-0.284,0.289-1.419-1.42-1.703-0.853c-0.568,0.568,0.284,1.993,0,3.129
	c-1.419,3.691-4.262,2.556-5.113,2.839c-0.568,0-0.568,1.136-1.135,1.42C14.31,88.7,12.32,89.269,10.9,90.12
	c-0.284,0-0.284,0.283-0.284,0.567c0,2.277,0.568,4.832,0,7.104c-0.567,1.42-2.555,4.259-3.693,3.123
	c-3.407-3.975,3.126-6.246,2.558-9.375c-0.284-0.852-1.704,0.284-2.558-0.283c-1.704-0.853-4.262-1.42-5.113-3.407
	c-0.568-1.136,2.558-1.703,2.274-2.839c-0.284-2.271-4.83-3.123-3.978-5.116c0.567-1.703,3.41,2.277,5.397,2.277
	c1.706,0-0.852-4.549,0.852-5.4c0.854-0.284,1.99,2.556,2.274,1.703C10.616,71.66,14.878,74.216,21.411,72.229L21.411,72.229z
	 M11.184,55.752c0.568,0,1.419-0.284,1.704,0.284c0.568,0.568-0.284,1.987,0.568,2.555c1.138,0.568,3.125-0.852,4.261-0.284
	c9.659,5.683,0.571,4.547,0,5.683c-2.271,5.395,5.681,0.852-4.829,6.819c-3.123,1.703-3.407-5.116-3.407-5.116
	c-1.136-3.123-6.249-1.987-8.239-2.555c-1.987-0.284,4.262-1.136,6.252-1.703C10.049,60.865,10.616,57.455,11.184,55.752z"/>
</svg>
