<?xml version="1.0" encoding="utf-8"?>
<!-- Generator: Adobe Illustrator 16.0.0, SVG Export Plug-In . SVG Version: 6.00 Build 0)  -->
<!DOCTYPE svg PUBLIC "-//W3C//DTD SVG 1.1//EN" "http://www.w3.org/Graphics/SVG/1.1/DTD/svg11.dtd">
<svg version="1.1" id="Layer_1" xmlns="http://www.w3.org/2000/svg" xmlns:xlink="http://www.w3.org/1999/xlink" x="0px" y="0px"
	 width="120px" height="120px" viewBox="0 0 120 120" enable-background="new 0 0 120 120" xml:space="preserve">
<path id="fi_1_" fill="#8F8F8F" d="M81.371,105.396c0.524-2.008,2.181-4.099,3.229-5.844c2.703-4.799,4.362-10.296,6.193-15.442
	c1.398-3.753,1.834-4.711,2.007-8.726c0.089-0.613,0.438-1.31,0.176-1.92c-0.699-2.005-8.462-4.888-10.469-6.281
	c-0.263-0.176,2.878-4.974,0.698-6.634c-0.786-0.609-2.443,0-2.967-0.872c-2.268-3.926,0.523-2.093-0.176-3.228
	c-1.047-1.57-2.182-0.349-3.49-1.92c-1.135-1.309-0.348-1.396,0.26-2.618c0.352-0.783-1.744-0.783-1.744-1.134
	c0.089-0.611,0.089-3.75,0.089-3.839c-1.834-1.57,0.349-0.611,0.873-1.222c0.348-0.523-1.833-3.664-2.095-4.013
	c-1.483-2.007-3.14-4.363-4.885-6.108c-0.261-0.261-1.661-1.307-1.923-1.833c-1.305-2.441,2.884-8.636,1.221-10.12
	c-0.434-0.523-1.221-0.523-1.743-0.874c-0.961-0.697-1.395-1.917-2.354-2.528c-0.089,0-3.055-0.437-3.14-0.437
	c-0.523-0.436-0.698-1.135-1.049-1.745c-1.918-3.14,0.351-2.879-0.611-5.147c-0.435-1.048-2.093-0.088-1.744-0.698
	c0.437-0.785,1.047-1.308,1.571-2.006C56.505,8.9,60.17,6.806,59.035,4.886c-1.744-3.054-4.448-1.919-6.718-4.362l-0.086-0.436
	c-0.089,0-0.175,0-0.262,0.086c0-0.086-0.089-0.086-0.089-0.174v0.174c-1.745,0.35-1.395,2.356-2.879,2.793
	c-1.308,0.349-0.784-1.483-2.268,0.174c-0.176,0.262,0,0.698-0.088,1.047c-0.088,0.087-1.047,1.919-1.047,2.007
	c-0.261,0.697,0.262,2.966,0.35,3.577c0,0.262-0.175,0.437-0.175,0.697c0,0.524,0.088,0.961,0.175,1.484
	c0.262,0.699,0.872,1.222,0.959,1.919c0.437,3.055-0.35,0.96-1.396,1.921c-1.221,1.221-0.087,1.57-0.436,3.052
	c-0.087,0.349-0.436,0.524-0.523,0.872c0,0.088-1.135-0.958-1.309-1.046c-0.262-0.173-3.49-1.308-3.751-0.959
	c-0.35,0.349-0.087,1.047-0.35,1.396c-1.047,1.833-2.443,0.698-3.927,0.96c-0.436,0-0.872,0.261-1.221,0.175l-0.35-0.262
	c-0.174-0.35-0.174-0.873-0.348-1.222c-0.611-1.047-2.617-3.751-3.665-4.362c-2.268-1.31-2.356,0.523-2.181,1.917l-0.523,1.834
	h0.086l-0.086,0.087l0.348,0.436c-0.086,0.174-0.437,0.262,0,0.523c1.483,1.134,4.014,3.228,5.584,3.927
	c1.833,0.784,3.316,0.087,4.974,1.745c0.349,0.262,0.087,1.046,0.437,1.222c0.262,0.086,0.435-0.35,0.61-0.262
	c0.698,0.262,0.96,1.135,1.484,1.658c0.174,0.174,0.698,0.174,0.611,0.436c-0.959,1.832,0.087,1.919,0.349,4.015
	c0.087,0.348-0.261,0.696-0.261,1.045l0,0l0,0c-0.087,0.087-0.087,0.087-0.087,0.087l0,0c0,0.874,1.308,0.175,1.658,0.524
	c1.134,0.873-0.699,2.094-0.176,2.966c0.524,1.222,2.619,2.356,2.794,3.752c0.086,1.047-0.699,4.363-0.611,4.799
	c0.784,2.792,2.704,3.752,3.75,6.021c0.35-0.612,0.785-1.136,2.006-0.438c0.612,0.35,0.262,1.572,0.874,1.92
	c0.524,0.348,1.221-0.349,1.833-0.175c0.261,0,0.261,0.523,0.436,0.699c0.524,0.26,0.524-0.785,1.048,0.086
	c0.959,2.008,0.261,3.753,0.61,4.626c0.262,0.783,2.619-0.962,1.57,1.569c-0.262,0.612-1.135,0.437-1.658,0.786
	c-0.522,0.347-1.134,0.607-1.483,1.132c-0.173,0.18,0.088,0.613-0.087,0.786c-0.175,0.173-0.61-0.262-0.696-0.087
	c-0.263,0.611-0.351,1.396-0.351,2.095c0,0.435,0.262,0.874,0.088,1.31c-0.088,0.786-1.134,1.131-1.309,1.83
	c-0.173,0.524,0.262,1.136,0.088,1.57c-0.437,0.959-1.396,0.785-1.484,2.097c-0.087,0.263,0.437,0.524,0.437,0.87
	c-0.262,1.659-2.617,1.396-2.704,2.882c-0.088,0.608-0.524,2.179-0.611,2.267c-0.35,0-0.785-0.872-1.135-0.61
	c-0.785,0.697,0.437,2.442-0.35,2.967c-0.26,0.171-0.785-0.96-0.698-0.611c0,0.438,0.61,0.611,0.785,1.045
	c0.786,2.883-0.261,0.962-1.482,2.359c-0.263,0.347,0.262,1.22-0.088,1.22c-0.522-0.089-0.261-1.135-0.698-1.22
	c-0.697-0.176-1.57,0.085-1.919,0.696c-1.396,2.356,1.57,0.696,1.396,2.096c-0.173,0.87-2.443,2.354-2.53,3.312
	c-0.437,5.76,0.087-0.172,0.96,2.006c0.086,0.089-0.787,1.661-0.087,2.097c0.087,0.087,0.261-0.35,0.349-0.262
	c0.174,0.262-0.088,0.871,0.262,0.959c0.173,0.089-0.175-0.785,0.086-0.785c0.262-0.086,0.349,0.262,0.436,0.524
	c0.524,1.396-0.087,3.663,0.174,4.186c0.176,0.352,0.699,0.176,0.96,0.438c0.35,0.438,0.524,0.962,0.787,1.396
	c0.086,0.174-0.087,0.436,0,0.611c0.175,0.261,0.523,0.261,0.697,0.437c0.088,0.086-0.349,0-0.349,0.086
	c-0.087,0.176,0.088,0.35,0.174,0.522c0.436,0.524,1.397,0.787,1.308,1.397c-0.087,0.523-1.482,0.086-1.569,0.61
	c-0.175,0.698,0.873,1.135,1.046,1.745c0.087,0.263-0.349,0.525-0.26,0.875c0.086,0.172,0.61,0.172,0.61,0.434
	c-0.088,1.135-0.96-0.088-0.61,0.872c0.086,0.349,0.522,0.61,0.435,0.873c-0.087,0.35-0.959-0.088-1.045,0.175
	c-0.088,2.269,0.871,2.529,1.57,3.489c0.174,0.176-0.699,0.351-0.525,0.613c0.087,0.435,0.262,0.784,0.525,1.132
	c1.919,2.532,0.436-0.087,2.269-0.436c0.349,0-0.35,0.959,0,1.222c0.522,0.261,1.134-0.174,1.745-0.174
	c0.522,0.087,0.784,0.96,1.221,0.96c0.436,0,0.611-0.525,0.959-0.525c0.175-0.088,0,0.263,0.087,0.351
	c0.261,0.086,0.438,0,0.699-0.088c0.087-0.089,0.087-0.61,0.174-0.438c0.872,1.921-0.522,2.27-0.174,2.356
	c0.174,0,2.181-1.483,2.442-1.656c0.088-0.089,0.262-0.525,0.349-0.613l0,0c-0.435,1.311-1.569,2.793,0.524,3.578
	c0.349,0.175,1.047-0.61,1.221-0.262c0.176,0.524-1.221,1.312-0.697,1.484c0.523,0.261,0.436-1.223,0.959-1.312
	c0.437-0.085,0.089,0.875-0.086,1.225c-0.262,0.438-0.787,0.609-1.222,0.959c-0.175,0.262-0.873,0.872-0.611,0.699
	c2.704-1.049,1.657-2.794,3.053-3.665c0.438-0.262-0.697,1.134-0.262,1.396c0.61,0.349,1.397-0.088,2.009-0.437
	c0.437-0.177,0.609-0.873,0.96-1.135c0.523-0.436,2.877-0.697,3.14-1.046c0.262-0.262-0.609-0.699-0.35-0.961
	c0.438-0.349,1.135-0.086,1.745-0.174c0.176,0,0.521,0.088,0.61-0.089c0.173-0.262-0.172-0.608-0.089-0.784
	c0.089-0.174,0.089,0.436,0.262,0.522c0.09,0.088,2.358-1.307,2.532-1.568c0.089-0.088-0.348-1.834,0.524-1.66
	c0.172,0,3.4,2.969,2.617-0.262c-0.176-0.608-1.745-0.696-1.483-1.395c0.176-0.61,1.308-0.261,1.921-0.088
	c0.346,0.088,0.346,1.048,0.696,0.874c0.872-0.611-0.434-3.578,0.611-2.966c0.871,0.608-1.484,2.791,1.222,1.919
	c4.188-1.396,0.609-0.524,1.482-1.833c0.086-0.086,0.175,0.174,0.348,0.174c0.177,0,0.438,0,0.524-0.174
	c0.089-0.174-0.262-0.785,0-0.785c0.089,0,1.483,1.222,1.92,1.045c0.611-0.174,1.047-0.695,1.397-1.132
	c0.086,0,0.086-0.088,0.086-0.174L81.371,105.396L81.371,105.396z"/>
</svg>
