<!DOCTYPE svg PUBLIC "-//W3C//DTD SVG 1.1//EN" "http://www.w3.org/Graphics/SVG/1.1/DTD/svg11.dtd">
<svg version="1.1" id="Layer_1" xmlns="http://www.w3.org/2000/svg" xmlns:xlink="http://www.w3.org/1999/xlink" x="0px" y="0px"
	 width="120px" height="120px" viewBox="0 0 120 120" enable-background="new 0 0 120 120" xml:space="preserve">
<path id="fr" fill="#8F8F8F" d="M64.545,0c0.185,1.283,0.275,4.768,2.294,4.768c0.731,0,1.189-1.283,1.741-1.008
	c1.191,0.458,0.641,2.567,1.007,3.301c0.55,1.283,2.567-0.184,2.844,1.283c0.091,0.368-0.185,0.826-0.092,1.192
	c0.183,0.734,3.941-0.183,4.124,1.375c0,0.55-0.731,1.009-0.731,1.558c-0.092,0.367,0.641,0.367,0.641,0.642
	c0,0.459-0.458,0.734-0.732,1.192c-0.275,0.55,2.751,1.284,4.033,0.092c0.643-0.55,1.191-2.201,1.834-1.65
	c0.185,0.183-0.273,0.458-0.364,0.732c-0.094,0.368-0.462,0.734-0.462,1.192c0,0.367,0.553,0.458,0.644,0.826
	c0,0.458-0.735,1.008-0.366,1.374c0.366,0.551,1.282,0.275,1.925,0.551c0.367,0.275,0.458,0.825,0.825,1.1
	c0.091,0.092,0.366-0.274,0.549-0.184c0.183,0.092,0.277,0.276,0.369,0.458c0,0.092-0.46,0.277-0.369,0.368
	c0.277,0.183,0.735,0,0.918,0.274c0.275,0.367-0.091,1.191,0.367,1.375c0.549,0.275,1.191-0.367,1.832-0.274
	c0.275,0,0.551,0.091,0.826,0.183c0.458,0.184,0.825,0.367,1.192,0.55c0.091,0.092,0,0.458,0.091,0.367
	c0.551,0,1.009-0.458,1.467-0.458c0.55,0,1.101,0.275,1.56,0.458c0.184,0.275,0.732,0,1.009,0.275
	c0.733,0.458,1.191,2.567,2.109,3.484c1.1,1.191-0.735-2.566,2.017-0.092c0.182,0.184-0.185,0.55-0.094,0.826
	c0.185,0.275,3.119-0.917,3.577-0.55c0.275,0.274,0.091,0.825,0.366,1.1c0.367,0.275,5.869,0.916,5.502,1.559
	c-1.009,1.742-2.843,2.842-3.576,4.309c-0.273,0.643-0.366,2.659-0.458,3.209l-1.285,2.109c-0.183,0.458-0.366,0.917-0.273,1.375
	c0,0.275,0.365,0.275,0.365,0.459c-0.092,1.284-1.008,2.475-0.916,3.758c0,1.192,0,1.559,0.093,1.559
	c-3.119,3.209-2.017-0.275-4.584,0.458c-0.185,0.091,0.183,0.459,0.183,0.643c0,0.091-0.183,0-0.183,0
	c-0.275,0.367-1.009,0.732-0.825,1.192c0.092,0.458,1.466-0.46,1.466,0c-0.092,1.283-0.55,0.275-1.008,0.642
	c-0.824,0.641-1.56,2.474-2.2,3.025c-0.552,0.642-1.834,0.367-2.201,1.1c-0.275,0.642,0.275,1.467,0,2.017
	c-0.368,1.009-2.017,1.009-2.658,1.925c-1.103,1.375,0.091,2.66-0.367,4.126c-0.091,0.275-1.009-0.183-1.009,1.008
	c0,0.183-0.458,0.367-0.367,0.367c1.102,0.275,2.385-0.184,2.935-1.283c0.091-0.184-0.367-0.367-0.458-0.55
	c0-0.275-0.092-0.459,0.091-0.643c0.825-1.284,3.393-1.284,4.584-0.732c0.367,0.091-0.366,0.642-0.275,0.916
	c0,0.459,0.551,0.643,0.643,1.101c0.091,0.55-1.191,0.459-0.643,1.375c0.185,0.185,0.733-0.092,0.825,0.185
	c0.184,0.275-0.274,0.733-0.183,1.007c0.091,0.185,0.46-0.367,0.551-0.183c0.458,0.46,0.458,1.101,0.825,1.651
	c-4.218,2.477-1.834,1.374-0.55,3.575c0.183,0.367-0.184,1.009,0.092,1.375c0.275,0.642,1.191,0.732,1.465,1.286
	c0.458,0.823-2.475,3.208-2.935,3.299c-0.273,0.093-0.458-0.46-0.731-0.46c-0.458,0.092-1.282,0.092-1.282,0.553
	c-0.185,1.466,2.839,2.657,3.299,3.393c0.275,0.55,0.367,1.283,0.367,2.015c-0.092,0.275-0.918-0.183-1.01,0.093
	c-0.091,0.183,0.183,0.365,0.092,0.458c-0.274,0.458-0.734,0.732-1.099,1.101c-0.275,0.552,0.641,0.825,0.731,1.101
	c0,0.183-0.458,0.183-0.458,0.367c-0.091,1.282,2.294,3.025,3.301,3.301c0.55,0.183,1.192-0.093,1.743-0.093
	c0.549-0.092,1.191-0.458,1.649-0.183c1.374,1.007-1.74,3.116-1.282,4.767c-0.092,0-1.652,0.551-1.834,0.733
	c-0.094,0.091,0.182,0.46,0,0.46c-0.094-0.092,0-0.46-0.094-0.46c-0.549,0.091-1.189,0.183-1.557,0.551
	c-0.275,0.275,0.183,0.917-0.184,1.191c-0.367,0.276-1.01-0.091-1.468,0.185c-0.366,0.273-0.275,1.008-0.733,1.374
	c-0.367,0.183-0.825-0.275-1.191-0.091c-0.273,0.091-0.092,0.551-0.367,0.826c-0.273,0.365-1.009,0.458-1.191,0.916
	c-0.093,0.367,0.731,0.916,0.365,1.192c-0.458,0.458-1.374,0-2.015,0.091c-0.825,0.183-1.378,1.007-2.109,1.285
	c-0.825,0.273-0.185-1.012-2.017-1.103c-1.193-0.092,0.091,0.458-0.092,0.643c-0.184,0.182-0.553,0.182-0.826,0.091
	c-0.275,0-0.552,0-0.643-0.183c0-0.185,0.643-0.643-0.641-1.284c-0.275-0.092-0.551,0-0.917,0c-0.642-0.183-1.377-0.092-1.835-0.55
	s0-1.376-0.366-1.834c-0.183-0.275-0.55,0.367-0.916,0.367c-0.55,0-1.652,0.183-1.561-0.367c0.093-0.733,1.744-0.458,1.836-1.191
	c0-0.733-1.01-1.283-1.651-1.191c-0.55,0.091,0.46,1.101,0.184,1.467c-0.46,0.458-1.193,0.731-1.834,0.641
	c-1.467-0.091-1.007-2.657-1.282-2.29c-1.285,1.465,1.559,2.107,0.733,2.475c-2.935,1.191-1.651-0.733-1.743-1.101
	c-0.093-0.367-3.301-0.733-3.576-0.916c-0.733-0.367-1.649-1.561-2.565-1.011c-1.01,0.553-2.477,2.385-3.484,2.934
	c-0.918,0.459-2.752,0.094-3.852,1.652c-0.183,0.184,0.275,0.551,0.275,0.824c-0.183,0.916-1.375,1.468-1.468,2.477
	c0,0.275,0.642,0.185,0.733,0.458c0.459,1.649-0.733,1.191-0.092,3.025c0.183,0.552,0.734,1.01,1.284,1.468h-0.367
	c-1.466-0.367-3.117-1.192-4.492-0.276c-0.275,0.185,0.091,0.916-0.275,1.01c-0.917,0.273-2.476-1.559-3.393-1.559
	c-0.825,0-1.467,0.458-2.2,0.549c-0.55,0.092-0.641-0.916-0.826-1.098c-0.458-0.367-1.191-0.552-1.834-0.827
	c0.917-1.191,0.734-2.383-1.649-2.201c-0.092,0-0.367,0.367-0.55,0.825v-0.091c-0.459-0.274-0.184-1.099-0.642-1.466
	c-0.275-0.275-0.826-0.275-1.284-0.366c-0.184,0-0.459,0.091-0.55,0c-1.009-0.918-1.925-2.019-3.484-2.294
	c-1.101-0.183-0.643,1.925-0.643,1.925c-1.007-0.091-1.833-0.825-2.75-0.733c-0.274,0-0.274,0.551-0.549,0.551
	c-0.551-0.093-0.826-0.733-1.376-0.824c-0.55-0.094-0.917,0.458-1.467,0.364c-1.192,0-0.733-1.189-1.375-1.74
	c-1.284-1.101-2.476,0.551-3.668-0.367c-0.091,0-1.008-2.109-1.101-2.201c-1.191-0.916-3.209-0.458-4.492-1.649
	c-0.184-0.183,0.091-0.643,0-0.826c-0.184-0.183-0.735,0.826-1.284,0.644c-1.193-0.551,1.467-1.651,0.642-2.567
	c-0.276-0.366-0.826-0.551-1.284-0.643c-0.092,0,0,0.458-0.184,0.367c0,0-1.009-0.916-1.559-1.467
	c0.55-0.094,0.917-0.185,1.283-0.367c2.66-1.283,3.759-10.086,4.769-12.836c0.183-0.458,0.367-1.101,0.826-1.285
	c0.367-0.182,1.191,0.643,1.375,0.185c0.274-0.458-0.367-1.191-0.917-1.282c-0.458-0.093-0.549,1.191-1.009,1.007
	c-0.916-0.275,0.46-1.741,0.643-2.659c0.367-1.467,1.375-6.876,2.384-7.609c0.366-0.185,1.651,1.834,2.017,2.75
	c1.284,2.752-0.458,0.185,0.458,3.119c0.184,0.549,0.734,1.007,0.918,1.557c0.091,0.275-0.274,1.102,0,1.011
	c0.458-0.091,0.732-0.735,0.642-1.103c-0.184-0.549-0.825-0.733-1.192-1.191c-0.733-1.191,0.276-3.393-0.459-4.767
	c-0.367-0.735-1.008-1.376-1.557-2.019c-0.368-0.457-0.826-0.916-1.376-1.283l0,0c0.55,0.183,1.192,0.367,1.742,0.092
	c0.641-0.367-1.375-1.284-1.192-2.017c0.184-0.733,1.009-1.101,1.101-1.833c0.091-0.55-0.551-1.009-0.551-1.56
	c0-0.641,0.551-1.284,0.551-1.925c0-0.184-0.459-0.184-0.734-0.091c-0.183,0.091,0,0.641-0.183,0.549
	c-0.459-0.184-0.55-0.917-0.917-1.191c-0.275-0.092-0.643,0.274-0.917,0.091c-0.274-0.184,0-0.826-0.274-1.009
	c-1.651-1.558-0.734,1.834-2.292-1.191c-0.092-0.276-0.184-2.292-0.551-2.751c-0.091-0.091-0.367,0-0.458-0.091
	c-0.367-0.551-0.825-1.192-1.1-1.834c-0.368-0.917,1.466-1.833,1.65-2.2c0.367-0.826-1.834-1.376-1.834-1.467
	c-0.184-0.643-0.184-1.009-0.092-1.284h-0.091c-3.759-0.367-0.274-1.284-0.184-3.301c0.092-1.191-3.759-0.184-3.85-0.642
	c-0.184-0.733,0.917-1.009,1.467-1.375c0.091-0.092-0.458,0.184-0.55,0.091c-0.091-0.091,0-0.367-0.091-0.458
	c-0.276,0-0.368,0.275-0.643,0.367c-0.733,0-1.467-0.55-2.108-0.275c-0.092,0.092-0.184,0.184-0.184,0.275v-0.092
	c0.184-1.192,1.1-2.383-0.826-2.568c-1.008-0.091-0.733,1.193-1.467,0.735c-0.55-0.367-1.283-1.56-1.833-1.834
	c-0.367-0.092-0.826,0.274-1.1,0c-1.193-0.917,0.274-2.018-2.017-1.834c-0.183,0.092,0.183,0.55,0,0.641
	c-0.643,0.275-1.559,0.826-2.109,0.367c-0.55-0.367,0-1.375-0.184-2.017c-0.275-1.1-1.466-0.825-2.201-1.284
	c-0.091-0.091,0.184-0.366,0.367-0.366c0.917-0.183,1.834-0.092,2.751-0.092c0.184,0,0.642,0.367,0.642,0.183
	c0-0.183-0.825-1.467-1.375-2.383l0.092,0.091c0.458,0.184,1.008,0,1.558,0.092c0.367,0,1.192,0.366,0.917,0.183
	c-0.641-0.366-1.743-0.183-2.017-0.825c-0.184-0.55,1.284-0.367,1.376-0.917c0.274-1.099-5.502,3.118-3.576-1.834
	c0.091,0,3.116-1.191,3.942-1.191c1.008,0-1.284,1.191,0.917,0.55c0.642-0.091,1.284-0.825,1.926-0.643
	c0.549,0.185,0.274,1.284,0.825,1.467c0.367,0,0.091-1.1,0.458-1.19c0.641,0,1.1,1.19,1.742,1.007
	c0.551-0.182,0.184-1.375,0.734-1.742c0.184-0.183,0.549,0.367,0.825,0.367c0.549,0,1.191-0.55,1.649-0.274
	c0.459,0.274,0.092,1.191,0.55,1.467c0.274,0.182,0.274-0.459,0.551-0.642c0.458-0.368,1.925,3.575,2.292,4.309
	c0.091,0.091,0.091-0.367,0.274-0.367c0.549-0.367,1.101-0.458,1.742-0.733c0.458-0.276,0.825-1.009,1.284-0.826
	c0.825,0.367,0.092,3.576,2.292,2.659c0.642-0.275,0.275-1.467,0.734-2.109c0.459-0.642,0.55,1.285,1.1,1.376
	c0.549,0.091,1.009-0.184,1.559-0.091c0.55,0,1.65,0.825,1.834,0.274c0.184-1.008-1.925-1.742-1.65-2.75
	c0.183-0.642,0.367-1.284,0.641-1.925c-0.183,0-0.367-0.092-0.274-0.459c0.183-0.642,0.733-1.375,0.733-2.109
	c0-0.183-0.55,0.092-0.642-0.092c-0.184-0.458,0-1.192-0.275-1.65c-0.092-0.274-0.641-0.274-0.825-0.549
	c-0.184-0.55-0.274-1.284-0.184-1.834c0-0.274,0.458-0.367,0.458-0.551c0-0.641-0.366-1.283-0.458-1.925
	c0-0.184,0.184,0.368,0.275,0.459c0.733,0.367,1.375,0.733,2.108,0.917c0.184,0.091,0.459-0.092,0.642-0.092
	c0.734,0,1.467-0.366,2.108,0c0.368,0.092,0.185,0.641,0,1.009c-0.091,0.183-0.366,0.091-0.549,0.274
	c-0.274,0.275,0.734,3.21,0.826,3.21c3.759,0.549-1.651-1.743,1.283-0.643c1.375,0.55,3.118,0.825,4.401,1.467
	c0.458,0.275,0.733,0.917,1.192,1.009c2.108,0.275,1.65-0.917,3.209-1.375c0.367-0.092,0.733-0.092,1.191-0.092
	c-1.009-0.183-1.925-0.826-0.642-3.025c0.917-1.467,7.061-1.651,8.71-2.567c0.643-0.275,1.101-0.826,1.743-1.192
	c0.549-0.274,1.558-0.184,1.833-0.732c0.275-0.551-0.734-0.826-0.825-1.376c-0.092-0.275,0-0.734,0.183-0.917
	c0.184-0.184,0.551,0.183,0.551,0c0-0.184-0.459-0.184-0.459-0.458c0-0.642,0.733-5.043,0.917-5.501
	c0.367-1.102,3.394-1.285,4.218-1.376C62.436,0.276,63.538,0.184,64.545,0L64.545,0z M115.98,100.029c1.284,0.916,0,3.393,0,4.401
	c0,0.367,0.826,1.191,0.735,0.825c-0.185-0.367-0.735-1.376-0.645-1.01c0.187,0.552,0.553,0.917,0.735,1.376
	c0.275,0.643,0.275,2.659,0.275,3.208c0.092,1.561-1.469,2.752-1.469,3.851c0,1.193,0.458,2.844-0.549,3.945
	c-0.092,0.183-0.55,0-0.55,0.183c0,0.275,0.641,0,0.55,0.185c0,0.365-0.55,0.365-0.734,0.641c-0.273,0.643,0,1.467-0.458,2.017
	c-1.284,1.284-0.916-1.374-1.191-1.468c-1.191-0.366-1.925,0.552-2.75-0.824c-0.185-0.274,0.367-0.641,0.183-1.01
	c-0.273-0.549-1.376-0.733-1.285-1.374c0-0.733,1.47-1.101,1.376-1.834c-0.091-0.551-1.558,0.552-1.649,0
	c-0.185-0.733,1.285-1.101,1.191-1.742c-0.091-0.732-1.467-0.55-1.651-1.283c-0.091-0.549,1.103-0.732,1.103-1.376
	c0-0.549-0.918-0.825-1.193-1.374c-0.092-0.367,0.916-0.092,1.101-0.367c0.184-0.642,0.091-1.469,0.46-2.018
	c0.091-0.183,0.275,0.458,0.458,0.366c0.458-0.091,0.549-0.733,1.007-0.916c0.367-0.185,0.825,0.183,1.191,0
	c0.46-0.275,0.46-1.101,0.918-1.191c0.552-0.091,1.01,0.641,1.649,0.641c0.552,0-0.091-1.189,0-1.834
	C114.882,101.312,115.613,100.763,115.98,100.029L115.98,100.029z M94.801,92.146c0.735,0,1.376-0.645,1.376-1.285
	C94.942,90.867,94.974,90.776,94.801,92.146C95.536,92.146,94.067,92.146,94.801,92.146z"/>
</svg>
