<?xml version="1.0" encoding="utf-8"?>
<!-- Generator: Adobe Illustrator 16.0.0, SVG Export Plug-In . SVG Version: 6.00 Build 0)  -->
<!DOCTYPE svg PUBLIC "-//W3C//DTD SVG 1.1//EN" "http://www.w3.org/Graphics/SVG/1.1/DTD/svg11.dtd">
<svg version="1.1" id="Layer_1" xmlns="http://www.w3.org/2000/svg" xmlns:xlink="http://www.w3.org/1999/xlink" x="0px" y="0px"
	 width="120px" height="120px" viewBox="0 0 120 120" enable-background="new 0 0 120 120" xml:space="preserve">
<path id="de" fill="#8F8F8F" d="M95.499,17.583c0.242,1.914,2.154,5.621,2.394,6.817c0.358,2.87-3.469,4.784-2.633,7.057
	c0.481,1.436,5.023,2.033,5.023,3.828c0,1.793-1.435,2.392-0.358,3.707c0.358,0.598,1.198,0.838,1.437,1.555
	c0.359,0.598-0.119,1.436,0,2.033c0.12,0.359,0.598,0.239,0.718,0.478c0.598,0.837-0.837,2.871-1.195,3.589
	c-0.72,1.076,1.075,1.673,1.435,2.75c0.238,0.598-0.598,1.315-0.239,1.794c0.478,0.717,1.554,0.478,2.032,0.957
	c1.676,1.555,0.959,10.286-0.479,10.524c-1.554,0.359-4.066-6.218-5.382-2.511c-0.239,0.599,1.915,1.077,1.435,1.436
	c-1.435,1.195-3.467,1.314-4.903,2.151c-0.239,0.119,0,0.717-0.239,0.837c-0.956,0.48-2.271-0.239-2.988,0.358
	c-0.598,0.48-0.358,1.438-0.959,1.915c-0.239,0.239-0.479-0.598-0.837-0.478c-1.075,0.238-1.195,1.673-1.912,2.151
	c-0.359,0.358-1.076-0.239-1.435,0.119c-0.361,0.239,0,0.957-0.361,1.317c-0.479,0.598-1.793-0.48-2.151-0.48
	c-2.991,0.48-3.47,2.752-4.426,4.665c-0.239,0.48-0.239-1.195-0.717-1.555c-0.359-0.478-1.076-0.598-1.674-0.717
	c-1.078-0.239,1.195,3.589,3.586,5.143c0.239,0.119,1.078,0.239,1.198,0.956c0.358,1.676-1.198,1.078-1.438,2.394
	c-0.119,0.358,2.513,4.784,2.872,5.143c2.032,2.032,2.51,0.598,3.827,1.913c0.837,0.839,0.956,2.153,1.793,2.871
	c1.913,1.314,7.058,3.11,6.938,6.219c-0.119,3.229-0.839,2.513-3.35,1.915c-0.239,0-0.479,0.119-0.598,0.358
	c-0.239,1.195,0.479,2.51-0.717,3.469c-1.079,0.837-6.102,2.032-6.222,3.945c0,0,2.872,3.947,2.872,4.066
	c0.119,0.12-1.557,1.557-0.957,2.035c1.315,1.195,2.63-0.598,1.555,3.347c0,0.239-0.239,0.601-0.479,0.601
	c-3.828-1.079-0.837-2.991-2.632-3.111c-0.957,0-1.794,0.837-2.75,0.718c-0.478-0.12-0.358-0.956-0.717-1.076
	c-0.72-0.239-1.438,0.358-2.035,0.12c-0.239-0.12,0.239-0.837,0-0.837c-1.435,0.119-0.119,2.032-0.478,2.151
	c-1.674,0.479-4.426-0.239-5.979,0.358c-0.479,0.239-0.239,1.076-0.72,1.317c-0.479,0.359-1.076-0.241-1.555,0.12
	c-0.358,0.119,0.12,0.717-0.119,0.956c-0.119,0.119-4.187,1.195-4.664,0.956c-0.239-0.239,0-0.837-0.239-1.075
	c-0.12-0.239-0.718-0.239-0.837-0.479c-0.12-0.239,0.598-0.119,0.479-0.358c-0.479-1.557-3.828,0.358-4.784-0.72
	c0,0,0.238-0.12,0.238-0.239c-0.717-0.479,0,1.557-0.238,2.394c0,0.478-2.273,3.229-3.11,2.391
	c-0.478-0.479,0.837-1.195,0.479-1.674c-0.12-0.119-0.479,0.358-0.717,0.358c-0.239,0-0.599-0.119-0.719-0.358
	c-0.239-0.358,0.599-0.837,0-1.314c-0.478-0.359-0.717-0.959-1.195-1.198c-0.358-0.239-0.837,0.361-1.315,0.239
	c-0.24-0.239,0-0.837-0.24-1.076c-0.598-0.478-0.478,1.676-2.392,1.076c-1.315-0.479-2.152-1.793-3.468-2.152
	c-0.12,0-4.067,0.239-4.067,0.239c-0.478-0.239-0.478-1.075-0.958-1.314c-0.12-0.239,0.24,0.598,0,0.717
	c-0.239,0.12-0.717,0-0.837-0.239c-0.12-0.358,0.479-0.836,0.239-1.075c-1.793-1.796-3.827,1.435-3.468,1.554
	c0.717,0.119,1.436-0.119,2.153,0c0.478,0.119-0.838,0.239-1.197,0.479c-0.239,0.119,0.12,0.717,0,0.837
	c-2.99,1.556-0.836-0.718-3.229-0.598c-0.359,0-5.861,1.314-6.22,0.598c-0.12-0.239,0.718-0.359,0.599-0.479
	c-1.077-0.837-1.555,2.752-1.555-1.435c-0.12-1.674,1.076-3.23,1.195-4.903c0-0.239-0.478-0.239-0.478-0.598
	c-0.12-0.598,0.12-1.198,0.358-1.796l1.675-2.749c0.12-0.718,0.239-3.35,0.598-4.187c0.958-1.915,3.349-3.35,4.664-5.621
	c0.479-0.839-6.698-1.676-7.176-2.034c-0.359-0.359-0.12-1.076-0.478-1.435c-0.598-0.479-4.426,1.075-4.665,0.717
	c-0.12-0.358,0.358-0.837,0.119-1.075c-3.588-3.23-1.196,1.673-2.631,0.119c-1.197-1.195-1.794-3.947-2.75-4.545
	c-0.36-0.358-1.077,0-1.316-0.358c-1.315-2.394,3.469-3.35,1.794-5.382c-0.239-0.361-3.109-0.601-3.708-3.11
	c-1.076-4.426,4.425-4.187,2.75-6.938c-0.359-0.598-1.435-0.479-1.674-1.195c-0.119-0.479,0.837-0.956,0.717-1.435
	c0-0.358-0.717,0.119-0.956-0.119c-0.12-0.12-1.794-2.633-1.675-2.991c0.12-0.479,0.956-0.479,1.076-0.956
	c0.359-2.034-3.109-2.751-2.033-2.99c0.358-0.12,0.599,0.358,0.838,0.358l2.272-2.033c0.12-0.598-1.436,0.12-0.958-0.837
	c0.36-0.836,1.197-1.436,1.555-2.272c1.076-2.631-1.555-4.545-2.272-5.861c-0.12-0.239,0.12-0.598,0.239-0.837
	c0-0.239-0.239-0.598,0-0.717c0.598-0.358,1.316,0,2.033-0.239c0.239-0.119-0.239-0.838,0-0.718
	c0.717,0.239,1.195,1.077,2.034,1.077c0.836,0.12,4.066-0.958,4.425-1.794c0.358-0.837-2.272-0.956-1.197-1.675
	c1.914-1.315,4.187-1.793,3.708-4.784c-0.12-1.673-4.545-0.956-3.469-2.75c0.12-0.358,0.718,0,0.718-0.239
	c0.12-0.358-0.479-0.717-0.36-1.077c0-0.239,0.36-0.239,0.599-0.239c0.837,0,1.555,0.36,2.392,0.36c0.956,0,0.12-1.914,0.478-2.872
	c0.239-0.836,2.272-4.665,2.033-6.698c0.359-0.12,0.717-0.358,1.076-0.837c0.479-0.478-0.598-0.239-1.674-0.239l0,0
	C29.36,24.28,29,24.4,28.761,24.4s-0.358-0.12-0.478-0.239c-0.957-1.196,1.675-4.903,2.631-5.383c0.599-0.359,1.316,0.36,1.914,0.36
	c8.97-0.36-9.329-1.077,4.306-0.719c0.12,0,0.479,0.12,0.598,0.239c0.717,1.316,1.197,6.817,4.187,5.622
	c0.957-0.358-0.956-8.612,1.794-8.612c0.239,0,0.239,0.717,0.598,0.837c0.358,0.24,0.958,0.24,1.436,0.24
	c1.195,0.239,2.512-0.958,3.587-0.479c0.838,0.36,0.838,1.555,1.316,2.272c0.598,0.958,3.828,7.057,3.828,2.991
	c0-0.838-1.794-0.599-2.513-1.316c-1.195-1.076-0.957-3.828-3.229-4.186c-0.358,0-3.109,0.599-2.87-1.076
	c0.12-1.077,1.793-4.425,0.717-5.742c-0.359-0.358-2.99,0.958-3.35-0.358c-0.12-0.239,0.718,0,0.838-0.239
	c0.239-0.239-0.838-0.717-0.598-0.717c1.195-0.358,3.229,0.837,3.587-1.555c0-0.239-2.75-3.229-2.99-3.708
	C43.712,1.794,43.593,0.838,43.593,0c0.837,0.12,2.272,0,2.631,0c1.554,0.239,3.109,1.077,4.665,1.316
	c-0.119,0.358-0.119,0.478,0.12,0.358c0.478-0.358,0.717-0.956,1.195-1.076c0.239,0-0.119,0.598,0,0.837
	c0.36,0.239,0.838,0.12,1.197,0.239c0.838,0.12,1.675,0.12,2.272,0.479c0.359,0.239,0.478,0.718,0.478,1.077
	c0,0.119-0.239,0-0.239,0c-0.239,0.119-0.717,0.358-0.479,0.478c0.12,0.239,0.717-0.239,0.837,0c0.359,0.598,0.239,1.315,0,1.914
	c-0.239,0.598-1.913,0.957-1.435,1.554c0.598,0.838,2.87-1.315,2.99-0.239c0.12,0.719-1.196,2.034-0.478,2.272
	c0.837,0.359,0.837-1.673,1.675-1.793c0.718-0.121,3.467,2.271,4.065,2.032c0.119,0,2.513-2.75,3.35-1.315
	c1.676,3.109-6.697,6.339-2.151,6.817c0.956,0.12,1.673-1.077,2.63-1.077c1.197,0.12-0.12,3.589,2.513,1.794
	c0.598-0.358,0.956-3.348,2.032-3.947c1.556-0.837,3.229-1.195,3.947,0.479c-0.12-0.36-0.239-0.958-0.12-1.077
	c0.718-0.837,1.674-1.195,2.274-1.914c0.717-0.836,0.836-2.153,1.554-2.989c0.239-0.239,1.793,0.358,3.229,0.836
	c0.598-0.12,1.195-0.239,1.435-0.239c0.837,0,0.358,1.675,0.837,2.392c0.358,0.479,1.195,0.239,1.554,0.719
	c0.72,0.598,1.079,2.272,2.154,2.153c0.837,0,1.793-0.599,2.752-0.36c0.358,0.12-0.48,0.719-0.48,1.077
	c0.119,0.957,0.48,1.914,0.839,2.87c0.359,0.958,1.555,1.316,2.511,1.675C94.662,17.583,95.141,17.702,95.499,17.583L95.499,17.583z
	 M84.616,8.373c0.239-1.076-0.239-2.392,0.12-3.469c0.358-1.076,3.947,2.033,3.229,0.958c-0.479-0.717-2.034-0.358-2.394-1.197
	c-0.119-0.717,0.959-1.315,1.438-1.913c0.478-0.36-0.358,1.435,0.119,1.554c0.837,0.239,1.674-0.12,2.391,0.12
	c0.718,0.239-0.956,1.196-0.717,1.914c0.239,0.837,1.314,0.957,1.674,1.794c0.238,0.239-1.315,1.435-3.228,1.914
	C86.29,10.406,85.453,8.971,84.616,8.373z"/>
</svg>
