<?xml version="1.0" encoding="utf-8"?>
<!-- Generator: Adobe Illustrator 16.0.0, SVG Export Plug-In . SVG Version: 6.00 Build 0)  -->
<!DOCTYPE svg PUBLIC "-//W3C//DTD SVG 1.1//EN" "http://www.w3.org/Graphics/SVG/1.1/DTD/svg11.dtd">
<svg version="1.1" id="Layer_1" xmlns="http://www.w3.org/2000/svg" xmlns:xlink="http://www.w3.org/1999/xlink" x="0px" y="0px"
	 width="120px" height="120px" viewBox="0 0 120 120" enable-background="new 0 0 120 120" xml:space="preserve">
<path id="gr" fill="#8F8F8F" d="M109.144,108.666c-1.458,2.778,1.19,0.926-0.265,5.03c-0.136,0.396-10.856,2.777-11.914,3.175
	c-0.794,0.267-8.205,3.706-9.001,3.045c-2.382-2.646,1.854-2.381-5.691-3.31c-7.675-0.927,1.854,0.929-4.633,0.929
	c-0.396,0-0.529-0.664-0.926-0.664c-0.794-0.133-1.72,0-2.646,0.132c-0.927,0.268-1.987,0.797-2.913,0.929
	c-1.984,0-1.19-2.517-1.059-3.31c0-1.059-0.396-2.249,0-3.178c1.455-4.101,2.781,0.531,3.707,0.929
	c0.926,0.396,1.984-0.133,2.91-0.532c0.661-0.265,1.059-1.984,1.59-1.455c0.662,0.529-1.59,1.059-1.325,1.723
	c0.132,0.661,1.325,0.265,1.987,0.529c0.661,0.265,1.19,1.19,1.984,1.322c0.661,0.133,1.19-0.396,1.852-0.661
	c1.325-0.396,2.252-1.458,3.442-1.854c1.455-0.397,2.913-0.265,4.368-0.529c0.926-0.265,0.132,0.794,0.926,0.926
	c1.455,0.399,2.913-0.794,4.501-0.661c0.396,0,0.661,0.796,1.058,0.661c0.662-0.132,3.046-2.116,4.236-1.852
	c0.265,0.132-1.984,2.913,1.19,3.839c0.661,0.265,0.661-1.19,1.19-1.588C106.495,109.46,106.098,113.034,109.144,108.666
	 M81.876,8.47c0.132-0.132,0.132-0.132,0.132-0.132l0,0h0.133l0,0l0,0l0,0l0,0l0,0l0,0l0,0l0,0l0,0l0,0l0,0l0,0l0,0l0,0l0,0l0,0l0,0
	l0,0l0,0c0.132,0,4.235-1.324,4.235-1.324C89.289,4.764,80.95,1.058,86.111,0l0,0l0,0l0,0c0,0,0,0,0.133,0l0,0l0,0l0,0l0,0l0,0
	h0.396l0,0c0.133,0,0.133,0,0.133,0l0,0h0.132l0,0l0,0l0,0c0.265,0,0.529,0,0.661,0.132l0,0c0.133,0,0.265,0,0.265,0l0,0
	c2.913,0.661,6.885,3.44,4.897,5.823c-1.455,1.589-2.91,0.793-3.439,3.441l1.059,3.839c-0.133,0.926-1.984,3.97-2.913,4.5
	l-0.133,1.455c-2.248-1.19,1.987-1.323-0.132-3.176c-1.059-0.795-5.294,1.059-6.617,0.926c-4.235-0.265-4.765-3.044-7.543,0.396
	c-0.664,0.795-1.325,1.457-2.119,1.986c-3.707,1.986-1.72-2.647-5.427-0.397c-1.455,0.926-0.396,3.176-3.31,4.5
	c-2.514,1.059-2.778-2.118-5.161,0.926c-0.926,1.192,0.663,1.058,1.06,1.324c1.191,0.662,1.059,2.647,2.117,3.706
	c0.265,0.264,0.795,0.132,1.323,0c0.133,0,0.265-0.132,0.397-0.397c0-0.265-0.529-0.794-0.133-0.794
	c0.529-0.132,0.529,1.059,1.062,1.191c1.455,0.396,4.497,0.926,5.026,2.912c1.062,3.839-3.439-1.721-3.439-1.721
	c-1.455-0.794-5.691-1.323-6.088,1.192c-0.397,1.589,3.043,1.058,4.102,2.118c0.796,0.793,0.664,3.44-0.265,3.044
	c-2.117-0.794-2.25-3.176-4.366-4.236c-0.53-0.132-1.06,0.132-1.588,0c-0.663,0-1.457-0.661-1.854-0.132
	c-3.044,3.31,5.823,4.236,5.162,5.426c-0.264,0.398-3.707,0.266-4.765,0c-0.397-0.132-1.323-4.367-1.323-4.367
	c-1.06-1.324-4.765-0.529-6.221-1.589c-2.78-2.118,0-1.721,0-4.368c0-0.529-1.456,0.927-2.25,1.589
	c-0.662,0.661-1.72,1.19-1.852,2.118c-0.132,0.662,1.19,0.794,1.323,1.455l-0.926,3.972c0.397,2.515,3.441,3.705,4.897,5.294
	l1.72,3.441c0.927,0.927,7.678,4.236,6.618,5.825c-0.265,0.397-5.426-2.25-5.823-2.118c-0.398,0,0,0.793,0,1.19
	c-0.266,0.927-1.721,2.912-0.795,2.779c0.265-0.132,0.132-0.793,0.396-0.662c0.398,0.132,0.265,0.794,0.663,1.06
	c0.926,0.661,3.837,0.661,1.589,2.647c-1.854,1.587-3.707,1.72-6.222,2.779c-0.397,0.132,0.793,0.529,1.192,0.397
	c0.397-0.132,0.662-0.795,1.19-0.795c0.529,0,0.529,0.795,0.926,1.06c0.265,0.132,0.529-0.132,0.793-0.265
	c1.06,0,2.12-0.265,3.045,0.132c0.794,0.265,0.662,1.587,1.455,1.723c0.928,0.264,1.854-1.193,2.648-0.797
	c0.794,0.396-0.132,2.12,0.662,2.517c1.058,0.661,2.382-1.191,3.307-0.529c0.529,0.265,0,2.381,2.119,2.513
	c2.646,0.133,3.439-0.793,5.295,1.323c1.455,1.59-0.794,0.929-0.794,1.854c0,0.662,0.794,1.059,0.926,1.588
	c0.265,0.661-0.132,1.455,0.133,1.987c0.661,1.19,2.381,1.72,0.926,3.969c-0.265,0.396-0.794,0.132-1.19,0
	c-0.265-0.265,0-0.662-0.133-0.927c-0.132-0.265-1.723-1.322-1.854-1.322c-0.265-0.133-0.396,0.528-0.661,0.396
	c-0.926-0.661-2.382-3.31-3.707-3.707c-1.72-0.529-0.794,1.458-1.72,1.723c-1.588,0.529-6.088,1.853-5.691,2.514
	c0.397,0.926,1.986,0.529,2.913,0.926c0.397,0.133-0.795,0.397-0.795,0.794s0.663,0.396,0.795,0.664
	c0.265,0.529-0.132,1.323,0.265,1.72c1.455,1.455,3.969,0.661,5.294,2.249c0.794,0.929-2.119,1.193-3.31,1.193
	c-1.852,0.132-3.308,0-3.837-0.133c-0.396-0.132-0.132-0.796-0.396-1.193c-0.132-0.132-0.531-0.132-0.663-0.132
	c-1.058,0-2.513-0.794-3.176,0c-1.058,1.458,3.309,4.765,3.839,5.691c0.132,0.531-0.265,1.061-0.132,1.457
	c0.264,0.397,1.058,0,1.323,0.397c0.53,0.926,2.118,3.839,2.647,5.029s-1.058,0.397-1.058,0.794s0.529,0.529,0.661,0.794
	c0,0.265-0.529,0.661-0.396,0.926c0.132,0.265,3.175,1.987,2.91,3.045c-0.265,0.397-1.19,0.397-1.72,0.265
	c-0.396-0.265-0.264-1.058-0.661-1.322c-0.265-0.265-0.793,0.396-1.19,0.132c-2.25-1.723-3.178-7.017-6.486-2.384
	c-0.132,0.265,0.132,3.046,0.397,4.633c0.134,0.396,0.134,1.323-0.265,1.19c-3.309-0.396-1.19-3.704-2.25-5.162
	c-0.132-0.132-0.529,0-0.662-0.132c-0.793-0.794-1.19-1.72-1.854-2.646c-0.396-0.662-0.661-1.855-1.455-1.987
	c-6.354-1.455-0.663,4.633-2.912,5.693c-3.839,1.72-2.781-2.648-2.913-3.574c0-0.265-0.397-0.265-0.529-0.265
	c-1.19,0.133-1.852-1.455-2.116-2.913c-0.266-1.984,1.323,0.265,1.587-2.777c0.132-2.12-3.309-4.766-5.03-5.295
	c-0.397-0.132-0.794,0.794-1.058,0.397c-0.529-0.662,0-1.855-0.662-2.517c-0.795-0.794-4.368,0.265-2.516-2.249
	c0.132-0.132,0.663,0.133,0.795-0.132c2.118-1.458,1.059-2.648,1.721-5.162c0-0.265,0.265,0.529,0.529,0.529
	c0.132,0-0.265-0.529-0.132-0.529c1.323,0,2.646,1.323,3.705,0.265c1.457-1.455-0.529-1.59,2.118-3.31
	c1.852-1.191,3.176,0.793,4.633,1.322c2.117,0.797,4.633,0.532,6.882,1.193c1.324,0.265,2.118,1.853,3.442,1.984
	c0.529,0.132,1.587-0.529,1.455-1.19c-0.264-0.529-1.72,0.132-1.984-0.529c-1.324-3.045,3.308,1.455,4.897-2.913
	c0.132-0.396-0.927,0.265-1.457,0c-0.264-0.132,0-0.794-0.264-0.794c-0.266,0-0.398,1.588-1.06,0.794
	c-1.058-1.323-1.852,0.529-3.573-0.265c-0.928-0.529-1.192-2.116-2.25-2.249c-0.662-0.132-0.265,1.984-1.058,1.984
	c-2.383-0.132-0.795-5.559-2.516-2.514c-0.265,0.529,0.663,1.588,0.133,1.984c-0.927,0.927-5.162-0.793-6.089-0.396
	c-1.72,0.661-3.044,2.249-5.559,2.91c-1.455,0.399-1.852-1.852-2.647-2.249c-0.397-0.132,0.132,0.927-0.132,1.19
	c-0.529,0.794-1.457,1.458-2.25,1.855c-0.265,0.132-0.132-0.532-0.265-0.532c-1.455-0.661,0-1.852-0.926-3.307
	c-0.529-0.794-1.192-1.588-1.986-2.12c-0.265-0.132-0.661,0.397-0.795,0.133c-0.662-0.529-0.397-1.72-1.059-2.117
	c-1.323-0.926-3.705,2.648-1.719-2.248c-0.265-0.133-0.531-0.265-0.928-0.533c-0.397-0.396-0.132-1.058-0.397-1.455
	c-1.457-1.854-5.162-3.575-6.75-4.897c-0.529-0.265,0.265-1.589-0.132-1.985c-0.397-0.397-2.381,1.06-3.706-2.118
	c0.132-0.132,0.132-0.132,0.265-0.265s-0.132-0.265,0-0.265c2.25-0.396,3.706,1.457,3.573-1.985c0-0.794,1.854,0.398,1.457-0.794
	l-1.721-2.647c0.132-0.926,4.236-2.25,4.5-2.647c0-0.132,0.794-5.427,0.794-5.427c0.927-3.575,1.721,0.794,3.045-4.236
	c0.396-1.587-1.457-2.118-1.457-3.838c0.927,0.132,9.794-2.647,10.324-3.045c1.457-1.587,0.397-3.705,3.044-4.631
	c0.926-0.396,6.089,0.265,6.883-0.265c0.397-0.266,0.265-1.06,0.662-1.324c0.265-0.132,0.663,0.662,0.927,0.397
	c1.587-1.058-1.985-3.176,2.249-3.97l0,0c-0.132,0.132,0,0.396,0,0.396c0.132-0.264,0.132-1.06,0.132-2.118c0,0.661,0,1.323,0,1.721
	h-0.132c0.53,0,1.192,0,1.721,0c0.53,0,1.192,0.396,1.589,0c0.529-0.265,0.529-1.324,1.058-1.589
	c1.457-0.926,3.442-0.397,5.03-0.926c3.707-1.324,4.633-2.913,7.014-4.368c0.396-0.265,1.061,0.794,1.59,0.529
	c0.794-0.132,1.19-1.455,1.984-1.19c1.059,0.132,1.323,1.587,2.249,2.118c0.132,0.265,0.532-0.266,0.797-0.134
	c0.396,0.134,0.661,1.06,1.058,0.928c0.529-0.132,0.529-1.192,1.059-1.324c1.455-0.397,3.178,0.396,4.5,1.06
	c0.265,0.132,0,0.793,0.397,0.793C77.11,11.382,80.023,9.132,81.876,8.47L81.876,8.47L81.876,8.47L81.876,8.47z M28.007,59.693
	c1.587-2.912-2.382,0.265-2.515,0.132c-0.928-0.397-1.721-2.118-2.515-1.589c-0.265,0,0.662,1.985,0.529,2.779
	C24.83,61.016,27.213,61.016,28.007,59.693L28.007,59.693z M25.757,75.443c-1.06,0.929-1.457-0.397-2.382-0.529
	c-0.529,0-1.058,0.661-1.589,0.529c-0.926-0.265-0.529-3.308-1.323-2.646c-0.398,0.265,0.265,1.19,0,1.72
	c-1.06,2.252-1.721-1.587,1.19-5.426c0.397,0.661,0.928,1.322,1.192,2.116c0,0.135-0.396,1.325,0.265,1.458
	C23.771,72.797,27.213,74.252,25.757,75.443L25.757,75.443z M71.022,64.193c-0.661-0.794-1.587-1.455-2.646-1.853
	c-1.59-0.529-3.839,1.984-5.562,0.265c-0.265-0.396,0.532-0.926,0.268-1.322c-0.399-1.193-8.208-4.899-9.663-4.634
	c-0.795,0.265-1.192,1.19-1.853,1.587c-0.397,0.132,0.265-0.794,0.529-1.059c0.397-0.396,0.928-0.793,1.324-1.192
	c0.529-0.529,0.926-0.926,1.456-1.323c0.793-0.529,1.588-0.926,2.382-1.323c2.25,1.19,1.986,2.381,4.234,3.573
	c0.397,0.264,0.927,0.396,1.458,0.396c0.265,0,0.397-0.529,0.662-0.396c0.661,0.264,1.19,1.058,1.984,1.323
	c0.793,0.132,3.574-1.455,4.104-0.529c0.132,0.132-0.133,0.265-0.133,0.397c-0.132,0.132-0.265,0.397-0.132,0.53
	c0.529,0.529,1.455,0.529,1.852,1.191c0,0.132-0.265,4.104,1.059,5.029c1.458,1.059,7.413-0.926,5.029,3.045
	c-1.322,2.117-4.897-0.528-5.69-1.455c-0.133-0.267,0.396-0.399,0.396-0.664c-0.133-0.396-0.529-0.794-0.926-1.058
	c-0.265,0-0.529,0.661-0.662,0.396C70.493,64.854,71.287,64.458,71.022,64.193L71.022,64.193z"/>
</svg>
