<?xml version="1.0" encoding="utf-8"?>
<!-- Generator: Adobe Illustrator 16.0.0, SVG Export Plug-In . SVG Version: 6.00 Build 0)  -->
<!DOCTYPE svg PUBLIC "-//W3C//DTD SVG 1.1//EN" "http://www.w3.org/Graphics/SVG/1.1/DTD/svg11.dtd">
<svg version="1.1" id="Layer_1" xmlns="http://www.w3.org/2000/svg" xmlns:xlink="http://www.w3.org/1999/xlink" x="0px" y="0px"
	 width="120px" height="120px" viewBox="0 0 120 120" enable-background="new 0 0 120 120" xml:space="preserve">
<path id="hu" fill="#8F8F8F" d="M3.3,76.706L3.3,76.706L3.3,76.706L3.3,76.706c0.824,0,2.473,6.394,6.803,9.896
	c5.566,4.538,10.31,7.011,14.64,12.579c0.618,0.824,4.742,0.206,5.154,0.412c1.648,0.618,2.887,2.061,4.33,2.679
	c2.887,1.241,11.959,1.031,14.64-1.236c0.412-0.412,0.618-3.297,2.063-3.297c3.916-0.618,3.297,0.206,6.803-3.714
	c0.618-0.618,1.444,1.442,3.3,0c1.854-1.442,3.091-3.915,5.358-5.151c4.744-3.096,0.828,0,4.331,0.206
	c0.206,0,5.568-1.653,5.775-1.653c1.03,0,2.061,1.035,3.091,1.035c0.412-0.206,0.618-1.035,1.03-1.241
	c1.236-0.412,7.423-1.03,7.835-2.473c0.412-0.824-2.679-1.854,1.03-2.474c1.447-0.206,2.89,1.237,4.126,0.825
	c3.916-1.443,2.679-8.866,3.71-11.133c0.412-0.622,1.446-0.622,1.858-1.241l2.267-7.217c0.412-1.03,1.031-1.854,1.031-2.885
	c0-0.412-1.031-0.412-1.031-0.825c0.206-1.855,2.474-7.627,3.504-9.278c0.412-0.412,1.446,0,1.446-0.618
	c1.03-3.918-0.416-6.805,4.122-11.135c1.442-1.648,3.091-0.618,5.362-1.442c2.267-1.031,2.473-4.124,4.121-5.774
	c-2.473-2.061,0.824-1.649-1.854-3.503c-0.412-0.208-1.03-0.621-1.648-0.621c-0.824,0.206-1.442,1.239-2.267,1.033
	c-1.241-0.827-1.447-2.887-2.684-3.711c-0.618-0.412-1.442,0.618-2.061,0.412c-3.302-1.239-0.206-3.505-4.95-3.711
	c0,1.648-3.092,1.648-4.74,2.061c-0.824,0.206-1.652,1.239-2.271,0.827c-3.916-1.239-0.825-5.156-5.977-5.362
	c-2.065,0-3.302,2.887-5.362,3.093c-3.503,0.618-8.041-3.093-11.133,0.824c-1.24,1.651-0.412,7.217-2.683,8.247
	c-0.824,0.206-2.062-0.618-2.886-0.206c-3.301,2.063,1.442,3.506-3.713,4.33c-1.649,0.206-5.358-4.33-7.008-1.443
	c-0.62,1.031,0.412,2.887-0.414,3.712c-2.267,2.267-8.66,0.824-11.547,2.887c-2.679,1.648,0.206,4.536,1.033,5.772
	c0.824,1.443-16.703,4.536-19.176,4.124c-3.918-0.825-6.805-6.185-10.517-6.599c-0.824-0.206-1.442,0-1.854,0.208l0,0
	c-2.887,1.236,0,7.833-0.206,8.66c-1.239,2.267-8.662-1.033-11.547,1.442c-1.236,1.03,4.948,0.618,5.154,4.124
	c0.413,4.123-3.093,1.03-4.536,3.917c-1.03,2.065,2.681,6.393,2.267,7.217c-1.855,3.096-3.503,3.714-7.215,7.836l0,0
	c0,0,0,0-0.207,0.206c0.413-0.206,0.619-0.412,1.031-0.412L3.3,76.706L3.3,76.706z"/>
</svg>
