<?xml version="1.0" encoding="utf-8"?>
<!-- Generator: Adobe Illustrator 16.0.0, SVG Export Plug-In . SVG Version: 6.00 Build 0)  -->
<!DOCTYPE svg PUBLIC "-//W3C//DTD SVG 1.1//EN" "http://www.w3.org/Graphics/SVG/1.1/DTD/svg11.dtd">
<svg version="1.1" id="Layer_1" xmlns="http://www.w3.org/2000/svg" xmlns:xlink="http://www.w3.org/1999/xlink" x="0px" y="0px"
	 width="120px" height="120px" viewBox="0 0 120 120" enable-background="new 0 0 120 120" xml:space="preserve">
<path id="ie" fill="#8F8F8F" d="M111.027,46.529c0.534,1.337,2.937,2.672,1.869,3.74c-1.068,1.602-4.277,0.267-5.879,1.334
	c-0.801,0.804,2.136,1.338,2.136,2.405c0.272,2.136-1.068,4.274-1.068,6.409c0.268,1.871,2.142,2.938,2.142,4.808
	c0,1.334-2.142,2.136-2.142,3.742c-0.267,1.068,1.875,2.136,1.341,3.204c-0.807,1.067-2.942-1.335-3.476-0.268
	c-0.802,1.068,1.334,2.136,1.602,3.471c0,0.534-0.534,1.067-0.534,1.602c0.267,3.477,1.335,5.611,0.267,9.082
	c-0.801,2.408-10.149,16.028-11.751,17.363c-0.534,0.534-1.869,0.801-2.136,1.869c-0.534,1.868,0.267,4.01,0,5.878
	c0,0.267-0.534,0.267-0.534,0c-0.801-1.868-1.335,0.534-4.004-0.534c-1.073-0.267-1.073-1.868-2.142-2.141
	c-1.868-0.534-7.741,2.408-9.082,0.807c-0.267-0.54,1.073-0.54,1.073-1.074c0.268-0.801-1.874,0.807-2.675,0.534
	c-4.004-0.267-5.339-2.402-9.082-1.067c-0.534,0.267,1.073,1.34,1.073,2.141c-0.272,1.335-5.077,2.403-5.077,2.403
	c-1.068,0-1.602-1.603-2.671-1.335c-1.869,0.801-2.67,3.203-4.274,4.271c-5.609,2.937-2.136-5.072-7.21-4.271
	c-1.602,0.267,1.335,3.203,0.801,4.538c-0.801,1.067-2.672,1.067-4.007,1.868c-0.801,0.534-1.335,2.142-2.403,2.408
	c-0.534,0-0.267-1.073-0.804-1.34c-0.534-0.534-1.334-1.068-2.135-0.801c-0.534,0.534,0,2.141-0.801,2.408
	c-2.669,0.267-7.48-2.942-9.082-2.676c-2.136,0.268-3.738,1.875-5.609,2.142c-5.342,0.534,2.939-3.743-1.335-2.942
	c-1.604,0.534-8.014,1.335-8.548,0.801c-1.068-1.602,9.082-4.538,10.149-6.94c0.267-0.534-0.801-0.534-1.334-0.801
	c-0.267-0.534-6.41,0.801-14.157,0c-0.267,0,0.534-0.267,4.007-1.341c0.534,0,1.068-0.267,1.068-0.801
	c0-0.267-0.801-0.533-0.534-0.801c2.406-2.136,1.335,1.335,4.541,0c1.602-0.533,6.143-0.801,5.075-2.136
	c-0.267-0.267-12.288,1.335-12.822,1.335c-2.402-0.533-4.271-4.271-4.004-6.94c0.267-1.073,2.403,1.067,3.204,0.534
	c0.801-0.534-0.534-1.341-0.534-2.142c0.534-2.402,4.808-1.067,7.213-1.602c1.869-0.268,4.271,0,5.609-1.335
	c1.068-0.801-2.672-2.67-4.007-1.868c-0.267,0.533,0.534,1.602,0,1.868c-0.267,0.267-8.281-3.737-9.883-5.873
	c-0.267-0.534,1.602,0.801,2.135,0.534c0.534-0.268,0-1.341,0.534-1.607c1.337-0.801,5.078-0.534,6.946-0.267
	c2.402,0,4.007,2.408,6.143,3.476s-4.007-4.276-2.939-6.412c0.803-1.869,4.007-0.534,5.878-1.335
	c1.068-0.534,1.068-2.136,2.136-2.402c0.267,0,17.36,2.937,19.231,1.868c1.335-0.801-3.473-0.534-4.274-1.868
	c-0.267-0.801,0.801-2.136,0.534-2.942c-0.267-0.534-5.609,4.811-8.281,4.544c-0.534-0.268,1.604-1.602,0.804-1.869
	c-0.804-0.267-1.872,0.801-2.939,0.534s-1.869-1.067-2.405-1.869c-0.267-0.533,0.267-1.073,0-1.34c0,0-7.745,1.607-8.812,1.073
	c-0.801-0.267,1.869,0,2.67-0.267c2.138-1.073,3.74-2.408,5.875-3.209c0.534-0.534,1.604,0.267,2.139,0
	c1.067-1.068,1.334-2.937,2.669-4.271c0.537-0.534,1.337-0.801,2.138-1.068c0.534-0.533-1.869,0-2.405-0.801
	c-1.068-1.334,2.405-2.408,3.473-3.476c0.801-1.067,1.335-2.402,2.669-2.67c0.804-0.267,1.071,1.869,1.872,1.603
	c2.136,0,4.274-0.802,6.143-1.869c0.534-0.267-2.135,0.267-2.135-0.535c0-0.801,1.869-0.534,1.869-1.335
	c-0.267-0.801-5.609,0.267-11.485-1.335c-5.609-1.602,0-1.334-1.334-5.875c-1.338-4.808-8.815-1.335-10.954-4.541
	c-5.876-7.747,5.075-4.541,5.342-4.541c0.267-0.267-1.068-1.068-0.801-1.334c1.068-1.872,2.405-3.74,4.541-4.274
	c1.872-0.534,4.007,1.068,6.143,1.068c0.534,0,1.071-0.267,1.337-0.801c3.471-8.281-6.412-2.136-6.946-4.541
	c-0.534-1.068,2.406,0,3.207-0.801c1.602-1.068-1.068-3.74-1.335-4.007c0-1.869,2.403-4.274,1.068-5.875
	c-1.068-1.068-3.206,2.939-4.274,1.869c-1.068-1.068,1.602-2.403,2.138-3.737c0.267-1.071-2.405-0.801,0-1.338
	c2.403-0.534,14.955-0.534,16.292,2.939c0.801,1.869-0.27,4.808,1.335,5.342c1.602,0.534,1.602-2.672,2.939-3.473
	c2.402-1.334,9.345,6.68,9.611,5.876c0.807-1.869-1.868-4.004-1.602-6.143c0.534-2.402,8.548-1.602,8.548-1.869
	c2.136-0.801,3.737-2.405,5.078-4.007c0.801-1.068-4.01,0-4.01-0.534c-0.801-2.939,0,1.068-3.471,0.801
	c-0.534,0,0.267-1.068,0.267-1.602c0-0.267,0-0.801-0.267-0.801c-1.067-0.534-6.412-0.801-5.611-4.007
	c1.602-5.342,6.946,0.534,8.548,0c1.067-0.534-3.203-2.136-2.402-3.207c1.067-1.068,3.203,1.068,4.538,0.801
	c1.34-0.267-1.068-2.135-1.869-2.937c-0.533-0.534,1.869-0.534,2.136-1.334c1.073-4.541-10.417,0,3.477-6.413
	c0.801-0.267,1.868,0.534,2.937,0.801c3.737,1.071,8.014,0.804,11.217,2.939c1.869,1.335-4.805,4.007-3.737,5.876
	c1.068,1.067,3.204-0.801,4.538-2.136C95.8,7,94.465,4.595,95.533,4.595c1.602,0.534,2.669,2.672,3.743,4.007l0,0
	c-5.879,0-4.277,6.676-8.549,9.349c-0.801,0.534-7.747-1.604-7.213,0c0.267,1.602,3.737,2.403,3.203,4.007
	c0,0-10.417,2.669-10.684,2.669c-1.067,1.335,9.349,15.225,13.359,14.958c12.285-1.067-2.408-6.41,9.076-8.014
	c2.941-0.534,1.607,5.879,2.941,8.548c0.534,1.068,3.204,0.534,2.937,2.405c-0.533,1.335-2.402,3.737-1.067,4.004
	c9.082,3.206,3.471-2.937,7.48-0.534l1.067,1.335C111.562,47.062,111.294,46.796,111.027,46.529L111.027,46.529z"/>
</svg>
