<?xml version="1.0" encoding="utf-8"?>
<!-- Generator: Adobe Illustrator 16.0.0, SVG Export Plug-In . SVG Version: 6.00 Build 0)  -->
<!DOCTYPE svg PUBLIC "-//W3C//DTD SVG 1.1//EN" "http://www.w3.org/Graphics/SVG/1.1/DTD/svg11.dtd">
<svg version="1.1" id="Layer_1" xmlns="http://www.w3.org/2000/svg" xmlns:xlink="http://www.w3.org/1999/xlink" x="0px" y="0px"
	 width="120px" height="120px" viewBox="0 0 120 120" enable-background="new 0 0 120 120" xml:space="preserve">
<path id="lt" fill="#8F8F8F" d="M45.443,94.615c0.55-0.547,0.55-1.642,1.371-1.915c4.107-1.368,2.189,2.188,4.928,3.283
	c7.664,3.283,4.654-2.736,9.583,4.378c1.642,2.194,0,5.204,1.642,6.299c3.284,2.188,11.225-2.188,13.413-3.283
	c2.189-0.821,3.283,4.104,5.752,1.915c1.642-1.095,1.915-3.83,3.557-4.931c1.368-0.821,3.01,0,4.378-0.273
	c1.368-0.548-2.462-3.558-1.368-4.651c1.368-1.642,4.11-1.095,6.025-1.916c4.378-2.462-1.642-2.188,1.368-5.204
	c0.821-1.095,7.12-4.104,7.667-0.547c0.273,0.82-1.095,1.368-1.095,2.188c-0.273,2.469,5.199,0.553,5.746-0.82
	c2.463-6.02-6.02-4.378-6.02-5.473c-0.273-1.095,2.463-8.762,2.463-9.035l-2.463-7.667c0-0.273,1.095-0.273,1.095-0.82
	c3.283-10.128,0.82,0.547,6.02-7.663c1.368-1.645,0-4.381,1.095-6.299c1.368-1.916,5.478,0.824,7.119-1.095
	c0.821-1.094-0.273-2.736,0-3.833c0.548-0.821,1.915-0.821,2.189-1.642c1.094-3.833-7.94,1.095-7.667-1.368
	c0.273-4.107,2.194-7.667,0.553-11.771v-0.273c-0.826,0.273-1.647,0.273-2.469,0.273c-6.293-1.097-14.507-11.227-19.711-12.595
	c-3.558-1.095-7.114,1.094-10.677,1.094c-3.558,0-4.652-8.758-7.388-8.211c-3.289,0.547-3.289,5.202-4.931,7.117
	c-2.189,3.286-2.189-0.821-4.652-0.274c-1.367,0.274-1.915,2.192-3.287,2.465c-0.274,0.274-8.485-1.918-8.759-1.645
	c-1.645,0-2.465,1.645-4.107,1.918c-3.013,0.273-4.107-2.465-6.57,0c-0.821,0.821-0.547,2.189-1.368,2.736
	c-1.097,1.368-2.191-3.283-4.11-3.557c-1.094,0-1.915,2.189-3.01,2.462c-1.915,0.547-10.677,0-12.592,0.547
	c-3.287,0.821-12.048,6.296-14.237,9.035c-1.094,1.642-0.821,4.107-1.918,5.749C2.189,40.136,1.094,39.862,0,39.862
	c0.273,0.547,0.273,0.821,0.547,1.094c1.916,7.12-1.368,2.739,1.368,9.583c0.274,0.547,0.547,1.094,1.095,1.642
	c0.55,1.097,1.097,1.918,1.645,2.739c1.368,1.916,2.465,4.108,2.739,6.297c0.274,1.642-0.824,3.283-0.55,4.926
	c0.276,0.547,0.55-1.368,1.097-1.368c1.095-0.274,1.095,1.915,1.368,2.735c0,0.548,0,0.821,0,1.095
	c0.821-0.273,1.094-1.368,1.915-1.368c0.821,0.273,0.821,1.642,1.642,2.195c3.286,1.915,8.761,1.642,12.321,2.735
	c0.547,0.274-0.274,1.095,0.273,1.095c4.107,0,7.938-3.557,11.771-2.462c1.095,0.273,0.547,2.462,1.645,3.283
	c0.274,0.273,1.095-0.548,1.642-0.273c1.094,0.547,2.189,1.367,3.01,2.462c1.642,2.736-4.104,10.13,1.918,18.344H45.443z
	 M3.01,52.181c-0.274,0.273-0.274,0.547-0.274,0.547c-0.821,2.191,1.098,4.38,1.371,6.574c0.273,2.736-0.273,5.746-1.371,9.029H3.01
	c0.824-1.642,1.097-3.283,1.371-5.473c0-1.094,0.274-4.929,0.274-7.939C4.654,51.36,4.38,48.897,3.01,52.181z"/>
</svg>
