<?xml version="1.0" encoding="utf-8"?>
<!-- Generator: Adobe Illustrator 16.0.0, SVG Export Plug-In . SVG Version: 6.00 Build 0)  -->
<!DOCTYPE svg PUBLIC "-//W3C//DTD SVG 1.1//EN" "http://www.w3.org/Graphics/SVG/1.1/DTD/svg11.dtd">
<svg version="1.1" id="Layer_1" xmlns="http://www.w3.org/2000/svg" xmlns:xlink="http://www.w3.org/1999/xlink" x="0px" y="0px"
	 width="120px" height="120px" viewBox="0 0 120 120" enable-background="new 0 0 120 120" xml:space="preserve">
<path id="lv" fill="#8F8F8F" d="M3.774,96.177c0.916,0,1.832,0.229,2.518-0.458c0.918-1.374,0.689-3.439,1.605-4.813
	c1.834-2.289,9.163-6.873,11.913-7.56c1.603-0.458,8.934,0,10.537-0.458c0.916-0.229,1.603-2.061,2.519-2.061
	c1.605,0.229,2.521,4.121,3.439,2.977c0.687-0.458,0.458-1.603,1.145-2.29c2.061-2.061,2.977,0.229,5.498,0
	c1.374-0.229,2.063-1.603,3.437-1.603c0.229-0.229,7.1,1.603,7.332,1.374c1.145-0.229,1.603-1.832,2.747-2.061
	c2.061-0.458,2.061,2.977,3.895,0.229c1.372-1.603,1.372-5.499,4.125-5.957c2.289-0.458,3.205,6.873,6.182,6.873
	c2.98,0,5.957-1.832,8.934-0.916c4.354,1.145,11.229,9.621,16.494,10.537c5.729,0.915,5.958-7.789,9.392-7.561
	c1.149,0,1.837,1.374,2.753,1.374c0.687,0,0.229-1.603,0.687-1.832c1.374-0.458,3.205,0.916,4.35,0c0,0,1.146-6.873,1.604-7.561
	c0.458-1.373,4.812-4.808,4.812-5.036c1.831-6.645-4.812-12.831-8.705-16.039c-1.603-1.145,1.603-3.205-1.603-3.666
	c-1.145-0.229-2.061,1.605-3.21,1.376c-0.458,0,0-0.687,0-1.147c0-0.229,0.229-0.687,0.229-0.916c0-1.603,0.463-3.205,0.233-4.81
	c-0.233-0.687-1.836-0.458-1.836-1.145c0-2.979,5.5-4.811-2.061-7.56c-0.916-0.229-2.29-0.229-2.977-0.916
	c-0.687-0.916,0.458-2.521-0.458-2.979c-0.916-0.687-1.836,0.458-2.98,0.687c-0.229,1.147-7.098-1.374-8.019-1.145
	c0,0-4.351,4.811-4.579,4.811c-1.603,0.229-8.934-4.582-9.85-5.956c-0.458-0.458,0.458-1.832-0.229-2.063
	c-1.373-0.458-2.752,0.918-4.126,0.46c-0.687-0.229-0.458-1.605-1.145-1.834c-0.687,0-1.374,1.376-2.061,1.145
	c-1.374-0.458-3.893-3.893-5.956-3.893c-0.458,0,0,0.687,0,1.145c0,0.229,0.228,0.229,0.228,0.458
	c0.687,2.979-1.833-1.374-3.207-0.458c-2.061,1.603-9.163,8.247-10.995,8.705l-0.458-0.229c0.229,0.458,0.229,1.145,0.229,1.832
	c0.916,4.811,6.871,11.455,5.498,16.723c-0.687,3.208-6.184,9.852-9.621,10.31c-1.376,0.229-2.292-1.145-3.437-1.375
	c-2.29-0.687-2.748,0.917-4.124-1.374c-1.603-2.292-1.603-5.5-3.666-7.331c-2.061-2.063-6.871-2.979-9.163-5.04
	c-1.374-1.145,0-4.124-1.374-4.81c-2.061-0.916-3.666,2.289-5.5,3.437c-2.29,1.832-5.495,2.29-7.558,4.582
	c-5.498,5.726-0.687,12.37-2.75,18.099c-0.687,2.289-3.663,3.205-4.353,5.495c-0.458,1.373,0.689,2.752,0.689,4.354
	s-0.689,3.205-0.229,4.579c0,0.229,0.229,0.458,0.458,0.458l0,0C-1.266,86.098,2.4,92.967,3.774,96.177z"/>
</svg>
