<?xml version="1.0" encoding="utf-8"?>
<!-- Generator: Adobe Illustrator 16.0.0, SVG Export Plug-In . SVG Version: 6.00 Build 0)  -->
<!DOCTYPE svg PUBLIC "-//W3C//DTD SVG 1.1//EN" "http://www.w3.org/Graphics/SVG/1.1/DTD/svg11.dtd">
<svg version="1.1" id="Layer_1" xmlns="http://www.w3.org/2000/svg" xmlns:xlink="http://www.w3.org/1999/xlink" x="0px" y="0px"
	 width="120px" height="120px" viewBox="0 0 120 120" enable-background="new 0 0 120 120" xml:space="preserve">
<path id="lu" fill="#8F8F8F" d="M81.088,119.798c-6.346-2.538-13.967-6.346-21.594-6.346c-6.345,0-12.69,6.346-20.318,6.346
	c-1.269,1.269,0-3.808-1.269-5.076c-5.077-2.539-10.153-5.077-16.498-7.642l1.269-5.076c27.933,2.538-10.166-46.976-6.359-58.397
	c5.09-13.973,30.485-60.956,44.445-36.83c-1.27,6.358-2.539,12.704,0,22.857c6.358,26.664,36.823,29.202,39.361,33.029
	C117.917,84.236,67.121,94.39,81.088,119.798L81.088,119.798z"/>
</svg>
