<?xml version="1.0" encoding="utf-8"?>
<!-- Generator: Adobe Illustrator 16.0.0, SVG Export Plug-In . SVG Version: 6.00 Build 0)  -->
<!DOCTYPE svg PUBLIC "-//W3C//DTD SVG 1.1//EN" "http://www.w3.org/Graphics/SVG/1.1/DTD/svg11.dtd">
<svg version="1.1" id="Layer_1" xmlns="http://www.w3.org/2000/svg" xmlns:xlink="http://www.w3.org/1999/xlink" x="0px" y="0px"
	 width="120px" height="120px" viewBox="0 0 120 120" enable-background="new 0 0 120 120" xml:space="preserve">
<path id="nl" fill="#8F8F8F" d="M64.308,15.672l-6.704,4.077c-2.368,0.677-5.078-0.338-7.446-0.338c-1.015,0-2.03-0.677-2.372-0.338
	c-4.398,5.417-3.044,16.246-5.074,22c-2.03,5.078-6.093,10.833-9.818,14.892c-1.353,1.695-2.368,3.725-4.06,4.74
	c-1.015,0.679-3.386-0.676-3.725,0.679c-0.677,2.029,2.372,4.736,1.353,6.766c-3.383,5.42-13.877,2.714-11.506,4.066
	c2.707,1.691,4.736,4.06,7.785,5.413c1.353,0.338,2.707-1.691,3.721-1.354c1.357,0.339,3.725,2.368,2.71,3.383
	c-1.695,1.016-6.093-2.706-6.093-0.676c0.338,3.044,9.138,2.706,7.446,5.081c-5.078,6.766-9.817-5.758-11.847-6.097
	c-6.431-1.691-12.524-0.676-11.509,1.691c0,0.339,10.494,7.45,12.524,7.111c0.677,0,0.338-1.353,1.015-2.029
	c1.356-1.015,2.71,1.354,4.063,1.691c1.353,0.677,3.387-0.677,4.74,0.677c0.676,0.677,1.353,1.691,1.691,2.706
	c1.015,0.339,1.691,0.677,2.707,0.339c2.372,0-4.06-7.788,4.063-5.413c0.677,0-0.677,1.691-0.338,2.029
	c4.063,3.384,5.078-4.743,8.123-2.367c1.015,1.015-2.706,3.044-1.691,3.721c7.785,4.06,1.015-1.015,7.108-2.368
	c1.015-0.338,2.71,9.473,5.078,9.811c5.416,1.016,12.525,0.677,16.923,6.435c0.338,0.677-1.354,1.354-1.691,2.03
	c-0.677,2.029-2.368,3.722-2.707,5.758c0,0.677,1.691,0.339,1.354,1.016c-0.338,1.015-2.03,1.353-2.368,2.706
	c-2.375,8.457,3.383,6.089,8.796,6.428h0.338c-0.677-1.015-1.015-2.03-1.015-2.368c0.338-1.354,2.706-1.354,3.045-2.706
	c1.021-5.759-8.796-7.788-5.751-8.465c1.015-0.339,1.691,1.015,2.368,1.015l6.435-5.751c0.338-1.691-4.066,0.338-2.714-2.368
	c1.022-2.368,3.391-4.066,4.405-6.435c3.045-7.442-4.405-12.862-6.435-16.584c-0.339-0.677,0.338-1.691,0.677-2.368
	c0-0.676-0.677-1.691,0-2.029c1.698-1.015,3.728,0,5.758-0.677c0.677-0.338-0.677-2.375,0-2.037
	c2.029,0.677,3.383,3.052,5.751,3.052c2.368,0.339,11.509-2.713,12.524-5.081c1.015-2.368-6.428-2.707-3.384-4.736
	c5.413-3.724,11.848-5.08,10.495-13.541c-0.339-4.74-12.863-2.707-9.818-7.785c0.339-1.015,2.03,0,2.03-0.677
	c0.338-1.015-1.354-2.03-1.015-3.048c0-0.677,1.015-0.677,1.691-0.677c2.367,0,4.404,1.015,6.772,1.015
	c2.706,0,0.339-5.413,1.354-8.123c0.677-2.368,6.428-13.201,5.751-18.955c-6.766,3.387-7.442-9.138-13.201-10.491
	c-5.074-1.015-31.813,4.736-34.858,9.476c-1.698,2.034-2.375,4.063-3.729,5.755l0,0l-6.09,4.673 M4.801,87.108
	c-0.677,8.796,6.431,3.045,11.509,5.413c0.677,0.338-0.677,1.691,0,2.367c4.06,2.714,7.446-2.029,10.152-4.397
	c-1.691-1.691-3.721-3.045-4.398-3.383c-1.695-0.339-2.033,2.706-3.725,2.706c-5.755,0-2.03-3.383-8.799-4.397
	c-1.695-0.339-3.387-0.339-5.417,0.338L4.801,87.108z"/>
</svg>
