<?xml version="1.0" encoding="utf-8"?>
<!-- Generator: Adobe Illustrator 16.0.0, SVG Export Plug-In . SVG Version: 6.00 Build 0)  -->
<!DOCTYPE svg PUBLIC "-//W3C//DTD SVG 1.1//EN" "http://www.w3.org/Graphics/SVG/1.1/DTD/svg11.dtd">
<svg version="1.1" id="Layer_1" xmlns="http://www.w3.org/2000/svg" xmlns:xlink="http://www.w3.org/1999/xlink" x="0px" y="0px"
	 width="120px" height="120px" viewBox="0 0 120 120" enable-background="new 0 0 120 120" xml:space="preserve">
<path id="pt" fill="#8F8F8F" d="M53.572,117.131c0.36-7.534-1.433-8.784,4.485-13.988c1.073-0.892,0.894-2.866,1.97-3.408
	c0.358-0.174,9.145-0.358,6.992-3.941c-0.538-0.895-2.33,0.538-3.227,0c-0.894-0.718-0.717-2.15-1.074-3.229
	c-0.358-1.075-0.358-2.33-1.075-3.229c-0.183-0.358-1.258,0-1.258-0.358c0.541-1.25,1.797-2.147,2.333-3.407
	c1.074-2.147-1.973-0.533,1.074-3.047c2.688-2.148,6.275-1.79,6.634-6.454c0-0.358-3.407-2.688-4.124-4.125
	c-1.072-2.329,0.179-6.092,0.179-6.453c-0.179-0.184-3.047-5.736-3.047-5.915c-0.177-0.358,0.54,0.179,0.896,0.179
	c1.613,0.537,2.688,0.716,4.308,1.075c4.121,1.074,5.017,1.432,7.17-2.691c2.506-5.018-0.183-3.228-0.716-6.992
	c-0.541-3.406,5.018-1.794,5.195-4.304c0.181-1.79-1.79-0.179-0.717-2.329c0.181-0.358,0.897-0.358,1.075-0.897
	c0.538-1.254,0.538-2.509,0.717-3.765c0.184-1.432,1.258-2.87,1.08-4.301l-1.617-4.306c0.54-0.537,1.795,0.539,2.512,0.181
	l3.763-3.945c2.69-1.435,7.709-1.614,9.146-5.557c1.078-3.586-3.583-3.228-4.841-3.407c-0.897-0.179,0.716-6.992,0-7.352
	c-3.408-1.792-4.124-0.179-8.245-1.792c-0.717-0.358-0.539-2.152-2.155-1.077c-0.358,0.361,0.361,1.256,0,1.614
	c-2.507,2.153-5.196-0.358-5.912-0.537c-0.72-0.358-1.617,0.537-2.159,0.179c-0.358-0.179,1.081-0.537,0.722-0.895
	c-0.18-0.719-1.08-0.898-1.796-0.898c-1.074-0.179-2.329,0.179-3.404,0c-0.175-0.179,0.184-0.538,0.184-0.896
	c0-0.179,0.175-0.896,0-0.716c-0.898,0.179-3.052,2.689-4.664,1.613c-4.307-3.048,4.123-3.764,1.97-5.917
	c-0.357-0.358-1.071,0-1.436-0.358c-0.178-0.358,0.722-1.073,0.364-1.252C61.644-0.49,57.158,0.587,54.472,2.02
	c-0.358,1.795-4.843,2.689-3.768,4.304c0.719,0.896,2.868,0.537,3.229,1.613c0.361,0.897-1.972-0.179-2.51,0.539
	c-1.078,1.612-0.899,9.325-0.54,11.294c0,0.539,0.898,0.719,0.898,1.437c-0.179,3.046-1.437,4.838-2.69,7.35
	c-0.537,1.077-2.869,3.407-1.615,3.227c1.257-0.358,1.257-3.048,2.51-3.406c0.896-0.179,1.436,1.614,1.075,2.331
	c-0.896,1.255-3.406,0.718-4.301,2.153c-1.254,2.151-1.974,4.659-3.408,6.813c-0.537,0.895-1.613,1.434-1.435,2.331
	c0,0.895,1.614,1.253,1.973,2.151c0.179,0.358-0.896-1.077-1.434-0.719c-0.897,0.537-1.255,1.973-1.972,3.048
	c-1.795,2.868-3.766,6.458-5.917,8.966c-0.537,0.719-1.614,0.898-2.332,1.793c-0.179,0.178,0.897,0.715,0.539,0.895
	c-1.435,0.358-3.229-0.895-4.125,0c-0.895,0.899,0.717,2.332,0.358,3.407c-0.538,1.797-5.916,9.324-5.378,11.115
	c0.358,1.26,1.256,2.334,1.972,3.59c1.792,3.048,1.076,4.482,1.076,4.482c1.435,0.357,3.046,0.177,4.483,0
	c0.716,0,1.074-0.898,1.792-0.716c0.719,0,1.077,1.073,1.972,1.257c0.537,0.175,0.537-2.334,0.896-1.802
	c0.539,0.902-0.358,2.159,0,2.875c0.539,0.717,3.048,1.075,2.332,1.434c-4.841,2.328-1.974-3.764-5.917-3.229
	c-1.074,0.182,1.258,1.614,1.616,2.513c0.179,1.073,0,2.33-0.179,3.583c-0.36,2.33-3.409,4.483-3.409,6.275
	c0,0.72,1.076,1.259,1.076,1.976c0.179,1.256-1.795,3.581-0.537,3.94c0.358,0,1.611-0.536,1.253-0.179
	c-0.358,0.541-1.433,0.179-1.793,0.716c-0.897,1.795-0.359,3.95-1.255,5.739c-0.716,1.433-5.02,7.352-4.662,9.327
	c0.181,0.717,1.435-0.722,2.152-0.722c1.078-0.179,2.151,0.18,3.227,0c0.538,0,1.078-0.537,1.614-0.36
	c2.87,0.726,12.191,6.817,13.446,6.636c0.541,0,6.096-2.688,6.457-2.865c0.537,0,1.433,0,2.33,0H53.572z"/>
</svg>
