<?xml version="1.0" encoding="utf-8"?>
<!-- Generator: Adobe Illustrator 16.0.0, SVG Export Plug-In . SVG Version: 6.00 Build 0)  -->
<!DOCTYPE svg PUBLIC "-//W3C//DTD SVG 1.1//EN" "http://www.w3.org/Graphics/SVG/1.1/DTD/svg11.dtd">
<svg version="1.1" id="Layer_1" xmlns="http://www.w3.org/2000/svg" xmlns:xlink="http://www.w3.org/1999/xlink" x="0px" y="0px"
	 width="120px" height="120px" viewBox="0 0 120 120" enable-background="new 0 0 120 120" xml:space="preserve">
<path id="ro" fill="#8F8F8F" d="M111.917,89.794c-2.19,0.413-5.754,1.646-7.807-0.137c-0.685-0.548-0.822-2.465-1.644-2.054
	c-0.413,0.137-0.688,0.685-1.098,0.821c-3.286,1.782,1.098-0.958-2.465-0.821c-1.096,0-1.917,1.232-3.015,1.369
	c-2.328,0.273-0.411-3.013-6.575-0.685c-2.601,1.095-7.396,3.288-9.452,5.342c-2.328,2.331-2.738,5.206-5.753,7.126
	c-2.738,1.643-4.795,0.547-7.533,0.41c-2.193-0.137-4.521-0.273-6.576,0.411c-0.823,0.273-1.097,1.369-1.918,1.643
	c-3.836,1.369-8.356-0.821-12.192-0.41c-3.014,0.273-3.973,2.737-7.261,1.369c-2.329-0.959,2.876-3.974,1.645-4.521
	c-2.192-0.958-8.768-2.327-8.356-5.89c0.137-1.232,4.656-1.369,3.287-2.054c-14.521-7.263-1.506-0.685-7.397,2.738
	c-0.958,0.685-1.507-1.78-2.466-2.191c-0.685-0.41-1.643,0-2.328,0c-0.823,0-1.644,0.411-2.467,0.138
	c-0.411-0.274-0.137-0.959-0.411-1.507c-0.685-1.371-6.575,0.822-3.287-1.509c0.823-0.547,2.876-1.095,2.192-1.643
	c-0.685-0.411-2.055,0-2.329-0.821c-0.137-0.821,2.74-2.331,0.823-3.426c-2.604-1.506-7.81-0.821-9.59-3.971
	c-0.411-0.688-0.411-3.974-0.411-4.795c0-0.137,0-0.273,0-0.273c-0.411,0.137-0.686,0.958-0.96,0.685
	c-0.958-0.548-1.095-2.057-1.918-2.741c-0.821-0.548-2.054-0.411-2.875-1.096C0.958,70.892,0.548,69.933,0,69.248
	c0.274-0.137,0.411-0.687,0.685-0.824c0.822-0.273,4.932-0.685,5.206-1.643c0.274-0.548-1.781-1.232,0.685-1.643
	c0.96-0.138,1.918,0.821,2.74,0.547c2.603-0.958,1.781-5.891,2.466-7.398c0.274-0.411,0.96-0.411,1.234-0.821l1.506-4.795
	c0.274-0.685,0.685-1.232,0.685-1.917c0-0.274-0.685-0.274-0.685-0.549c0.137-1.232,1.645-5.068,2.329-6.164
	c0.274-0.273,0.959,0,0.959-0.411c0.685-2.603-0.273-4.521,2.738-7.397c0.96-1.095,2.055-0.411,3.563-0.958
	c1.506-0.685,1.643-2.74,2.739-3.836c0.411,0.274,1.234-0.274,2.192-2.876c0.137-0.274,0.137-0.685,0.411-0.685
	c0.411,0,3.835,1.645,4.247,1.645c0.274,0,0.411-0.686,0.685-0.823c1.78-0.685,6.301,1.097,8.493,0.548
	c1.234-0.411,2.055-1.506,3.288-1.643c2.192-0.137,3.699,2.74,5.206,3.15c2.055,0.685,2.739-3.15,3.289-3.698
	c2.464-2.603,8.766-2.329,10.686-4.247c3.696-3.562-1.646-0.548,0.958-3.972c0.685-0.823,1.78-1.507,2.876-1.781l0.137-0.411
	l0.548-1.234l0,0c-0.138,0.274-0.138,0.823-0.138,1.097c1.92-0.959,3.152-0.137,4.658,1.096c2.878,2.055,3.426,5.479,5.753,7.808
	c3.837,3.698,14.248,10.274,15.479,15.617c0.962,3.424-0.273,7.26,0.548,10.685c0.276,1.508,2.741,4.932,2.604,6.438
	c0,0.549-1.096,0.686-0.959,1.233c0.138,0.548,0.959,0.274,1.369,0.548c0.411,0.274,0.411,1.233,0.959,1.233
	c0.273,0.137,0.685-0.137,0.958,0.137c0.414,0.411,0.274,1.232,0.824,1.644c0.548,0.547,6.438,0.824,6.301,0.137
	c0-0.137-1.919-0.548-0.547-1.369c0.821-0.411,1.779-0.274,2.601-0.685c1.369-0.686,1.92-2.603,3.426-3.152
	c3.013-1.095,4.521,0,5.206,2.604c-0.138,0.137-0.548,0-0.548,0.137c0,0.412,0.273,0.685,0.548,0.822
	c0.273,0.138,0.547-0.41,0.685-0.137c0.273,0.548,0.41,5.206,0.41,5.753c-0.137,1.78-4.247,1.92-5.342,2.741
	c-0.685,0.548-0.685,2.465-1.507,2.328c-0.137-0.138,0.959-4.658-0.958-5.754c-0.688-0.273-1.509,0.822-1.92,1.507
	c-0.547,0.958,1.92,1.782,1.783,2.878c0,1.095-2.057,1.779-1.509,2.601c0.548,0.822,1.646-1.231,2.604-1.231
	c0.274-0.138-0.137,0.685-0.41,0.958c-0.137,0.137-0.274,0.273-0.548,0.411c0.137-0.138,0.273-0.138,0.411,0
	c0.821,0.685-2.468,6.026-2.468,6.166c0.137,0.959,1.369,5.754,2.057,10.135h-0.273H111.917z"/>
</svg>
