<?xml version="1.0" encoding="utf-8"?>
<!-- Generator: Adobe Illustrator 16.0.0, SVG Export Plug-In . SVG Version: 6.00 Build 0)  -->
<!DOCTYPE svg PUBLIC "-//W3C//DTD SVG 1.1//EN" "http://www.w3.org/Graphics/SVG/1.1/DTD/svg11.dtd">
<svg version="1.1" id="Layer_1" xmlns="http://www.w3.org/2000/svg" xmlns:xlink="http://www.w3.org/1999/xlink" x="0px" y="0px"
	 width="120px" height="120px" viewBox="0 0 120 120" enable-background="new 0 0 120 120" xml:space="preserve">
<path id="sk" fill="#8F8F8F" d="M119.976,35.028c0.249,2.499-1.498,5.993-1.747,8.491c-0.25,1.748,0,3.497-0.749,4.995
	c-0.754,1.747-3,2.247-3.25,3.996c-0.499,1.747,0.749,3.494,0.749,5.494c0,1.995-3.744,1.995-5.741,2.494
	c-0.998,0.25-2.002,1.503-2.75,1.004c-4.742-1.502-0.999-6.246-7.238-6.495c-2.501,0-3.999,3.497-6.495,3.747
	c-4.243,0.747-9.739-3.747-13.482,0.997c-1.503,2.001-0.5,8.74-3.25,9.988c-0.999,0.25-2.496-0.748-3.495-0.249
	c-3.998,2.501,1.748,4.248-4.497,5.246c-1.997,0.25-6.49-5.246-8.487-1.747c-0.751,1.248,0.499,3.494-0.502,4.493
	c-2.746,2.745-10.488,0.998-13.985,3.499c-3.245,1.997,0.25,5.491,1.25,6.989c0.999,1.747-20.23,5.496-23.225,4.997
	c-4.745-0.999-8.242-7.493-12.737-7.992c-0.999-0.25-1.747,0-2.247,0.249C5.1,81.979,2.604,78.729,0.354,74.984
	c-1.498-2.496,2.249-5.995,2-9.24C5.848,51.01,14.09,63.248,21.583,54.007c0.499-0.749-0.25-1.997,0.25-2.748
	c0.749-0.999,2.496-0.499,3.245-1.498c0,0,2-7.743,2-7.992c2.247-3.994,8.239-7.241,12.485-9.238
	c0.502,0.749,2.249-0.501,2.998,0.25c0.749,0.749-0.499,2.496,0.25,3.245c3.996,3.247,7.243-9.49,9.739-7.74
	c1.498,0.999,1.498,3.245,2.745,4.496c0.25,0.25,1.251-0.502,1.5-0.252c0.25,0.502-0.749,1.5-0.25,1.75
	c1.248,0.25,2.496-0.999,3.497-0.5c1.748,0.749,0.25,5.494,0.25,5.993c0,1.248,2.248-0.749,3.496-0.999
	c0.998-0.25,1.996,1.747,2.995,1.248c0.249-0.25,3.25-7.992,6.744-8.741c0.998-0.25,1.996,0.749,2.995,0.749
	c0.998-0.25,1.497-1.747,2.501-1.498c1.997,0.25,3.245,2.998,5.241,2.998c1.498,0,2.746-1.5,3.494-2.748
	c0.25-0.499-1.248-0.499-1.248-0.999c0.749-3.497,2.252,0,3.25-0.499c0.749-0.25,0.749-1.747,1.498-1.747
	c3.744-1.001,12.235-0.751,15.479,1.747c0.754,0.749,0.499,2.496,1.503,2.995c1.498,1.001,3.245,1.001,4.992,1.5
	C115.478,34.529,117.729,34.778,119.976,35.028L119.976,35.028z"/>
</svg>
