<?xml version="1.0" encoding="utf-8"?>
<!-- Generator: Adobe Illustrator 16.0.0, SVG Export Plug-In . SVG Version: 6.00 Build 0)  -->
<!DOCTYPE svg PUBLIC "-//W3C//DTD SVG 1.1//EN" "http://www.w3.org/Graphics/SVG/1.1/DTD/svg11.dtd">
<svg version="1.1" id="Layer_1" xmlns="http://www.w3.org/2000/svg" xmlns:xlink="http://www.w3.org/1999/xlink" x="0px" y="0px"
	 width="120px" height="120px" viewBox="0 0 120 120" enable-background="new 0 0 120 120" xml:space="preserve">
<path id="es" fill="#8F8F8F" d="M98.657,34.503c0.665,0.285,1.423,0.475,1.898,0.854c0.19,0.19,0.284,1.234,0.854,1.138
	c0.759-0.095,1.422-0.569,2.276-0.569c0.95,0,2.562,1.898,3.511,1.613c0.379-0.095,0-0.854,0.284-1.044
	c1.424-0.948,3.131-0.095,4.65,0.285h0.379c0.475,0.474,0.854,0.948,0.664,1.518c-0.189,0.76-1.422,0.569-1.898,1.043
	c-0.38,0.38,1.14,2.562,0.191,4.175c-0.476,1.044-4.556,2.657-5.693,3.131c-1.043,0.38-2.657,0.759-3.416,1.423
	c-0.568,0.38-1.422,1.803-2.277,1.993c-3.225,0.948-9.013,0.284-11.575,2.372c-0.663,0.569-1.991,1.044-1.801,1.897
	c0.283,0.665,1.706,0.57,1.612,1.234c0,0.284-2.943,0.948-3.132,1.043c-1.139,0.854-1.518,2.467-2.466,3.416
	c-2.657,2.753-6.168,5.408-7.874,8.92c-0.761,1.422,0.284,5.975,1.137,7.211c0.285,0.379,3.796,2.369,2.941,2.941
	c-0.665,0.568-2.277,0.758-2.941,1.232c-0.188,0.189-0.188,0.664-0.379,0.758c-0.188,0.191-0.474-0.094-0.664-0.094
	c-0.76,0.189-1.613,0.285-2.277,0.758c-0.284,0.285-0.095,0.951-0.474,1.234c-0.284,0.191-0.759-0.189-0.948,0
	c-0.381,0.475-0.096,1.234-0.381,1.613c-0.381,0.379-1.139,0-1.423,0.475c-0.38,0.568,0.189,1.424-0.095,1.992
	c-0.759,1.896-2.468-0.283-2.562,2.752c0,0.76,1.52,1.043,1.329,1.707c-0.284,0.664-1.329,0.568-2.088,0.475
	c-0.475,0-0.948-0.475-1.423-0.57c-1.993-0.568-4.364,0.379-6.072,1.518c-2.941,1.898-2.941,5.6-5.978,7.117
	c-1.138,0.666-1.518-2.467-4.364-1.707c-0.569,0.189-0.854,0.947-1.518,1.137c-0.854,0.285-2.846-1.326-3.7-1.422
	c-1.138-0.285-2.372,0.379-3.605,0.189c-0.664-0.189-1.043-0.758-1.708-0.949c-1.234-0.475-6.831-1.328-7.875-1.139
	c-1.139,0.285-1.708,1.709-2.752,2.184c-1.517,0.568-3.415-1.139-5.503-0.096c-1.707,0.854-1.517,1.611-2.372,2.848
	c-0.095,0.094-0.664-0.475-1.044-0.191c-0.569,0.475-1.043,1.234-1.802,1.518c-0.286,0.096-0.286-0.568-0.57-0.758
	c-0.379-0.285-0.949-0.379-1.232-0.664c-0.381-0.477-0.476-1.141-0.95-1.52c-0.285-0.283-0.853,0-1.139-0.283
	c-0.664-0.664-1.613-3.797-1.803-4.744c0-0.096,1.423,1.328,1.233,0.475c0-0.285-0.569,0-0.664-0.189s0.379-0.381,0.285-0.568
	c-0.285-1.615-1.708,0.283-1.613-2.469c0,0,3.7-1.707,2.847-1.896c-0.76-0.189-1.234,1.424-1.994,1.232
	c-0.664-0.094-0.379-1.232-0.664-1.803c-0.284-0.568-0.664-1.043-1.042-1.518l-2.562-2.467c0-0.096,0-0.096,0-0.189
	c-0.095,0.189-0.189,0.283-0.379,0.283c-0.569,0.096-0.854-0.664-1.329-0.949c-0.379-0.188-2.087-0.473-3.321-0.473
	c0.19-3.984-0.759-4.648,2.373-7.4c0.569-0.475,0.474-1.518,1.043-1.803c0.19-0.096,4.839-0.191,3.701-2.088
	c-0.285-0.473-1.233,0.285-1.708,0c-0.474-0.379-0.379-1.137-0.568-1.709c-0.19-0.568-0.19-1.232-0.569-1.705
	c-0.095-0.191-0.665,0-0.665-0.191c0.285-0.664,0.949-1.139,1.234-1.803c0.568-1.139-1.043-0.285,0.568-1.613
	c1.424-1.137,3.321-0.947,3.511-3.414c0-0.19-1.802-1.423-2.182-2.184C7.575,58.793,8.239,56.8,8.239,56.61
	c-0.095-0.095-1.613-3.036-1.613-3.13c-0.095-0.189,0.285,0.094,0.474,0.094c0.854,0.285,1.424,0.38,2.278,0.569
	c2.182,0.569,2.656,0.759,3.795-1.423c1.329-2.656-0.095-1.708-0.38-3.7c-0.284-1.803,2.657-0.949,2.751-2.277
	c0.095-0.948-0.948-0.095-0.379-1.234c0.094-0.19,0.474-0.19,0.569-0.474c0.285-0.664,0.285-1.329,0.38-1.992
	c0.095-0.759,0.664-1.518,0.569-2.277l-0.854-2.277c0.286-0.286,0.949,0.285,1.329,0.095l1.992-2.088
	c1.423-0.759,4.08-0.854,4.839-2.94c0.569-1.898-1.897-1.708-2.562-1.803c-0.474-0.095,0.38-3.7,0-3.89
	c-1.803-0.95-2.183-0.095-4.364-0.95c-0.379-0.189-0.285-1.138-1.139-0.568c-0.19,0.189,0.19,0.664,0,0.853
	c-1.328,1.139-2.751-0.189-3.131-0.285c-0.379-0.189-0.854,0.285-1.139,0.095c-0.189-0.095,0.569-0.285,0.379-0.474
	c-0.094-0.379-0.568-0.474-0.948-0.474c-0.57-0.095-1.234,0.095-1.803,0c-0.094-0.095,0.095-0.285,0.095-0.474
	c0-0.096,0.095-0.475,0-0.38C8.904,25.3,7.765,26.629,6.911,26.06c-2.277-1.613,2.183-1.992,1.044-3.131
	c-0.189-0.189-0.569,0-0.758-0.189c-0.095-0.19,0.379-0.569,0.189-0.664c-1.708-0.381-4.081,0.189-5.503,0.948
	c0.189-0.758-0.854-1.423-0.854-2.182c-0.095-0.285,0.475,0.379,0.665,0.189c0.189-0.095-0.19-0.474-0.095-0.664
	c0.19-0.854,1.612-0.57,2.277-1.139c0.189-0.095,0.569-0.569,0.285-0.474c-0.569,0.095-1.139,0.664-1.708,0.759
	c-0.474,0.095-0.664-0.759-0.285-1.138c0.569-0.381,1.803-0.096,1.993-0.76c0.095-0.569-1.234,0.189-1.708,0
	c-0.379-0.19-0.664-0.664-0.758-1.044c-0.095-0.948,0.854,0.285,0.948,0.19c0.19-0.38,0-0.854,0.285-1.234
	c0.285-0.474,1.139-0.569,1.234-1.139c0.474-4.649-3.321,0.665-4.08-3.89c-0.57-3.131,2.087-2.182,2.182-2.656
	c0.095-0.285-0.759,0-1.044-0.19c-0.095-0.19,0.285-0.38,0.38-0.38c1.043-0.189,1.612,0.095,2.372,0
	c2.466-0.189,5.787-2.277,8.063-3.225c0.855-0.38,1.803-1.613,2.658-1.044c0.379,0.284-0.57,1.423-0.095,1.518
	c0.759,0.095,1.233-1.234,1.993-1.234c2.561,0,2.372,4.46,4.743,5.029c0.475,0.095,0.665-0.949,1.139-0.854
	c2.656,0.664,1.234,0.759,3.89,1.138c0.665,0.095,1.897-0.189,2.466-0.095c0.57,0.189,0.855,0.759,1.423,0.759
	c0.76,0,1.424-0.949,2.183-0.759c0.665,0.189,0.759,1.329,1.328,1.803c0.57,0.474,1.708-0.095,2.277,0.474
	c0.189,0.189-0.379,0.475-0.189,0.57c0.189,0.285,0.759-0.38,1.044-0.189c2.372,1.612,8.539,4.648,11.669,3.7
	c0.189-0.095,0.189-0.475,0.379-0.57c0.38-0.095,0.759,0,1.139,0c0.758,0.095,2.752-0.095,3.32,1.044
	c0,0.094-0.094,0.285-0.189,0.379c0.759,0.19,2.846,2.183,3.605,2.183c0.285,0-0.19-0.664,0-0.854
	c0.189-0.284,0.569-0.379,0.948-0.474c2.752-0.381,0.949-0.096,2.087,1.232c0.38,0.379,1.139-0.189,1.519,0.095
	c0.569,0.284,0.854,0.949,1.327,1.233c1.235,0.664,3.89,0.569,5.694,0.095c0.568,0.569,1.611,1.518,1.611,1.518
	c0.19,0.095,0.095-0.379,0.19-0.379c0.474,0.095,1.045,0.285,1.329,0.664c0.854,0.948-1.898,2.087-0.663,2.656
	c0.568,0.19,1.137-0.854,1.327-0.664c0.095,0.19-0.19,0.664,0,0.854c1.327,1.233,3.415,0.759,4.648,1.708
	c0.094,0.095,1.043,2.278,1.138,2.278c1.234,0.948,2.467-0.759,3.797,0.379c0.663,0.569,0.189,1.803,1.423,1.803
	c0.568,0.094,0.948-0.474,1.517-0.38c0.569,0.095,0.855,0.759,1.425,0.854c0.284,0,0.284-0.569,0.569-0.569
	c0.947-0.094,1.801,0.664,2.846,0.759c0,0-0.474-2.182,0.664-1.992c1.612,0.284,2.562,1.423,3.606,2.372
	c0.094,0.095,0.379,0,0.567,0c0.475,0.095,1.044,0.095,1.328,0.38c0.475,0.379,0.189,1.232,0.665,1.517v0.095
	C95.905,34.029,95.716,35.358,98.657,34.503L98.657,34.503z M16.019,104.715l0.665,2.75h2.087c0-0.285-0.094-0.475-0.094-0.76
	c-0.095-0.568-0.285-1.137-0.095-1.707c0.095-0.283,0.948-0.379,0.854-0.664C18.866,103.006,16.209,104.619,16.019,104.715
	L16.019,104.715L16.019,104.715z M40.498,116.195l1.423,0.947c0-0.854,0.19-1.803,0.095-2.562
	C41.827,113.82,41.067,115.719,40.498,116.195L40.498,116.195z M42.301,116.953l0.189-0.285c-0.095,0-0.189,0-0.189,0.189
	C42.301,116.953,42.301,116.953,42.301,116.953z M109.189,67.141c-1.422,4.84,0.284,1.424,2.656,3.416
	c0.664,0.568-4.176,5.221-4.555,5.125c-0.475,0-0.38-1.045-0.854-1.33c-1.423-0.854-1.518,0.664-1.992-0.758
	c-0.188-0.664,0-1.518-0.476-1.896c-0.379-0.381-0.948,0.283-1.327,0.189c-0.664-0.096-1.327-0.379-1.896-0.762
	c-0.095-0.094,0.094-0.283,0.189-0.379C103.307,68.945,106.248,67.711,109.189,67.141L109.189,67.141L109.189,67.141z
	 M119.152,67.236c2.181,5.504-0.379,1.709-1.709,1.045c-0.569-0.189-1.328,0.283-1.896-0.096
	C113.174,66.572,116.305,65.908,119.152,67.236L119.152,67.236z M102.264,76.156c-0.569,0.568-1.424,0.568-1.424,1.043
	c0,0.379,0.38,1.137,0.854,1.137c0.569,0,0.948,0,1.706-0.662c0.762-0.664,0-1.139,0-1.139l-1.043-0.379H102.264z M99.985,73.309
	c-0.759,0.189-0.948,0.664-1.328,1.139c-0.379,0.57-0.947,1.424-0.095,1.803c0.475,0.285,1.898-0.473,2.184-1.043
	c0.189-0.475,0.758-0.57,0.758-1.141c0-0.473-0.664-0.852-0.664-0.852L99.985,73.309z"/>
</svg>
