<?xml version="1.0" encoding="utf-8"?>
<!-- Generator: Adobe Illustrator 16.0.0, SVG Export Plug-In . SVG Version: 6.00 Build 0)  -->
<!DOCTYPE svg PUBLIC "-//W3C//DTD SVG 1.1//EN" "http://www.w3.org/Graphics/SVG/1.1/DTD/svg11.dtd">
<svg version="1.1" id="Layer_1" xmlns="http://www.w3.org/2000/svg" xmlns:xlink="http://www.w3.org/1999/xlink" x="0px" y="0px"
	 width="120px" height="120px" viewBox="0 0 120 120" enable-background="new 0 0 120 120" xml:space="preserve">
<path id="se_1_" fill="#8F8F8F" d="M44.756,120c0.13-0.392-0.13-0.587-0.521-0.782l-0.26-0.651c0.521,0.325,1.368,0.521,1.107,1.107
	C45.082,119.804,44.951,119.935,44.756,120z M43.713,117.85L43.713,117.85L43.713,117.85L43.713,117.85z M45.016,117.003
	c0.912-1.042-0.13-0.978-0.195-2.28c0-0.391,0.391-0.651,0.456-1.042c0-0.131-0.261-0.261-0.326-0.391
	c-0.847-0.131-1.954-0.392-2.671,0.13c0.717-0.912,1.955-0.652,2.931-0.456c-0.521-0.847-0.846-1.499-0.716-1.629
	c0.261-0.586,1.173,0.717,1.759,0.456c0.521-0.195-1.303-0.977-1.042-1.499c0.196-0.455,1.108,0.065,1.304-0.325
	c0.326-0.456,0.13-1.107-0.13-1.563c-0.131-0.26-0.521-0.064-0.782-0.13c-0.521-0.195-0.392-1.107-0.782-1.564
	c-0.26-0.325-0.781-0.325-1.042-0.65c-0.13-0.261,0.065-0.586-0.065-0.848c-0.13-0.325-0.912-1.368-0.912-1.433
	c0-0.131,0.26-0.195,0.195-0.261c-0.065-0.13-0.326-0.065-0.457-0.13c-0.326-0.261-0.586-0.651-0.781-0.978
	c-0.326-0.587,0.065-2.149-0.392-2.867c-0.13-0.195-0.586,0.065-0.781-0.13c-0.195-0.261-0.13-0.717-0.13-1.107
	c-0.131-0.978,1.693-3.258,0.846-4.3c-1.173-1.498-0.521,2.541-2.997,0.065c-0.391-0.391,0.261-1.563,0.261-2.02
	c-0.065-0.782-0.847-3.714-0.847-3.714c0.261-0.325,0.912,0.261,1.304,0.195c0.195,0.651,0.456,1.304,1.042,0.456
	c1.434-2.019-0.391-4.625,0-5.798c0.13-0.455,0.782-0.521,0.978-0.912c0.13-0.26,0-0.587-0.13-0.847c0-0.195-0.326-0.261-0.26-0.391
	c0.13-0.456,2.214-0.586,2.801-2.085l-0.065-1.889c0.717-3.714-0.978-2.998-1.303-5.799c-0.065-0.651,1.238-0.325,1.759-0.781
	l0.717-2.605c-0.261-1.63-2.736-1.499-3.127-2.998c-0.326-1.367,0.717-3.192,0.586-4.624c-0.13-0.979-1.172-1.824-1.238-2.802
	c-0.065-0.391,0.261-0.848,0.261-1.238c-0.065-0.456-0.326-0.847-0.261-1.303c0-0.391,0.456-0.651,0.456-1.042
	c0-7.883-0.978,5.798-0.978-2.085c0-0.717,0.912-1.173,0.978-1.89c0.065-0.26-0.326-0.521-0.261-0.847
	c0.195-1.042,1.628-3.257,2.476-3.778c2.671-1.694,4.43,1.368,4.886-1.694c0.456-3.191-2.28-2.54-1.89-3.712
	c0.587-1.825,1.499-3.649,2.085-5.408c0.065-0.261,0.391-0.326,0.457-0.587l-0.196-2.41c0-0.065,0.326-2.02,0.326-2.02l-0.652-2.54
	c0.26-0.587,1.303,0,1.824-0.261l1.434-1.237c0.195-0.586-0.651-1.108-0.521-1.694c0.392-1.172,2.541-3.713,2.932-4.821
	c0.716-1.759-0.978-1.889-1.238-3.322c-0.195-1.173,0.521-0.455,0.912-0.912c0.521-0.651,0.521-1.563,0.652-2.279
	c0.065-0.521,1.303-2.802,1.693-2.802l2.085,0.912c1.303-0.521-0.326-4.235,0.065-4.756c0.912-1.173,5.407,1.042,5.993,0.651
	c2.149-1.368-0.13-1.237-0.195-1.824c-0.195-0.782,0.912-1.368,0.912-2.149c0-0.456-0.131-0.912-0.326-1.304
	c-0.195-0.325-1.042-0.521-0.847-0.847c0.261-0.455,0.978-0.13,1.498-0.26h0.13c0.196,0.13,0.522,0.13,0.782,0.325
	c0.782,0.521-0.26,0.456,0.261,0.781c1.107,0.848,2.997,2.411,4.17,2.933c1.368,0.586,2.476,0.064,3.713,1.303
	c0.261,0.195,0.065,0.781,0.326,0.911c0.195,0.065,0.325-0.26,0.455-0.195c0.522,0.195,0.718,0.848,1.108,1.238
	c0.13,0.131,0.521,0.131,0.456,0.326c-0.717,1.367,0.065,1.433,0.261,2.996c0.064,0.261-0.195,0.521-0.195,0.781
	c-0.131,0.782,0.846,0.196,1.172,0.457c0.847,0.651-0.521,1.563-0.131,2.215c0.392,0.912,1.955,1.759,2.085,2.801
	c0.065,0.782-0.521,3.258-0.455,3.584c0.586,2.085,2.019,2.801,2.801,4.495c-0.195,0.261-0.391,0.586-0.651,0.716
	c-0.261,0.131-0.456-0.521-0.781-0.455c-0.131,0.064-0.195,0.391-0.326,0.391c-0.521,0.064-1.107-0.391-1.563-0.131
	c-0.326,0.195,0.195,0.977-0.131,1.173c-1.368,0.848-1.823-0.717-2.801-0.912c-0.13,0,0.13,0.391,0.13,0.586
	c0,0.13,0.065,0.261,0,0.392c-0.064,0.456-0.455,0.847-0.325,1.237c0,0.065,0.065,0.131,0.13,0.195
	c-0.455-0.13-0.912-0.195-1.303-0.391c-0.195-0.064-0.391-0.586-0.456-0.391c-0.13,0.717,1.629,0.456,1.759,1.172
	c0.131,0.391-0.782,0.131-1.173,0.326c-0.064,0.064,0.195,0.064,0.326,0.064c0.064,0.065,0.782,0.521,0.392,0.849
	c-0.065,0.064-0.132-0.327-0.262-0.262c-0.065,0.065,0.196,0.326,0.065,0.392c-0.521,0.325-2.02,0-2.28,0.977
	c0,0.195,0.392,0,0.521,0.065c0.456,0.325,0.847,0.781,1.042,1.303c0.391,1.173-1.563,1.693-1.628,2.997
	c-0.065,1.563,2.084,1.693,2.605,2.866c0.065,0.065-1.303,1.76-1.563,2.346c-0.391,0.781-0.521,3.974-1.304,4.104
	c-0.13,0-0.13-0.456-0.26-0.391c-0.456,0.065,0.195,1.107-0.261,1.303c-0.195,0.131-0.13-0.781-0.325-0.651
	c-0.065,0-0.065,0.065-0.065,0.131h-0.065c-0.13,0.195,0.131,0.586-0.064,0.716c-0.195,0.261-0.978,0.131-1.173,0.521
	c-0.196,0.261-0.131,0.782-0.457,0.912c-0.391,0.13-0.977-0.587-1.237-0.261c-0.261,0.391,0.717,0.912,0.521,1.368
	c-0.195,0.325-0.651-0.651-0.912-0.456c-0.326,0.261,0.065,0.781,0,1.173c-0.065,0.456-0.131,1.107-0.587,1.368
	c-0.391,0.195-0.847-0.456-1.302-0.391c-0.262,0,0.586,0.195,0.65,0.456c0.065,0.13-0.26,0.195-0.391,0.195
	c-0.13,0,0.195-0.326,0.065-0.456c-0.13-0.065-0.391-0.065-0.456,0.065c-0.065,0.195,0.391,0.391,0.261,0.586
	c-0.13,0.13-0.521-0.261-0.717-0.065c-0.131,0.13,0.325,0.195,0.391,0.391c0,0.065-0.261-0.065-0.325,0
	c-0.131,0.261,0,0.717-0.196,0.912c-0.26,0.261-1.237,0.065-0.977,0.261c0.391,0.326,1.563-0.195,1.433,0.261
	c-0.195,0.521-0.781,0.847-1.107,1.303c-0.13,0.13-0.261,0.391-0.456,0.456s-0.586,0-0.586-0.195
	c0.065-0.195,0.521-0.065,0.586-0.261c0.195-0.391-0.521,0.13-0.781,0.195c0.065,0.195,0.195,0.392,0.326,0.587
	c0.195,0.456,0.521,1.693,0,1.563c-0.131,0-0.065-0.651-0.195-0.521c-0.196,0.326,0.064,0.847-0.196,1.173
	c-0.065,0.195-0.391-0.065-0.586-0.065c-0.456,0.065-1.043,0-1.434,0.261c-1.042,0.782,0.717,1.107,1.498,2.02
	c0.065,0.064-0.26,0.13-0.325,0.064c0-0.064-0.195-0.064-0.195,0c-0.065,0.521,0.065,1.043,0,1.564
	c-0.065,0.325-0.326,0.586-0.392,0.911c-0.064,0.392-0.064,0.782,0.065,1.174c0,0.064,0.195-0.131,0.261-0.065
	c0.261,0.456,0.978,1.106,0.586,1.497c-0.391,0.392-0.977-0.716-1.498-0.521c-1.498,0.521,1.043,1.89,0.847,3.322
	c0,0.261-0.651-0.13-0.651,0.065c-0.064,0.326,0.456,0.391,0.521,0.652c0.064,0.13-0.261,0.064-0.261,0.195
	c0,0.26,0,0.586,0.13,0.846c0.065,0.261,0,0.586,0.131,0.848c0.064,0.13,0.326-0.131,0.326,0c0.064,0.064-0.262,0.064-0.326,0.13
	c-0.065,0.131-0.065,0.326,0,0.457c0.13,0.325,0.586,0.521,0.651,0.911s-0.325,0.781-0.261,1.173c0,0.13,0.195-0.065,0.326,0
	c0.195,0.065,0.064,0.521,0.26,0.521c0.718,0,2.085-0.392,2.736,0c0.262,0.13,0,0.586,0.131,0.847
	c0.195,0.391,0.586,0.65,0.977,0.912c0.065,0.065,0.326-0.196,0.391-0.065c0.131,0.131-0.195,0.391-0.064,0.456
	c0.064,0,3.388-1.303,1.629,0.651c-0.261,0.326-0.847-0.586-1.238-0.455c-0.326,0.13,0.456,0.391,0.651,0.65
	c0.262,0.391,0.326,0.977,0.717,1.238c0.195,0.065,0.326-0.652,0.586-0.521c0.326,0.13,0.131,0.717,0.392,0.912
	c0.977,1.107,1.693,0.392,1.498,2.15c-0.064,0.651-0.651-0.065-0.717-0.065c-0.325,0.065-0.391,0.456-0.651,0.651
	c-0.586,0.651,0,1.237-1.824,2.085c-0.064,0.064,0.326,0.651,0.326,0.717c-0.13,0.195-0.456-0.131-0.717-0.065
	c-0.456,0.065-0.912,0.456-1.433,0.456c-0.521,0-0.065-0.978-0.065-1.434c0.065-0.456-0.325-0.392-0.521-0.651
	c0-0.065,0.065-0.195,0-0.326c-0.261-0.391-0.325-0.977-0.781-1.172c-0.326-0.131-0.782,0.195-0.978,0.521
	c-0.065,0.195,0.521-0.065,0.586,0.064c0.261,0.456,0.065,1.042,0.326,1.433c0.195,0.326,1.173,0.262,0.978,0.587
	c-0.782,1.498-2.672-0.782-3.062-0.652c-0.521,0.131-0.782,0.848-1.368,0.848c-0.391,0-0.455-0.848-0.847-0.782
	c-0.326,0.065,0,0.717-0.195,1.043c-0.065,0.131-0.261-0.13-0.456-0.13c-0.521,0.065-1.107,0.065-1.563,0.325
	c-0.131,0.065,0.195,0.261,0.326,0.391c0.521,0.326,1.172-0.195,1.563-0.325c0.652-0.065,1.304,0.781,1.89,0.586
	c0.261-0.13-0.521-0.911-0.195-0.847c0.391,0,0.521,0.717,0.912,0.912c0.391,0.13,0.978-0.326,1.303,0
	c0.195,0.195-0.521,0.586-0.391,0.912c0.13,0.195,0.651,0.065,0.847-0.13c0.131-0.131-0.391-0.457-0.261-0.522
	c0.325-0.13,0.587,0.261,0.847,0.326c0.521,0.131,0.978,0.456,1.434,0.261c0.325-0.13,0.065-0.847,0.325-1.042
	c0.326-0.195,0.782,0.195,1.108,0c0.456-0.195,0.521-1.043,1.042-1.107c0.391-0.065,1.043,0.586,0.847,0.912
	c-0.326,0.455-1.107,0-1.628,0.195c-0.065,0,0.13,0.195,0.195,0.26c0.195,0.392,0.586,0.782,0.586,1.238
	c0.065,0.131-0.325-0.065-0.456,0.065c-0.456,0.261-0.978,0.521-1.237,0.977c-0.262,0.456-0.065,1.043-0.262,1.499
	c-0.13,0.261-0.325-0.978-0.65-0.848c-0.195,0.131,0.325,0.848,0.13,0.717c-0.651-0.26,0.261-2.476-0.781-2.345
	c0,0,0.195,2.866-0.978,3.713c-0.392,0.261-0.978,0.065-1.433,0.131c-0.196,0.064,0.521,0.195,0.521,0.391
	c0.261,0.781-0.717,0.261-0.847,0.391c-0.131,0.065,0.391,0.065,0.391,0.261c0.065,0.065-0.195-0.065-0.326,0
	c-0.064,0.065-0.13,0.196-0.195,0.196c-0.13,0-3.453-0.457-3.191,0.13c0.064,0.13,0.26,0.13,0.455,0.13
	c0.065,0,0.131-0.195,0.195-0.195c0.131,0.065,0.131,0.456,0.327,0.391c0.13,0-0.066-0.391,0.13-0.391
	c1.042-0.261,1.889,0,2.346,1.042c0,0.131-0.327-0.064-0.392,0c-0.261,0.261,0.325,0.651-0.391,0.651
	c-0.521,0-1.173-0.716-1.498-0.325c-0.326,0.391,0.977,0.195,1.367,0.456c0.261,0.195,0.782,1.368,0.586,1.693
	c-0.13,0.261-0.781-0.195-0.847,0.065c-0.065,0.325,1.369,2.085,0.912,2.671c-0.325,0.391-1.107-0.195-1.563,0
	c-0.195,0,0.065,0.261,0.195,0.391c0.261,0.326,1.303,0.651,1.303,1.173c0,0.456-0.847,0.717-0.781,1.237
	c0,0.392,0.651,0.392,0.912,0.717c0.065,0.131-0.261,0.131-0.326,0.196c-0.26,0.456-0.521,0.977-0.586,1.498
	c-0.131,0.391,0.781,1.824,0.717,1.954c-0.131,0.131-0.456-0.13-0.652,0.065c-0.521,0.521,0.587,1.563,0.392,2.41
	c0,0.195-0.521,0-0.587,0.195c-0.13,0.195,0.326,0.456,0.195,0.651c-0.716,2.15-0.391-1.562-0.716,0.651
	c-0.195,1.368-0.261,3.519-1.368,4.561c-0.065,0.065-0.261,0-0.325-0.13c0-0.13,0.195-0.261,0.13-0.392
	c0-0.195-1.107-0.064-1.107-0.064c-0.065-0.065,0.13-0.326,0.065-0.326c-0.652,0.065-0.717,0.391-1.042,0.717
	c-0.586,0.456-0.195-0.521-0.391-0.456c-0.457,0.261-1.042,0.392-1.173,0.392c-0.325,0.064-0.586-0.065-0.912-0.065
	c-0.26,0-0.652-0.196-0.717,0.065c-0.13,0.391,0.587,0.781,0.391,1.106c-0.326,0.326-0.912-0.064-1.368,0.066
	c-0.392,0.13-0.457,0.586-0.652,0.911c-1.694,2.476,0.457,1.694,0.391,3.388c-0.065,0.521-0.391,0.978-0.782,1.368
	c-0.326,0.325-1.368-0.325-1.563-0.325c-1.564-0.131-1.107,0.977-2.736,0.977c-0.522,0-0.978-0.326-1.434-0.391
	c-0.26,0-0.651,0.195-0.912,0.064c-0.457-0.26,0.716-0.455,0.716-0.455c0-0.391-0.391-0.717-0.326-1.108
	c0-0.391,0.521-0.586,0.651-0.912c0,0-1.172-1.628-2.084-3.062c-0.065,0.261-0.391,0.521-0.391,0.848
	c0.065,1.368,1.369,1.237-0.065,2.54C45.082,117.003,45.082,117.003,45.016,117.003L45.016,117.003z M65.407,100.847
	c0.131-0.195,0.391-0.13,0.587-0.195c-0.456,1.042-1.368,5.537-1.563,6.905c-0.065,0.326,0.195,2.866-0.652,2.932
	c-0.13,0-0.391-2.932-0.391-3.127c0.13-1.889,1.434-2.867,1.759-4.625C65.276,101.953,64.821,101.628,65.407,100.847z
	 M74.202,99.087c0,0.391-0.521,0.457-0.781,0.717c-0.848,0.978,0.651,0.261-0.587,1.238c-0.977,0.716-0.391,0.716-0.912,1.694
	c-0.195,0.325-0.651,1.302-0.847,0.911s0.325-0.911,0.521-1.368c-0.065,0.065-0.13,0.195-0.196,0.195
	c-0.064,0-0.064-0.195-0.064-0.26c-0.065-0.457-0.717-1.238-0.717-1.368c0-0.391,0.261-0.782,0.261-1.173
	c-0.065-0.456-0.456-0.782-0.456-1.237c-0.065-0.326,1.889-3.453,2.149-3.584c0.456-0.195,0.978,0,1.434-0.064
	c0.717,1.042-0.131,1.173-0.717,2.54C72.573,99.022,74.202,98.501,74.202,99.087L74.202,99.087z M76.417,28.338
	c0.131,0.065,0.196,0.131,0.326,0.195C76.809,28.599,76.613,28.469,76.417,28.338z M71.922,45.667c0,0.131,0-0.064-0.064-0.26
	C71.922,45.472,71.922,45.603,71.922,45.667z M42.802,115.7l-0.066-0.195c0-0.392-0.13-0.652-0.326-0.782l-0.065-0.261
	c0.13,0,0.26,0.065,0.326,0.195C42.736,114.918,42.802,115.309,42.802,115.7L42.802,115.7z"/>
</svg>
