<?xml version="1.0" encoding="utf-8"?>
<!-- Generator: Adobe Illustrator 16.0.0, SVG Export Plug-In . SVG Version: 6.00 Build 0)  -->
<!DOCTYPE svg PUBLIC "-//W3C//DTD SVG 1.1//EN" "http://www.w3.org/Graphics/SVG/1.1/DTD/svg11.dtd">
<svg version="1.1" id="Layer_1" xmlns="http://www.w3.org/2000/svg" xmlns:xlink="http://www.w3.org/1999/xlink" x="0px" y="0px"
	 width="1525px" height="1080px" viewBox="0 0 1525 1080" enable-background="new 0 0 1525 1080" xml:space="preserve">
<g>
	<g>
		<defs>
			<rect id="SVGID_1_" x="655.748" y="198.888" width="398.651" height="451.056"/>
		</defs>
		<clipPath id="SVGID_2_">
			<use xlink:href="#SVGID_1_"  overflow="visible"/>
		</clipPath>
		<g transform="matrix(1 0 0 1 0 3.051758e-05)" clip-path="url(#SVGID_2_)">
			
				<image overflow="visible" width="1065" height="1205" xlink:href="44777D7863FDE287.jpg"  transform="matrix(0.3743 0 0 0.3743 655.748 198.8882)">
			</image>
		</g>
	</g>
	
		<line fill="none" stroke="#000000" stroke-width="0.5" stroke-miterlimit="10" x1="308.695" y1="975.816" x2="308.695" y2="609.151"/>
	
		<line fill="none" stroke="#000000" stroke-width="0.5" stroke-miterlimit="10" x1="843.97" y1="975.816" x2="843.97" y2="591.283"/>
	<g>
		<path fill="#FFFFFF" d="M924.652,1020.578H763.299c-6.005,0-10.875-4.869-10.875-10.875v-23.011
			c0-6.008,4.87-10.876,10.875-10.876h161.354c6.006,0,10.875,4.868,10.875,10.876v23.011
			C935.527,1015.709,930.658,1020.578,924.652,1020.578"/>
		<path fill="none" stroke="#000000" stroke-miterlimit="10" d="M924.652,1020.578H763.299c-6.005,0-10.875-4.869-10.875-10.875
			v-23.011c0-6.008,4.87-10.876,10.875-10.876h161.354c6.006,0,10.875,4.868,10.875,10.876v23.011
			C935.527,1015.709,930.658,1020.578,924.652,1020.578z"/>
		<path fill="#FFFFFF" d="M384.178,1020.578H222.826c-6.006,0-10.876-4.869-10.876-10.875v-23.011
			c0-6.008,4.87-10.876,10.876-10.876h161.352c6.006,0,10.875,4.868,10.875,10.876v23.011
			C395.053,1015.709,390.184,1020.578,384.178,1020.578"/>
		<path fill="none" stroke="#000000" stroke-miterlimit="10" d="M384.178,1020.578H222.826c-6.006,0-10.876-4.869-10.876-10.875
			v-23.011c0-6.008,4.87-10.876,10.876-10.876h161.352c6.006,0,10.875,4.868,10.875,10.876v23.011
			C395.053,1015.709,390.184,1020.578,384.178,1020.578z"/>
	</g>
	<g>
		
			<rect x="235.785" y="738.399" transform="matrix(-0.7071 -0.7071 0.7071 -0.7071 -46.7042 1603.2747)" fill="#007F7F" width="145.822" height="145.822"/>
	</g>
	<text transform="matrix(1 0 0 1 243.418 1004.4277)" font-family="'SimplonNorm'" font-size="18">Clean browser</text>
	<text transform="matrix(1 0 0 1 766.3008 1004.4277)" font-family="'SimplonNorm'" font-size="18">Youtube account</text>
	<text transform="matrix(1 0 0 1 314.6748 91.9458)"><tspan x="0" y="0" font-family="'SimplonNorm'" font-size="23">W</tspan><tspan x="16.192" y="0" font-family="'SimplonNorm'" font-size="23">atching a politi</tspan><tspan x="161.756" y="0" font-family="'SimplonNorm'" font-size="23">c</tspan><tspan x="173.44" y="0" font-family="'SimplonNorm'" font-size="23">al video on a clean b</tspan><tspan x="373.307" y="0" font-family="'SimplonNorm'" font-size="23">r</tspan><tspan x="380.805" y="0" font-family="'SimplonNorm'" font-size="23">o</tspan><tspan x="392.902" y="0" font-family="'SimplonNorm'" font-size="23">w</tspan><tspan x="408.565" y="0" font-family="'SimplonNorm'" font-size="23">ser</tspan></text>
	<text transform="matrix(1 0 0 1 351.521 119.5459)"><tspan x="0" y="0" font-family="'SimplonNorm'" font-size="23">or with our pe</tspan><tspan x="132.937" y="0" font-family="'SimplonNorm'" font-size="23">r</tspan><tspan x="140.619" y="0" font-family="'SimplonNorm'" font-size="23">sonal </tspan><tspan x="199.268" y="0" font-family="'SimplonNorm'" font-size="23" letter-spacing="-1">Y</tspan><tspan x="209.963" y="0" font-family="'SimplonNorm'" font-size="23">outube account</tspan></text>
	<g>
		<rect x="278.69" y="52.228" fill="none" stroke="#000000" stroke-miterlimit="10" width="512.27" height="88.407"/>
		
			<line fill="none" stroke="#FFC933" stroke-width="2" stroke-miterlimit="10" x1="843.97" y1="894.715" x2="1000.201" y2="894.715"/>
		
			<line fill="none" stroke="#007F7F" stroke-width="2" stroke-miterlimit="10" x1="843.97" y1="744.048" x2="1000.201" y2="744.048"/>
		
			<line fill="none" stroke="#007F7F" stroke-width="2" stroke-miterlimit="10" x1="151.563" y1="744.048" x2="307.795" y2="744.048"/>
	</g>
	<text transform="matrix(1 0 0 1 88.4355 751.9658)" fill="#007F7F" font-family="'SimplonNorm'" font-size="23">100%</text>
	<text transform="matrix(1 0 0 1 1010.6895 901.2354)" fill="#FFC933" font-family="'SimplonNorm'" font-size="23">45%</text>
	<text transform="matrix(1 0 0 1 1007.9062 751.9658)" fill="#007F7F" font-family="'SimplonNorm'" font-size="23">55%</text>
	<g>
		
			<rect x="771.092" y="738.387" transform="matrix(0.7071 -0.7071 0.7071 0.7071 -326.4602 834.3962)" fill="#007F7F" width="145.766" height="145.767"/>
		
			<rect x="797.095" y="801.162" transform="matrix(0.7071 -0.7071 0.7071 0.7071 -352.4622 845.1669)" fill="#FFC933" width="93.762" height="93.762"/>
	</g>
	<g>
		<defs>
			<rect id="SVGID_3_" x="71.373" y="208.434" width="463.783" height="431.965"/>
		</defs>
		<clipPath id="SVGID_4_">
			<use xlink:href="#SVGID_3_"  overflow="visible"/>
		</clipPath>
		<g clip-path="url(#SVGID_4_)">
			<defs>
				<rect id="SVGID_5_" x="71.373" y="208.433" width="463.783" height="431.965"/>
			</defs>
			<clipPath id="SVGID_6_">
				<use xlink:href="#SVGID_5_"  overflow="visible"/>
			</clipPath>
			<g transform="matrix(1 0 0 1 0 1.525879e-05)" clip-path="url(#SVGID_6_)">
				
					<image overflow="visible" width="1239" height="1154" xlink:href="44777D7863FDE285.jpg"  transform="matrix(0.3743 0 0 0.3743 71.3726 208.4331)">
				</image>
			</g>
		</g>
	</g>
	<text transform="matrix(1 0 0 1 1222.7725 72.6221)" font-family="'SimplonNorm'" font-size="16">Legend</text>
	<text transform="matrix(1 0 0 1 1255.7031 120.0776)" font-family="'SimplonNorm'" font-size="13">“Recommended for you”</text>
	<g>
		<path fill="#FFC933" d="M1247.204,114.011c0,6.746-5.469,12.215-12.215,12.215s-12.215-5.469-12.215-12.215
			s5.469-12.215,12.215-12.215S1247.204,107.265,1247.204,114.011"/>
	</g>
	<text transform="matrix(1 0 0 1 1255.7031 155.5029)" font-family="'SimplonNorm'" font-size="13">Suggested to al the users</text>
	<g>
		<path fill="#007F7F" d="M1247.204,152.002c0,6.746-5.469,12.215-12.215,12.215s-12.215-5.469-12.215-12.215
			s5.469-12.215,12.215-12.215S1247.204,145.256,1247.204,152.002"/>
	</g>
	<text transform="matrix(1 0 0 1 1255.7031 195.9409)" font-family="'SimplonNorm'" font-size="13">Number of occurrences</text>
	<g>
		<line fill="none" stroke="#000000" stroke-miterlimit="10" x1="1222.774" y1="87.18" x2="1434.997" y2="87.18"/>
		<circle fill="none" stroke="#000000" stroke-miterlimit="10" cx="1234.989" cy="190.399" r="12.215"/>
		<line fill="none" stroke="#000000" stroke-miterlimit="10" x1="1222.774" y1="207.144" x2="1247.204" y2="207.144"/>
		<line fill="none" stroke="#000000" stroke-miterlimit="10" x1="1222.774" y1="204.727" x2="1222.774" y2="209.477"/>
		<line fill="none" stroke="#000000" stroke-miterlimit="10" x1="1247.204" y1="204.727" x2="1247.204" y2="209.477"/>
	</g>
</g>
</svg>
