<?xml version="1.0" encoding="utf-8"?>
<!-- Generator: Adobe Illustrator 16.0.0, SVG Export Plug-In . SVG Version: 6.00 Build 0)  -->
<!DOCTYPE svg PUBLIC "-//W3C//DTD SVG 1.1//EN" "http://www.w3.org/Graphics/SVG/1.1/DTD/svg11.dtd">
<svg version="1.1" id="Layer_1" xmlns="http://www.w3.org/2000/svg" xmlns:xlink="http://www.w3.org/1999/xlink" x="0px" y="0px"
	 width="1490px" height="1080px" viewBox="0 0 1490 1080" enable-background="new 0 0 1490 1080" xml:space="preserve">
<g>
	<g>
		<defs>
			<rect id="SVGID_1_" x="573.272" y="217.639" width="471.406" height="457.541"/>
		</defs>
		<clipPath id="SVGID_2_">
			<use xlink:href="#SVGID_1_"  overflow="visible"/>
		</clipPath>
		<g transform="matrix(1 0 0 1 0 1.525879e-05)" clip-path="url(#SVGID_2_)">
			
				<image overflow="visible" width="1428" height="1386" xlink:href="C59C36AC046967A.jpg"  transform="matrix(0.3301 0 0 0.3301 573.2725 217.6387)">
			</image>
		</g>
	</g>
	<g>
		<defs>
			<rect id="SVGID_3_" x="47.566" y="217.639" width="452.259" height="457.541"/>
		</defs>
		<clipPath id="SVGID_4_">
			<use xlink:href="#SVGID_3_"  overflow="visible"/>
		</clipPath>
		<g transform="matrix(1 0 0 1 -3.814697e-06 -1.525879e-05)" clip-path="url(#SVGID_4_)">
			
				<image overflow="visible" width="1370" height="1386" xlink:href="C59C36AC046967E.jpg"  transform="matrix(0.3301 0 0 0.3301 47.5659 217.6387)">
			</image>
		</g>
	</g>
	
		<line fill="none" stroke="#000000" stroke-width="0.5" stroke-miterlimit="10" x1="273.695" y1="975.817" x2="273.695" y2="609.151"/>
	
		<line fill="none" stroke="#000000" stroke-width="0.5" stroke-miterlimit="10" x1="808.97" y1="975.817" x2="808.97" y2="610.934"/>
	<g>
		<path fill="#FFFFFF" d="M889.652,1020.579H728.299c-6.005,0-10.875-4.869-10.875-10.876v-23.012
			c0-6.006,4.87-10.875,10.875-10.875h161.354c6.006,0,10.875,4.869,10.875,10.875v23.012
			C900.527,1015.71,895.658,1020.579,889.652,1020.579"/>
		<path fill="none" stroke="#000000" stroke-miterlimit="10" d="M889.652,1020.579H728.299c-6.005,0-10.875-4.869-10.875-10.876
			v-23.012c0-6.006,4.87-10.875,10.875-10.875h161.354c6.006,0,10.875,4.869,10.875,10.875v23.012
			C900.527,1015.71,895.658,1020.579,889.652,1020.579z"/>
		<path fill="#FFFFFF" d="M349.178,1020.579H187.826c-6.006,0-10.876-4.869-10.876-10.876v-23.012
			c0-6.006,4.87-10.875,10.876-10.875h161.352c6.006,0,10.875,4.869,10.875,10.875v23.012
			C360.053,1015.71,355.184,1020.579,349.178,1020.579"/>
		<path fill="none" stroke="#000000" stroke-miterlimit="10" d="M349.178,1020.579H187.826c-6.006,0-10.876-4.869-10.876-10.876
			v-23.012c0-6.006,4.87-10.875,10.876-10.875h161.352c6.006,0,10.875,4.869,10.875,10.875v23.012
			C360.053,1015.71,355.184,1020.579,349.178,1020.579z"/>
	</g>
	<g>
		
			<rect x="200.785" y="738.399" transform="matrix(-0.7071 -0.7071 0.7071 -0.7071 -106.453 1578.526)" fill="#007F7F" width="145.822" height="145.822"/>
		
			<rect x="254.956" y="869.181" transform="matrix(-0.7071 -0.7071 0.7071 -0.7071 -160.6274 1709.3068)" fill="#FFC933" width="37.478" height="37.479"/>
		
			<rect x="736.065" y="738.399" transform="matrix(-0.7071 -0.7071 0.7071 -0.7071 807.3303 1957.0251)" fill="#007F7F" width="145.822" height="145.823"/>
		
			<rect x="771.324" y="823.53" transform="matrix(-0.7071 -0.7071 0.7071 -0.7071 772.0652 2042.1475)" fill="#FFC933" width="75.291" height="75.292"/>
	</g>
	<text transform="matrix(1 0 0 1 208.4204 1004.4277)" font-family="'SimplonNorm'" font-size="18">Clean browser</text>
	<text transform="matrix(1 0 0 1 731.3027 1004.4277)" font-family="'SimplonNorm'" font-size="18">Youtube account</text>
	<text transform="matrix(1 0 0 1 251.9619 91.9453)"><tspan x="0" y="0" font-family="'SimplonNorm'" font-size="23">W</tspan><tspan x="16.192" y="0" font-family="'SimplonNorm'" font-size="23">atching an «a-politi</tspan><tspan x="206.421" y="0" font-family="'SimplonNorm'" font-size="23">c</tspan><tspan x="218.128" y="0" font-family="'SimplonNorm'" font-size="23">al» video on a clean b</tspan><tspan x="428.759" y="0" font-family="'SimplonNorm'" font-size="23">r</tspan><tspan x="436.257" y="0" font-family="'SimplonNorm'" font-size="23">o</tspan><tspan x="448.354" y="0" font-family="'SimplonNorm'" font-size="23">w</tspan><tspan x="464.017" y="0" font-family="'SimplonNorm'" font-size="23">ser</tspan></text>
	<text transform="matrix(1 0 0 1 316.5229 119.5454)"><tspan x="0" y="0" font-family="'SimplonNorm'" font-size="23">or with our pe</tspan><tspan x="132.937" y="0" font-family="'SimplonNorm'" font-size="23">r</tspan><tspan x="140.619" y="0" font-family="'SimplonNorm'" font-size="23">sonal </tspan><tspan x="199.268" y="0" font-family="'SimplonNorm'" font-size="23" letter-spacing="-1">Y</tspan><tspan x="209.963" y="0" font-family="'SimplonNorm'" font-size="23">outube account</tspan></text>
	<g>
		<rect x="243.69" y="52.227" fill="none" stroke="#000000" stroke-miterlimit="10" width="512.27" height="88.407"/>
		
			<line fill="none" stroke="#FFC933" stroke-width="2" stroke-miterlimit="10" x1="117.463" y1="894.715" x2="273.695" y2="894.715"/>
		
			<line fill="none" stroke="#FFC933" stroke-width="2" stroke-miterlimit="10" x1="808.97" y1="894.715" x2="965.201" y2="894.715"/>
		
			<line fill="none" stroke="#007F7F" stroke-width="2" stroke-miterlimit="10" x1="808.97" y1="744.049" x2="965.201" y2="744.049"/>
		
			<line fill="none" stroke="#007F7F" stroke-width="2" stroke-miterlimit="10" x1="116.563" y1="744.049" x2="272.795" y2="744.049"/>
	</g>
	<text transform="matrix(1 0 0 1 80.4912 901.2344)" fill="#FFC933" font-family="'SimplonNorm'" font-size="23">7%</text>
	<text transform="matrix(1 0 0 1 67.4268 751.9648)" fill="#007F7F" font-family="'SimplonNorm'" font-size="23">93%</text>
	<text transform="matrix(1 0 0 1 973.627 901.2344)" fill="#FFC933" font-family="'SimplonNorm'" font-size="23">28%</text>
	<text transform="matrix(1 0 0 1 975.1221 751.9648)" fill="#007F7F" font-family="'SimplonNorm'" font-size="23">72%</text>
	<text transform="matrix(1 0 0 1 1187.7754 72.6216)" font-family="'SimplonNorm'" font-size="16">Legend</text>
	<text transform="matrix(1 0 0 1 1220.7051 120.0771)" font-family="'SimplonNorm'" font-size="13">“Recommended for you”</text>
	<g>
		<path fill="#FFC933" d="M1212.204,114.01c0,6.746-5.469,12.215-12.215,12.215s-12.215-5.469-12.215-12.215
			c0-6.746,5.469-12.215,12.215-12.215S1212.204,107.265,1212.204,114.01"/>
	</g>
	<text transform="matrix(1 0 0 1 1220.7051 155.5024)" font-family="'SimplonNorm'" font-size="13">Suggested to al the users</text>
	<g>
		<path fill="#007F7F" d="M1212.204,152.002c0,6.746-5.469,12.215-12.215,12.215s-12.215-5.469-12.215-12.215
			c0-6.746,5.469-12.216,12.215-12.216S1212.204,145.257,1212.204,152.002"/>
	</g>
	<text transform="matrix(1 0 0 1 1220.7051 195.9404)" font-family="'SimplonNorm'" font-size="13">Number of occurrences</text>
	<g>
		<line fill="none" stroke="#000000" stroke-miterlimit="10" x1="1187.774" y1="87.179" x2="1399.997" y2="87.179"/>
		<circle fill="none" stroke="#000000" stroke-miterlimit="10" cx="1199.989" cy="190.399" r="12.215"/>
		<line fill="none" stroke="#000000" stroke-miterlimit="10" x1="1187.774" y1="207.143" x2="1212.204" y2="207.143"/>
		<line fill="none" stroke="#000000" stroke-miterlimit="10" x1="1187.774" y1="204.726" x2="1187.774" y2="209.476"/>
		<line fill="none" stroke="#000000" stroke-miterlimit="10" x1="1212.204" y1="204.726" x2="1212.204" y2="209.476"/>
	</g>
	<g>
		<g enable-background="new    ">
			<g>
				<defs>
					<rect id="SVGID_5_" x="567.714" y="418.629" width="105.056" height="34.433"/>
				</defs>
				<clipPath id="SVGID_6_">
					<use xlink:href="#SVGID_5_"  overflow="visible"/>
				</clipPath>
			</g>
		</g>
		<g enable-background="new    ">
			<g>
				<defs>
					<rect id="SVGID_7_" x="505.181" y="517.539" width="94.649" height="45.234"/>
				</defs>
				<clipPath id="SVGID_8_">
					<use xlink:href="#SVGID_7_"  overflow="visible"/>
				</clipPath>
			</g>
		</g>
		<g enable-background="new    ">
			<g>
				<defs>
					<rect id="SVGID_9_" x="678.939" y="483.407" width="148.971" height="34.433"/>
				</defs>
				<clipPath id="SVGID_10_">
					<use xlink:href="#SVGID_9_"  overflow="visible"/>
				</clipPath>
			</g>
		</g>
		<g enable-background="new    ">
			<g>
				<defs>
					<rect id="SVGID_11_" x="789.97" y="421.039" width="141.99" height="34.433"/>
				</defs>
				<clipPath id="SVGID_12_">
					<use xlink:href="#SVGID_11_"  overflow="visible"/>
				</clipPath>
			</g>
		</g>
		<g enable-background="new    ">
			<g>
				<defs>
					<rect id="SVGID_13_" x="763.189" y="570.524" width="103.311" height="34.434"/>
				</defs>
				<clipPath id="SVGID_14_">
					<use xlink:href="#SVGID_13_"  overflow="visible"/>
				</clipPath>
			</g>
		</g>
		<g enable-background="new    ">
			<g>
				<defs>
					<rect id="SVGID_15_" x="428.467" y="420.953" width="91.605" height="71.794"/>
				</defs>
				<clipPath id="SVGID_16_">
					<use xlink:href="#SVGID_15_"  overflow="visible"/>
				</clipPath>
			</g>
		</g>
		<g enable-background="new    ">
			<g>
				<defs>
					<rect id="SVGID_17_" x="525.294" y="668.924" width="106.486" height="71.966"/>
				</defs>
				<clipPath id="SVGID_18_">
					<use xlink:href="#SVGID_17_"  overflow="visible"/>
				</clipPath>
			</g>
		</g>
		<g enable-background="new    ">
			<g>
				<defs>
					<rect id="SVGID_19_" x="432.053" y="566.918" width="112.48" height="57.395"/>
				</defs>
				<clipPath id="SVGID_20_">
					<use xlink:href="#SVGID_19_"  overflow="visible"/>
				</clipPath>
			</g>
		</g>
		<g enable-background="new    ">
			<g>
				<defs>
					<rect id="SVGID_21_" x="535.812" y="390.519" width="93.367" height="57.395"/>
				</defs>
				<clipPath id="SVGID_22_">
					<use xlink:href="#SVGID_21_"  overflow="visible"/>
				</clipPath>
			</g>
		</g>
		<g enable-background="new    ">
			<g>
				<defs>
					<rect id="SVGID_23_" x="614.83" y="475.15" width="119.39" height="57.395"/>
				</defs>
				<clipPath id="SVGID_24_">
					<use xlink:href="#SVGID_23_"  overflow="visible"/>
				</clipPath>
			</g>
		</g>
		<g enable-background="new    ">
			<g>
				<defs>
					<rect id="SVGID_25_" x="543.48" y="567.882" width="124.52" height="42.995"/>
				</defs>
				<clipPath id="SVGID_26_">
					<use xlink:href="#SVGID_25_"  overflow="visible"/>
				</clipPath>
			</g>
		</g>
		<g enable-background="new    ">
			<g>
				<defs>
					<rect id="SVGID_27_" x="466.196" y="284.412" width="76.844" height="57.394"/>
				</defs>
				<clipPath id="SVGID_28_">
					<use xlink:href="#SVGID_27_"  overflow="visible"/>
				</clipPath>
			</g>
		</g>
		<g enable-background="new    ">
			<g>
				<defs>
					<rect id="SVGID_29_" x="520.459" y="494.39" width="74.041" height="42.994"/>
				</defs>
				<clipPath id="SVGID_30_">
					<use xlink:href="#SVGID_29_"  overflow="visible"/>
				</clipPath>
			</g>
		</g>
	</g>
</g>
</svg>
