<?xml version="1.0" encoding="utf-8"?>
<!-- Generator: Adobe Illustrator 16.0.0, SVG Export Plug-In . SVG Version: 6.00 Build 0)  -->
<!DOCTYPE svg PUBLIC "-//W3C//DTD SVG 1.1//EN" "http://www.w3.org/Graphics/SVG/1.1/DTD/svg11.dtd">
<svg version="1.1" id="Layer_1" xmlns="http://www.w3.org/2000/svg" xmlns:xlink="http://www.w3.org/1999/xlink" x="0px" y="0px"
	 width="1532px" height="1080px" viewBox="0 0 1532 1080" enable-background="new 0 0 1532 1080" xml:space="preserve">
<text transform="matrix(1 0 0 1 313.3486 100.9468)"><tspan x="0" y="0" font-family="'SimplonNorm'" font-size="23">W</tspan><tspan x="16.192" y="0" font-family="'SimplonNorm'" font-size="23">atching a politi</tspan><tspan x="161.756" y="0" font-family="'SimplonNorm'" font-size="23">c</tspan><tspan x="173.44" y="0" font-family="'SimplonNorm'" font-size="23">al video with a clean b</tspan><tspan x="389.958" y="0" font-family="'SimplonNorm'" font-size="23">r</tspan><tspan x="397.434" y="0" font-family="'SimplonNorm'" font-size="23">o</tspan><tspan x="409.531" y="0" font-family="'SimplonNorm'" font-size="23">w</tspan><tspan x="425.193" y="0" font-family="'SimplonNorm'" font-size="23">ser</tspan></text>
<rect x="289.739" y="52.227" fill="none" stroke="#000000" stroke-miterlimit="10" width="502.684" height="88.407"/>
<g>
	<path fill="#00D3AA" d="M56.855,663.583c3.943,0,7.14,3.196,7.14,7.141c0,3.943-3.197,7.139-7.14,7.139s-7.14-3.195-7.14-7.139
		C49.715,666.779,52.913,663.583,56.855,663.583"/>
</g>
<text transform="matrix(1 0 0 1 1229.7725 72.6226)" font-family="'SimplonNorm'" font-size="16">Legend</text>
<text transform="matrix(1 0 0 1 1262.7031 127.6997)" font-family="'SimplonNorm'" font-size="13">Suggested only to one</text>
<g>
	<path fill="#00D3AA" d="M1254.204,121.631c0,6.746-5.469,12.215-12.215,12.215s-12.215-5.469-12.215-12.215
		c0-6.746,5.469-12.215,12.215-12.215S1254.204,114.886,1254.204,121.631"/>
</g>
<text transform="matrix(1 0 0 1 1262.7031 170.4517)" font-family="'SimplonNorm'" font-size="13">Suggested to more than one</text>
<g>
	<path fill="#8D9DF7" d="M1254.204,164.631c0,6.746-5.469,12.215-12.215,12.215s-12.215-5.469-12.215-12.215
		c0-6.746,5.469-12.215,12.215-12.215S1254.204,157.886,1254.204,164.631"/>
</g>
<text transform="matrix(1 0 0 1 1262.7031 211.1318)" font-family="'SimplonNorm'" font-size="13">Number of occurrences</text>
<text transform="matrix(1 0 0 1 1262.7031 254.1099)" font-family="'SimplonNorm'" font-size="13">User</text>
<g>
	<line fill="none" stroke="#000000" stroke-miterlimit="10" x1="1229.774" y1="87.179" x2="1441.997" y2="87.179"/>
	<circle fill="none" stroke="#000000" stroke-miterlimit="10" cx="1241.989" cy="205.589" r="12.215"/>
	<line fill="none" stroke="#000000" stroke-miterlimit="10" x1="1229.774" y1="222.333" x2="1254.204" y2="222.333"/>
	<line fill="none" stroke="#000000" stroke-miterlimit="10" x1="1229.774" y1="219.917" x2="1229.774" y2="224.667"/>
	<line fill="none" stroke="#000000" stroke-miterlimit="10" x1="1254.204" y1="219.917" x2="1254.204" y2="224.667"/>
</g>
<line fill="none" stroke="#8D9DF7" stroke-width="0.5" x1="415.816" y1="264.429" x2="580.749" y2="664.256"/>
<polygon fill="#8D9DF7" points="579.585,663.659 580.692,664.12 581.152,663.013 581.428,663.679 580.967,664.785 579.86,664.325 
	"/>
<line fill="none" stroke="#8D9DF7" stroke-width="0.5" x1="413.938" y1="264.823" x2="417.495" y2="421.627"/>
<polygon fill="#8D9DF7" points="416.625,420.65 417.492,421.478 418.32,420.611 418.336,421.331 417.508,422.198 416.642,421.37 "/>
<line fill="none" stroke="#8D9DF7" stroke-width="0.5" x1="416.751" y1="263.926" x2="600.916" y2="536.413"/>
<polygon fill="#8D9DF7" points="599.654,536.062 600.832,536.291 601.06,535.113 601.463,535.709 601.234,536.886 600.058,536.659 
	"/>
<line fill="none" stroke="#00D3AA" stroke-width="0.5" x1="413.281" y1="254.38" x2="407.872" y2="202.066"/>
<polygon fill="#00D3AA" points="408.817,202.969 407.887,202.213 407.131,203.145 407.058,202.429 407.813,201.498 408.743,202.253 
	"/>
<line fill="none" stroke="#8D9DF7" stroke-width="0.5" x1="415.438" y1="264.568" x2="521.461" y2="590.872"/>
<polygon fill="#8D9DF7" points="520.347,590.188 521.415,590.731 521.96,589.663 522.182,590.348 521.638,591.416 520.57,590.872 
	"/>
<line fill="none" stroke="#8D9DF7" stroke-width="0.5" x1="414.271" y1="264.805" x2="438.264" y2="541.454"/>
<polygon fill="#8D9DF7" points="437.333,540.536 438.251,541.307 439.022,540.39 439.084,541.105 438.313,542.023 437.395,541.253 
	"/>
<line fill="none" stroke="#8D9DF7" stroke-width="0.5" x1="415.992" y1="264.352" x2="513.271" y2="477.598"/>
<polygon fill="#8D9DF7" points="512.087,477.043 513.21,477.464 513.629,476.341 513.928,476.995 513.508,478.118 512.386,477.699 
	"/>
<line fill="none" stroke="#8D9DF7" stroke-width="0.5" x1="412.471" y1="264.648" x2="344.134" y2="521.134"/>
<polygon fill="#8D9DF7" points="343.572,519.954 344.173,520.992 345.21,520.391 345.025,521.086 343.988,521.686 343.387,520.648 
	"/>
<line fill="none" stroke="#8D9DF7" stroke-width="0.5" x1="415.328" y1="264.603" x2="594.936" y2="861.668"/>
<polygon fill="#8D9DF7" points="593.838,860.959 594.894,861.526 595.461,860.471 595.668,861.159 595.102,862.216 594.045,861.647 
	"/>
<line fill="none" stroke="#8D9DF7" stroke-width="0.5" x1="417.274" y1="263.523" x2="464.425" y2="317.223"/>
<polygon fill="#8D9DF7" points="463.131,317.034 464.327,317.112 464.405,315.916 464.88,316.457 464.802,317.653 463.606,317.575 
	"/>
<line fill="none" stroke="#8D9DF7" stroke-width="0.5" x1="412.506" y1="264.658" x2="394.038" y2="335.965"/>
<polygon fill="#8D9DF7" points="393.467,334.789 394.075,335.822 395.109,335.214 394.928,335.91 393.896,336.518 393.287,335.485 
	"/>
<line fill="none" stroke="#8D9DF7" stroke-width="0.5" x1="416.914" y1="263.812" x2="674.143" y2="614.864"/>
<polygon fill="#8D9DF7" points="672.87,614.562 674.055,614.745 674.238,613.56 674.663,614.141 674.48,615.325 673.295,615.143 "/>
<line fill="none" stroke="#8D9DF7" stroke-width="0.5" x1="417.756" y1="263.042" x2="600.058" y2="422.94"/>
<polygon fill="#8D9DF7" points="598.75,422.921 599.947,422.844 599.868,421.647 600.409,422.122 600.487,423.317 599.291,423.396 
	"/>
<line fill="none" stroke="#8D9DF7" stroke-width="0.5" x1="412.772" y1="264.718" x2="334.981" y2="645.732"/>
<polygon fill="#8D9DF7" points="334.35,644.587 335.011,645.588 336.011,644.926 335.867,645.632 334.867,646.292 334.206,645.292 
	"/>
<line fill="none" stroke="#8D9DF7" stroke-width="0.5" x1="418.612" y1="261.696" x2="615.885" y2="348.437"/>
<polygon fill="#8D9DF7" points="614.632,348.812 615.75,348.377 615.314,347.26 615.973,347.549 616.408,348.666 615.291,349.101 
	"/>
<line fill="none" stroke="#8D9DF7" stroke-width="0.5" x1="411.811" y1="264.424" x2="223.373" y2="718.15"/>
<polygon fill="#8D9DF7" points="222.972,716.905 223.43,718.013 224.538,717.555 224.262,718.219 223.154,718.677 222.696,717.569 
	"/>
<line fill="none" stroke="#8D9DF7" stroke-width="0.5" x1="419.036" y1="260.035" x2="746.665" y2="288.08"/>
<polygon fill="#8D9DF7" points="745.601,288.839 746.519,288.067 745.745,287.151 746.463,287.211 747.234,288.128 746.318,288.901 
	"/>
<line fill="none" stroke="#00D3AA" stroke-width="0.5" x1="410.951" y1="255.208" x2="369.398" y2="191.755"/>
<polygon fill="#00D3AA" points="370.653,192.124 369.479,191.879 369.235,193.053 368.841,192.451 369.085,191.277 370.259,191.521 
	"/>
<line fill="none" stroke="#8D9DF7" stroke-width="0.5" x1="415.687" y1="264.48" x2="605.384" y2="761.506"/>
<polygon fill="#8D9DF7" points="604.236,760.879 605.33,761.368 605.819,760.274 606.076,760.945 605.587,762.041 604.492,761.551 
	"/>
<line fill="none" stroke="#8D9DF7" stroke-width="0.5" x1="413.621" y1="264.821" x2="395.054" y2="754.442"/>
<polygon fill="#8D9DF7" points="394.245,753.415 395.06,754.295 395.938,753.479 395.912,754.197 395.033,755.014 394.218,754.135 
	"/>
<line fill="none" stroke="#8D9DF7" stroke-width="0.5" x1="835.378" y1="401.064" x2="645.062" y2="543.829"/>
<polygon fill="#8D9DF7" points="645.35,542.554 645.18,543.74 646.367,543.908 645.791,544.342 644.605,544.171 644.774,542.985 "/>
<line fill="none" stroke="#8D9DF7" stroke-width="0.5" x1="834.372" y1="398.584" x2="448.019" y2="447.894"/>
<polygon fill="#8D9DF7" points="448.899,446.926 448.166,447.875 449.114,448.608 448.4,448.698 447.452,447.965 448.186,447.018 
	"/>
<line fill="none" stroke="#8D9DF7" stroke-width="0.5" x1="836.174" y1="401.911" x2="609.26" y2="668.763"/>
<polygon fill="#8D9DF7" points="609.26,667.454 609.355,668.648 610.551,668.553 610.084,669.1 608.89,669.197 608.793,668.003 "/>
<line fill="none" stroke="#8D9DF7" stroke-width="0.5" x1="834.421" y1="396.951" x2="490.382" y2="332.029"/>
<polygon fill="#8D9DF7" points="491.518,331.38 490.526,332.057 491.204,333.046 490.497,332.913 489.82,331.922 490.81,331.247 "/>
<line fill="none" stroke="#8D9DF7" stroke-width="0.5" x1="835.33" y1="401" x2="557.757" y2="602.666"/>
<polygon fill="#8D9DF7" points="558.064,601.395 557.876,602.579 559.061,602.766 558.479,603.189 557.294,603 557.481,601.817 "/>
<line fill="none" stroke="#8D9DF7" stroke-width="0.5" x1="835.786" y1="401.545" x2="520.288" y2="703.916"/>
<polygon fill="#8D9DF7" points="520.421,702.615 520.396,703.813 521.594,703.84 521.074,704.338 519.876,704.312 519.901,703.113 
	"/>
<line fill="none" stroke="#8D9DF7" stroke-width="0.5" x1="834.623" y1="399.648" x2="557.394" y2="496.433"/>
<polygon fill="#8D9DF7" points="558.055,495.304 557.534,496.384 558.614,496.905 557.934,497.143 556.854,496.621 557.375,495.542 
	"/>
<line fill="none" stroke="#8D9DF7" stroke-width="0.5" x1="834.555" y1="399.439" x2="365.183" y2="541.49"/>
<polygon fill="#8D9DF7" points="365.891,540.391 365.325,541.447 366.382,542.013 365.692,542.222 364.637,541.655 365.202,540.599 
	"/>
<line fill="none" stroke="#8D9DF7" stroke-width="0.5" x1="835.199" y1="400.811" x2="456.209" y2="651.535"/>
<polygon fill="#8D9DF7" points="456.572,650.278 456.332,651.453 457.508,651.692 456.907,652.09 455.733,651.85 455.972,650.675 
	"/>
<line fill="none" stroke="#8D9DF7" stroke-width="0.5" x1="834.965" y1="400.42" x2="355.401" y2="660.852"/>
<polygon fill="#8D9DF7" points="355.871,659.631 355.53,660.779 356.68,661.12 356.047,661.464 354.898,661.123 355.238,659.975 "/>
<line fill="none" stroke="#8D9DF7" stroke-width="0.5" x1="834.765" y1="400.011" x2="468.448" y2="559.422"/>
<polygon fill="#8D9DF7" points="469.022,558.247 468.583,559.362 469.698,559.802 469.04,560.089 467.923,559.649 468.362,558.534 
	"/>
<line fill="none" stroke="#8D9DF7" stroke-width="0.5" x1="836.867" y1="402.409" x2="710.062" y2="613.23"/>
<polygon fill="#8D9DF7" points="709.85,611.94 710.139,613.104 711.303,612.814 710.932,613.431 709.768,613.72 709.479,612.557 "/>
<line fill="none" stroke="#8D9DF7" stroke-width="0.5" x1="834.358" y1="397.381" x2="405.795" y2="352.896"/>
<polygon fill="#8D9DF7" points="406.873,352.155 405.942,352.911 406.698,353.842 405.982,353.767 405.227,352.837 406.157,352.081 
	"/>
<line fill="none" stroke="#8D9DF7" stroke-width="0.5" x1="836.158" y1="401.897" x2="500.895" y2="792.879"/>
<polygon fill="#8D9DF7" points="500.9,791.572 500.991,792.767 502.188,792.676 501.718,793.222 500.523,793.313 500.431,792.119 
	"/>
<line fill="none" stroke="#8D9DF7" stroke-width="0.5" x1="834.433" y1="396.889" x2="654.868" y2="360.77"/>
<polygon fill="#8D9DF7" points="656.012,360.134 655.014,360.798 655.678,361.796 654.973,361.655 654.309,360.655 655.307,359.992 
	"/>
<line fill="none" stroke="#8D9DF7" stroke-width="0.5" x1="834.422" y1="398.895" x2="643.978" y2="434.931"/>
<polygon fill="#8D9DF7" points="644.799,433.914 644.122,434.904 645.113,435.579 644.406,435.713 643.416,435.038 644.092,434.048 
	"/>
<line fill="none" stroke="#8D9DF7" stroke-width="0.5" x1="836.475" y1="393.696" x2="767.966" y2="300.058"/>
<polygon fill="#8D9DF7" points="769.238,300.362 768.053,300.177 767.87,301.363 767.445,300.782 767.629,299.597 768.813,299.781 
	"/>
<line fill="none" stroke="#8D9DF7" stroke-width="0.5" x1="838.07" y1="402.94" x2="752.589" y2="689.763"/>
<polygon fill="#8D9DF7" points="752.061,688.567 752.631,689.622 753.686,689.05 753.479,689.741 752.426,690.311 751.855,689.256 
	"/>
<line fill="none" stroke="#8D9DF7" stroke-width="0.5" x1="835.651" y1="401.4" x2="732.424" y2="493.105"/>
<polygon fill="#8D9DF7" points="732.605,491.81 732.535,493.007 733.732,493.078 733.193,493.555 731.997,493.485 732.068,492.289 
	"/>
<line fill="none" stroke="#8D9DF7" stroke-width="0.5" x1="834.348" y1="398.353" x2="732.746" y2="406.753"/>
<polygon fill="#8D9DF7" points="733.668,405.827 732.894,406.742 733.809,407.516 733.091,407.576 732.177,406.801 732.951,405.887 
	"/>
<line fill="none" stroke="#8D9DF7" stroke-width="0.5" x1="648.793" y1="978.689" x2="621.408" y2="595.69"/>
<polygon fill="#8D9DF7" points="622.324,596.623 621.419,595.838 620.634,596.744 620.583,596.025 621.367,595.12 622.273,595.904 
	"/>
<line fill="none" stroke="#8D9DF7" stroke-width="0.5" x1="645.396" y1="980.278" x2="350.621" y2="696.088"/>
<polygon fill="#8D9DF7" points="351.926,696.169 350.727,696.189 350.75,697.389 350.231,696.89 350.209,695.69 351.408,695.669 "/>
<line fill="none" stroke="#8D9DF7" stroke-width="0.5" x1="647.549" y1="978.933" x2="541.525" y2="652.62"/>
<polygon fill="#8D9DF7" points="542.639,653.307 541.571,652.762 541.026,653.83 540.805,653.146 541.348,652.077 542.417,652.621 
	"/>
<line fill="none" stroke="#8D9DF7" stroke-width="0.5" x1="648.155" y1="978.775" x2="596.661" y2="717.049"/>
<polygon fill="#8D9DF7" points="597.686,717.863 596.689,717.194 596.021,718.189 595.884,717.484 596.552,716.488 597.547,717.157 
	"/>
<line fill="none" stroke="#8D9DF7" stroke-width="0.5" x1="646.57" y1="979.365" x2="514.021" y2="747.145"/>
<polygon fill="#8D9DF7" points="515.251,747.59 514.094,747.273 513.779,748.431 513.422,747.806 513.738,746.649 514.894,746.965 
	"/>
<line fill="none" stroke="#8D9DF7" stroke-width="0.5" x1="647.082" y1="979.109" x2="430.154" y2="479.298"/>
<polygon fill="#8D9DF7" points="431.329,479.875 430.214,479.435 429.774,480.55 429.487,479.89 429.927,478.773 431.042,479.215 
	"/>
<line fill="none" stroke="#8D9DF7" stroke-width="0.5" x1="647.864" y1="978.841" x2="534.818" y2="538.577"/>
<polygon fill="#8D9DF7" points="535.887,539.331 534.855,538.721 534.245,539.753 534.066,539.056 534.676,538.022 535.708,538.634 
	"/>
<line fill="none" stroke="#8D9DF7" stroke-width="0.5" x1="644.784" y1="981.047" x2="514.288" y2="895.696"/>
<polygon fill="#8D9DF7" points="515.585,895.533 514.411,895.778 514.657,896.952 514.055,896.557 513.811,895.385 514.983,895.139 
	"/>
<line fill="none" stroke="#8D9DF7" stroke-width="0.5" x1="646.807" y1="979.238" x2="454.424" y2="598.279"/>
<polygon fill="#8D9DF7" points="455.629,598.786 454.49,598.411 454.115,599.551 453.792,598.908 454.167,597.769 455.304,598.143 
	"/>
<line fill="none" stroke="#8D9DF7" stroke-width="0.5" x1="649.835" y1="978.72" x2="689.183" y2="673.246"/>
<polygon fill="#8D9DF7" points="689.896,674.344 689.164,673.395 688.215,674.126 688.307,673.412 689.256,672.681 689.988,673.63 
	"/>
<line fill="none" stroke="#8D9DF7" stroke-width="0.5" x1="646.218" y1="979.586" x2="448.704" y2="689.714"/>
<polygon fill="#8D9DF7" points="449.965,690.06 448.787,689.836 448.564,691.015 448.159,690.419 448.382,689.242 449.56,689.464 
	"/>
<line fill="none" stroke="#8D9DF7" stroke-width="0.5" x1="646.104" y1="979.666" x2="353.985" y2="574.604"/>
<polygon fill="#8D9DF7" points="355.256,574.916 354.072,574.725 353.881,575.908 353.46,575.324 353.652,574.141 354.835,574.332 
	"/>
<line fill="none" stroke="#8D9DF7" stroke-width="0.5" x1="651.072" y1="979.036" x2="683.999" y2="894.814"/>
<polygon fill="#8D9DF7" points="684.426,896.052 683.945,894.952 682.847,895.434 683.108,894.764 684.207,894.282 684.688,895.381 
	"/>
<line fill="none" stroke="#8D9DF7" stroke-width="0.5" x1="645.58" y1="980.098" x2="501.675" y2="827.014"/>
<polygon fill="#8D9DF7" points="502.975,827.159 501.776,827.122 501.74,828.319 501.247,827.796 501.284,826.597 502.482,826.635 
	"/>
<line fill="none" stroke="#8D9DF7" stroke-width="0.5" x1="648.275" y1="978.753" x2="619.972" y2="814.689"/>
<polygon fill="#8D9DF7" points="620.977,815.526 619.997,814.835 619.306,815.814 619.183,815.105 619.874,814.126 620.854,814.817 
	"/>
<line fill="none" stroke="#8D9DF7" stroke-width="0.5" x1="646.977" y1="979.156" x2="604.416" y2="886.716"/>
<polygon fill="#8D9DF7" points="605.604,887.267 604.479,886.851 604.063,887.976 603.763,887.321 604.178,886.197 605.303,886.612 
	"/>
<line fill="none" stroke="#8D9DF7" stroke-width="0.5" x1="644.184" y1="982.302" x2="419.171" y2="909.534"/>
<polygon fill="#8D9DF7" points="420.379,909.035 419.312,909.581 419.857,910.647 419.172,910.427 418.627,909.358 419.694,908.812 
	"/>
<line fill="none" stroke="#8D9DF7" stroke-width="0.5" x1="645.078" y1="980.641" x2="413.865" y2="795.572"/>
<polygon fill="#8D9DF7" points="415.172,795.533 413.98,795.665 414.112,796.855 413.55,796.406 413.419,795.215 414.61,795.083 "/>
<line fill="none" stroke="#8D9DF7" stroke-width="0.5" x1="644.058" y1="985.061" x2="539.287" y2="1008.601"/>
<polygon fill="#8D9DF7" points="540.073,1007.556 539.431,1008.568 540.445,1009.208 539.742,1009.367 538.729,1008.726 
	539.37,1007.712 "/>
<line fill="none" stroke="#8D9DF7" stroke-width="0.5" x1="649.758" y1="978.71" x2="712.569" y2="426.319"/>
<polygon fill="#8D9DF7" points="713.3,427.404 712.553,426.466 711.615,427.213 711.695,426.498 712.634,425.751 713.381,426.689 
	"/>
<line fill="none" stroke="#8D9DF7" stroke-width="0.5" x1="228.25" y1="399.941" x2="589.142" y2="550.79"/>
<polygon fill="#8D9DF7" points="587.895,551.188 589.005,550.733 588.549,549.624 589.213,549.901 589.668,551.01 588.56,551.465 
	"/>
<line fill="none" stroke="#8D9DF7" stroke-width="0.5" x1="228.467" y1="399.316" x2="389.18" y2="443.694"/>
<polygon fill="#8D9DF7" points="387.994,444.247 389.037,443.655 388.446,442.612 389.139,442.805 389.73,443.847 388.688,444.438 
	"/>
<line fill="none" stroke="#8D9DF7" stroke-width="0.5" x1="227.521" y1="401.177" x2="569.613" y2="672.646"/>
<polygon fill="#8D9DF7" points="568.306,672.691 569.497,672.554 569.36,671.363 569.924,671.811 570.061,673.002 568.87,673.138 
	"/>
<line fill="none" stroke="#8D9DF7" stroke-width="0.5" x1="226.814" y1="401.909" x2="482.328" y2="701.992"/>
<polygon fill="#8D9DF7" points="481.037,701.784 482.231,701.88 482.328,700.684 482.793,701.231 482.699,702.428 481.503,702.332 
	"/>
<line fill="none" stroke="#8D9DF7" stroke-width="0.5" x1="227.656" y1="401" x2="505.23" y2="602.666"/>
<polygon fill="#8D9DF7" points="503.926,602.766 505.11,602.578 504.922,601.395 505.505,601.817 505.692,603.001 504.508,603.189 
	"/>
<line fill="none" stroke="#8D9DF7" stroke-width="0.5" x1="228.346" y1="399.696" x2="496.2" y2="496.136"/>
<polygon fill="#8D9DF7" points="494.977,496.596 496.062,496.086 495.551,495.001 496.228,495.244 496.739,496.329 495.653,496.84 
	"/>
<line fill="none" stroke="#8D9DF7" stroke-width="0.5" x1="225.282" y1="402.816" x2="318.261" y2="647.091"/>
<polygon fill="#8D9DF7" points="317.115,646.463 318.209,646.953 318.699,645.859 318.956,646.531 318.465,647.626 317.371,647.136 
	"/>
<line fill="none" stroke="#8D9DF7" stroke-width="0.5" x1="227.512" y1="401.188" x2="417.347" y2="552.663"/>
<polygon fill="#8D9DF7" points="416.041,552.704 417.232,552.569 417.099,551.379 417.661,551.828 417.794,553.019 416.603,553.152 
	"/>
<line fill="none" stroke="#8D9DF7" stroke-width="0.5" x1="226.639" y1="402.051" x2="416.068" y2="644.974"/>
<polygon fill="#8D9DF7" points="414.788,644.71 415.978,644.856 416.125,643.667 416.566,644.234 416.419,645.425 415.229,645.276 
	"/>
<line fill="none" stroke="#8D9DF7" stroke-width="0.5" x1="226.539" y1="402.127" x2="318.466" y2="526.042"/>
<polygon fill="#8D9DF7" points="317.191,525.748 318.377,525.925 318.553,524.738 318.982,525.316 318.807,526.502 317.62,526.326 
	"/>
<line fill="none" stroke="#8D9DF7" stroke-width="0.5" x1="226.231" y1="402.338" x2="473.639" y2="790.943"/>
<polygon fill="#8D9DF7" points="472.389,790.559 473.559,790.818 473.819,789.648 474.205,790.254 473.946,791.426 472.775,791.165 
	"/>
<line fill="none" stroke="#8D9DF7" stroke-width="0.5" x1="228.07" y1="400.328" x2="664.497" y2="626.132"/>
<polygon fill="#8D9DF7" points="663.223,626.428 664.366,626.064 664.002,624.922 664.641,625.252 665.005,626.395 663.862,626.758 
	"/>
<line fill="none" stroke="#8D9DF7" stroke-width="0.5" x1="225.178" y1="402.854" x2="398.825" y2="889.787"/>
<polygon fill="#8D9DF7" points="397.693,889.134 398.776,889.648 399.29,888.564 399.531,889.241 399.018,890.324 397.935,889.812 
	"/>
<line fill="none" stroke="#8D9DF7" stroke-width="0.5" x1="227.133" y1="401.613" x2="595.612" y2="767.859"/>
<polygon fill="#8D9DF7" points="594.309,767.759 595.508,767.755 595.504,766.557 596.015,767.063 596.018,768.263 594.819,768.266 
	"/>
<line fill="none" stroke="#8D9DF7" stroke-width="0.5" x1="228.627" y1="398.471" x2="593.912" y2="436.984"/>
<polygon fill="#8D9DF7" points="592.832,437.723 593.765,436.968 593.011,436.036 593.727,436.112 594.479,437.044 593.549,437.798 
	"/>
<line fill="none" stroke="#8D9DF7" stroke-width="0.5" x1="224.473" y1="403.051" x2="249.052" y2="522.773"/>
<polygon fill="#8D9DF7" points="248.021,521.968 249.022,522.628 249.682,521.627 249.826,522.333 249.167,523.333 248.166,522.673 
	"/>
<line fill="none" stroke="#8D9DF7" stroke-width="0.5" x1="228.654" y1="398.032" x2="696.445" y2="407.87"/>
<polygon fill="#8D9DF7" points="695.432,408.696 696.297,407.867 695.467,407.001 696.186,407.016 697.016,407.882 696.151,408.712 
	"/>
<line fill="none" stroke="#8D9DF7" stroke-width="0.5" x1="228.533" y1="399.049" x2="696.97" y2="502.335"/>
<polygon fill="#8D9DF7" points="695.814,502.949 696.826,502.303 696.18,501.293 696.883,501.448 697.527,502.459 696.518,503.103 
	"/>
<line fill="none" stroke="#8D9DF7" stroke-width="0.5" x1="228.654" y1="398.061" x2="501.532" y2="405.291"/>
<polygon fill="#8D9DF7" points="500.514,406.112 501.384,405.288 500.559,404.418 501.278,404.437 502.103,405.306 501.233,406.132 
	"/>
<line fill="none" stroke="#8D9DF7" stroke-width="0.5" x1="225.556" y1="402.703" x2="383.76" y2="756.629"/>
<polygon fill="#8D9DF7" points="382.58,756.065 383.7,756.494 384.127,755.374 384.421,756.031 383.994,757.15 382.873,756.722 "/>
<line fill="none" stroke="#8D9DF7" stroke-width="0.5" x1="154.58" y1="618.242" x2="463.122" y2="339.688"/>
<polygon fill="#8D9DF7" points="462.951,340.985 463.013,339.788 461.814,339.727 462.349,339.245 463.547,339.305 463.486,340.503 
	"/>
<line fill="none" stroke="#8D9DF7" stroke-width="0.5" x1="155.709" y1="623.255" x2="300.148" y2="666.567"/>
<polygon fill="#8D9DF7" points="298.95,667.093 300.006,666.524 299.437,665.469 300.127,665.676 300.695,666.731 299.639,667.3 "/>
<line fill="none" stroke="#8D9DF7" stroke-width="0.5" x1="152.824" y1="626.533" x2="284.227" y2="921.504"/>
<polygon fill="#8D9DF7" points="283.047,920.938 284.167,921.369 284.595,920.249 284.888,920.906 284.459,922.025 283.34,921.596 
	"/>
<line fill="none" stroke="#8D9DF7" stroke-width="0.5" x1="155.722" y1="623.208" x2="473.68" y2="715.373"/>
<polygon fill="#8D9DF7" points="472.487,715.91 473.537,715.332 472.959,714.281 473.65,714.48 474.229,715.532 473.178,716.109 "/>
<line fill="none" stroke="#8D9DF7" stroke-width="0.5" x1="155.926" y1="621.937" x2="660.887" y2="639.896"/>
<polygon fill="#8D9DF7" points="659.861,640.708 660.738,639.891 659.922,639.014 660.641,639.039 661.459,639.917 660.581,640.732 
	"/>
<line fill="none" stroke="#8D9DF7" stroke-width="0.5" x1="155.889" y1="621.103" x2="586.879" y2="567.329"/>
<polygon fill="#8D9DF7" points="585.996,568.293 586.733,567.348 585.786,566.61 586.5,566.521 587.447,567.258 586.71,568.203 "/>
<line fill="none" stroke="#8D9DF7" stroke-width="0.5" x1="155.864" y1="622.576" x2="405.747" y2="662.454"/>
<polygon fill="#8D9DF7" points="404.63,663.135 405.601,662.432 404.897,661.459 405.608,661.573 406.311,662.544 405.34,663.247 
	"/>
<line fill="none" stroke="#00D3AA" stroke-width="0.5" x1="145.695" y1="623.311" x2="92.566" y2="639.888"/>
<polygon fill="#00D3AA" points="93.264,638.782 92.707,639.844 93.769,640.4 93.082,640.614 92.02,640.057 92.577,638.996 "/>
<line fill="none" stroke="#00D3AA" stroke-width="0.5" x1="146.021" y1="619.387" x2="98.478" y2="595.326"/>
<polygon fill="#00D3AA" points="99.749,595.021 98.608,595.394 98.982,596.533 98.34,596.207 97.967,595.069 99.106,594.695 "/>
<line fill="none" stroke="#8D9DF7" stroke-width="0.5" x1="154.164" y1="617.83" x2="379.603" y2="363.099"/>
<polygon fill="#8D9DF7" points="379.577,364.406 379.505,363.209 378.307,363.282 378.785,362.743 379.981,362.671 380.054,363.867 
	"/>
<line fill="none" stroke="#8D9DF7" stroke-width="0.5" x1="155.579" y1="619.868" x2="308.317" y2="561.019"/>
<polygon fill="#8D9DF7" points="307.693,562.169 308.18,561.072 307.084,560.587 307.755,560.328 308.851,560.814 308.365,561.909 
	"/>
<line fill="none" stroke="#8D9DF7" stroke-width="0.5" x1="155.112" y1="618.941" x2="392.79" y2="467.841"/>
<polygon fill="#8D9DF7" points="392.404,469.091 392.665,467.92 391.495,467.66 392.103,467.274 393.272,467.534 393.011,468.705 
	"/>
<line fill="none" stroke="#8D9DF7" stroke-width="0.5" x1="155.702" y1="620.225" x2="495.692" y2="516.598"/>
<polygon fill="#8D9DF7" points="494.986,517.7 495.55,516.641 494.492,516.078 495.18,515.868 496.238,516.431 495.674,517.49 "/>
<line fill="none" stroke="#8D9DF7" stroke-width="0.5" x1="153.322" y1="626.279" x2="207.271" y2="719.217"/>
<polygon fill="#8D9DF7" points="206.037,718.781 207.196,719.089 207.503,717.929 207.865,718.552 207.557,719.711 206.398,719.403 
	"/>
<line fill="none" stroke="#8D9DF7" stroke-width="0.5" x1="155.929" y1="621.751" x2="499.03" y2="621.747"/>
<polygon fill="#8D9DF7" points="498.034,622.595 498.882,621.746 498.034,620.899 498.754,620.899 499.601,621.746 498.754,622.595 
	"/>
<line fill="none" stroke="#00D3AA" stroke-width="0.5" x1="145.473" y1="621.351" x2="66.884" y2="666.446"/>
<polygon fill="#00D3AA" points="67.327,665.216 67.013,666.372 68.171,666.687 67.546,667.045 66.389,666.731 66.702,665.573 "/>
<line fill="none" stroke="#8D9DF7" stroke-width="0.5" x1="155.929" y1="621.679" x2="771.41" y2="613.254"/>
<polygon fill="#8D9DF7" points="770.426,614.115 771.263,613.256 770.403,612.42 771.123,612.41 771.981,613.246 771.146,614.104 
	"/>
<line fill="none" stroke="#8D9DF7" stroke-width="0.5" x1="155.853" y1="620.856" x2="411.222" y2="576.566"/>
<polygon fill="#8D9DF7" points="410.385,577.572 411.076,576.592 410.095,575.901 410.804,575.778 411.784,576.468 411.094,577.449 
	"/>
<line fill="none" stroke="#8D9DF7" stroke-width="0.5" x1="154.867" y1="624.913" x2="484.578" y2="874.763"/>
<polygon fill="#8D9DF7" points="483.272,874.837 484.46,874.673 484.296,873.484 484.87,873.92 485.034,875.107 483.847,875.271 "/>
<line fill="none" stroke="#8D9DF7" stroke-width="0.5" x1="155.843" y1="622.698" x2="659.386" y2="715.351"/>
<polygon fill="#8D9DF7" points="658.253,716.005 659.241,715.324 658.56,714.338 659.268,714.468 659.948,715.454 658.961,716.136 
	"/>
<line fill="none" stroke="#8D9DF7" stroke-width="0.5" x1="835.131" y1="842.797" x2="614.782" y2="704.588"/>
<polygon fill="#8D9DF7" points="616.077,704.398 614.908,704.666 615.176,705.835 614.565,705.452 614.299,704.284 615.467,704.016 
	"/>
<line fill="none" stroke="#8D9DF7" stroke-width="0.5" x1="836.343" y1="841.452" x2="639.076" y2="588.893"/>
<polygon fill="#8D9DF7" points="640.357,589.157 639.167,589.011 639.021,590.2 638.578,589.634 638.725,588.443 639.914,588.59 "/>
<line fill="none" stroke="#8D9DF7" stroke-width="0.5" x1="834.6" y1="843.922" x2="357.5" y2="684.729"/>
<polygon fill="#8D9DF7" points="358.713,684.241 357.64,684.776 358.176,685.848 357.494,685.621 356.958,684.549 358.03,684.012 
	"/>
<line fill="none" stroke="#00D3AA" stroke-width="0.5" x1="844.119" y1="848.164" x2="882.443" y2="869.928"/>
<polygon fill="#00D3AA" points="881.159,870.173 882.315,869.854 881.996,868.697 882.622,869.054 882.94,870.209 881.785,870.527 
	"/>
<line fill="none" stroke="#00D3AA" stroke-width="0.5" x1="844.483" y1="847.379" x2="927.26" y2="877.687"/>
<polygon fill="#00D3AA" points="926.033,878.14 927.121,877.636 926.616,876.547 927.292,876.794 927.796,877.882 926.709,878.388 
	"/>
<line fill="none" stroke="#8D9DF7" stroke-width="0.5" x1="835.051" y1="842.929" x2="362.333" y2="565.434"/>
<polygon fill="#8D9DF7" points="363.621,565.207 362.46,565.509 362.763,566.669 362.142,566.305 361.84,565.145 363,564.843 "/>
<line fill="none" stroke="#8D9DF7" stroke-width="0.5" x1="835.252" y1="842.612" x2="465.651" y2="588.47"/>
<polygon fill="#8D9DF7" points="466.952,588.337 465.773,588.555 465.992,589.732 465.399,589.325 465.181,588.147 466.359,587.929 
	"/>
<line fill="none" stroke="#8D9DF7" stroke-width="0.5" x1="835.33" y1="842.501" x2="557.756" y2="640.828"/>
<polygon fill="#8D9DF7" points="559.061,640.729 557.875,640.915 558.063,642.1 557.481,641.676 557.293,640.493 558.478,640.306 
	"/>
<line fill="none" stroke="#8D9DF7" stroke-width="0.5" x1="837.543" y1="840.75" x2="642.656" y2="375.68"/>
<polygon fill="#8D9DF7" points="643.823,376.27 642.713,375.816 642.26,376.925 641.981,376.261 642.436,375.152 643.545,375.606 
	"/>
<line fill="none" stroke="#00D3AA" stroke-width="0.5" x1="843.074" y1="849.467" x2="901.286" y2="913.978"/>
<polygon fill="#00D3AA" points="899.989,913.807 901.187,913.868 901.248,912.67 901.73,913.204 901.669,914.402 900.471,914.34 "/>
<line fill="none" stroke="#8D9DF7" stroke-width="0.5" x1="837.067" y1="840.978" x2="631.182" y2="461.893"/>
<polygon fill="#8D9DF7" points="632.402,462.363 631.252,462.023 630.912,463.173 630.569,462.54 630.909,461.39 632.058,461.731 
	"/>
<line fill="none" stroke="#DFF2F2" stroke-width="0.5" x1="840.247" y1="850.771" x2="850.211" y2="926.712"/>
<polygon fill="#DFF2F2" points="849.241,925.836 850.192,926.565 850.922,925.614 851.016,926.328 850.285,927.278 849.335,926.55 
	"/>
<line fill="none" stroke="#8D9DF7" stroke-width="0.5" x1="836.521" y1="841.319" x2="712.211" y2="667.458"/>
<polygon fill="#8D9DF7" points="713.48,667.775 712.297,667.578 712.101,668.76 711.683,668.175 711.879,666.993 713.062,667.189 
	"/>
<line fill="none" stroke="#8D9DF7" stroke-width="0.5" x1="837.786" y1="840.655" x2="724.044" y2="526.101"/>
<polygon fill="#8D9DF7" points="725.18,526.75 724.095,526.24 723.586,527.326 723.341,526.648 723.85,525.562 724.935,526.072 "/>
<line fill="none" stroke="#8D9DF7" stroke-width="0.5" x1="836.012" y1="841.734" x2="548.78" y2="530.973"/>
<polygon fill="#8D9DF7" points="550.078,531.129 548.88,531.082 548.833,532.279 548.345,531.751 548.392,530.554 549.59,530.602 
	"/>
<line fill="none" stroke="#00D3AA" stroke-width="0.5" x1="841.405" y1="850.481" x2="856.84" y2="891.636"/>
<polygon fill="#00D3AA" points="855.696,891.002 856.788,891.498 857.283,890.405 857.536,891.08 857.04,892.172 855.949,891.676 
	"/>
<line fill="none" stroke="#8D9DF7" stroke-width="0.5" x1="834.498" y1="844.265" x2="642.077" y2="794.346"/>
<polygon fill="#8D9DF7" points="643.254,793.775 642.221,794.382 642.828,795.416 642.131,795.235 641.524,794.202 642.558,793.594 
	"/>
<line fill="none" stroke="#8D9DF7" stroke-width="0.5" x1="834.387" y1="844.813" x2="419.146" y2="783.45"/>
<polygon fill="#8D9DF7" points="420.255,782.757 419.292,783.472 420.007,784.434 419.295,784.328 418.58,783.365 419.543,782.651 
	"/>
<line fill="none" stroke="#8D9DF7" stroke-width="0.5" x1="834.449" y1="846.688" x2="708.391" y2="874.026"/>
<polygon fill="#8D9DF7" points="709.184,872.986 708.535,873.995 709.543,874.643 708.84,874.796 707.832,874.147 708.48,873.139 
	"/>
<line fill="none" stroke="#00D3AA" stroke-width="0.5" x1="844.713" y1="844.614" x2="894.322" y2="835.319"/>
<polygon fill="#00D3AA" points="893.499,836.336 894.177,835.347 893.188,834.669 893.895,834.536 894.884,835.214 894.206,836.202 
	"/>
<line fill="none" stroke="#8D9DF7" stroke-width="0.5" x1="648.65" y1="264.799" x2="622.292" y2="531.003"/>
<polygon fill="#8D9DF7" points="621.547,529.929 622.307,530.857 623.233,530.096 623.162,530.812 622.235,531.573 621.476,530.646 
	"/>
<line fill="none" stroke="#8D9DF7" stroke-width="0.5" x1="645.141" y1="262.937" x2="441.308" y2="432.465"/>
<polygon fill="#8D9DF7" points="441.531,431.176 441.421,432.371 442.615,432.48 442.062,432.94 440.868,432.831 440.977,431.638 
	"/>
<line fill="none" stroke="#8D9DF7" stroke-width="0.5" x1="648.469" y1="264.778" x2="595.005" y2="662.411"/>
<polygon fill="#8D9DF7" points="594.298,661.311 595.025,662.265 595.978,661.537 595.882,662.249 594.929,662.978 594.202,662.024 
	"/>
<line fill="none" stroke="#8D9DF7" stroke-width="0.5" x1="647.549" y1="264.568" x2="541.525" y2="590.872"/>
<polygon fill="#8D9DF7" points="541.027,589.663 541.571,590.73 542.639,590.187 542.417,590.872 541.349,591.416 540.804,590.348 
	"/>
<line fill="none" stroke="#8D9DF7" stroke-width="0.5" x1="647.564" y1="264.574" x2="508.76" y2="696.709"/>
<polygon fill="#8D9DF7" points="508.257,695.502 508.805,696.567 509.871,696.021 509.651,696.706 508.585,697.254 508.037,696.188 
	"/>
<line fill="none" stroke="#8D9DF7" stroke-width="0.5" x1="645.33" y1="263.153" x2="358.429" y2="529.726"/>
<polygon fill="#8D9DF7" points="358.581,528.427 358.537,529.625 359.734,529.669 359.208,530.16 358.01,530.115 358.054,528.917 
	"/>
<line fill="none" stroke="#8D9DF7" stroke-width="0.5" x1="645.971" y1="263.737" x2="347.324" y2="651.377"/>
<polygon fill="#8D9DF7" points="347.26,650.07 347.414,651.259 348.603,651.105 348.164,651.674 346.975,651.829 346.821,650.64 "/>
<line fill="none" stroke="#8D9DF7" stroke-width="0.5" x1="646.846" y1="264.282" x2="541.136" y2="478.034"/>
<polygon fill="#8D9DF7" points="540.817,476.765 541.201,477.902 542.337,477.518 542.019,478.162 540.882,478.546 540.499,477.411 
	"/>
<line fill="none" stroke="#8D9DF7" stroke-width="0.5" x1="646.713" y1="264.213" x2="446.087" y2="642.348"/>
<polygon fill="#8D9DF7" points="445.806,641.071 446.157,642.217 447.304,641.865 446.966,642.501 445.82,642.852 445.469,641.707 
	"/>
<line fill="none" stroke="#8D9DF7" stroke-width="0.5" x1="646.258" y1="263.943" x2="457.573" y2="546.41"/>
<polygon fill="#8D9DF7" points="457.421,545.111 457.654,546.287 458.832,546.052 458.431,546.651 457.255,546.885 457.021,545.71 
	"/>
<line fill="none" stroke="#8D9DF7" stroke-width="0.5" x1="649.517" y1="264.813" x2="689.403" y2="859.737"/>
<polygon fill="#8D9DF7" points="688.491,858.8 689.394,859.59 690.182,858.687 690.231,859.404 689.442,860.308 688.539,859.519 "/>
<line fill="none" stroke="#8D9DF7" stroke-width="0.5" x1="649.769" y1="264.79" x2="689.597" y2="608.802"/>
<polygon fill="#8D9DF7" points="688.641,607.91 689.579,608.655 690.324,607.715 690.407,608.431 689.662,609.37 688.723,608.625 
	"/>
<line fill="none" stroke="#8D9DF7" stroke-width="0.5" x1="647.678" y1="264.609" x2="492.48" y2="788.299"/>
<polygon fill="#8D9DF7" points="491.95,787.104 492.522,788.158 493.575,787.585 493.371,788.275 492.317,788.848 491.745,787.793 
	"/>
<line fill="none" stroke="#8D9DF7" stroke-width="0.5" x1="648.83" y1="264.814" x2="617.037" y2="759.743"/>
<polygon fill="#8D9DF7" points="616.256,758.694 617.047,759.595 617.947,758.802 617.901,759.521 617.001,760.313 616.209,759.413 
	"/>
<line fill="none" stroke="#8D9DF7" stroke-width="0.5" x1="648.304" y1="264.753" x2="623.267" y2="414.662"/>
<polygon fill="#8D9DF7" points="622.596,413.54 623.291,414.517 624.268,413.819 624.149,414.529 623.173,415.227 622.477,414.25 
	"/>
<line fill="none" stroke="#00D3AA" stroke-width="0.5" x1="650.619" y1="254.558" x2="667.917" y2="194.676"/>
<polygon fill="#00D3AA" points="668.455,195.868 667.876,194.818 666.826,195.397 667.026,194.706 668.076,194.127 668.655,195.177 
	"/>
<line fill="none" stroke="#8D9DF7" stroke-width="0.5" x1="646.861" y1="264.29" x2="405.244" y2="757.011"/>
<polygon fill="#8D9DF7" points="404.921,755.743 405.31,756.878 406.443,756.49 406.126,757.136 404.992,757.523 404.604,756.389 
	"/>
<line fill="none" stroke="#8D9DF7" stroke-width="0.5" x1="651.276" y1="264.38" x2="707.297" y2="391.609"/>
<polygon fill="#8D9DF7" points="706.119,391.041 707.237,391.476 707.672,390.356 707.962,391.016 707.526,392.134 706.409,391.699 
	"/>
<line fill="none" stroke="#8D9DF7" stroke-width="0.5" x1="648.396" y1="264.767" x2="637.736" y2="336.374"/>
<polygon fill="#8D9DF7" points="637.045,335.264 637.758,336.229 638.722,335.514 638.616,336.227 637.652,336.94 636.938,335.977 
	"/>
<line fill="none" stroke="#8D9DF7" stroke-width="0.5" x1="650.553" y1="264.637" x2="711.605" y2="486.934"/>
<polygon fill="#8D9DF7" points="710.524,486.198 711.566,486.791 712.159,485.749 712.35,486.443 711.756,487.485 710.715,486.892 
	"/>
<line fill="none" stroke="#8D9DF7" stroke-width="0.5" x1="907.208" y1="623.001" x2="527.189" y2="716.469"/>
<polygon fill="#8D9DF7" points="527.954,715.408 527.333,716.433 528.359,717.054 527.66,717.226 526.635,716.604 527.255,715.58 
	"/>
<line fill="none" stroke="#8D9DF7" stroke-width="0.5" x1="907.342" y1="620.047" x2="446.624" y2="461.492"/>
<polygon fill="#8D9DF7" points="447.841,461.014 446.763,461.539 447.289,462.617 446.609,462.382 446.083,461.305 447.16,460.78 
	"/>
<line fill="none" stroke="#8D9DF7" stroke-width="0.5" x1="907.068" y1="621.395" x2="798.225" y2="613.982"/>
<polygon fill="#8D9DF7" points="799.276,613.204 798.372,613.992 799.161,614.895 798.443,614.847 797.655,613.942 798.559,613.155 
	"/>
<line fill="none" stroke="#8D9DF7" stroke-width="0.5" x1="907.88" y1="624.569" x2="514.394" y2="875.955"/>
<polygon fill="#8D9DF7" points="514.777,874.704 514.518,875.875 515.69,876.133 515.083,876.52 513.912,876.263 514.17,875.092 "/>
<line fill="none" stroke="#8D9DF7" stroke-width="0.5" x1="907.432" y1="623.698" x2="685.049" y2="712.789"/>
<polygon fill="#8D9DF7" points="685.658,711.632 685.186,712.734 686.287,713.204 685.619,713.473 684.518,713.002 684.989,711.899 
	"/>
<line fill="none" stroke="#00D3AA" stroke-width="0.5" x1="917.407" y1="622.871" x2="980.439" y2="636.679"/>
<polygon fill="#00D3AA" points="979.285,637.293 980.295,636.646 979.648,635.638 980.35,635.791 980.998,636.801 979.988,637.446 
	"/>
<line fill="none" stroke="#8D9DF7" stroke-width="0.5" x1="907.079" y1="622.241" x2="460.685" y2="664.226"/>
<polygon fill="#8D9DF7" points="461.598,663.289 460.833,664.212 461.757,664.976 461.04,665.044 460.117,664.278 460.882,663.355 
	"/>
<line fill="none" stroke="#8D9DF7" stroke-width="0.5" x1="907.157" y1="620.728" x2="650.93" y2="569.655"/>
<polygon fill="#8D9DF7" points="652.072,569.019 651.074,569.685 651.74,570.682 651.035,570.54 650.37,569.543 651.367,568.877 "/>
<line fill="none" stroke="#8D9DF7" stroke-width="0.5" x1="907.076" y1="622.211" x2="725.668" y2="638.199"/>
<polygon fill="#8D9DF7" points="726.586,637.268 725.814,638.187 726.734,638.956 726.018,639.02 725.099,638.249 725.869,637.33 
	"/>
<line fill="none" stroke="#8D9DF7" stroke-width="0.5" x1="907.845" y1="618.988" x2="640.607" y2="453.001"/>
<polygon fill="#8D9DF7" points="641.9,452.806 640.733,453.078 641.006,454.246 640.395,453.867 640.121,452.7 641.289,452.426 "/>
<line fill="none" stroke="#8D9DF7" stroke-width="0.5" x1="907.098" y1="621.094" x2="267.909" y2="540.237"/>
<polygon fill="#8D9DF7" points="269.002,539.521 268.054,540.255 268.791,541.203 268.075,541.113 267.341,540.166 268.288,539.43 
	"/>
<line fill="none" stroke="#8D9DF7" stroke-width="0.5" x1="907.057" y1="621.751" x2="563.957" y2="621.747"/>
<polygon fill="#8D9DF7" points="564.953,620.899 564.104,621.747 564.953,622.594 564.232,622.594 563.386,621.747 564.232,620.899 
	"/>
<line fill="none" stroke="#00D3AA" stroke-width="0.5" x1="917.368" y1="620.465" x2="955.971" y2="610.686"/>
<polygon fill="#00D3AA" points="955.214,611.752 955.828,610.722 954.798,610.107 955.495,609.932 956.525,610.545 955.911,611.574 
	"/>
<line fill="none" stroke="#8D9DF7" stroke-width="0.5" x1="907.273" y1="620.259" x2="557.862" y2="516.385"/>
<polygon fill="#8D9DF7" points="559.059,515.855 558.003,516.426 558.576,517.48 557.886,517.275 557.314,516.221 558.369,515.65 
	"/>
<line fill="none" stroke="#00D3AA" stroke-width="0.5" x1="917.491" y1="621.127" x2="1009.881" y2="610.047"/>
<polygon fill="#00D3AA" points="1008.993,611.007 1009.734,610.064 1008.791,609.322 1009.506,609.236 1010.448,609.979 
	1009.708,610.921 "/>
<line fill="none" stroke="#8D9DF7" stroke-width="0.5" x1="907.692" y1="619.249" x2="526.743" y2="412.06"/>
<polygon fill="#8D9DF7" points="528.023,411.792 526.873,412.132 527.213,413.281 526.581,412.938 526.241,411.788 527.391,411.448 
	"/>
<line fill="none" stroke="#8D9DF7" stroke-width="0.5" x1="907.72" y1="624.301" x2="639.457" y2="773.896"/>
<polygon fill="#8D9DF7" points="639.914,772.671 639.586,773.823 640.74,774.15 640.111,774.502 638.958,774.175 639.286,773.021 
	"/>
<line fill="none" stroke="#00D3AA" stroke-width="0.5" x1="916.124" y1="625.319" x2="954.668" y2="661.221"/>
<polygon fill="#00D3AA" points="953.362,661.163 954.561,661.121 954.518,659.923 955.044,660.413 955.087,661.611 953.889,661.652 
	"/>
<line fill="none" stroke="#00D3AA" stroke-width="0.5" x1="914.908" y1="617.215" x2="938.664" y2="576.028"/>
<polygon fill="#00D3AA" points="938.9,577.315 938.59,576.157 937.432,576.467 937.791,575.844 938.949,575.534 939.26,576.691 "/>
<line fill="none" stroke="#00D3AA" stroke-width="0.5" x1="916.609" y1="618.787" x2="981.578" y2="574.188"/>
<polygon fill="#00D3AA" points="981.237,575.451 981.457,574.271 980.277,574.054 980.871,573.646 982.049,573.865 981.83,575.044 
	"/>
<line fill="none" stroke="#8D9DF7" stroke-width="0.5" x1="416.116" y1="979.207" x2="604.854" y2="592.483"/>
<polygon fill="#8D9DF7" points="605.18,593.751 604.79,592.616 603.656,593.007 603.972,592.359 605.105,591.971 605.496,593.104 
	"/>
<line fill="none" stroke="#8D9DF7" stroke-width="0.5" x1="416.525" y1="979.43" x2="576.997" y2="713.584"/>
<polygon fill="#8D9DF7" points="577.208,714.875 576.92,713.711 575.756,713.999 576.128,713.383 577.292,713.096 577.58,714.259 
	"/>
<line fill="none" stroke="#8D9DF7" stroke-width="0.5" x1="408.964" y1="981.951" x2="302.135" y2="938.794"/>
<polygon fill="#8D9DF7" points="303.376,938.381 302.272,938.849 302.742,939.951 302.073,939.683 301.605,938.578 302.709,938.11 
	"/>
<line fill="none" stroke="#8D9DF7" stroke-width="0.5" x1="415.467" y1="978.942" x2="491.571" y2="749.381"/>
<polygon fill="#8D9DF7" points="492.062,750.594 491.523,749.521 490.453,750.061 490.679,749.376 491.75,748.839 492.289,749.909 
	"/>
<line fill="none" stroke="#8D9DF7" stroke-width="0.5" x1="413.862" y1="978.677" x2="417.931" y2="481.783"/>
<polygon fill="#8D9DF7" points="418.771,482.787 417.93,481.933 417.076,482.772 417.082,482.054 417.936,481.213 418.777,482.067 
	"/>
<line fill="none" stroke="#8D9DF7" stroke-width="0.5" x1="412.899" y1="978.758" x2="341.677" y2="579.819"/>
<polygon fill="#8D9DF7" points="342.686,580.65 341.703,579.964 341.017,580.948 340.891,580.24 341.576,579.256 342.56,579.942 "/>
<line fill="none" stroke="#8D9DF7" stroke-width="0.5" x1="412.432" y1="978.863" x2="336.937" y2="704.215"/>
<polygon fill="#8D9DF7" points="338.019,704.951 336.977,704.356 336.384,705.399 336.192,704.706 336.786,703.664 337.828,704.257 
	"/>
<line fill="none" stroke="#8D9DF7" stroke-width="0.5" x1="415.026" y1="978.817" x2="519.263" y2="538.723"/>
<polygon fill="#8D9DF7" points="519.858,539.887 519.229,538.866 518.209,539.496 518.375,538.796 519.395,538.167 520.024,539.188 
	"/>
<line fill="none" stroke="#8D9DF7" stroke-width="0.5" x1="415.438" y1="978.933" x2="521.461" y2="652.62"/>
<polygon fill="#8D9DF7" points="521.96,653.83 521.416,652.762 520.348,653.307 520.57,652.622 521.638,652.078 522.182,653.146 "/>
<line fill="none" stroke="#8D9DF7" stroke-width="0.5" x1="417.128" y1="979.854" x2="672.816" y2="666.211"/>
<polygon fill="#8D9DF7" points="672.846,667.52 672.725,666.326 671.531,666.448 671.986,665.891 673.178,665.769 673.3,666.961 "/>
<line fill="none" stroke="#8D9DF7" stroke-width="0.5" x1="414.137" y1="978.687" x2="431.422" y2="694.473"/>
<polygon fill="#8D9DF7" points="432.208,695.519 431.413,694.62 430.516,695.414 430.56,694.697 431.457,693.902 432.251,694.799 
	"/>
<line fill="none" stroke="#8D9DF7" stroke-width="0.5" x1="418.709" y1="982.039" x2="673.64" y2="884.385"/>
<polygon fill="#8D9DF7" points="673.014,885.532 673.502,884.437 672.407,883.949 673.078,883.691 674.173,884.179 673.686,885.273 
	"/>
<line fill="none" stroke="#8D9DF7" stroke-width="0.5" x1="414.162" y1="978.688" x2="438.895" y2="601.445"/>
<polygon fill="#8D9DF7" points="439.675,602.494 438.884,601.593 437.984,602.383 438.03,601.665 438.932,600.875 439.722,601.775 
	"/>
<line fill="none" stroke="#8D9DF7" stroke-width="0.5" x1="415.829" y1="979.077" x2="477.157" y2="831.483"/>
<polygon fill="#8D9DF7" points="477.558,832.729 477.1,831.621 475.993,832.079 476.268,831.414 477.376,830.957 477.833,832.064 
	"/>
<line fill="none" stroke="#8D9DF7" stroke-width="0.5" x1="413.184" y1="978.715" x2="406.051" y2="920.359"/>
<polygon fill="#8D9DF7" points="407.014,921.245 406.07,920.506 405.331,921.451 405.244,920.735 405.981,919.792 406.927,920.53 
	"/>
<line fill="none" stroke="#8D9DF7" stroke-width="0.5" x1="413.316" y1="978.701" x2="396.529" y2="804.954"/>
<polygon fill="#8D9DF7" points="397.469,805.863 396.544,805.1 395.782,806.026 395.712,805.31 396.474,804.384 397.4,805.146 "/>
<line fill="none" stroke="#8D9DF7" stroke-width="0.5" x1="417.567" y1="980.256" x2="595.432" y2="806.734"/>
<polygon fill="#8D9DF7" points="595.311,808.037 595.326,806.838 594.127,806.823 594.643,806.321 595.841,806.336 595.826,807.534 
	"/>
<line fill="none" stroke="#8D9DF7" stroke-width="0.5" x1="410.566" y1="979.81" x2="227.697" y2="749.19"/>
<polygon fill="#8D9DF7" points="228.979,749.444 227.789,749.306 227.651,750.497 227.205,749.933 227.341,748.743 228.532,748.88 
	"/>
<line fill="none" stroke="#8D9DF7" stroke-width="0.5" x1="417.829" y1="980.545" x2="738.476" y2="711.261"/>
<polygon fill="#8D9DF7" points="738.258,712.55 738.361,711.355 737.167,711.252 737.719,710.788 738.913,710.893 738.809,712.087 
	"/>
<line fill="none" stroke="#8D9DF7" stroke-width="0.5" x1="416.627" y1="979.493" x2="706.022" y2="524.118"/>
<polygon fill="#8D9DF7" points="706.203,525.414 705.943,524.243 704.772,524.504 705.158,523.896 706.328,523.636 706.589,524.807 
	"/>
<line fill="none" stroke="#8D9DF7" stroke-width="0.5" x1="227.682" y1="842.538" x2="592.665" y2="582.163"/>
<polygon fill="#8D9DF7" points="592.348,583.432 592.545,582.248 591.362,582.052 591.948,581.634 593.131,581.83 592.934,583.014 
	"/>
<line fill="none" stroke="#8D9DF7" stroke-width="0.5" x1="225.74" y1="840.886" x2="404.843" y2="478.668"/>
<polygon fill="#8D9DF7" points="405.162,479.937 404.778,478.801 403.642,479.186 403.961,478.541 405.097,478.157 405.481,479.291 
	"/>
<line fill="none" stroke="#8D9DF7" stroke-width="0.5" x1="228.241" y1="843.538" x2="565.801" y2="700.665"/>
<polygon fill="#8D9DF7" points="565.214,701.834 565.666,700.723 564.553,700.271 565.216,699.991 566.327,700.441 565.877,701.554 
	"/>
<line fill="none" stroke="#8D9DF7" stroke-width="0.5" x1="227.656" y1="842.501" x2="505.23" y2="640.827"/>
<polygon fill="#8D9DF7" points="504.922,642.1 505.11,640.914 503.925,640.729 504.508,640.305 505.692,640.493 505.505,641.677 "/>
<line fill="none" stroke="#8D9DF7" stroke-width="0.5" x1="228.208" y1="843.461" x2="474.953" y2="734.294"/>
<polygon fill="#8D9DF7" points="474.385,735.473 474.818,734.354 473.699,733.921 474.357,733.63 475.475,734.063 475.043,735.182 
	"/>
<line fill="none" stroke="#8D9DF7" stroke-width="0.5" x1="226.914" y1="841.68" x2="505.078" y2="531.309"/>
<polygon fill="#8D9DF7" points="505.045,532.616 504.98,531.419 503.782,531.485 504.263,530.949 505.46,530.884 505.525,532.08 "/>
<line fill="none" stroke="#8D9DF7" stroke-width="0.5" x1="226.177" y1="841.128" x2="313.121" y2="700.78"/>
<polygon fill="#8D9DF7" points="313.317,702.074 313.043,700.907 311.876,701.181 312.255,700.57 313.422,700.296 313.696,701.463 
	"/>
<line fill="none" stroke="#8D9DF7" stroke-width="0.5" x1="226.673" y1="841.477" x2="422.168" y2="594.996"/>
<polygon fill="#8D9DF7" points="422.214,596.303 422.077,595.111 420.885,595.248 421.333,594.686 422.524,594.548 422.661,595.739 
	"/>
<line fill="none" stroke="#8D9DF7" stroke-width="0.5" x1="228.601" y1="846.334" x2="481.077" y2="883.123"/>
<polygon fill="#8D9DF7" points="479.969,883.818 480.93,883.101 480.214,882.14 480.926,882.244 481.642,883.205 480.681,883.922 
	"/>
<line fill="none" stroke="#8D9DF7" stroke-width="0.5" x1="225.29" y1="840.688" x2="325.643" y2="578.302"/>
<polygon fill="#8D9DF7" points="326.079,579.535 325.59,578.439 324.496,578.93 324.752,578.258 325.848,577.768 326.335,578.863 
	"/>
<line fill="none" stroke="#8D9DF7" stroke-width="0.5" x1="228.221" y1="843.489" x2="663.563" y2="654.006"/>
<polygon fill="#8D9DF7" points="662.989,655.181 663.428,654.064 662.312,653.625 662.973,653.338 664.088,653.777 663.649,654.894 
	"/>
<line fill="none" stroke="#8D9DF7" stroke-width="0.5" x1="228.609" y1="844.882" x2="463.222" y2="813.354"/>
<polygon fill="#8D9DF7" points="462.348,814.326 463.076,813.373 462.122,812.645 462.835,812.55 463.788,813.276 463.061,814.229 
	"/>
<line fill="none" stroke="#8D9DF7" stroke-width="0.5" x1="228.599" y1="844.81" x2="587.858" y2="791.458"/>
<polygon fill="#8D9DF7" points="586.998,792.443 587.712,791.48 586.749,790.766 587.461,790.661 588.424,791.375 587.71,792.338 
	"/>
<line fill="none" stroke="#8D9DF7" stroke-width="0.5" x1="228.305" y1="843.694" x2="370.468" y2="788.861"/>
<polygon fill="#8D9DF7" points="369.843,790.01 370.329,788.913 369.233,788.429 369.905,788.169 371,788.655 370.514,789.75 "/>
<line fill="none" stroke="#8D9DF7" stroke-width="0.5" x1="227.404" y1="842.182" x2="412.022" y2="684.792"/>
<polygon fill="#8D9DF7" points="411.814,686.084 411.909,684.889 410.714,684.794 411.262,684.326 412.457,684.423 412.362,685.616 
	"/>
<line fill="none" stroke="#8D9DF7" stroke-width="0.5" x1="226.791" y1="841.572" x2="621.471" y2="372.449"/>
<polygon fill="#8D9DF7" points="621.479,373.756 621.375,372.562 620.181,372.666 620.644,372.114 621.838,372.012 621.941,373.206 
	"/>
<line fill="none" stroke="#8D9DF7" stroke-width="0.5" x1="223.908" y1="840.366" x2="250.755" y2="553.988"/>
<polygon fill="#8D9DF7" points="251.506,555.06 250.741,554.135 249.818,554.901 249.885,554.185 250.808,553.419 251.573,554.342 
	"/>
<line fill="none" stroke="#8D9DF7" stroke-width="0.5" x1="223.088" y1="840.354" x2="217.55" y2="753.089"/>
<polygon fill="#8D9DF7" points="218.459,754.03 217.561,753.237 216.768,754.137 216.723,753.419 217.515,752.519 218.415,753.311 
	"/>
<line fill="none" stroke="#8D9DF7" stroke-width="0.5" x1="228.011" y1="848.096" x2="514.419" y2="1005.091"/>
<polygon fill="#8D9DF7" points="513.138,1005.355 514.289,1005.021 513.953,1003.869 514.584,1004.214 514.92,1005.366 
	513.769,1005.701 "/>
<line fill="none" stroke="#8D9DF7" stroke-width="0.5" x1="227.074" y1="841.829" x2="601.42" y2="457.774"/>
<polygon fill="#8D9DF7" points="601.332,459.079 601.317,457.88 600.118,457.895 600.62,457.38 601.819,457.365 601.834,458.562 "/>
<g>
	<path d="M413.819,254.829c2.629,0,4.76,2.131,4.76,4.76s-2.131,4.76-4.76,4.76s-4.76-2.131-4.76-4.76
		S411.19,254.829,413.819,254.829"/>
	<path fill="#8D9DF7" d="M591.313,666.067c13.145,0,23.8,10.654,23.8,23.8c0,13.144-10.655,23.8-23.8,23.8
		c-13.146,0-23.8-10.656-23.8-23.8C567.514,676.722,578.168,666.067,591.313,666.067"/>
	<path fill="#8D9DF7" d="M418.178,425.522c14.459,0,26.18,11.721,26.18,26.18s-11.721,26.179-26.18,26.179
		s-26.18-11.72-26.18-26.179S403.719,425.522,418.178,425.522"/>
	<path fill="#8D9DF7" d="M619.094,534.75c15.772,0,28.56,12.786,28.56,28.56c0,15.773-12.787,28.56-28.56,28.56
		c-15.773,0-28.561-12.786-28.561-28.56C590.533,547.535,603.32,534.75,619.094,534.75"/>
	<path fill="#00D3AA" d="M406.736,183.941c3.943,0,7.14,3.197,7.14,7.141c0,3.943-3.197,7.139-7.14,7.139s-7.14-3.196-7.14-7.139
		C399.596,187.138,402.793,183.941,406.736,183.941"/>
	<path fill="#8D9DF7" d="M531.493,593.187c15.773,0,28.56,12.787,28.56,28.561s-12.787,28.56-28.56,28.56s-28.56-12.786-28.56-28.56
		S515.72,593.187,531.493,593.187"/>
	<path fill="#8D9DF7" d="M440.863,545.246c14.459,0,26.18,11.721,26.18,26.18s-11.721,26.179-26.18,26.179
		c-14.458,0-26.18-11.72-26.18-26.179S426.405,545.246,440.863,545.246"/>
	<path fill="#8D9DF7" d="M526.745,478.574c15.773,0,28.56,12.786,28.56,28.56c0,15.773-12.787,28.559-28.56,28.559
		s-28.56-12.786-28.56-28.559C498.185,491.36,510.972,478.574,526.745,478.574"/>
	<path fill="#8D9DF7" d="M336.39,524.024c14.458,0,26.18,11.721,26.18,26.18s-11.722,26.179-26.18,26.179
		c-14.459,0-26.18-11.72-26.18-26.179S321.931,524.024,336.39,524.024"/>
	<path fill="#8D9DF7" d="M598.803,865.003c5.259,0,9.521,4.263,9.521,9.521c0,5.256-4.262,9.52-9.521,9.52
		c-5.258,0-9.52-4.264-9.52-9.52C589.283,869.266,593.545,865.003,598.803,865.003"/>
	<path fill="#8D9DF7" d="M474.853,317.199c6.572,0,11.9,5.327,11.9,11.899c0,6.573-5.328,11.901-11.9,11.901
		c-6.572,0-11.9-5.328-11.9-11.901C462.953,322.526,468.28,317.199,474.853,317.199"/>
	<path fill="#8D9DF7" d="M390.076,339.364c6.572,0,11.9,5.327,11.9,11.899c0,6.573-5.328,11.901-11.9,11.901
		c-6.572,0-11.9-5.328-11.9-11.901C378.176,344.691,383.504,339.364,390.076,339.364"/>
	<path fill="#8D9DF7" d="M693.33,612.49c15.773,0,28.56,12.786,28.56,28.56s-12.786,28.561-28.56,28.561
		s-28.561-12.787-28.561-28.561S677.557,612.49,693.33,612.49"/>
	<path fill="#8D9DF7" d="M619.096,418.219c11.83,0,21.42,9.59,21.42,21.42c0,11.83-9.59,21.42-21.42,21.42s-21.42-9.59-21.42-21.42
		C597.676,427.81,607.266,418.219,619.096,418.219"/>
	<path fill="#8D9DF7" d="M328.964,649.027c14.458,0,26.18,11.722,26.18,26.181s-11.722,26.179-26.18,26.179
		c-14.459,0-26.18-11.72-26.18-26.179S314.505,649.027,328.964,649.027"/>
	<path fill="#8D9DF7" d="M634.709,340.053c9.201,0,16.66,7.459,16.66,16.66c0,9.201-7.459,16.66-16.66,16.66
		s-16.66-7.459-16.66-16.66C618.049,347.512,625.508,340.053,634.709,340.053"/>
	<path fill="#8D9DF7" d="M216.399,720.663c7.887,0,14.28,6.393,14.28,14.278c0,7.888-6.393,14.281-14.28,14.281
		s-14.28-6.394-14.28-14.281C202.119,727.056,208.512,720.663,216.399,720.663"/>
	<path fill="#8D9DF7" d="M760.04,279.705c5.258,0,9.52,4.263,9.52,9.521c0,5.257-4.262,9.519-9.52,9.519s-9.521-4.262-9.521-9.519
		C750.519,283.968,754.782,279.705,760.04,279.705"/>
	<path fill="#00D3AA" d="M363.349,175.376c3.943,0,7.14,3.196,7.14,7.14c0,3.943-3.197,7.139-7.14,7.139
		c-3.943,0-7.14-3.196-7.14-7.139C356.208,178.573,359.405,175.376,363.349,175.376"/>
	<path fill="#8D9DF7" d="M615.262,763.589c13.145,0,23.8,10.655,23.8,23.8c0,13.144-10.655,23.801-23.8,23.801
		s-23.8-10.657-23.8-23.801C591.462,774.244,602.117,763.589,615.262,763.589"/>
	<path fill="#8D9DF7" d="M394.094,758.328c11.83,0,21.42,9.59,21.42,21.42s-9.59,21.42-21.42,21.42s-21.42-9.59-21.42-21.42
		S382.264,758.328,394.094,758.328"/>
	<path d="M839.566,393.162c2.629,0,4.76,2.132,4.76,4.761s-2.131,4.76-4.76,4.76s-4.761-2.131-4.761-4.76
		S836.938,393.162,839.566,393.162"/>
	<path fill="#8D9DF7" d="M500.288,699.285c13.144,0,23.8,10.655,23.8,23.801c0,13.143-10.656,23.8-23.8,23.8
		c-13.145,0-23.8-10.657-23.8-23.8C476.488,709.94,487.143,699.285,500.288,699.285"/>
	<path fill="#8D9DF7" d="M433.104,643.021c13.145,0,23.8,10.654,23.8,23.8c0,13.144-10.655,23.8-23.8,23.8
		c-13.144,0-23.8-10.656-23.8-23.8C409.304,653.675,419.96,643.021,433.104,643.021"/>
	<path fill="#8D9DF7" d="M485.961,791.257c10.516,0,19.04,8.523,19.04,19.04c0,10.516-8.524,19.04-19.04,19.04
		s-19.04-8.524-19.04-19.04C466.921,799.78,475.445,791.257,485.961,791.257"/>
	<path fill="#8D9DF7" d="M748.755,693.107c5.257,0,9.52,4.263,9.52,9.521c0,5.257-4.263,9.52-9.52,9.52
		c-5.258,0-9.521-4.263-9.521-9.52C739.233,697.37,743.497,693.107,748.755,693.107"/>
	<path fill="#8D9DF7" d="M717.051,490.103c9.201,0,16.66,7.459,16.66,16.659c0,9.201-7.459,16.66-16.66,16.66
		c-9.2,0-16.659-7.459-16.659-16.66C700.392,497.562,707.851,490.103,717.051,490.103"/>
	<path fill="#8D9DF7" d="M714.625,393.971c7.886,0,14.279,6.394,14.279,14.28c0,7.887-6.394,14.281-14.279,14.281
		c-7.888,0-14.28-6.394-14.28-14.281C700.345,400.365,706.737,393.971,714.625,393.971"/>
	<path d="M653.78,979.121c2.548,0,4.614,2.104,4.614,4.701s-2.066,4.701-4.614,4.701s-4.614-2.104-4.614-4.701
		S651.232,979.121,653.78,979.121"/>
	<path fill="#8D9DF7" d="M499.07,871.465c7.887,0,14.28,6.393,14.28,14.278c0,7.888-6.393,14.281-14.28,14.281
		c-7.886,0-14.28-6.394-14.28-14.281C484.79,877.857,491.184,871.465,499.07,871.465"/>
	<path fill="#8D9DF7" d="M690.62,863.6c7.887,0,14.28,6.394,14.28,14.279c0,7.888-6.394,14.281-14.28,14.281
		s-14.28-6.394-14.28-14.281C676.34,869.993,682.733,863.6,690.62,863.6"/>
	<path fill="#8D9DF7" d="M404.134,892.772c6.572,0,11.9,5.327,11.9,11.899c0,6.573-5.328,11.9-11.9,11.9s-11.9-5.327-11.9-11.9
		C392.234,898.1,397.562,892.772,404.134,892.772"/>
	<path fill="#8D9DF7" d="M526.19,1002.023c5.258,0,9.52,4.262,9.52,9.52c0,5.257-4.262,9.521-9.52,9.521s-9.52-4.264-9.52-9.521
		C516.67,1006.285,520.933,1002.023,526.19,1002.023"/>
	<path d="M223.419,393.162c2.629,0,4.76,2.132,4.76,4.761s-2.131,4.76-4.76,4.76c-2.628,0-4.76-2.131-4.76-4.76
		S220.792,393.162,223.419,393.162"/>
	<path fill="#8D9DF7" d="M252.23,526.354c6.572,0,11.9,5.327,11.9,11.899c0,6.573-5.328,11.901-11.9,11.901s-11.9-5.328-11.9-11.901
		C240.33,531.681,245.658,526.354,252.23,526.354"/>
	<path fill="#8D9DF7" d="M514.951,396.126c5.257,0,9.52,4.263,9.52,9.521c0,5.257-4.263,9.519-9.52,9.519
		c-5.258,0-9.52-4.262-9.52-9.519C505.431,400.39,509.693,396.126,514.951,396.126"/>
	<path d="M150.693,616.991c2.629,0,4.76,2.131,4.76,4.76s-2.131,4.76-4.76,4.76s-4.76-2.131-4.76-4.76
		S148.064,616.991,150.693,616.991"/>
	<path fill="#8D9DF7" d="M289.689,924.245c5.257,0,9.52,4.263,9.52,9.521c0,5.257-4.263,9.52-9.52,9.52
		c-5.258,0-9.52-4.263-9.52-9.52C280.169,928.508,284.432,924.245,289.689,924.245"/>
	<path fill="#00D3AA" d="M82.023,636.037c3.943,0,7.14,3.195,7.14,7.14c0,3.943-3.197,7.14-7.14,7.14s-7.14-3.196-7.14-7.14
		C74.883,639.232,78.081,636.037,82.023,636.037"/>
	<path fill="#00D3AA" d="M88.624,583.2c3.943,0,7.14,3.196,7.14,7.141c0,3.943-3.197,7.139-7.14,7.139s-7.14-3.195-7.14-7.139
		C81.483,586.396,84.681,583.2,88.624,583.2"/>
	<path fill="#8D9DF7" d="M784.832,603.551c5.258,0,9.521,4.262,9.521,9.52c0,5.257-4.264,9.521-9.521,9.521s-9.52-4.264-9.52-9.521
		C775.312,607.812,779.574,603.551,784.832,603.551"/>
	<path fill="#8D9DF7" d="M672.588,708.261c5.258,0,9.52,4.263,9.52,9.521c0,5.257-4.262,9.52-9.52,9.52s-9.52-4.263-9.52-9.52
		C663.068,712.523,667.33,708.261,672.588,708.261"/>
	<path d="M839.566,840.819c2.629,0,4.76,2.131,4.76,4.76s-2.131,4.76-4.76,4.76s-4.761-2.131-4.761-4.76
		S836.938,840.819,839.566,840.819"/>
	<path fill="#00D3AA" d="M892.047,868.24c3.943,0,7.14,3.196,7.14,7.141c0,3.943-3.196,7.139-7.14,7.139s-7.141-3.195-7.141-7.139
		C884.906,871.437,888.104,868.24,892.047,868.24"/>
	<path fill="#00D3AA" d="M937.63,874.343c3.943,0,7.14,3.196,7.14,7.141c0,3.943-3.196,7.139-7.14,7.139s-7.142-3.195-7.142-7.139
		C930.488,877.539,933.687,874.343,937.63,874.343"/>
	<path fill="#00D3AA" d="M908.685,915.037c3.943,0,7.14,3.195,7.14,7.14c0,3.943-3.196,7.139-7.14,7.139s-7.142-3.195-7.142-7.139
		C901.543,918.232,904.741,915.037,908.685,915.037"/>
	<path fill="#00D3AA" d="M851.647,930.522c3.943,0,7.141,3.196,7.141,7.141c0,3.943-3.197,7.139-7.141,7.139s-7.14-3.195-7.14-7.139
		C844.508,933.719,847.704,930.522,851.647,930.522"/>
	<path fill="#00D3AA" d="M860.718,894.837c3.943,0,7.14,3.195,7.14,7.14c0,3.943-3.196,7.14-7.14,7.14s-7.142-3.196-7.142-7.14
		C853.576,898.032,856.774,894.837,860.718,894.837"/>
	<path fill="#00D3AA" d="M905.176,826.146c3.943,0,7.141,3.195,7.141,7.14c0,3.943-3.197,7.139-7.141,7.139
		c-3.942,0-7.14-3.195-7.14-7.139C898.036,829.341,901.233,826.146,905.176,826.146"/>
	<path d="M649.166,254.829c2.629,0,4.761,2.131,4.761,4.76s-2.132,4.76-4.761,4.76s-4.76-2.131-4.76-4.76
		S646.537,254.829,649.166,254.829"/>
	<path d="M1241.989,245.791c2.629,0,4.76,2.132,4.76,4.761c0,2.628-2.131,4.76-4.76,4.76s-4.761-2.132-4.761-4.76
		C1237.229,247.923,1239.36,245.791,1241.989,245.791"/>
	<path fill="#00D3AA" d="M670.982,176.926c3.942,0,7.14,3.196,7.14,7.14c0,3.943-3.197,7.14-7.14,7.14
		c-3.943,0-7.141-3.197-7.141-7.14C663.842,180.123,667.039,176.926,670.982,176.926"/>
	<path d="M912.292,616.991c2.629,0,4.76,2.131,4.76,4.76s-2.131,4.76-4.76,4.76s-4.76-2.131-4.76-4.76
		S909.663,616.991,912.292,616.991"/>
	<path fill="#00D3AA" d="M991.227,631.901c3.943,0,7.141,3.195,7.141,7.14c0,3.943-3.197,7.14-7.141,7.14s-7.14-3.196-7.14-7.14
		C984.087,635.097,987.283,631.901,991.227,631.901"/>
	<path fill="#00D3AA" d="M966.676,600.834c3.943,0,7.141,3.195,7.141,7.14c0,3.943-3.197,7.139-7.141,7.139s-7.14-3.195-7.14-7.139
		C959.536,604.029,962.732,600.834,966.676,600.834"/>
	<path fill="#00D3AA" d="M1020.846,601.592c3.943,0,7.14,3.195,7.14,7.14c0,3.943-3.196,7.139-7.14,7.139s-7.14-3.195-7.14-7.139
		C1013.706,604.787,1016.902,601.592,1020.846,601.592"/>
	<path fill="#00D3AA" d="M962.749,661.608c3.943,0,7.141,3.196,7.141,7.141c0,3.943-3.197,7.139-7.141,7.139s-7.14-3.195-7.14-7.139
		C955.609,664.805,958.806,661.608,962.749,661.608"/>
	<path fill="#00D3AA" d="M944.181,559.322c3.943,0,7.141,3.196,7.141,7.141c0,3.943-3.197,7.139-7.141,7.139
		c-3.942,0-7.14-3.195-7.14-7.139C937.041,562.519,940.238,559.322,944.181,559.322"/>
	<path fill="#00D3AA" d="M990.683,560.799c3.943,0,7.141,3.196,7.141,7.141c0,3.943-3.197,7.139-7.141,7.139s-7.14-3.195-7.14-7.139
		C983.543,563.995,986.739,560.799,990.683,560.799"/>
	<path d="M413.819,979.152c2.629,0,4.76,2.131,4.76,4.76s-2.131,4.761-4.76,4.761s-4.76-2.132-4.76-4.761
		S411.19,979.152,413.819,979.152"/>
	<path d="M223.419,840.819c2.629,0,4.76,2.131,4.76,4.76s-2.131,4.76-4.76,4.76c-2.628,0-4.76-2.131-4.76-4.76
		S220.792,840.819,223.419,840.819"/>
	<g enable-background="new    ">
		<g>
			<defs>
				<rect id="SVGID_1_" x="305.689" y="254.575" width="97.657" height="12.218"/>
			</defs>
			<clipPath id="SVGID_2_">
				<use xlink:href="#SVGID_1_"  overflow="visible"/>
			</clipPath>
			<g clip-path="url(#SVGID_2_)">
				<text transform="matrix(1 0 0 1 305.6895 261.8838)" font-family="'SimplonNorm'" font-size="11">papaya-rhubarb-cake</text>
			</g>
		</g>
	</g>
	<g enable-background="new    ">
		<g>
			<defs>
				<rect id="SVGID_3_" x="850.04" y="392.937" width="97.771" height="12.219"/>
			</defs>
			<clipPath id="SVGID_4_">
				<use xlink:href="#SVGID_3_"  overflow="visible"/>
			</clipPath>
			<g clip-path="url(#SVGID_4_)">
				<text transform="matrix(1 0 0 1 850.0371 400.2461)" font-family="'SimplonNorm'" font-size="11">corn-blueberry-souffle</text>
			</g>
		</g>
	</g>
	<g enable-background="new    ">
		<g>
			<defs>
				<rect id="SVGID_5_" x="131.937" y="392.936" width="81.009" height="12.218"/>
			</defs>
			<clipPath id="SVGID_6_">
				<use xlink:href="#SVGID_5_"  overflow="visible"/>
			</clipPath>
			<g clip-path="url(#SVGID_6_)">
				<text transform="matrix(1 0 0 1 131.937 400.2451)" font-family="'SimplonNorm'" font-size="11">orzo-tangelo-sage</text>
			</g>
		</g>
	</g>
	<g enable-background="new    ">
		<g>
			<defs>
				<rect id="SVGID_7_" x="70.821" y="616.764" width="69.4" height="12.219"/>
			</defs>
			<clipPath id="SVGID_8_">
				<use xlink:href="#SVGID_7_"  overflow="visible"/>
			</clipPath>
			<g clip-path="url(#SVGID_8_)">
				<text transform="matrix(1 0 0 1 70.8208 624.0732)" font-family="'SimplonNorm'" font-size="11">milk-eggs-berry</text>
			</g>
		</g>
	</g>
	<g enable-background="new    ">
		<g>
			<defs>
				<rect id="SVGID_9_" x="850.04" y="839.47" width="115.16" height="12.219"/>
			</defs>
			<clipPath id="SVGID_10_">
				<use xlink:href="#SVGID_9_"  overflow="visible"/>
			</clipPath>
			<g clip-path="url(#SVGID_10_)">
				<text transform="matrix(1 0 0 1 850.0371 846.7783)" font-family="'SimplonNorm'" font-size="11">custard-succotash-souffle</text>
			</g>
		</g>
	</g>
	<g enable-background="new    ">
		<g>
			<defs>
				<rect id="SVGID_11_" x="659.64" y="254.174" width="126.601" height="12.218"/>
			</defs>
			<clipPath id="SVGID_12_">
				<use xlink:href="#SVGID_11_"  overflow="visible"/>
			</clipPath>
			<g clip-path="url(#SVGID_12_)">
				<text transform="matrix(1 0 0 1 659.6367 261.4829)" font-family="'SimplonNorm'" font-size="11">cinnamon-shawarma-muffin</text>
			</g>
		</g>
	</g>
	<g enable-background="new    ">
		<g>
			<defs>
				<rect id="SVGID_13_" x="922.76" y="616.764" width="143.87" height="12.219"/>
			</defs>
			<clipPath id="SVGID_14_">
				<use xlink:href="#SVGID_13_"  overflow="visible"/>
			</clipPath>
			<g clip-path="url(#SVGID_14_)">
				<text transform="matrix(1 0 0 1 922.7637 624.0732)" font-family="'SimplonNorm'" font-size="11">cranberry-asparagus-shawarma</text>
			</g>
		</g>
	</g>
	<g enable-background="new    ">
		<g>
			<defs>
				<rect id="SVGID_15_" x="330.263" y="977.804" width="73.084" height="12.219"/>
			</defs>
			<clipPath id="SVGID_16_">
				<use xlink:href="#SVGID_15_"  overflow="visible"/>
			</clipPath>
			<g clip-path="url(#SVGID_16_)">
				<text transform="matrix(1 0 0 1 330.2627 985.1133)" font-family="'SimplonNorm'" font-size="11">leek-endive-okra</text>
			</g>
		</g>
	</g>
	<g enable-background="new    ">
		<g>
			<defs>
				<rect id="SVGID_17_" x="664.1" y="977.789" width="132.09" height="12.068"/>
			</defs>
			<clipPath id="SVGID_18_">
				<use xlink:href="#SVGID_17_"  overflow="visible"/>
			</clipPath>
			<g clip-path="url(#SVGID_18_)">
				<text transform="matrix(1 0 0 1.019 664.1045 985.0078)" font-family="'SimplonNorm'" font-size="11">garbanzo-macaroon-blueberry</text>
			</g>
		</g>
	</g>
	<g enable-background="new    ">
		<g>
			<defs>
				<rect id="SVGID_19_" x="142.011" y="840.564" width="70.805" height="12.219"/>
			</defs>
			<clipPath id="SVGID_20_">
				<use xlink:href="#SVGID_19_"  overflow="visible"/>
			</clipPath>
			<g clip-path="url(#SVGID_20_)">
				<text transform="matrix(1 0 0 1 142.0112 847.873)" font-family="'SimplonNorm'" font-size="11">lime-okra-prune</text>
			</g>
		</g>
	</g>
</g>
<g>
	<g enable-background="new    ">
		<g>
			<defs>
				<rect id="SVGID_21_" x="407.791" y="380.828" width="89.962" height="12.834"/>
			</defs>
			<clipPath id="SVGID_22_">
				<use xlink:href="#SVGID_21_"  overflow="visible"/>
			</clipPath>
		</g>
	</g>
	<g enable-background="new    ">
		<g>
			<defs>
				<rect id="SVGID_23_" x="610.292" y="485.193" width="110.078" height="34.434"/>
			</defs>
			<clipPath id="SVGID_24_">
				<use xlink:href="#SVGID_23_"  overflow="visible"/>
			</clipPath>
		</g>
	</g>
	<g enable-background="new    ">
		<g>
			<defs>
				<rect id="SVGID_25_" x="523.168" y="544.036" width="100.282" height="45.233"/>
			</defs>
			<clipPath id="SVGID_26_">
				<use xlink:href="#SVGID_25_"  overflow="visible"/>
			</clipPath>
		</g>
	</g>
	<g enable-background="new    ">
		<g>
			<defs>
				<rect id="SVGID_27_" x="438.12" y="495.653" width="79.983" height="34.434"/>
			</defs>
			<clipPath id="SVGID_28_">
				<use xlink:href="#SVGID_27_"  overflow="visible"/>
			</clipPath>
		</g>
	</g>
	<g enable-background="new    ">
		<g>
			<defs>
				<rect id="SVGID_29_" x="516.906" y="427.019" width="103.313" height="34.434"/>
			</defs>
			<clipPath id="SVGID_30_">
				<use xlink:href="#SVGID_29_"  overflow="visible"/>
			</clipPath>
		</g>
	</g>
	<g enable-background="new    ">
		<g>
			<defs>
				<rect id="SVGID_31_" x="322.338" y="467.826" width="92.896" height="45.234"/>
			</defs>
			<clipPath id="SVGID_32_">
				<use xlink:href="#SVGID_31_"  overflow="visible"/>
			</clipPath>
		</g>
	</g>
	<g enable-background="new    ">
		<g>
			<defs>
				<rect id="SVGID_33_" x="679.73" y="570.752" width="141.989" height="34.433"/>
			</defs>
			<clipPath id="SVGID_34_">
				<use xlink:href="#SVGID_33_"  overflow="visible"/>
			</clipPath>
		</g>
	</g>
	<g enable-background="new    ">
		<g>
			<defs>
				<rect id="SVGID_35_" x="317.976" y="598.911" width="94.651" height="45.233"/>
			</defs>
			<clipPath id="SVGID_36_">
				<use xlink:href="#SVGID_35_"  overflow="visible"/>
			</clipPath>
		</g>
	</g>
</g>
</svg>
