<svg enable-background="new 0 0 1496 1080" height="1080" viewBox="0 0 1496 1080" width="1496" xml:space="preserve" xmlns="http://www.w3.org/2000/svg"><text transform="translate(380.584 89.9458)"><tspan font-family="'SimplonNorm'" font-size="23" x="0" y="0">W</tspan><tspan font-family="'SimplonNorm'" font-size="23" x="16.192" y="0">atching a politi</tspan><tspan font-family="'SimplonNorm'" font-size="23" x="161.756" y="0">c</tspan><tspan font-family="'SimplonNorm'" font-size="23" x="173.44" y="0">al video</tspan></text><text transform="translate(334.9287 117.5459)"><tspan font-family="'SimplonNorm'" font-size="23" x="0" y="0">with our pe</tspan><tspan font-family="'SimplonNorm'" font-size="23" x="108.144" y="0">r</tspan><tspan font-family="'SimplonNorm'" font-size="23" x="115.803" y="0">sonal </tspan><tspan font-family="'SimplonNorm'" font-size="23" letter-spacing="-1" x="174.452" y="0">Y</tspan><tspan font-family="'SimplonNorm'" font-size="23" x="185.124" y="0">outube account</tspan></text><path d="m253.739 52.228h502.684v88.406h-502.684z" fill="none" stroke="#000" stroke-miterlimit="10"/><path d="m275.995 766.872 187.483-185.877" fill="none" stroke="#8d9df7" stroke-width=".5"/><path d="m463.368 582.298.005-1.198-1.198-.006.51-.506 1.199.005-.005 1.198z" fill="#8d9df7"/><path d="m277.016 768.731 224.046-50.836" fill="none" stroke="#8d9df7" stroke-width=".5"/><path d="m500.278 718.942.64-1.014-1.015-.638.701-.16 1.015.639-.64 1.013z" fill="#8d9df7"/><path d="m276.828 768.134 245.103-99.543" fill="none" stroke="#8d9df7" stroke-width=".5"/><path d="m521.327 669.751.467-1.104-1.105-.465.667-.273 1.104.467-.466 1.104z" fill="#8d9df7"/><path d="m277.11 769.684 184.247 4.806" fill="none" stroke="#8d9df7" stroke-width=".5"/><path d="m460.339 775.311.87-.826-.826-.868.721.018.824.869-.868.826z" fill="#8d9df7"/><path d="m276.241 767.145 139.314-113.964" fill="none" stroke="#8d9df7" stroke-width=".5"/><path d="m415.321 654.467.12-1.193-1.193-.119.557-.456 1.192.12-.119 1.193z" fill="#8d9df7"/><path d="m276.68 767.813 202.556-104.851" fill="none" stroke="#8d9df7" stroke-width=".5"/><path d="m478.742 664.173.363-1.143-1.142-.363.639-.33 1.142.362-.363 1.143z" fill="#8d9df7"/><path d="m276.658 767.771 281.069-149.928" fill="none" stroke="#8d9df7" stroke-width=".5"/><path d="m557.247 619.06.35-1.147-1.148-.35.635-.338 1.147.349-.349 1.147z" fill="#8d9df7"/><path d="m276.639 767.736 353.481-193.208" fill="none" stroke="#8d9df7" stroke-width=".5"/><path d="m629.653 575.75.338-1.149-1.151-.337.632-.347 1.15.337-.337 1.15z" fill="#8d9df7"/><path d="m275.327 772.833 40.487 63.653" fill="none" stroke="#8d9df7" stroke-width=".5"/><path d="m314.564 836.102 1.17.261.262-1.172.385.608-.259 1.17-1.171-.26z" fill="#8d9df7"/><path d="m414.404 342.264 59.272 198.787" fill="none" stroke="#8d9df7" stroke-width=".5"/><path d="m472.579 540.338 1.055.571.57-1.055.206.689-.571 1.055-1.054-.57z" fill="#8d9df7"/><path d="m410.541 341.256-50.953 49.475" fill="none" stroke="#8d9df7" stroke-width=".5"/><path d="m359.712 389.429-.018 1.199 1.2.017-.517.502-1.199-.018.017-1.199z" fill="#8d9df7"/><path d="m415.324 341.852 81.796 132.751" fill="none" stroke="#8d9df7" stroke-width=".5"/><path d="m495.876 474.199 1.167.278.276-1.167.378.613-.277 1.166-1.166-.277z" fill="#8d9df7"/><path d="m415.342 341.84 194.062 311.025" fill="none" stroke="#8d9df7" stroke-width=".5"/><path d="m608.158 652.469 1.168.271.27-1.168.382.611-.271 1.168-1.168-.271z" fill="#8d9df7"/><path d="m414.649 342.182 115.087 308.647" fill="none" stroke="#8d9df7" stroke-width=".5"/><path d="m528.595 650.191 1.091.499.497-1.09.252.673-.498 1.091-1.091-.498z" fill="#8d9df7"/><path d="m416.699 340.392 151.645 81.239" fill="none" stroke="#8d9df7" stroke-width=".5"/><path d="m567.066 421.907 1.148-.346-.348-1.147.635.339.347 1.147-1.148.349z" fill="#8d9df7"/><path d="m416.037 341.287 216.649 215.151" fill="none" stroke="#8d9df7" stroke-width=".5"/><path d="m631.382 556.337 1.199-.004-.004-1.199.511.509.003 1.197-1.198.005z" fill="#8d9df7"/><path d="m413.571 342.415 18.913 271.58" fill="none" stroke="#8d9df7" stroke-width=".5"/><path d="m431.569 613.061.905.787.786-.906.05.72-.786.903-.905-.786z" fill="#8d9df7"/><path d="m413.107 342.419-6.609 129.478" fill="none" stroke="#8d9df7" stroke-width=".5"/><path d="m405.702 470.858.803.892.89-.804-.038.719-.888.803-.804-.889z" fill="#8d9df7"/><path d="m409.506 337.934-76.957-12.948" fill="none" stroke="#8d9df7" stroke-width=".5"/><path d="m333.672 324.314-.977.696.696.977-.71-.119-.696-.977.977-.695z" fill="#8d9df7"/><path d="m223.573 604.355 233.23-36.557" fill="none" stroke="#8d9df7" stroke-width=".5"/><path d="m455.951 568.79.707-.969-.97-.706.71-.111.97.706-.706.97z" fill="#8d9df7"/><path d="m223.604 605.287 274.584 23.965" fill="none" stroke="#8d9df7" stroke-width=".5"/><path d="m497.121 630.01.919-.771-.772-.918.718.062.77.918-.918.771z" fill="#8d9df7"/><path d="m223.559 604.273 157.002-28.095" fill="none" stroke="#8d9df7" stroke-width=".5"/><path d="m379.73 577.188.686-.984-.985-.685.709-.127.984.686-.686.983z" fill="#8d9df7"/><path d="m219.768 605.023-40.955 98.327" fill="none" stroke="#8d9df7" stroke-width=".5"/><path d="m178.414 702.104.456 1.109 1.109-.457-.277.665-1.108.456-.457-1.108z" fill="#8d9df7"/><path d="m223.619 605.005 332.106 4.589" fill="none" stroke="#8d9df7" stroke-width=".5"/><path d="m554.717 610.428.86-.836-.837-.86.72.01.836.86-.858.836z" fill="#8d9df7"/><path d="m223.574 605.538 186.831 28.772" fill="none" stroke="#8d9df7" stroke-width=".5"/><path d="m409.292 634.995.966-.709-.709-.967.712.111.709.966-.968.708z" fill="#8d9df7"/><path d="m223.619 604.952h266.212" fill="none" stroke="#8d9df7" stroke-width=".5"/><path d="m488.835 605.8.849-.848-.849-.847h.72l.847.847-.847.848z" fill="#8d9df7"/><path d="m223.575 605.535 378.816 57.98" fill="none" stroke="#8d9df7" stroke-width=".5"/><path d="m601.278 664.201.966-.709-.71-.967.712.111.709.965-.966.71z" fill="#8d9df7"/><path d="m222.995 602.85 173.038-112.765" fill="none" stroke="#8d9df7" stroke-width=".5"/><path d="m395.661 491.339.248-1.173-1.175-.247.603-.393 1.174.248-.247 1.172z" fill="#8d9df7"/><path d="m223.322 603.468 268.414-112.137" fill="none" stroke="#8d9df7" stroke-width=".5"/><path d="m491.144 492.497.456-1.108-1.109-.455.664-.279 1.109.456-.456 1.109z" fill="#8d9df7"/><path d="m584.771 342.059-94.018 200.268" fill="none" stroke="#8d9df7" stroke-width=".5"/><path d="m490.409 541.064.407 1.128 1.128-.407-.306.652-1.127.407-.408-1.128z" fill="#8d9df7"/><path d="m585.666 342.353-70.855 361.381" fill="none" stroke="#8d9df7" stroke-width=".5"/><path d="m514.17 702.594.668.996.996-.67-.139.706-.995.669-.669-.995z" fill="#8d9df7"/><path d="m584.662 342.006-139.617 274.542" fill="none" stroke="#8d9df7" stroke-width=".5"/><path d="m444.742 615.275.371 1.142 1.14-.372-.326.641-1.14.371-.371-1.139z" fill="#8d9df7"/><path d="m586.229 342.42-16.208 349.609" fill="none" stroke="#8d9df7" stroke-width=".5"/><path d="m569.22 690.995.807.888.886-.809-.033.719-.886.808-.807-.887z" fill="#8d9df7"/><path d="m586.214 342.419-12.609 250.405" fill="none" stroke="#8d9df7" stroke-width=".5"/><path d="m572.81 591.787.803.891.89-.806-.036.72-.89.803-.804-.889z" fill="#8d9df7"/><path d="m583.924 341.517-157.376 186.551" fill="none" stroke="#8d9df7" stroke-width=".5"/><path d="m426.542 526.76.102 1.194 1.193-.101-.462.551-1.195.1-.101-1.194z" fill="#8d9df7"/><path d="m414.127 867.569 61.278-280.018" fill="none" stroke="#8d9df7" stroke-width=".5"/><path d="m476.021 588.705-.647-1.01-1.01.649.155-.703 1.008-.649.647 1.01z" fill="#8d9df7"/><path d="m410.098 869.196-226.793-151.035" fill="none" stroke="#8d9df7" stroke-width=".5"/><path d="m184.604 718.008-1.176.235.237 1.176-.601-.399-.234-1.176 1.174-.235z" fill="#8d9df7"/><path d="m413.646 867.495 18.37-205.596" fill="none" stroke="#8d9df7" stroke-width=".5"/><path d="m432.771 662.967-.769-.92-.919.77.063-.718.92-.769.769.92z" fill="#8d9df7"/><path d="m414.759 867.766 91.79-224.816" fill="none" stroke="#8d9df7" stroke-width=".5"/><path d="m506.957 644.192-.464-1.105-1.105.464.272-.666 1.105-.463.464 1.103z" fill="#8d9df7"/><path d="m411.851 867.765-136.962-336.214" fill="none" stroke="#8d9df7" stroke-width=".5"/><path d="m276.049 532.153-1.105-.465-.465 1.105-.272-.666.466-1.105 1.105.465z" fill="#8d9df7"/><path d="m414.653 867.725 56.711-151.586" fill="none" stroke="#8d9df7" stroke-width=".5"/><path d="m471.81 717.368-.497-1.092-1.091.498.252-.674 1.091-.496.497 1.09z" fill="#8d9df7"/><path d="m409.602 870.271-78.771-22.564" fill="none" stroke="#8d9df7" stroke-width=".5"/><path d="m332.022 847.165-1.049.581.582 1.049-.692-.197-.581-1.05 1.048-.58z" fill="#8d9df7"/><path d="m776.127 604.431-271.777-37.104" fill="none" stroke="#8d9df7" stroke-width=".5"/><path d="m505.452 566.622-.955.727.726.954-.714-.098-.725-.955.955-.725z" fill="#8d9df7"/><path d="m776.093 605.043-186.322 4.387" fill="none" stroke="#8d9df7" stroke-width=".5"/><path d="m590.748 608.558-.828.867.867.827-.72.018-.867-.829.827-.866z" fill="#8d9df7"/><path d="m776.406 603.428-259.769-111.957" fill="none" stroke="#8d9df7" stroke-width=".5"/><path d="m517.887 491.087-1.114.442.443 1.115-.661-.286-.443-1.114 1.114-.442z" fill="#8d9df7"/><path d="m776.337 606.304-144.541 54.162" fill="none" stroke="#8d9df7" stroke-width=".5"/><path d="m632.432 659.322-.498 1.091 1.092.496-.674.253-1.091-.495.496-1.093z" fill="#8d9df7"/><path d="m776.109 605.318-318.036 30.365" fill="none" stroke="#8d9df7" stroke-width=".5"/><path d="m458.984 634.744-.764.924.926.764-.717.068-.924-.764.764-.924z" fill="#8d9df7"/><path d="m782.734 602.299 43.297-41.165" fill="none" stroke="#dff2f2" stroke-width=".5"/><path d="m825.894 562.434.031-1.199-1.199-.03.521-.495 1.198.03-.031 1.198z" fill="#dff2f2"/><path d="m777.053 602.406-192.35-169.415" fill="none" stroke="#8d9df7" stroke-width=".5"/><path d="m586.011 433.013-1.198.075.077 1.196-.54-.475-.077-1.196 1.197-.076z" fill="#8d9df7"/><path d="m776.231 603.925-117.983-32.648" fill="none" stroke="#8d9df7" stroke-width=".5"/><path d="m659.434 570.725-1.044.59.592 1.043-.694-.192-.591-1.043 1.043-.59z" fill="#8d9df7"/><path d="m776.109 605.316-250.983 23.832" fill="none" stroke="#8d9df7" stroke-width=".5"/><path d="m526.038 628.211-.765.924.925.763-.717.069-.923-.764.764-.924z" fill="#8d9df7"/><path d="m586.983 867.523 28.223-186.593" fill="none" stroke="#8d9df7" stroke-width=".5"/><path d="m615.896 682.041-.711-.965-.965.712.107-.712.964-.711.713.965z" fill="#8d9df7"/><path d="m585.474 867.595-47.732-190.972" fill="none" stroke="#8d9df7" stroke-width=".5"/><path d="m538.807 677.384-1.029-.617-.617 1.028-.174-.698.617-1.027 1.027.616z" fill="#8d9df7"/><path d="m584.683 867.888-160.454-320.292" fill="none" stroke="#c4e7e0" stroke-width=".5"/><path d="m425.433 548.106-1.138-.378-.378 1.137-.322-.643.379-1.136 1.137.377z" fill="#c4e7e0"/><path d="m585.152 867.69-96.782-280.894" fill="none" stroke="#8d9df7" stroke-width=".5"/><path d="m489.496 587.461-1.079-.524-.524 1.077-.234-.681.525-1.078 1.078.525z" fill="#8d9df7"/><path d="m584.303 868.105-137.02-210.014" fill="none" stroke="#8d9df7" stroke-width=".5"/><path d="m448.538 658.461-1.173-.247-.247 1.175-.393-.604.247-1.174 1.172.247z" fill="#8d9df7"/><path d="m584.76 867.851-67.177-141.918" fill="none" stroke="#8d9df7" stroke-width=".5"/><path d="m518.774 726.47-1.128-.404-.404 1.13-.307-.651.402-1.129 1.129.404z" fill="#8d9df7"/><path d="m586.025 867.499-15.476-155.479" fill="none" stroke="#8d9df7" stroke-width=".5"/><path d="m571.491 712.925-.928-.76-.758.928-.072-.716.759-.928.928.76z" fill="#8d9df7"/><path d="m583.458 868.854-104.403-87.658" fill="none" stroke="#8d9df7" stroke-width=".5"/><path d="m480.363 781.188-1.195.104.105 1.194-.552-.463-.104-1.193 1.195-.105z" fill="#8d9df7"/><path d="m723.662 766.928-95.108-90.567" fill="none" stroke="#8d9df7" stroke-width=".5"/><path d="m629.859 676.433-1.199.029.03 1.2-.521-.498-.028-1.198 1.197-.029z" fill="#8d9df7"/><path d="m723.496 767.114-224.516-187.628" fill="none" stroke="#8d9df7" stroke-width=".5"/><path d="m500.288 579.475-1.194.106.107 1.194-.553-.462-.106-1.193 1.193-.107z" fill="#8d9df7"/><path d="m722.939 768.002-266.876-120.17" fill="none" stroke="#8d9df7" stroke-width=".5"/><path d="m457.32 647.468-1.122.425.426 1.121-.657-.296-.424-1.121 1.121-.425z" fill="#8d9df7"/><path d="m724.991 766.02-75.674-184.683" fill="none" stroke="#8d9df7" stroke-width=".5"/><path d="m650.479 581.938-1.106-.464-.462 1.107-.273-.666.463-1.106 1.105.462z" fill="#8d9df7"/><path d="m723.781 766.809-139.226-144.71" fill="none" stroke="#8d9df7" stroke-width=".5"/><path d="m585.856 622.229-1.199-.023-.023 1.198-.499-.518.024-1.198 1.198.022z" fill="#8d9df7"/><path d="m723.219 767.489-200.206-129.707" fill="none" stroke="#8d9df7" stroke-width=".5"/><path d="m524.31 637.612-1.173.25.251 1.172-.604-.39-.25-1.173 1.172-.25z" fill="#8d9df7"/><path d="m276.566 442.295 183.344 109.465" fill="none" stroke="#8d9df7" stroke-width=".5"/><path d="m458.621 551.977 1.163-.293-.294-1.163.618.369.293 1.163-1.162.293z" fill="#8d9df7"/><path d="m276.468 442.451 132.678 88.104" fill="none" stroke="#8d9df7" stroke-width=".5"/><path d="m407.848 530.709 1.174-.236-.237-1.176.6.398.237 1.175-1.174.237z" fill="#8d9df7"/><path d="m275.691 443.308 143.292 176.023" fill="none" stroke="#8d9df7" stroke-width=".5"/><path d="m417.698 619.094 1.193.123.121-1.193.455.558-.122 1.193-1.193-.122z" fill="#8d9df7"/><path d="m277.044 441.035 168.107 31.754" fill="none" stroke="#8d9df7" stroke-width=".5"/><path d="m444.016 473.438.991-.676-.676-.991.707.135.676.99-.99.676z" fill="#8d9df7"/><path d="m276.651 438.495 66.919-36.029" fill="none" stroke="#8d9df7" stroke-width=".5"/><path d="m343.095 403.685.344-1.148-1.148-.345.634-.341 1.149.345-.345 1.148z" fill="#8d9df7"/><path d="m273.159 444.171-1.789 68.076" fill="none" stroke="#8d9df7" stroke-width=".5"/><path d="m270.549 511.229.825.87.87-.825-.019.72-.87.825-.825-.87z" fill="#8d9df7"/><path d="m269.868 438.498-42.569-22.873" fill="none" stroke="#dff2f2" stroke-width=".5"/><path d="m228.577 415.35-1.148.345.346 1.148-.635-.341-.345-1.147 1.148-.346z" fill="#dff2f2"/><path d="m274.758 436.772 44.006-104.214" fill="none" stroke="#8d9df7" stroke-width=".5"/><path d="m319.158 333.805-.451-1.111-1.111.451.279-.663 1.112-.451.451 1.111z" fill="#8d9df7"/><path d="m722.874 441.748-323.135 128.948" fill="none" stroke="#8d9df7" stroke-width=".5"/><path d="m400.35 569.54-.474 1.103 1.102.471-.669.267-1.101-.473.474-1.1z" fill="#8d9df7"/><path d="m723.261 442.478-269.202 182.029" fill="none" stroke="#8d9df7" stroke-width=".5"/><path d="m454.409 623.246-.228 1.178 1.178.226-.596.405-1.178-.229.228-1.177z" fill="#8d9df7"/><path d="m723.939 443.24-180.656 210.008" fill="none" stroke="#8d9df7" stroke-width=".5"/><path d="m543.29 651.94.089 1.196 1.196-.09-.47.546-1.194.09-.09-1.197z" fill="#8d9df7"/><path d="m724.344 443.545-72.461 110.869" fill="none" stroke="#8d9df7" stroke-width=".5"/><path d="m651.718 553.117.246 1.174 1.173-.246-.395.602-1.173.246-.245-1.172z" fill="#8d9df7"/><path d="m723.335 442.584-215.37 156.478" fill="none" stroke="#8d9df7" stroke-width=".5"/><path d="m508.273 597.789-.188 1.186 1.185.185-.583.424-1.184-.188.188-1.184z" fill="#8d9df7"/><path d="m722.679 441.098-205.215 42.29" fill="none" stroke="#8d9df7" stroke-width=".5"/><path d="m518.268 482.356-.661 1.001 1.002.66-.705.146-1.001-.66.659-1z" fill="#8d9df7"/><path d="m722.635 440.837-305.069 41.242" fill="none" stroke="#8d9df7" stroke-width=".5"/><path d="m418.439 481.105-.727.955.955.726-.713.096-.954-.726.727-.953z" fill="#8d9df7"/><path d="m723.011 442.052-221.005 111.223" fill="none" stroke="#8d9df7" stroke-width=".5"/><path d="m502.515 552.07-.376 1.14 1.137.376-.642.322-1.138-.376.376-1.138z" fill="#8d9df7"/><path d="m722.63 440.804-257.683 32.589" fill="none" stroke="#8d9df7" stroke-width=".5"/><path d="m465.829 472.427-.735.947.947.735-.713.089-.948-.734.735-.947z" fill="#8d9df7"/><path d="m723.807 443.121-242.047 256.34" fill="none" stroke="#8d9df7" stroke-width=".5"/><path d="m481.827 698.155.034 1.199 1.198-.036-.494.525-1.198.034-.034-1.199z" fill="#8d9df7"/><path d="m723.864 443.174-139.676 154.042" fill="none" stroke="#8d9df7" stroke-width=".5"/><path d="m584.229 595.908.057 1.198 1.198-.058-.484.532-1.197.059-.058-1.198z" fill="#8d9df7"/><path d="m276.9 768.326-75.081 37.032" fill="none" stroke="#00d3aa" stroke-width=".5"/><path d="m202.338 804.157-.386 1.136 1.136.386-.646.317-1.135-.385.385-1.135z" fill="#00d3aa"/><path d="m275.367 766.36-73.515-22.939" fill="none" stroke="#00d3aa" stroke-width=".5"/><path d="m203.056 742.907-1.062.558.557 1.061-.687-.214-.557-1.062 1.062-.557z" fill="#00d3aa"/><path d="m270.737 772.493-47.272 54.524" fill="none" stroke="#00d3aa" stroke-width=".5"/><path d="m223.478 825.708.084 1.196 1.196-.085-.471.543-1.197.086-.085-1.196z" fill="#00d3aa"/><path d="m276.384 767.331-32.233-23.742" fill="none" stroke="#00d3aa" stroke-width=".5"/><path d="m245.455 743.497-1.186.181.181 1.184-.58-.427-.18-1.185 1.185-.18z" fill="#00d3aa"/><path d="m269.432 770.003-61.417 6.728" fill="none" stroke="#00d3aa" stroke-width=".5"/><path d="m208.912 775.779-.751.937.936.75-.716.078-.935-.75.751-.936z" fill="#00d3aa"/><path d="m276.492 771.678 5.979 36.241" fill="none" stroke="#00d3aa" stroke-width=".5"/><path d="m281.473 807.074.975.698.698-.973.117.71-.7.973-.973-.698z" fill="#00d3aa"/><path d="m275.977 766.854-21.895 43.09" fill="none" stroke="#00d3aa" stroke-width=".5"/><path d="m253.778 808.672.371 1.141 1.14-.372-.326.641-1.14.371-.371-1.139z" fill="#00d3aa"/><path d="m277.059 768.953-9.844 63.75" fill="none" stroke="#00d3aa" stroke-width=".5"/><path d="m266.529 831.589.708.968.968-.709-.11.713-.967.708-.709-.968z" fill="#00d3aa"/><path d="m269.555 770.633-96.999 27.472" fill="none" stroke="#00d3aa" stroke-width=".5"/><path d="m173.284 797.018-.585 1.046 1.047.585-.692.196-1.047-.584.585-1.047z" fill="#00d3aa"/><path d="m270.152 771.858-92.948 68.037" fill="none" stroke="#00d3aa" stroke-width=".5"/><path d="m177.507 838.622-.184 1.186 1.185.182-.581.425-1.184-.184.183-1.184z" fill="#00d3aa"/><path d="m275.995 766.872-93.463-10.144" fill="none" stroke="#00d3aa" stroke-width=".5"/><path d="m183.613 755.993-.935.751.752.935-.715-.078-.752-.935.934-.751z" fill="#00d3aa"/><path d="m413.593 334.732 5.227-69.32" fill="none" stroke="#00d3aa" stroke-width=".5"/><path d="m419.591 266.468-.782-.909-.908.782.053-.718.909-.781.782.908z" fill="#00d3aa"/><path d="m414.191 342.32-55.639-61.51" fill="none" stroke="#00d3aa" stroke-width=".5"/><path d="m359.85 280.979-1.199-.06-.058 1.198-.484-.534.06-1.197 1.198.06z" fill="#00d3aa"/><path d="m413.035 334.731-7.905-113.044" fill="none" stroke="#00d3aa" stroke-width=".5"/><path d="m406.045 222.621-.905-.787-.786.905-.051-.718.787-.905.905.787z" fill="#00d3aa"/><path d="m415.291 335.274 41.339-68.615" fill="none" stroke="#00d3aa" stroke-width=".5"/><path d="m456.842 267.948-.289-1.163-1.163.288.371-.615 1.164-.29.289 1.165z" fill="#00d3aa"/><path d="m415.122 335.178 58.406-109.081" fill="none" stroke="#00d3aa" stroke-width=".5"/><path d="m473.806 227.375-.348-1.147-1.146.347.339-.635 1.148-.347.347 1.147z" fill="#00d3aa"/><path d="m416.205 336.04 40.167-35.077" fill="none" stroke="#00d3aa" stroke-width=".5"/><path d="m456.18 302.256.081-1.196-1.197-.08.542-.474 1.197.081-.081 1.196z" fill="#00d3aa"/><path d="m413.996 334.784 25.442-139.184" fill="none" stroke="#00d3aa" stroke-width=".5"/><path d="m440.093 196.731-.682-.985-.986.681.129-.708.988-.681.68.985z" fill="#00d3aa"/><path d="m416.745 340.302 64.123-35.797" fill="none" stroke="#00d3aa" stroke-width=".5"/><path d="m480.412 305.73.327-1.152-1.154-.327.629-.351 1.153.327-.327 1.153z" fill="#00d3aa"/><path d="m411.579 335.13-31.121-62.116" fill="none" stroke="#00d3aa" stroke-width=".5"/><path d="m381.662 273.524-1.139-.378-.377 1.139-.322-.644.379-1.138 1.137.378z" fill="#00d3aa"/><path d="m411.625 335.106-50.492-104.275" fill="none" stroke="#00d3aa" stroke-width=".5"/><path d="m362.331 231.356-1.133-.393-.393 1.133-.313-.648.393-1.133 1.133.394z" fill="#00d3aa"/><path d="m219.768 605.023-33.256-61.449" fill="none" stroke="#00d3aa" stroke-width=".5"/><path d="m187.731 544.046-1.149-.343-.342 1.151-.342-.634.342-1.15 1.149.343z" fill="#00d3aa"/><path d="m216.298 603.281-59.602-28.69" fill="none" stroke="#00d3aa" stroke-width=".5"/><path d="m157.961 574.259-1.131.396.397 1.131-.65-.312-.395-1.132 1.131-.395z" fill="#00d3aa"/><path d="m223.619 605.023-63.478-52.605" fill="none" stroke="#00d3aa" stroke-width=".5"/><path d="m161.449 552.4-1.194.112.112 1.194-.554-.46-.112-1.193 1.194-.113z" fill="#00d3aa"/><path d="m223.344 603.522-66.719 53.992" fill="none" stroke="#00d3aa" stroke-width=".5"/><path d="m156.867 656.228-.126 1.192 1.192.126-.559.453-1.193-.125.126-1.193z" fill="#00d3aa"/><path d="m216.289 606.604-63.767 30.272" fill="none" stroke="#00d3aa" stroke-width=".5"/><path d="m153.059 635.683-.402 1.129 1.129.402-.65.308-1.129-.401.402-1.129z" fill="#00d3aa"/><path d="m219.768 605.023-30.335 41.705" fill="none" stroke="#00d3aa" stroke-width=".5"/><path d="m189.333 645.424.188 1.185 1.184-.188-.424.582-1.183.188-.187-1.185z" fill="#00d3aa"/><path d="m215.92 604.79-80.786-3.402" fill="none" stroke="#00d3aa" stroke-width=".5"/><path d="m136.166 600.582-.884.812.813.881-.72-.03-.812-.883.883-.81z" fill="#00d3aa"/><path d="m216.123 606.196-112.303 38.322" fill="none" stroke="#00d3aa" stroke-width=".5"/><path d="m104.489 643.395-.529 1.076 1.076.528-.681.232-1.076-.528.528-1.076z" fill="#00d3aa"/><path d="m215.937 604.556-122.268-12.646" fill="none" stroke="#00d3aa" stroke-width=".5"/><path d="m94.747 591.17-.931.756.757.93-.716-.074-.756-.929.93-.757z" fill="#00d3aa"/><path d="m223.619 604.939-59.299-73.623" fill="none" stroke="#00d3aa" stroke-width=".5"/><path d="m165.605 531.559-1.191-.128-.129 1.191-.452-.56.128-1.191 1.192.127z" fill="#00d3aa"/><path d="m587.98 335.058 40.37-90.205" fill="none" stroke="#00d3aa" stroke-width=".5"/><path d="m628.717 246.107-.428-1.119-1.12.428.294-.657 1.119-.427.428 1.12z" fill="#00d3aa"/><path d="m584.48 341.907-8.919-66.775" fill="none" stroke="#00d3aa" stroke-width=".5"/><path d="m576.533 276.007-.953-.729-.727.954-.096-.714.728-.952.953.728z" fill="#00d3aa"/><path d="m588.333 341.908 47.269 16.149" fill="none" stroke="#00d3aa" stroke-width=".5"/><path d="m634.386 358.537 1.077-.528-.529-1.075.68.233.529 1.075-1.077.528z" fill="#00d3aa"/><path d="m586.327 342.423 63.758-17.379" fill="none" stroke="#00d3aa" stroke-width=".5"/><path d="m649.348 326.124.594-1.041-1.041-.595.695-.189 1.04.595-.595 1.041z" fill="#00d3aa"/><path d="m586.246 342.421 53.744 32.68" fill="none" stroke="#00d3aa" stroke-width=".5"/><path d="m638.699 375.307 1.165-.283-.285-1.165.616.374.284 1.165-1.165.283z" fill="#00d3aa"/><path d="m585.48 342.311-49.626-17.229" fill="none" stroke="#00d3aa" stroke-width=".5"/><path d="m537.073 324.607-1.079.523.524 1.079-.681-.236-.523-1.079 1.08-.522z" fill="#00d3aa"/><path d="m585.263 342.25-30.221-35.273" fill="none" stroke="#00d3aa" stroke-width=".5"/><path d="m556.334 307.181-1.196-.092-.092 1.196-.469-.547.093-1.196 1.194.093z" fill="#00d3aa"/><path d="m585.504 342.316-46.183-32.528" fill="none" stroke="#00d3aa" stroke-width=".5"/><path d="m540.623 309.667-1.181.205.205 1.182-.587-.415-.206-1.181 1.181-.205z" fill="#00d3aa"/><path d="m589.836 336.819 56.392-28.845" fill="none" stroke="#00d3aa" stroke-width=".5"/><path d="m645.727 309.183.369-1.142-1.142-.368.642-.328 1.139.369-.368 1.141z" fill="#00d3aa"/><path d="m588.148 342.008 39.612 44.467" fill="none" stroke="#00d3aa" stroke-width=".5"/><path d="m626.465 386.294 1.196.07.069-1.197.479.537-.068 1.197-1.198-.069z" fill="#00d3aa"/><path d="m590.248 338.856 47.231 3.486" fill="none" stroke="#00d3aa" stroke-width=".5"/><path d="m636.424 343.113.907-.781-.782-.908.717.052.783.909-.907.782z" fill="#00d3aa"/><path d="m583.372 340.943 11.387-88.467" fill="none" stroke="#00d3aa" stroke-width=".5"/><path d="m595.473 253.572-.732-.949-.95.732.092-.713.949-.733.733.949z" fill="#00d3aa"/><path d="m589.13 335.849 62.813-62.841" fill="none" stroke="#00d3aa" stroke-width=".5"/><path d="m651.838 274.312v-1.199l-1.199.001.508-.51h1.2v1.199z" fill="#00d3aa"/><path d="m587.147 342.353-25.87-56.997" fill="none" stroke="#00d3aa" stroke-width=".5"/><path d="m562.461 285.912-1.123-.422-.42 1.123-.298-.655.422-1.123 1.122.422z" fill="#00d3aa"/><path d="m413.403 875.181 1.889 73.283" fill="none" stroke="#00d3aa" stroke-width=".5"/><path d="m414.418 947.49.87.826.825-.87.018.72-.824.869-.869-.825z" fill="#00d3aa"/><path d="m410.438 873.904-74.137 66.566" fill="none" stroke="#00d3aa" stroke-width=".5"/><path d="m336.476 939.174-.064 1.197 1.196.065-.535.48-1.198-.064.065-1.198z" fill="#00d3aa"/><path d="m415.021 874.778 36.099 72.491" fill="none" stroke="#00d3aa" stroke-width=".5"/><path d="m449.917 946.755 1.137.382.381-1.137.32.645-.38 1.135-1.137-.38z" fill="#00d3aa"/><path d="m409.959 873.24-46.108 26.322" fill="none" stroke="#00d3aa" stroke-width=".5"/><path d="m364.296 898.333-.316 1.156 1.156.317-.625.356-1.156-.315.316-1.158z" fill="#00d3aa"/><path d="m411.807 874.88-18.022 42.714" fill="none" stroke="#00d3aa" stroke-width=".5"/><path d="m393.391 916.347.451 1.11 1.111-.451-.28.663-1.111.451-.452-1.11z" fill="#00d3aa"/><path d="m409.715 872.729-88.827 34.599" fill="none" stroke="#00d3aa" stroke-width=".5"/><path d="m321.508 906.176-.482 1.099 1.098.481-.671.262-1.098-.483.483-1.097z" fill="#00d3aa"/><path d="m411.687 874.826-55.027 118.929" fill="none" stroke="#00d3aa" stroke-width=".5"/><path d="m356.309 992.494.413 1.126 1.126-.414-.304.653-1.125.413-.412-1.125z" fill="#00d3aa"/><path d="m409.953 873.23-131.726 74.665" fill="none" stroke="#00d3aa" stroke-width=".5"/><path d="m278.676 946.666-.32 1.156 1.156.32-.627.354-1.156-.319.321-1.156z" fill="#00d3aa"/><path d="m415.775 874.285 29.163 34.863" fill="none" stroke="#00d3aa" stroke-width=".5"/><path d="m443.648 908.928 1.194.107.106-1.195.462.553-.106 1.193-1.195-.106z" fill="#00d3aa"/><path d="m410.767 874.229-98.116 112.074" fill="none" stroke="#00d3aa" stroke-width=".5"/><path d="m312.669 984.995.079 1.196 1.197-.08-.474.542-1.197.079-.079-1.195z" fill="#00d3aa"/><path d="m411.829 874.889-33.625 81.109" fill="none" stroke="#00d3aa" stroke-width=".5"/><path d="m377.802 954.754.458 1.107 1.108-.459-.275.665-1.108.459-.458-1.108z" fill="#00d3aa"/><path d="m414.072 875.105 24.346 119.619" fill="none" stroke="#00d3aa" stroke-width=".5"/><path d="m437.388 993.917 1 .661.661-1 .144.706-.662.999-.999-.661z" fill="#00d3aa"/><path d="m412.855 875.156-16.147 137.805" fill="none" stroke="#00d3aa" stroke-width=".5"/><path d="m395.981 1011.872.744.941.941-.744-.084.715-.94.743-.744-.94z" fill="#00d3aa"/><path d="m782.559 602.125 101.487-109.708" fill="none" stroke="#00d3aa" stroke-width=".5"/><path d="m883.991 493.724-.046-1.198-1.198.047.488-.529 1.199-.046.046 1.198z" fill="#00d3aa"/><path d="m782.514 602.085 61.719-68.826" fill="none" stroke="#00d3aa" stroke-width=".5"/><path d="m844.199 534.566-.064-1.196-1.197.065.48-.537 1.197-.065.065 1.198z" fill="#00d3aa"/><path d="m783.634 603.854 78.774-23.45" fill="none" stroke="#00d3aa" stroke-width=".5"/><path d="m861.695 581.501.572-1.054-1.055-.57.689-.206 1.055.571-.571 1.054z" fill="#00d3aa"/><path d="m781.926 601.65 92.002-153.171" fill="none" stroke="#00d3aa" stroke-width=".5"/><path d="m874.142 449.769-.29-1.164-1.164.291.371-.617 1.163-.29.29 1.163z" fill="#00d3aa"/><path d="m783.244 602.968 115.965-69.698" fill="none" stroke="#00d3aa" stroke-width=".5"/><path d="m898.792 534.509.291-1.163-1.164-.289.617-.371 1.163.29-.29 1.163z" fill="#00d3aa"/><path d="m783.686 604.045 126.962-30.768" fill="none" stroke="#00d3aa" stroke-width=".5"/><path d="m909.88 574.336.625-1.023-1.025-.624.701-.169 1.023.625-.624 1.022z" fill="#00d3aa"/><path d="m781.618 601.484 49.248-101.981" fill="none" stroke="#00d3aa" stroke-width=".5"/><path d="m831.196 500.769-.395-1.132-1.131.395.312-.648 1.132-.395.394 1.132z" fill="#00d3aa"/><path d="m781.161 601.299 13.654-40.931" fill="none" stroke="#00d3aa" stroke-width=".5"/><path d="m795.305 561.581-.536-1.072-1.073.536.228-.683 1.072-.536.536 1.072z" fill="#00d3aa"/><path d="m783.753 605.514 57.339 8.46" fill="none" stroke="#00d3aa" stroke-width=".5"/><path d="m839.982 614.666.963-.714-.715-.963.712.107.715.962-.963.713z" fill="#00d3aa"/><path d="m783.427 606.593 80.289 37.812" fill="none" stroke="#00d3aa" stroke-width=".5"/><path d="m862.454 644.747 1.128-.404-.406-1.129.651.307.405 1.127-1.128.407z" fill="#00d3aa"/><path d="m783.776 605.32 121.662 11.676" fill="none" stroke="#00d3aa" stroke-width=".5"/><path d="m904.366 617.744.925-.763-.763-.923.716.068.763.926-.925.761z" fill="#00d3aa"/><path d="m588.835 874.321 52.913 65.163" fill="none" stroke="#00d3aa" stroke-width=".5"/><path d="m640.462 939.246 1.193.124.122-1.192.454.557-.124 1.194-1.191-.123z" fill="#00d3aa"/><path d="m589.809 873.139 40.526 21.544" fill="none" stroke="#00d3aa" stroke-width=".5"/><path d="m629.059 894.964 1.146-.351-.351-1.146.635.338.351 1.146-1.146.351z" fill="#00d3aa"/><path d="m585.29 875.017-17.04 56.204" fill="none" stroke="#00d3aa" stroke-width=".5"/><path d="m567.729 930.021.564 1.059 1.058-.566-.208.689-1.059.565-.564-1.057z" fill="#00d3aa"/><path d="m582.937 873-38.453 18.493" fill="none" stroke="#00d3aa" stroke-width=".5"/><path d="m545.015 890.298-.397 1.132 1.132.396-.648.312-1.132-.397.396-1.131z" fill="#00d3aa"/><path d="m587.617 870.581 44.213-9.348" fill="none" stroke="#00d3aa" stroke-width=".5"/><path d="m631.031 862.27.656-1.005-1.007-.655.705-.148 1.004.653-.654 1.006z" fill="#00d3aa"/><path d="m587.26 875.087 19.917 87.787" fill="none" stroke="#00d3aa" stroke-width=".5"/><path d="m606.131 962.091 1.014.64.638-1.015.159.701-.638 1.015-1.015-.639z" fill="#00d3aa"/><path d="m585.541 875.084-22.722 98.372" fill="none" stroke="#00d3aa" stroke-width=".5"/><path d="m562.219 972.295.635 1.018 1.016-.636-.162.701-1.017.636-.634-1.017z" fill="#00d3aa"/><path d="m587.607 874.99 16.097 49.076" fill="none" stroke="#00d3aa" stroke-width=".5"/><path d="m602.588 923.384 1.07.542.541-1.07.224.684-.541 1.07-1.07-.541z" fill="#00d3aa"/><path d="m589.222 873.96 91.039 85.035" fill="none" stroke="#00d3aa" stroke-width=".5"/><path d="m678.955 958.935 1.197-.041-.041-1.199.527.492.041 1.198-1.199.041z" fill="#00d3aa"/><path d="m590.113 872.381 74.175 21.016" fill="none" stroke="#00d3aa" stroke-width=".5"/><path d="m663.098 893.94 1.048-.584-.585-1.046.692.196.584 1.047-1.046.584z" fill="#00d3aa"/><path d="m586.672 875.173 9.223 134.294" fill="none" stroke="#00d3aa" stroke-width=".5"/><path d="m594.98 1008.531.905.788.787-.904.05.719-.788.903-.905-.788z" fill="#00d3aa"/><path d="m588.096 874.793 60.047 123.163" fill="none" stroke="#00d3aa" stroke-width=".5"/><path d="m646.944 997.433 1.133.391.39-1.135.316.648-.389 1.133-1.134-.39z" fill="#00d3aa"/><path d="m730.139 770.692 48.048 14.451" fill="none" stroke="#00d3aa" stroke-width=".5"/><path d="m776.988 785.667 1.057-.566-.568-1.057.689.207.567 1.057-1.055.566z" fill="#00d3aa"/><path d="m727.404 768.002 53.034-48.877" fill="none" stroke="#00d3aa" stroke-width=".5"/><path d="m780.279 720.423.05-1.196-1.198-.05.529-.488 1.197.048-.048 1.2z" fill="#00d3aa"/><path d="m729.738 767.578 39.792-24.272" fill="none" stroke="#00d3aa" stroke-width=".5"/><path d="m769.121 744.547.283-1.166-1.166-.281.616-.375 1.164.282-.282 1.165z" fill="#00d3aa"/><path d="m728.019 773.102 44.761 100.438" fill="none" stroke="#00d3aa" stroke-width=".5"/><path d="m771.601 872.975 1.119.43.428-1.119.293.656-.428 1.12-1.119-.43z" fill="#00d3aa"/><path d="m730.153 768.523 78.59-22.488" fill="none" stroke="#00d3aa" stroke-width=".5"/><path d="m808.019 747.123.582-1.048-1.049-.582.692-.197 1.047.581-.58 1.05z" fill="#00d3aa"/><path d="m729.803 771.479 75.138 42.515" fill="none" stroke="#00d3aa" stroke-width=".5"/><path d="m803.657 814.24 1.155-.318-.321-1.157.627.354.32 1.155-1.155.321z" fill="#00d3aa"/><path d="m730.29 769.274 136.483-10.971" fill="none" stroke="#00d3aa" stroke-width=".5"/><path d="m865.849 759.228.777-.914-.913-.776.718-.059.913.778-.778.913z" fill="#00d3aa"/><path d="m730.276 770.024 96.642 11.136" fill="none" stroke="#00d3aa" stroke-width=".5"/><path d="m825.832 781.888.939-.744-.746-.94.716.082.744.94-.938.745z" fill="#00d3aa"/><path d="m729.085 772.393 77.015 82.125" fill="none" stroke="#00d3aa" stroke-width=".5"/><path d="m804.8 854.37 1.198.039.038-1.198.492.524-.038 1.199-1.198-.038z" fill="#00d3aa"/><path d="m726.646 773.43 2.767 54.747" fill="none" stroke="#00d3aa" stroke-width=".5"/><path d="m728.517 827.225.889.803.804-.889.035.718-.803.89-.889-.804z" fill="#00d3aa"/><path d="m730.163 770.607 139.388 38.462" fill="none" stroke="#00d3aa" stroke-width=".5"/><path d="m868.365 809.621 1.043-.592-.592-1.042.696.193.59 1.042-1.042.59z" fill="#00d3aa"/><path d="m722.858 768.196-9.11 44.581" fill="none" stroke="#00d3aa" stroke-width=".5"/><path d="m713.117 811.632.66 1.001 1.001-.661-.144.705-1 .66-.661-1z" fill="#00d3aa"/><path d="m728.585 772.789 34.614 51.986" fill="none" stroke="#00d3aa" stroke-width=".5"/><path d="m761.941 824.416 1.176.236.236-1.174.399.597-.236 1.176-1.176-.235z" fill="#00d3aa"/><path d="m729.628 771.76 120.892 82.832" fill="none" stroke="#00d3aa" stroke-width=".5"/><path d="m849.219 854.728 1.178-.22-.219-1.178.593.406.219 1.179-1.178.22z" fill="#00d3aa"/><path d="m269.495 441.13-54.095 11.631" fill="none" stroke="#00d3aa" stroke-width=".5"/><path d="m216.196 451.723-.651 1.008 1.007.65-.704.152-1.006-.652.65-1.007z" fill="#00d3aa"/><path d="m273.38 436.472 1.599-51.063" fill="none" stroke="#00d3aa" stroke-width=".5"/><path d="m275.795 386.431-.82-.874-.874.821.022-.719.874-.821.821.873z" fill="#00d3aa"/><path d="m270.626 437.511-71.252-76.023" fill="none" stroke="#00d3aa" stroke-width=".5"/><path d="m200.673 361.635-1.198-.039-.039 1.198-.492-.525.039-1.198 1.198.039z" fill="#00d3aa"/><path d="m269.644 438.995-126.471-46.364" fill="none" stroke="#00d3aa" stroke-width=".5"/><path d="m144.399 392.178-1.087.504.504 1.088-.675-.248-.505-1.087 1.088-.504z" fill="#00d3aa"/><path d="m270.198 437.984-117.192-89.424" fill="none" stroke="#00d3aa" stroke-width=".5"/><path d="m154.312 348.489-1.188.16.16 1.188-.574-.437-.158-1.187 1.187-.161z" fill="#00d3aa"/><path d="m271.179 437.08-78.946-122.941" fill="none" stroke="#00d3aa" stroke-width=".5"/><path d="m193.485 314.519-1.171-.256-.255 1.172-.389-.605.255-1.171 1.171.255z" fill="#00d3aa"/><path d="m271.188 437.074-34.722-54.418" fill="none" stroke="#00d3aa" stroke-width=".5"/><path d="m237.717 383.04-1.171-.259-.258 1.171-.387-.607.258-1.17 1.171.259z" fill="#00d3aa"/><path d="m272.365 436.575-21.846-91.464" fill="none" stroke="#00d3aa" stroke-width=".5"/><path d="m251.575 345.883-1.021-.628-.628 1.022-.167-.701.628-1.021 1.021.628z" fill="#00d3aa"/><path d="m272.234 436.608-38.023-137.623" fill="none" stroke="#00d3aa" stroke-width=".5"/><path d="m235.294 299.72-1.043-.592-.591 1.043-.192-.693.592-1.043 1.042.591z" fill="#00d3aa"/><path d="m269.677 438.907-79.763-31.458" fill="none" stroke="#00d3aa" stroke-width=".5"/><path d="m191.152 407.026-1.1.479.478 1.099-.67-.264-.477-1.099 1.099-.478z" fill="#00d3aa"/><path d="m269.425 440.675-94.831 8.767" fill="none" stroke="#00d3aa" stroke-width=".5"/><path d="m175.509 448.506-.767.922.923.766-.717.066-.922-.766.766-.922z" fill="#00d3aa"/><path d="m269.41 440.225-139.396-3.493" fill="none" stroke="#00d3aa" stroke-width=".5"/><path d="m131.031 435.909-.869.826.827.869-.72-.018-.826-.869.868-.825z" fill="#00d3aa"/><path d="m723.359 442.617 39.825-70.223" fill="none" stroke="#00d3aa" stroke-width=".5"/><path d="m763.43 373.678-.319-1.156-1.156.319.356-.626 1.155-.319.319 1.156z" fill="#00d3aa"/><path d="m723.413 442.688-5.311-70.222" fill="none" stroke="#00d3aa" stroke-width=".5"/><path d="m719.021 373.395-.909-.781-.781.909-.054-.718.782-.909.909.782z" fill="#00d3aa"/><path d="m726.451 440.32-16.59-45.48" fill="none" stroke="#00d3aa" stroke-width=".5"/><path d="m710.999 395.485-1.087-.506-.506 1.087-.246-.676.506-1.087 1.086.506z" fill="#00d3aa"/><path d="m723.548 442.851 17.452-53.956" fill="none" stroke="#00d3aa" stroke-width=".5"/><path d="m741.5 390.104-.546-1.068-1.067.547.22-.687 1.069-.544.545 1.067z" fill="#00d3aa"/><path d="m724.962 443.872 80.908-46.184" fill="none" stroke="#00d3aa" stroke-width=".5"/><path d="m805.425 398.917.315-1.156-1.155-.316.625-.357 1.155.316-.315 1.157z" fill="#00d3aa"/><path d="m723.106 442.23 49.226-48.075" fill="none" stroke="#00d3aa" stroke-width=".5"/><path d="m772.212 395.456.014-1.199-1.199-.014.515-.503 1.198.015-.013 1.198z" fill="#00d3aa"/><path d="m726.631 444.168 60.88-6.439" fill="none" stroke="#00d3aa" stroke-width=".5"/><path d="m786.609 438.677.754-.933-.932-.754.715-.075.933.754-.754.932z" fill="#00d3aa"/><path d="m724.13 437.247 26.362 19.547" fill="none" stroke="#00d3aa" stroke-width=".5"/><path d="m749.188 456.881 1.185-.176-.176-1.185.578.428.176 1.186-1.185.176z" fill="#00d3aa"/><path d="m723.609 442.92-228.074 208.668" fill="none" stroke="#8d9df7" stroke-width=".5"/><path d="m495.698 650.29-.054 1.197 1.198.054-.531.485-1.197-.051.053-1.2z" fill="#8d9df7"/><path d="m273.26 766.082c1.934 0 3.501 1.567 3.501 3.501 0 1.935-1.567 3.502-3.501 3.502s-3.501-1.567-3.501-3.502c0-1.934 1.567-3.501 3.501-3.501"/><path d="m480.542 543.07c11.602 0 21.006 9.405 21.006 21.007s-9.404 21.008-21.006 21.008-21.007-9.406-21.007-21.008 9.405-21.007 21.007-21.007" fill="#8d9df7"/><path d="m512.544 706.536c4.834 0 8.752 3.919 8.752 8.753s-3.918 8.753-8.752 8.753-8.753-3.919-8.753-8.753 3.919-8.753 8.753-8.753" fill="#8d9df7"/><path d="m534.462 652.998c5.801 0 10.503 4.703 10.503 10.504 0 5.802-4.702 10.503-10.503 10.503s-10.503-4.701-10.503-10.503c0-5.801 4.702-10.504 10.503-10.504" fill="#8d9df7"/><path d="m471.378 767.748c3.867 0 7.002 3.137 7.002 7.003 0 3.867-3.135 7.002-7.002 7.002s-7.002-3.135-7.002-7.002c0-3.866 3.135-7.003 7.002-7.003" fill="#8d9df7"/><path d="m434.153 616.959c11.602 0 21.007 9.405 21.007 21.007s-9.405 21.008-21.007 21.008-21.006-9.406-21.006-21.008 9.404-21.007 21.006-21.007" fill="#8d9df7"/><path d="m488.139 651.352c3.867 0 7.002 3.137 7.002 7.003 0 3.867-3.135 7.002-7.002 7.002s-7.002-3.135-7.002-7.002 3.134-7.003 7.002-7.003" fill="#8d9df7"/><path d="m572.75 595.824c7.733 0 14.004 6.271 14.004 14.005s-6.271 14.004-14.004 14.004c-7.734 0-14.005-6.27-14.005-14.004 0-7.733 6.271-14.005 14.005-14.005" fill="#8d9df7"/><path d="m643.525 554.948c6.768 0 12.254 5.486 12.254 12.254 0 6.769-5.486 12.253-12.254 12.253-6.769 0-12.255-5.484-12.255-12.253.001-6.767 5.487-12.254 12.255-12.254" fill="#8d9df7"/><path d="m321.194 837.942c3.868 0 7.002 3.136 7.002 7.003s-3.134 7.002-7.002 7.002c-3.867 0-7.002-3.135-7.002-7.002s3.135-7.003 7.002-7.003" fill="#8d9df7"/><path d="m352.396 390.712c3.867 0 7.002 3.135 7.002 7.002s-3.135 7.002-7.002 7.002-7.002-3.135-7.002-7.002 3.135-7.002 7.002-7.002" fill="#8d9df7"/><path d="m504.216 475.614c5.801 0 10.503 4.702 10.503 10.503s-4.702 10.504-10.503 10.504-10.503-4.703-10.503-10.504 4.702-10.503 10.503-10.503" fill="#8d9df7"/><path d="m617.49 653.571c6.769 0 12.254 5.486 12.254 12.254s-5.485 12.254-12.254 12.254c-6.768 0-12.254-5.486-12.254-12.254s5.487-12.254 12.254-12.254" fill="#8d9df7"/><path d="m577.18 419.362c3.867 0 7.002 3.135 7.002 7.002s-3.135 7.003-7.002 7.003c-3.866 0-7.002-3.136-7.002-7.003 0-3.866 3.135-7.002 7.002-7.002" fill="#8d9df7"/><path d="m405.897 474.903c4.834 0 8.753 3.919 8.753 8.753s-3.919 8.753-8.753 8.753-8.753-3.919-8.753-8.753 3.919-8.753 8.753-8.753" fill="#8d9df7"/><path d="m322.664 316.32c3.867 0 7.002 3.135 7.002 7.002s-3.135 7.002-7.002 7.002-7.002-3.135-7.002-7.002c0-3.866 3.134-7.002 7.002-7.002" fill="#8d9df7"/><path d="m219.768 601.451c1.934 0 3.501 1.567 3.501 3.501 0 1.935-1.567 3.501-3.501 3.501s-3.501-1.566-3.501-3.501c0-1.933 1.566-3.501 3.501-3.501"/><path d="m511.661 619.924c5.801 0 10.503 4.703 10.503 10.504 0 5.802-4.702 10.503-10.503 10.503s-10.503-4.701-10.503-10.503c0-5.801 4.702-10.504 10.503-10.504" fill="#8d9df7"/><path d="m390.428 567.409c3.867 0 7.002 3.136 7.002 7.002 0 3.867-3.135 7.003-7.002 7.003s-7.002-3.136-7.002-7.003c0-3.866 3.135-7.002 7.002-7.002" fill="#8d9df7"/><path d="m174.961 705.603c3.867 0 7.002 3.136 7.002 7.002 0 3.867-3.135 7.002-7.002 7.002s-7.002-3.135-7.002-7.002 3.135-7.002 7.002-7.002" fill="#8d9df7"/><path d="m499.855 597.95c3.867 0 7.002 3.135 7.002 7.002s-3.135 7.003-7.002 7.003-7.002-3.136-7.002-7.003 3.135-7.002 7.002-7.002" fill="#8d9df7"/><path d="m586.407 335.072c1.934 0 3.501 1.567 3.501 3.501s-1.567 3.501-3.501 3.501-3.501-1.567-3.501-3.501c0-1.933 1.568-3.501 3.501-3.501"/><path d="m569.556 695.041c3.867 0 7.002 3.135 7.002 7.002s-3.135 7.002-7.002 7.002-7.002-3.135-7.002-7.002 3.134-7.002 7.002-7.002" fill="#8d9df7"/><path d="m418.955 528.314c4.834 0 8.753 3.919 8.753 8.753s-3.919 8.753-8.753 8.753-8.752-3.919-8.752-8.753 3.918-8.753 8.752-8.753" fill="#8d9df7"/><path d="m413.304 867.83c1.934 0 3.501 1.567 3.501 3.501 0 1.935-1.567 3.501-3.501 3.501s-3.501-1.566-3.501-3.501c0-1.934 1.567-3.501 3.501-3.501"/><path d="m271.106 515.266c3.867 0 7.002 3.135 7.002 7.002s-3.135 7.002-7.002 7.002-7.002-3.135-7.002-7.002 3.135-7.002 7.002-7.002" fill="#8d9df7"/><path d="m474.877 699.747c3.867 0 7.002 3.136 7.002 7.002 0 3.867-3.135 7.003-7.002 7.003s-7.002-3.136-7.002-7.003c0-3.866 3.135-7.002 7.002-7.002" fill="#8d9df7"/><path d="m779.943 601.451c1.934 0 3.501 1.567 3.501 3.501 0 1.935-1.567 3.501-3.501 3.501s-3.502-1.566-3.502-3.501c0-1.933 1.569-3.501 3.502-3.501"/><path d="m586.407 867.83c1.934 0 3.501 1.567 3.501 3.501 0 1.935-1.567 3.501-3.501 3.501s-3.501-1.566-3.501-3.501c0-1.934 1.568-3.501 3.501-3.501"/><path d="m726.451 766.082c1.934 0 3.501 1.567 3.501 3.501 0 1.935-1.567 3.502-3.501 3.502s-3.501-1.567-3.501-3.502c0-1.934 1.568-3.501 3.501-3.501"/><path d="m273.26 436.819c1.934 0 3.501 1.567 3.501 3.501s-1.567 3.501-3.501 3.501-3.501-1.567-3.501-3.501c0-1.933 1.567-3.501 3.501-3.501"/><path d="m455.002 467.647c3.867 0 7.002 3.136 7.002 7.003s-3.135 7.002-7.002 7.002-7.002-3.134-7.002-7.002c0-3.866 3.135-7.003 7.002-7.003" fill="#8d9df7"/><path d="m726.451 436.819c1.934 0 3.501 1.567 3.501 3.501s-1.567 3.501-3.501 3.501-3.501-1.567-3.501-3.501c0-1.933 1.568-3.501 3.501-3.501"/><g fill="#00d3aa"><path d="m250.386 812.816c2.9 0 5.252 2.352 5.252 5.251 0 2.9-2.352 5.252-5.252 5.252s-5.251-2.352-5.251-5.252c0-2.899 2.351-5.251 5.251-5.251"/><path d="m174.026 747.759c2.9 0 5.251 2.353 5.251 5.252 0 2.9-2.351 5.251-5.251 5.251s-5.252-2.351-5.252-5.251 2.352-5.252 5.252-5.252"/><path d="m218.045 828.016c2.9 0 5.252 2.353 5.252 5.252 0 2.9-2.352 5.252-5.252 5.252s-5.251-2.352-5.251-5.252 2.351-5.252 5.251-5.252"/><path d="m193.791 805.202c2.9 0 5.251 2.352 5.251 5.251 0 2.9-2.351 5.252-5.251 5.252s-5.252-2.352-5.252-5.252c0-2.899 2.352-5.251 5.252-5.251"/><path d="m199.789 772.38c2.9 0 5.251 2.353 5.251 5.252 0 2.9-2.351 5.251-5.251 5.251s-5.251-2.351-5.251-5.251 2.351-5.252 5.251-5.252"/><path d="m282.564 813.047c2.9 0 5.251 2.352 5.251 5.251 0 2.9-2.351 5.252-5.251 5.252s-5.251-2.352-5.251-5.252 2.351-5.251 5.251-5.251"/><path d="m238.438 730.374c2.9 0 5.252 2.353 5.252 5.252 0 2.9-2.352 5.251-5.252 5.251s-5.251-2.351-5.251-5.251c.001-2.899 2.352-5.252 5.251-5.252"/><path d="m265.777 836.439c2.9 0 5.251 2.353 5.251 5.252 0 2.9-2.351 5.252-5.251 5.252s-5.251-2.352-5.251-5.252c0-2.899 2.351-5.252 5.251-5.252"/><path d="m164.595 795.107c2.9 0 5.252 2.353 5.252 5.252 0 2.9-2.352 5.252-5.252 5.252s-5.251-2.352-5.251-5.252c0-2.899 2.351-5.252 5.251-5.252"/><path d="m170.528 839.529c2.9 0 5.251 2.353 5.251 5.252 0 2.9-2.351 5.252-5.251 5.252s-5.252-2.352-5.252-5.252c0-2.899 2.352-5.252 5.252-5.252"/><path d="m194.538 735.053c2.9 0 5.251 2.352 5.251 5.251 0 2.9-2.351 5.252-5.251 5.252s-5.252-2.352-5.252-5.252 2.352-5.251 5.252-5.251"/><path d="m419.442 251.909c2.9 0 5.251 2.353 5.251 5.252s-2.351 5.251-5.251 5.251-5.252-2.351-5.252-5.251 2.352-5.252 5.252-5.252"/><path d="m352.77 267.639c2.9 0 5.251 2.353 5.251 5.252s-2.351 5.252-5.251 5.252-5.252-2.352-5.252-5.252 2.352-5.252 5.252-5.252"/><path d="m404.552 208.182c2.9 0 5.252 2.351 5.252 5.251s-2.352 5.252-5.252 5.252-5.251-2.352-5.251-5.252 2.351-5.251 5.251-5.251"/><path d="m460.899 254.319c2.9 0 5.251 2.351 5.251 5.251s-2.351 5.252-5.251 5.252-5.252-2.352-5.252-5.252 2.353-5.251 5.252-5.251"/><path d="m477.434 213.551c2.9 0 5.251 2.353 5.251 5.252s-2.351 5.252-5.251 5.252-5.251-2.352-5.251-5.252 2.351-5.252 5.251-5.252"/><path d="m462.604 290.269c2.9 0 5.252 2.352 5.252 5.252s-2.352 5.252-5.252 5.252-5.251-2.352-5.251-5.252 2.351-5.252 5.251-5.252"/><path d="m440.926 182.209c2.9 0 5.252 2.351 5.252 5.251s-2.352 5.252-5.252 5.252-5.251-2.352-5.251-5.252 2.351-5.251 5.251-5.251"/><path d="m488.28 295.166c2.9 0 5.251 2.351 5.251 5.251s-2.351 5.252-5.251 5.252-5.252-2.352-5.252-5.252 2.352-5.251 5.252-5.251"/><path d="m376.751 260.364c2.9 0 5.251 2.352 5.251 5.252s-2.351 5.252-5.251 5.252-5.251-2.352-5.251-5.252 2.352-5.252 5.251-5.252"/><path d="m357.527 218.131c2.9 0 5.252 2.352 5.252 5.252s-2.352 5.252-5.252 5.252-5.251-2.352-5.251-5.252 2.351-5.252 5.251-5.252"/><path d="m154.204 542.236c2.9 0 5.251 2.353 5.251 5.252 0 2.9-2.351 5.251-5.251 5.251s-5.252-2.351-5.252-5.251c0-2.899 2.352-5.252 5.252-5.252"/><path d="m149.241 565.75c2.9 0 5.251 2.352 5.251 5.251 0 2.9-2.351 5.252-5.251 5.252s-5.252-2.352-5.252-5.252c0-2.899 2.352-5.251 5.252-5.251"/><path d="m183.845 647.672c2.9 0 5.251 2.353 5.251 5.252 0 2.9-2.351 5.252-5.251 5.252s-5.251-2.352-5.251-5.252 2.351-5.252 5.251-5.252"/><path d="m161.141 519.992c2.9 0 5.251 2.352 5.251 5.252s-2.351 5.251-5.251 5.251-5.252-2.351-5.252-5.251 2.352-5.252 5.252-5.252"/><path d="m145.048 635.172c2.9 0 5.252 2.353 5.252 5.252 0 2.9-2.352 5.252-5.252 5.252s-5.251-2.352-5.251-5.252 2.351-5.252 5.251-5.252"/><path d="m181.963 531.095c2.9 0 5.251 2.352 5.251 5.252s-2.351 5.251-5.251 5.251-5.252-2.351-5.252-5.251 2.352-5.252 5.252-5.252"/><path d="m126.868 595.787c2.9 0 5.251 2.352 5.251 5.251 0 2.9-2.351 5.252-5.251 5.252s-5.251-2.352-5.251-5.252c0-2.899 2.351-5.251 5.251-5.251"/><path d="m95.989 641.938c2.901 0 5.252 2.353 5.252 5.252 0 2.9-2.351 5.251-5.252 5.251-2.9 0-5.251-2.351-5.251-5.251 0-2.899 2.351-5.252 5.251-5.252"/><path d="m85.439 585.808c2.9 0 5.251 2.352 5.251 5.251 0 2.9-2.351 5.252-5.251 5.252s-5.251-2.352-5.251-5.252 2.351-5.251 5.251-5.251"/><path d="m152.551 657.873c2.9 0 5.251 2.352 5.251 5.251 0 2.9-2.351 5.252-5.251 5.252s-5.252-2.352-5.252-5.252c0-2.899 2.352-5.251 5.252-5.251"/><path d="m631.729 232.049c2.9 0 5.252 2.352 5.252 5.252s-2.352 5.251-5.252 5.251c-2.899 0-5.252-2.351-5.252-5.251s2.352-5.252 5.252-5.252"/><path d="m577.18 259.57c2.9 0 5.252 2.352 5.252 5.252s-2.352 5.252-5.252 5.252c-2.899 0-5.252-2.352-5.252-5.252s2.352-5.252 5.252-5.252"/><path d="m645.385 353.777c2.899 0 5.252 2.351 5.252 5.251s-2.353 5.252-5.252 5.252c-2.9 0-5.252-2.352-5.252-5.252s2.351-5.251 5.252-5.251"/><path d="m657.699 318.73c2.9 0 5.252 2.351 5.252 5.251s-2.352 5.252-5.252 5.252c-2.899 0-5.251-2.352-5.251-5.252 0-2.899 2.352-5.251 5.251-5.251"/><path d="m648.342 373.997c2.9 0 5.251 2.351 5.251 5.251s-2.351 5.252-5.251 5.252-5.252-2.352-5.252-5.252 2.351-5.251 5.252-5.251"/><path d="m529.404 315.791c2.9 0 5.251 2.352 5.251 5.252s-2.351 5.251-5.251 5.251-5.251-2.351-5.251-5.251 2.351-5.252 5.251-5.252"/><path d="m549.848 296.28c2.9 0 5.252 2.353 5.252 5.252s-2.352 5.252-5.252 5.252c-2.899 0-5.251-2.352-5.251-5.252s2.351-5.252 5.251-5.252"/><path d="m533.603 298.954c2.899 0 5.251 2.352 5.251 5.252s-2.352 5.252-5.251 5.252c-2.9 0-5.252-2.352-5.252-5.252s2.352-5.252 5.252-5.252"/><path d="m653.594 298.954c2.899 0 5.25 2.352 5.25 5.252s-2.351 5.252-5.25 5.252c-2.9 0-5.252-2.352-5.252-5.252s2.351-5.252 5.252-5.252"/><path d="m633.912 389.159c2.899 0 5.25 2.353 5.25 5.252s-2.351 5.251-5.25 5.251c-2.9 0-5.252-2.351-5.252-5.251s2.352-5.252 5.252-5.252"/><path d="m645.73 337.699c2.899 0 5.252 2.351 5.252 5.251s-2.353 5.252-5.252 5.252c-2.9 0-5.252-2.352-5.252-5.252.001-2.9 2.352-5.251 5.252-5.251"/><path d="m595.738 238.43c2.899 0 5.25 2.351 5.25 5.251s-2.351 5.252-5.25 5.252c-2.9 0-5.253-2.352-5.253-5.252s2.353-5.251 5.253-5.251"/><path d="m657.791 261.904c2.9 0 5.252 2.352 5.252 5.252s-2.352 5.251-5.252 5.251c-2.899 0-5.252-2.351-5.252-5.251s2.353-5.252 5.252-5.252"/><path d="m556.94 272.891c2.9 0 5.251 2.352 5.251 5.252s-2.351 5.251-5.251 5.251-5.251-2.351-5.251-5.251 2.351-5.252 5.251-5.252"/><path d="m415.504 951.483c2.9 0 5.251 2.353 5.251 5.252 0 2.9-2.351 5.252-5.251 5.252s-5.252-2.352-5.252-5.252c0-2.899 2.352-5.252 5.252-5.252"/><path d="m330.145 940.746c2.9 0 5.251 2.352 5.251 5.251 0 2.9-2.351 5.252-5.251 5.252s-5.252-2.352-5.252-5.252c0-2.899 2.352-5.251 5.252-5.251"/><path d="m454.808 949.424c2.9 0 5.251 2.353 5.251 5.252 0 2.9-2.351 5.251-5.251 5.251s-5.251-2.351-5.251-5.251 2.351-5.252 5.251-5.252"/><path d="m356.666 898.413c2.9 0 5.251 2.353 5.251 5.252 0 2.9-2.351 5.251-5.251 5.251s-5.251-2.351-5.251-5.251c0-2.899 2.351-5.252 5.251-5.252"/><path d="m390.568 919.965c2.9 0 5.251 2.353 5.251 5.252 0 2.9-2.351 5.252-5.251 5.252s-5.251-2.352-5.251-5.252 2.351-5.252 5.251-5.252"/><path d="m313.178 905.079c2.9 0 5.251 2.352 5.251 5.252s-2.351 5.251-5.251 5.251-5.251-2.351-5.251-5.251 2.351-5.252 5.251-5.252"/><path d="m353.185 996.012c2.9 0 5.251 2.352 5.251 5.251 0 2.9-2.351 5.252-5.251 5.252s-5.251-2.352-5.251-5.252 2.351-5.251 5.251-5.251"/><path d="m271.029 946.723c2.9 0 5.252 2.353 5.252 5.252 0 2.9-2.352 5.252-5.252 5.252s-5.251-2.352-5.251-5.252 2.351-5.252 5.251-5.252"/><path d="m450.246 910.243c2.901 0 5.252 2.352 5.252 5.251 0 2.9-2.351 5.252-5.252 5.252-2.9 0-5.251-2.352-5.251-5.252 0-2.899 2.351-5.251 5.251-5.251"/><path d="m307.201 987.276c2.9 0 5.251 2.353 5.251 5.252 0 2.9-2.351 5.252-5.251 5.252s-5.252-2.352-5.252-5.252c0-2.899 2.352-5.252 5.252-5.252"/><path d="m375.035 958.39c2.9 0 5.252 2.353 5.252 5.252 0 2.9-2.352 5.251-5.252 5.251s-5.251-2.351-5.251-5.251 2.351-5.252 5.251-5.252"/><path d="m440.067 997.579c2.9 0 5.251 2.353 5.251 5.252 0 2.9-2.351 5.252-5.251 5.252s-5.252-2.352-5.252-5.252c0-2.899 2.352-5.252 5.252-5.252"/><path d="m395.744 1015.926c2.9 0 5.252 2.353 5.252 5.252 0 2.9-2.352 5.252-5.252 5.252s-5.251-2.352-5.251-5.252 2.351-5.252 5.251-5.252"/><path d="m889.664 481.092c2.9 0 5.252 2.352 5.252 5.252s-2.352 5.251-5.252 5.251-5.252-2.351-5.252-5.251 2.352-5.252 5.252-5.252"/><path d="m849.757 521.848c2.899 0 5.252 2.351 5.252 5.251s-2.353 5.252-5.252 5.252c-2.9 0-5.251-2.352-5.251-5.252s2.35-5.251 5.251-5.251"/><path d="m870.338 572.793c2.9 0 5.252 2.352 5.252 5.251 0 2.9-2.352 5.252-5.252 5.252s-5.252-2.352-5.252-5.252c0-2.899 2.352-5.251 5.252-5.251"/><path d="m878.188 436.134c2.899 0 5.251 2.352 5.251 5.252s-2.352 5.252-5.251 5.252c-2.9 0-5.252-2.352-5.252-5.252.001-2.9 2.352-5.252 5.252-5.252"/><path d="m832.028 550.181c2.899 0 5.251 2.353 5.251 5.252 0 2.9-2.352 5.252-5.251 5.252-2.9 0-5.252-2.352-5.252-5.252s2.352-5.252 5.252-5.252"/><path d="m906.301 523.756c2.9 0 5.252 2.352 5.252 5.252s-2.352 5.251-5.252 5.251-5.251-2.351-5.251-5.251 2.35-5.252 5.251-5.252"/><path d="m918.689 566.077c2.9 0 5.252 2.353 5.252 5.252 0 2.9-2.352 5.252-5.252 5.252s-5.252-2.352-5.252-5.252c.001-2.899 2.352-5.252 5.252-5.252"/><path d="m834.464 486.801c2.899 0 5.252 2.353 5.252 5.252s-2.353 5.252-5.252 5.252c-2.9 0-5.251-2.352-5.251-5.252s2.35-5.252 5.251-5.252"/><path d="m797.434 547.269c2.9 0 5.252 2.352 5.252 5.251 0 2.9-2.352 5.252-5.252 5.252s-5.251-2.352-5.251-5.252 2.35-5.251 5.251-5.251"/><path d="m849.277 609.929c2.9 0 5.251 2.353 5.251 5.252 0 2.9-2.351 5.252-5.251 5.252s-5.252-2.352-5.252-5.252 2.352-5.252 5.252-5.252"/><path d="m871.201 642.678c2.9 0 5.252 2.353 5.252 5.252 0 2.9-2.352 5.252-5.252 5.252s-5.252-2.352-5.252-5.252 2.352-5.252 5.252-5.252"/><path d="m913.675 612.534c2.899 0 5.251 2.353 5.251 5.252 0 2.9-2.352 5.252-5.251 5.252-2.9 0-5.252-2.352-5.252-5.252 0-2.899 2.351-5.252 5.252-5.252"/><path d="m646.963 940.656c2.9 0 5.252 2.352 5.252 5.251 0 2.9-2.352 5.252-5.252 5.252-2.899 0-5.252-2.352-5.252-5.252 0-2.899 2.352-5.251 5.252-5.251"/><path d="m637.641 893.314c2.9 0 5.252 2.353 5.252 5.252 0 2.9-2.352 5.252-5.252 5.252-2.899 0-5.252-2.352-5.252-5.252 0-2.899 2.352-5.252 5.252-5.252"/><path d="m565.85 933.887c2.9 0 5.252 2.353 5.252 5.252 0 2.9-2.352 5.252-5.252 5.252s-5.251-2.352-5.251-5.252 2.35-5.252 5.251-5.252"/><path d="m537.028 889.828c2.9 0 5.252 2.353 5.252 5.252 0 2.9-2.352 5.251-5.252 5.251s-5.251-2.351-5.251-5.251c0-2.899 2.351-5.252 5.251-5.252"/><path d="m642.107 855.864c2.9 0 5.252 2.352 5.252 5.251 0 2.9-2.352 5.252-5.252 5.252-2.899 0-5.251-2.352-5.251-5.252 0-2.899 2.352-5.251 5.251-5.251"/><path d="m609.008 965.691c2.9 0 5.251 2.353 5.251 5.252 0 2.9-2.351 5.252-5.251 5.252s-5.251-2.352-5.251-5.252c0-2.899 2.35-5.252 5.251-5.252"/><path d="m560.957 976.267c2.9 0 5.252 2.353 5.252 5.252 0 2.9-2.352 5.251-5.252 5.251-2.899 0-5.251-2.351-5.251-5.251s2.352-5.252 5.251-5.252"/><path d="m606.282 926.677c2.899 0 5.251 2.352 5.251 5.251 0 2.9-2.352 5.252-5.251 5.252-2.9 0-5.251-2.352-5.251-5.252s2.351-5.251 5.251-5.251"/><path d="m686.307 959.391c2.9 0 5.252 2.353 5.252 5.252 0 2.9-2.352 5.252-5.252 5.252-2.899 0-5.251-2.352-5.251-5.252s2.351-5.252 5.251-5.252"/><path d="m672.248 890.4c2.9 0 5.251 2.353 5.251 5.252 0 2.9-2.351 5.252-5.251 5.252s-5.252-2.352-5.252-5.252c0-2.899 2.352-5.252 5.252-5.252"/><path d="m596.461 1012.47c2.9 0 5.252 2.352 5.252 5.251 0 2.9-2.352 5.252-5.252 5.252-2.899 0-5.252-2.352-5.252-5.252s2.353-5.251 5.252-5.251"/><path d="m651.768 1000.142c2.9 0 5.252 2.353 5.252 5.252 0 2.9-2.352 5.252-5.252 5.252-2.899 0-5.251-2.352-5.251-5.252s2.351-5.252 5.251-5.252"/><path d="m786.109 782.273c2.9 0 5.252 2.353 5.252 5.252 0 2.9-2.352 5.251-5.252 5.251s-5.252-2.351-5.252-5.251c0-2.899 2.352-5.252 5.252-5.252"/><path d="m786.873 709.479c2.9 0 5.252 2.353 5.252 5.252 0 2.9-2.352 5.251-5.252 5.251s-5.251-2.351-5.251-5.251c0-2.899 2.351-5.252 5.251-5.252"/><path d="m776.594 733.744c2.9 0 5.252 2.352 5.252 5.251 0 2.9-2.352 5.252-5.252 5.252s-5.252-2.352-5.252-5.252c0-2.899 2.351-5.251 5.252-5.251"/><path d="m776.148 875.845c2.9 0 5.251 2.353 5.251 5.252 0 2.9-2.351 5.252-5.251 5.252-2.901 0-5.252-2.352-5.252-5.252s2.351-5.252 5.252-5.252"/><path d="m816.697 738.507c2.9 0 5.252 2.352 5.252 5.251 0 2.9-2.352 5.252-5.252 5.252s-5.251-2.352-5.251-5.252 2.351-5.251 5.251-5.251"/><path d="m812.143 812.816c2.9 0 5.251 2.352 5.251 5.251 0 2.9-2.351 5.252-5.251 5.252s-5.252-2.352-5.252-5.252c0-2.899 2.351-5.251 5.252-5.251"/><path d="m875.021 752.388c2.901 0 5.252 2.353 5.252 5.252 0 2.9-2.351 5.252-5.252 5.252-2.9 0-5.251-2.352-5.251-5.252s2.35-5.252 5.251-5.252"/><path d="m835.138 776.855c2.899 0 5.252 2.353 5.252 5.252 0 2.9-2.353 5.251-5.252 5.251-2.9 0-5.252-2.351-5.252-5.251 0-2.899 2.351-5.252 5.252-5.252"/><path d="m811.759 855.301c2.899 0 5.252 2.353 5.252 5.252 0 2.9-2.353 5.251-5.252 5.251-2.9 0-5.251-2.351-5.251-5.251s2.35-5.252 5.251-5.252"/><path d="m729.831 831.188c2.899 0 5.252 2.352 5.252 5.251 0 2.9-2.353 5.252-5.252 5.252-2.9 0-5.251-2.352-5.251-5.252 0-2.899 2.351-5.251 5.251-5.251"/><path d="m877.527 806.018c2.9 0 5.251 2.353 5.251 5.252 0 2.9-2.351 5.252-5.251 5.252s-5.252-2.352-5.252-5.252 2.352-5.252 5.252-5.252"/><path d="m710.609 815.812c2.9 0 5.252 2.353 5.252 5.252 0 2.9-2.352 5.252-5.252 5.252s-5.252-2.352-5.252-5.252c0-2.899 2.352-5.252 5.252-5.252"/><path d="m767.784 826.41c2.899 0 5.252 2.353 5.252 5.252 0 2.9-2.353 5.252-5.252 5.252-2.9 0-5.251-2.352-5.251-5.252 0-2.899 2.351-5.252 5.251-5.252"/><path d="m857.346 854.017c2.9 0 5.251 2.352 5.251 5.251 0 2.9-2.351 5.252-5.251 5.252s-5.252-2.352-5.252-5.252 2.351-5.251 5.252-5.251"/><path d="m207.312 449.249c2.9 0 5.251 2.351 5.251 5.251s-2.351 5.252-5.251 5.252-5.251-2.352-5.251-5.252 2.351-5.251 5.251-5.251"/><path d="m275.238 371.888c2.9 0 5.251 2.351 5.251 5.251s-2.351 5.252-5.251 5.252-5.251-2.352-5.251-5.252 2.351-5.251 5.251-5.251"/><path d="m193.715 350.199c2.9 0 5.251 2.351 5.251 5.251s-2.351 5.252-5.251 5.252-5.252-2.352-5.252-5.252 2.352-5.251 5.252-5.251"/><path d="m135.404 384.531c2.9 0 5.251 2.352 5.251 5.252s-2.351 5.252-5.251 5.252-5.251-2.352-5.251-5.252 2.351-5.252 5.251-5.252"/><path d="m146.428 338.288c2.9 0 5.252 2.353 5.252 5.252s-2.352 5.252-5.252 5.252-5.251-2.352-5.251-5.252 2.351-5.252 5.251-5.252"/><path d="m187.763 301.925c2.9 0 5.251 2.352 5.251 5.252s-2.351 5.252-5.251 5.252-5.251-2.352-5.251-5.252 2.351-5.252 5.251-5.252"/><path d="m232.016 370.43c2.9 0 5.251 2.352 5.251 5.252s-2.351 5.251-5.251 5.251-5.252-2.351-5.252-5.251 2.352-5.252 5.252-5.252"/><path d="m248.597 331.812c2.9 0 5.251 2.352 5.251 5.252s-2.351 5.252-5.251 5.252-5.252-2.352-5.252-5.252 2.352-5.252 5.252-5.252"/><path d="m232.008 285.759c2.9 0 5.252 2.351 5.252 5.251s-2.352 5.252-5.252 5.252-5.251-2.352-5.251-5.252 2.351-5.251 5.251-5.251"/><path d="m182.218 399.162c2.9 0 5.251 2.352 5.251 5.252s-2.351 5.252-5.251 5.252-5.252-2.352-5.252-5.252 2.352-5.252 5.252-5.252"/><path d="m166.356 444.951c2.9 0 5.251 2.353 5.251 5.252s-2.351 5.252-5.251 5.252-5.251-2.352-5.251-5.252 2.351-5.252 5.251-5.252"/><path d="m220.01 406.457c2.9 0 5.251 2.351 5.251 5.251s-2.351 5.252-5.251 5.252-5.251-2.352-5.251-5.252 2.351-5.251 5.251-5.251"/><path d="m121.742 431.272c2.9 0 5.252 2.352 5.252 5.252s-2.352 5.252-5.252 5.252-5.251-2.352-5.251-5.252c0-2.899 2.351-5.252 5.251-5.252"/><path d="m777.992 381.649c2.9 0 5.252 2.352 5.252 5.252s-2.352 5.251-5.252 5.251-5.252-2.351-5.252-5.251 2.352-5.252 5.252-5.252"/><path d="m768.718 358.026c2.899 0 5.251 2.353 5.251 5.252s-2.352 5.252-5.251 5.252c-2.9 0-5.252-2.352-5.252-5.252s2.351-5.252 5.252-5.252"/><path d="m743.626 373.997c2.899 0 5.252 2.351 5.252 5.251s-2.353 5.252-5.252 5.252c-2.9 0-5.251-2.352-5.251-5.252s2.351-5.251 5.251-5.251"/><path d="m812.511 386.901c2.899 0 5.252 2.351 5.252 5.251s-2.353 5.252-5.252 5.252c-2.9 0-5.251-2.352-5.251-5.252s2.35-5.251 5.251-5.251"/><path d="m757.661 456.244c2.899 0 5.252 2.352 5.252 5.252s-2.353 5.252-5.252 5.252c-2.9 0-5.251-2.352-5.251-5.252s2.351-5.252 5.251-5.252"/><path d="m716.964 358.026c2.899 0 5.252 2.353 5.252 5.252s-2.353 5.252-5.252 5.252c-2.9 0-5.251-2.352-5.251-5.252s2.35-5.252 5.251-5.252"/><path d="m797.434 432.417c2.9 0 5.252 2.352 5.252 5.252s-2.352 5.251-5.252 5.251-5.251-2.351-5.251-5.251 2.35-5.252 5.251-5.252"/><path d="m706.323 381.649c2.899 0 5.252 2.352 5.252 5.252s-2.353 5.251-5.252 5.251c-2.9 0-5.252-2.351-5.252-5.251s2.352-5.252 5.252-5.252"/></g><path d="m413.304 335.072c1.934 0 3.501 1.567 3.501 3.501s-1.567 3.501-3.501 3.501-3.501-1.567-3.501-3.501c0-1.933 1.567-3.501 3.501-3.501"/><g enable-background="new"><text font-family="'SimplonNorm'" font-size="11" transform="translate(212.0991 763.4668)">pie-corn-tortillas</text><path d="m212.099 758.091h53.459v8.986h-53.459z" fill="none"/></g><g enable-background="new"><text font-family="'SimplonNorm'" font-size="11" transform="translate(351.8652 332.3892)">waffle-sage-milk</text><path d="m351.865 327.014h53.737v8.986h-53.737z" fill="none"/></g><g enable-background="new"><text font-family="'SimplonNorm'" font-size="11" transform="translate(121.8389 599.835)">raspberry-shawarma-alfalfa</text><path d="m121.839 594.459h91.226v8.987h-91.226z" fill="none"/></g><g enable-background="new"><text font-family="'SimplonNorm'" font-size="11" transform="translate(594.1104 340.9443)">baklava-nachos-baklava</text><path d="m594.11 335.569h80.149v8.986h-80.149z" fill="none"/></g><g enable-background="new"><text font-family="'SimplonNorm'" font-size="11" transform="translate(334.6235 865.2139)">lime-shawarma-coffee</text><path d="m334.624 859.838h73.978v8.986h-73.978z" fill="none"/></g><g enable-background="new"><text font-family="'SimplonNorm'" font-size="11" transform="translate(787.6455 605.835)">cranberry-bun-jelly</text><path d="m787.65 600.459h61.699v8.987h-61.699z" fill="none"/></g><g enable-background="new"><text font-family="'SimplonNorm'" font-size="11" transform="translate(594.1104 872.7236)">lime-cheese-muffin</text><path d="m594.11 867.348h62.95v8.986h-62.95z" fill="none"/></g><g enable-background="new"><text font-family="'SimplonNorm'" font-size="11" transform="translate(734.1543 770.4668)">feta-romaine-nachos</text><path d="m734.15 765.091h69.14v8.986h-69.14z" fill="none"/></g><text font-family="'SimplonNorm'" font-size="11" transform="translate(204.5117 433.2036)">scallion-turnip-bun</text><text font-family="'SimplonNorm'" font-size="11" transform="translate(732.3613 441.2036)">corn-shawarma-endive</text><text font-family="'SimplonNorm'" font-size="16" transform="translate(1193.7734 72.6221)">Legend</text><text font-family="'SimplonNorm'" font-size="13" transform="translate(1226.7041 127.6987)">Suggested only to one</text><path d="m1218.204 121.631c0 6.746-5.469 12.215-12.215 12.215s-12.215-5.469-12.215-12.215 5.469-12.215 12.215-12.215 12.215 5.469 12.215 12.215" fill="#00d3aa"/><text font-family="'SimplonNorm'" font-size="13" transform="translate(1226.7041 170.4507)">Suggested to more than one</text><path d="m1218.204 164.631c0 6.746-5.469 12.215-12.215 12.215s-12.215-5.469-12.215-12.215 5.469-12.215 12.215-12.215 12.215 5.469 12.215 12.215" fill="#8d9df7"/><text font-family="'SimplonNorm'" font-size="13" transform="translate(1226.7041 211.1318)">Number of occurrences</text><text font-family="'SimplonNorm'" font-size="13" transform="translate(1226.7041 254.0967)">User</text><path d="m1193.774 87.18h212.223" fill="none" stroke="#000" stroke-miterlimit="10"/><circle cx="1205.989" cy="205.589" fill="none" r="12.215" stroke="#000" stroke-miterlimit="10"/><path d="m1193.774 222.333h24.43" fill="none" stroke="#000" stroke-miterlimit="10"/><path d="m1193.774 219.916v4.75" fill="none" stroke="#000" stroke-miterlimit="10"/><path d="m1218.204 219.916v4.75" fill="none" stroke="#000" stroke-miterlimit="10"/><path d="m1205.989 245.791c2.629 0 4.76 2.131 4.76 4.76s-2.131 4.76-4.76 4.76-4.761-2.131-4.761-4.76 2.132-4.76 4.761-4.76"/></svg>