<?xml version="1.0" encoding="utf-8"?>
<!-- Generator: Adobe Illustrator 16.0.0, SVG Export Plug-In . SVG Version: 6.00 Build 0)  -->
<!DOCTYPE svg PUBLIC "-//W3C//DTD SVG 1.1//EN" "http://www.w3.org/Graphics/SVG/1.1/DTD/svg11.dtd">
<svg version="1.1" id="Layer_1" xmlns="http://www.w3.org/2000/svg" xmlns:xlink="http://www.w3.org/1999/xlink" x="0px" y="0px"
	 width="1448px" height="1080px" viewBox="0 0 1448 1080" enable-background="new 0 0 1448 1080" xml:space="preserve">
<g>
	<g>
		<g opacity="0.05">
			<g>
				<defs>
					<rect id="SVGID_1_" x="543.62" y="367.425" width="367.38" height="367.381"/>
				</defs>
				<clipPath id="SVGID_2_">
					<use xlink:href="#SVGID_1_"  overflow="visible"/>
				</clipPath>
				<path clip-path="url(#SVGID_2_)" fill="#00D3AA" d="M543.619,551.115c0,101.449,82.241,183.69,183.69,183.69
					c101.45,0,183.691-82.241,183.691-183.69c0-101.449-82.241-183.69-183.691-183.69
					C625.86,367.425,543.619,449.667,543.619,551.115"/>
			</g>
		</g>
		<path fill="none" stroke="#FF0049" stroke-width="2" stroke-miterlimit="10" d="M165.555,551.115
			c-0.009,130.031,105.396,235.45,235.427,235.459c130.032,0.01,235.452-105.396,235.46-235.427v-0.032
			c0.008-130.032-105.397-235.45-235.428-235.459c-130.031-0.009-235.45,105.396-235.459,235.428V551.115"/>
		<g opacity="0">
			<g>
				<defs>
					<rect id="SVGID_3_" x="540.18" y="407.985" width="286.26" height="286.319"/>
				</defs>
				<clipPath id="SVGID_4_">
					<use xlink:href="#SVGID_3_"  overflow="visible"/>
				</clipPath>
			</g>
		</g>
		<g enable-background="new    ">
			<g>
				<defs>
					<rect id="SVGID_5_" x="672.42" y="531.794" width="20.37" height="41.281"/>
				</defs>
				<clipPath id="SVGID_6_">
					<use xlink:href="#SVGID_5_"  overflow="visible"/>
				</clipPath>
				<g clip-path="url(#SVGID_6_)" enable-background="new    ">
					<g>
						<defs>
							<rect id="SVGID_7_" x="672.42" y="531.794" width="20.37" height="41.281"/>
						</defs>
						<clipPath id="SVGID_8_">
							<use xlink:href="#SVGID_7_"  overflow="visible"/>
						</clipPath>
					</g>
				</g>
			</g>
		</g>
		<path fill="none" stroke="#00D3AA" stroke-width="2" stroke-miterlimit="10" d="M543.619,551.115
			c0,101.449,82.241,183.69,183.69,183.69c101.45,0,183.691-82.241,183.691-183.69c0-101.449-82.241-183.69-183.691-183.69
			C625.86,367.425,543.619,449.667,543.619,551.115"/>
		<g opacity="0">
			<g>
				<defs>
					<rect id="SVGID_9_" x="540.48" y="431.933" width="96.02" height="238.364"/>
				</defs>
				<clipPath id="SVGID_10_">
					<use xlink:href="#SVGID_9_"  overflow="visible"/>
				</clipPath>
				<path clip-path="url(#SVGID_10_)" d="M604.047,431.933c43.23,73.61,43.313,164.803,0,238.364
					c-65.732-43.906-83.318-132.948-39.412-198.682C575.083,455.972,588.513,442.543,604.047,431.933"/>
			</g>
		</g>
		<g opacity="0">
			<g>
				<defs>
					<rect id="SVGID_11_" x="543.62" y="421.257" width="92.819" height="259.717"/>
				</defs>
				<clipPath id="SVGID_12_">
					<use xlink:href="#SVGID_11_"  overflow="visible"/>
				</clipPath>
				<path clip-path="url(#SVGID_12_)" d="M597.391,680.974c-71.694-71.729-71.694-187.988,0-259.718
					C649.458,500,649.458,602.23,597.391,680.974"/>
			</g>
		</g>
		<path fill="none" stroke="#FFC933" stroke-width="2" stroke-miterlimit="10" d="M554.686,613.909
			c-14.755-40.562-14.755-85.026,0-125.589c34.679-71.036,120.388-100.505,191.424-65.828
			c71.035,34.678,100.511,120.376,65.833,191.413c-34.679,71.036-120.376,100.51-191.412,65.833
			C591.862,665.743,568.691,642.572,554.686,613.909"/>
		<g opacity="0">
			<g>
				<defs>
					<rect id="SVGID_13_" x="543.62" y="431.933" width="92.88" height="238.364"/>
				</defs>
				<clipPath id="SVGID_14_">
					<use xlink:href="#SVGID_13_"  overflow="visible"/>
				</clipPath>
				<path clip-path="url(#SVGID_14_)" d="M554.686,488.32c11.154-22.846,28.192-42.309,49.361-56.387
					c43.231,73.609,43.314,164.803,0,238.363c-21.17-14.077-38.208-33.541-49.361-56.388
					C539.931,573.347,539.931,528.883,554.686,488.32"/>
			</g>
		</g>
	</g>
	<text transform="matrix(1 0 0 1 669.1758 824.8408)" fill="#00D3AA" font-family="'SimplonNorm'" font-size="23.7908">Personalisation</text>
	<g>
		<g opacity="0.05">
			<g>
				<defs>
					<rect id="SVGID_15_" x="543.62" y="407.952" width="282.86" height="286.326"/>
				</defs>
				<clipPath id="SVGID_16_">
					<use xlink:href="#SVGID_15_"  overflow="visible"/>
				</clipPath>
				<path clip-path="url(#SVGID_16_)" fill="#FFC933" d="M554.686,613.909c-14.755-40.562-14.755-85.026,0-125.589
					c34.679-71.036,120.388-100.505,191.424-65.828c71.035,34.678,100.511,120.376,65.833,191.413
					c-34.679,71.036-120.376,100.51-191.412,65.833C591.862,665.743,568.691,642.572,554.686,613.909"/>
			</g>
		</g>
	</g>
	<text transform="matrix(1 0 0 1 667.4521 261.7393)" fill="#FFC933" font-family="'SimplonNorm'" font-size="23.7908">Clean</text>
	<text transform="matrix(1 0 0 1 653.749 290.2881)" fill="#FFC933" font-family="'SimplonNorm'" font-size="23.7908">browser</text>
	<g>
		<g opacity="0.05">
			<g>
				<defs>
					<rect id="SVGID_17_" x="165.555" y="315.656" width="470.884" height="470.918"/>
				</defs>
				<clipPath id="SVGID_18_">
					<use xlink:href="#SVGID_17_"  overflow="visible"/>
				</clipPath>
				<path clip-path="url(#SVGID_18_)" fill="#FF0049" d="M165.555,551.115c-0.009,130.031,105.396,235.45,235.427,235.459
					c130.032,0.01,235.452-105.396,235.46-235.427v-0.032c0.008-130.032-105.397-235.45-235.428-235.459
					c-130.031-0.009-235.45,105.396-235.459,235.428V551.115"/>
			</g>
		</g>
	</g>
	<text transform="matrix(1 0 0 1 329.8159 555.3418)" fill="#FF0049" font-family="'SimplonNorm'" font-size="23.7908">Youtube API</text>
	<g>
		<path fill="#00D3AA" d="M771.844,696.504c0,5.84-4.733,10.573-10.572,10.573c-5.84,0-10.574-4.733-10.574-10.573
			s4.734-10.574,10.574-10.574C767.11,685.93,771.844,690.664,771.844,696.504"/>
		<path fill="#FF0049" d="M411.572,577.805c0,5.84-4.733,10.574-10.573,10.574c-5.84,0-10.574-4.734-10.574-10.574
			s4.734-10.574,10.574-10.574C406.839,567.23,411.572,571.965,411.572,577.805"/>
		
			<line fill="none" stroke="#00D3AA" stroke-width="2" stroke-miterlimit="10" x1="761.271" y1="700.997" x2="761.271" y2="786.574"/>
		<path fill="#FFC933" d="M692.125,439.827c0-5.84,4.733-10.574,10.573-10.574s10.573,4.734,10.573,10.574
			c0,5.84-4.733,10.573-10.573,10.573S692.125,445.667,692.125,439.827"/>
		<line fill="#00D3AA" x1="702.699" y1="435.333" x2="702.699" y2="305.96"/>
		
			<line fill="none" stroke="#FFC933" stroke-width="2" stroke-miterlimit="10" x1="702.699" y1="435.333" x2="702.699" y2="305.96"/>
	</g>
	<text transform="matrix(1 0 0 1 307.1689 101.1523)"><tspan x="0" y="0" font-family="'SimplonNorm'" font-size="23">API vs actual </tspan><tspan x="130.707" y="0" font-family="'SimplonNorm'" font-size="23">r</tspan><tspan x="138.182" y="0" font-family="'SimplonNorm'" font-size="23">ecommendation</tspan></text>
	<g>
		<rect x="205.738" y="52.227" fill="none" stroke="#000000" stroke-miterlimit="10" width="502.685" height="88.407"/>
	</g>
	<text transform="matrix(1 0 0 1 1145.7744 72.6221)" font-family="'SimplonNorm'" font-size="16">Legend</text>
	<text transform="matrix(1 0 0 1 1178.7051 123.7422)" font-family="'SimplonNorm'" font-size="13">Number of occurrences</text>
	<line fill="none" stroke="#000000" stroke-miterlimit="10" x1="1145.773" y1="87.18" x2="1357.998" y2="87.18"/>
	<g>
		<circle fill="none" stroke="#000000" stroke-miterlimit="10" cx="1157.988" cy="118.2" r="12.215"/>
		<line fill="none" stroke="#000000" stroke-miterlimit="10" x1="1145.773" y1="134.944" x2="1170.204" y2="134.944"/>
		<line fill="none" stroke="#000000" stroke-miterlimit="10" x1="1145.773" y1="132.527" x2="1145.773" y2="137.277"/>
		<line fill="none" stroke="#000000" stroke-miterlimit="10" x1="1170.203" y1="132.527" x2="1170.203" y2="137.277"/>
	</g>
</g>
</svg>
