<?xml version="1.0" encoding="UTF-8" standalone="no"?>
<svg
   xmlns:dc="http://purl.org/dc/elements/1.1/"
   xmlns:cc="http://creativecommons.org/ns#"
   xmlns:rdf="http://www.w3.org/1999/02/22-rdf-syntax-ns#"
   xmlns:svg="http://www.w3.org/2000/svg"
   xmlns="http://www.w3.org/2000/svg"
   xmlns:sodipodi="http://sodipodi.sourceforge.net/DTD/sodipodi-0.dtd"
   xmlns:inkscape="http://www.inkscape.org/namespaces/inkscape"
   width="93.164734mm"
   height="13.229168mm"
   viewBox="0 0 93.164732 13.229168"
   version="1.1"
   id="svg911"
   sodipodi:docname="header-logo-youchoose.svg"
   inkscape:version="0.92.4 (5da689c313, 2019-01-14)">
  <sodipodi:namedview
     pagecolor="#ffffff"
     bordercolor="#666666"
     borderopacity="1"
     objecttolerance="10"
     gridtolerance="10"
     guidetolerance="10"
     inkscape:pageopacity="0"
     inkscape:pageshadow="2"
     inkscape:window-width="1888"
     inkscape:window-height="1049"
     id="namedview26406"
     showgrid="false"
     inkscape:zoom="1.3142985"
     inkscape:cx="175.02276"
     inkscape:cy="-41.032102"
     inkscape:window-x="30"
     inkscape:window-y="0"
     inkscape:window-maximized="0"
     inkscape:current-layer="svg911"
     showguides="true"
     inkscape:guide-bbox="true">
    <sodipodi:guide
       position="-4.3836878,15.731052"
       orientation="0,1"
       id="guide916"
       inkscape:locked="false" />
    <sodipodi:guide
       position="228.77841,-17.577819"
       orientation="0,1"
       id="guide931"
       inkscape:locked="false" />
    <sodipodi:guide
       position="44.671191,-64.210232"
       orientation="1,0"
       id="guide933"
       inkscape:locked="false" />
    <sodipodi:guide
       position="222.72225,-57.548462"
       orientation="1,0"
       id="guide935"
       inkscape:locked="false" />
  </sodipodi:namedview>
  <defs
     id="defs905" />
  <metadata
     id="metadata908">
    <rdf:RDF>
      <cc:Work
         rdf:about="">
        <dc:format>image/svg+xml</dc:format>
        <dc:type
           rdf:resource="http://purl.org/dc/dcmitype/StillImage" />
        <dc:title></dc:title>
      </cc:Work>
    </rdf:RDF>
  </metadata>
  <path
     inkscape:connector-curvature="0"
     id="rect1795-5"
     d="m 2.8314479,0.50119128 c 4.0501404,-0.33618751 8.1485501,-0.38276321 12.3185151,0 1.514658,0.13903136 2.624518,1.23097122 2.765356,2.74546322 0.220698,2.3732456 0.30716,4.7129305 0.0503,6.9667885 -0.172227,1.51124 -1.213277,2.584023 -2.725714,2.745461 -4.180542,0.446226 -8.2561777,0.263013 -12.318514,0 C 1.4035467,12.860631 0.34459415,11.722734 0.1560368,10.213443 -0.11306867,8.059405 0.03198322,5.6292652 0.1057352,3.2466545 0.15279495,1.7263561 1.3156344,0.62701341 2.8314479,0.50119128 Z"
     style="fill:#e33180;fill-opacity:1;stroke:none;stroke-width:0.17148542;stroke-linecap:round;stroke-miterlimit:4;stroke-dasharray:none;stroke-opacity:1" />
  <path
     inkscape:connector-curvature="0"
     id="path1798-6"
     d="M 7.1756359,3.9641678 7.2206108,9.4959319 11.942849,6.9324293 Z"
     style="fill:#ffffff;fill-opacity:1;stroke:none;stroke-width:0.1043734px;stroke-linecap:butt;stroke-linejoin:miter;stroke-opacity:1" />
  <flowRoot
     transform="matrix(0.29398154,0,0,0.29398154,-34.005241,-121.07416)"
     style="font-style:normal;font-weight:normal;font-size:40px;line-height:1.25;font-family:sans-serif;letter-spacing:0px;word-spacing:0px;fill:#000000;fill-opacity:1;stroke:none"
     id="flowRoot3250"
     xml:space="preserve"><flowRegion
       id="flowRegion3252"><rect
         y="274.62756"
         x="58.54261"
         height="159.04076"
         width="644.9444"
         id="rect3254" /></flowRegion><flowPara
       id="flowPara3256" /></flowRoot>  <flowRoot
     transform="matrix(0.29398154,0,0,0.29398154,-34.005241,-121.07416)"
     style="font-style:normal;font-weight:normal;font-size:40px;line-height:1.25;font-family:sans-serif;letter-spacing:0px;word-spacing:0px;fill:#000000;fill-opacity:1;stroke:none"
     id="flowRoot3258"
     xml:space="preserve"><flowRegion
       id="flowRegion3260"><rect
         y="298.04459"
         x="136.59943"
         height="152.21078"
         width="565.91193"
         id="rect3262" /></flowRegion><flowPara
       id="flowPara3264" /></flowRoot>  <flowRoot
     transform="matrix(0.43619772,0,0,0.43619772,4.3640092,0.98498793)"
     style="font-style:normal;font-weight:normal;font-size:40px;line-height:1.25;font-family:sans-serif;letter-spacing:0px;word-spacing:0px;fill:#000000;fill-opacity:1;stroke:none"
     id="flowRoot3340"
     xml:space="preserve"><flowRegion
       id="flowRegion3342"><rect
         y="-66.516045"
         x="-8.7813911"
         height="58.54261"
         width="583.47467"
         id="rect3344" /></flowRegion><flowPara
       style="font-style:normal;font-variant:normal;font-weight:bold;font-stretch:normal;font-family:'Simplon Norm';-inkscape-font-specification:'Simplon Norm Bold';letter-spacing:21.72005463px"
       id="flowPara3346" /></flowRoot>  <path
     inkscape:connector-curvature="0"
     id="path887"
     style="font-style:normal;font-variant:normal;font-weight:bold;font-stretch:semi-condensed;font-size:40px;line-height:1.25;font-family:'Trade Gothic LT Std';-inkscape-font-specification:'Trade Gothic LT Std Bold Semi-Condensed';letter-spacing:0px;word-spacing:0px;fill:#000000;fill-opacity:1;stroke:none;stroke-width:0.37750795"
     d="m 23.655895,1.9309765 h -2.219744 l 2.974763,6.4931352 v 4.4092923 h 2.083844 V 8.4241117 L 29.46952,1.9309765 h -2.219747 l -1.766739,4.3941907 z" />
  <path
     inkscape:connector-curvature="0"
     id="path889"
     style="font-style:normal;font-variant:normal;font-weight:bold;font-stretch:semi-condensed;font-size:40px;line-height:1.25;font-family:'Trade Gothic LT Std';-inkscape-font-specification:'Trade Gothic LT Std Bold Semi-Condensed';letter-spacing:0px;word-spacing:0px;fill:#000000;fill-opacity:1;stroke:none;stroke-width:0.37750795"
     d="m 29.157697,9.8737431 c 0,2.1744439 1.117422,3.1106649 3.020065,3.1106649 1.902639,0 3.020061,-0.936221 3.020061,-3.1106649 V 7.578496 c 0,-2.1744486 -1.117422,-3.1106651 -3.020061,-3.1106651 -1.902643,0 -3.020065,0.9362165 -3.020065,3.1106651 z m 1.902639,-2.77846 c 0,-0.6342129 0.453011,-0.966418 1.117426,-0.966418 0.66441,0 1.117422,0.3322051 1.117422,0.966418 v 3.2616689 c 0,0.634214 -0.453012,0.966421 -1.117422,0.966421 -0.664415,0 -1.117426,-0.332207 -1.117426,-0.966421 z" />
  <path
     inkscape:connector-curvature="0"
     id="path891"
     style="font-style:normal;font-variant:normal;font-weight:bold;font-stretch:semi-condensed;font-size:40px;line-height:1.25;font-family:'Trade Gothic LT Std';-inkscape-font-specification:'Trade Gothic LT Std Bold Semi-Condensed';letter-spacing:0px;word-spacing:0px;fill:#000000;fill-opacity:1;stroke:none;stroke-width:0.37750795"
     d="m 40.068017,4.6188346 v 6.2062294 c -0.407708,0.362406 -0.84562,0.739914 -1.238229,0.739914 -0.51341,0 -0.694611,-0.362407 -0.694611,-0.906019 V 4.6188346 h -1.902643 v 6.2515284 c 0,1.525134 0.604014,2.114045 1.766739,2.114045 0.785217,0 1.43453,-0.48321 2.129144,-1.087225 v 0.936221 h 1.842239 V 4.6188346 Z" />
  <path
     inkscape:connector-curvature="0"
     id="path893"
     style="font-style:normal;font-variant:normal;font-weight:bold;font-stretch:semi-condensed;font-size:40px;line-height:1.25;font-family:'Trade Gothic LT Std';-inkscape-font-specification:'Trade Gothic LT Std Bold Semi-Condensed';letter-spacing:0px;word-spacing:0px;fill:#000000;fill-opacity:1;stroke:none;stroke-width:0.37750795"
     d="m 45.924258,5.1624428 c 0,-1.2080226 0.528512,-1.5402309 1.359031,-1.5402309 0.830594,0 1.359097,0.3322083 1.359097,1.5402309 v 0.3020078 h 2.083845 v -0.030217 c 0,-2.6878554 -1.419433,-3.654276 -3.442942,-3.654276 -2.023444,0 -3.442875,0.9664206 -3.442875,3.654276 v 3.8958813 c 0,2.6878581 1.419431,3.6542761 3.442875,3.6542761 2.023509,0 3.442942,-0.966418 3.442942,-3.6542761 V 8.8771085 h -2.083845 v 0.7248123 c 0,1.2080272 -0.528503,1.5402312 -1.359097,1.5402312 -0.830519,0 -1.359031,-0.332204 -1.359031,-1.5402312 z" />
  <path
     inkscape:connector-curvature="0"
     id="path895"
     style="font-style:normal;font-variant:normal;font-weight:bold;font-stretch:semi-condensed;font-size:40px;line-height:1.25;font-family:'Trade Gothic LT Std';-inkscape-font-specification:'Trade Gothic LT Std Bold Semi-Condensed';letter-spacing:0px;word-spacing:0px;fill:#000000;fill-opacity:1;stroke:none;stroke-width:0.37750795"
     d="M 53.872407,12.833404 V 6.627175 c 0.407709,-0.3624068 0.845616,-0.7399147 1.238224,-0.7399147 0.513411,0 0.694617,0.3624068 0.694617,0.9060189 v 6.0401248 h 1.902638 V 6.5818727 c 0,-1.5251313 -0.604012,-2.1140418 -1.766735,-2.1140418 -0.785217,0 -1.434531,0.483209 -2.068744,1.0872203 V 1.9309765 H 51.969765 V 12.833404 Z" />
  <path
     inkscape:connector-curvature="0"
     id="path897"
     style="font-style:normal;font-variant:normal;font-weight:bold;font-stretch:semi-condensed;font-size:40px;line-height:1.25;font-family:'Trade Gothic LT Std';-inkscape-font-specification:'Trade Gothic LT Std Bold Semi-Condensed';letter-spacing:0px;word-spacing:0px;fill:#000000;fill-opacity:1;stroke:none;stroke-width:0.37750795"
     d="m 58.742651,9.8737431 c 0,2.1744439 1.117424,3.1106649 3.020067,3.1106649 1.902637,0 3.020062,-0.936221 3.020062,-3.1106649 V 7.578496 c 0,-2.1744486 -1.117425,-3.1106651 -3.020062,-3.1106651 -1.902643,0 -3.020067,0.9362165 -3.020067,3.1106651 z m 1.902643,-2.77846 c 0,-0.6342129 0.453006,-0.966418 1.117424,-0.966418 0.664407,0 1.117419,0.3322051 1.117419,0.966418 v 3.2616689 c 0,0.634214 -0.453012,0.966421 -1.117419,0.966421 -0.664418,0 -1.117424,-0.332207 -1.117424,-0.966421 z" />
  <path
     inkscape:connector-curvature="0"
     id="path899"
     style="font-style:normal;font-variant:normal;font-weight:bold;font-stretch:semi-condensed;font-size:40px;line-height:1.25;font-family:'Trade Gothic LT Std';-inkscape-font-specification:'Trade Gothic LT Std Bold Semi-Condensed';letter-spacing:0px;word-spacing:0px;fill:#000000;fill-opacity:1;stroke:none;stroke-width:0.37750795"
     d="m 65.875285,9.8737431 c 0,2.1744439 1.117426,3.1106649 3.020062,3.1106649 1.902643,0 3.020067,-0.936221 3.020067,-3.1106649 V 7.578496 c 0,-2.1744486 -1.117424,-3.1106651 -3.020067,-3.1106651 -1.902636,0 -3.020062,0.9362165 -3.020062,3.1106651 z m 1.902644,-2.77846 c 0,-0.6342129 0.453006,-0.966418 1.117418,-0.966418 0.664418,0 1.11743,0.3322051 1.11743,0.966418 v 3.2616689 c 0,0.634214 -0.453012,0.966421 -1.11743,0.966421 -0.664412,0 -1.117418,-0.332207 -1.117418,-0.966421 z" />
  <path
     inkscape:connector-curvature="0"
     id="path901"
     style="font-style:normal;font-variant:normal;font-weight:bold;font-stretch:semi-condensed;font-size:40px;line-height:1.25;font-family:'Trade Gothic LT Std';-inkscape-font-specification:'Trade Gothic LT Std Bold Semi-Condensed';letter-spacing:0px;word-spacing:0px;fill:#000000;fill-opacity:1;stroke:none;stroke-width:0.37750795"
     d="M 78.353436,6.5214731 C 77.88533,5.2832452 76.903806,4.4678309 75.484375,4.4678309 c -1.343925,0 -2.597254,0.7399143 -2.597254,2.2952471 0,2.7633595 3.714679,2.3858516 3.714679,3.956285 0,0.453006 -0.347307,0.724812 -0.921118,0.724812 -0.755014,0 -1.223125,-0.498308 -1.389225,-1.268424 l -1.706337,0.468108 c 0.921119,2.053642 1.947937,2.340549 3.095562,2.340549 1.585537,0 2.73316,-0.860718 2.73316,-2.491553 0,-2.4462511 -3.714685,-2.4764523 -3.714685,-3.7448782 0,-0.4228096 0.332212,-0.7399141 0.770118,-0.7399141 0.573812,0 1.057025,0.3624067 1.31373,1.1174221 z" />
  <path
     inkscape:connector-curvature="0"
     id="path903"
     style="font-style:normal;font-variant:normal;font-weight:bold;font-stretch:semi-condensed;font-size:40px;line-height:1.25;font-family:'Trade Gothic LT Std';-inkscape-font-specification:'Trade Gothic LT Std Bold Semi-Condensed';letter-spacing:0px;word-spacing:0px;fill:#000000;fill-opacity:1;stroke:none;stroke-width:0.37750795"
     d="M 85.335071,9.1791263 V 7.2613881 c 0,-1.6761353 -1.253324,-2.7935572 -3.020061,-2.7935572 -1.812043,0 -3.020061,1.1174219 -3.020061,2.9143595 v 2.6878586 c 0,1.796937 1.208018,2.914359 3.020061,2.914359 1.917742,0 2.929461,-0.99662 3.020061,-2.687855 h -1.902637 c 0,0.634214 -0.317105,1.147622 -1.117424,1.147622 -0.634213,0 -1.117425,-0.362405 -1.117425,-1.177823 V 9.1791263 Z M 81.197585,7.6388949 V 7.1858881 c 0,-0.7248179 0.347307,-1.1778254 1.117425,-1.1778254 0.770119,0 1.117424,0.4530075 1.117424,1.1778254 v 0.4530068 z" />
  <g
     aria-label="AI"
     transform="matrix(0.18969649,0,0,0.18969649,205.34796,-82.559426)"
     style="font-style:normal;font-weight:normal;font-size:40px;line-height:1.25;font-family:sans-serif;letter-spacing:0px;word-spacing:0px;fill:#808080;fill-opacity:1;stroke:none"
     id="flowRoot906">
    <path
       d="m -601.34273,463.21852 h 3.12 l -9,-28 h -3.52 l -9,28 h 3.12 l 2.56,-7.88 h 10.16 z m -3.48,-10.72 h -8.32 l 4.16,-13 z"
       style="font-style:normal;font-variant:normal;font-weight:normal;font-stretch:normal;font-family:'Simplon Norm';-inkscape-font-specification:'Simplon Norm';fill:#808080"
       id="path958"
       inkscape:connector-curvature="0" />
    <path
       d="m -594.46273,463.21852 h 3.08 v -28 h -3.08 z"
       style="font-style:normal;font-variant:normal;font-weight:normal;font-stretch:normal;font-family:'Simplon Norm';-inkscape-font-specification:'Simplon Norm';fill:#808080"
       id="path960"
       inkscape:connector-curvature="0" />
  </g>
</svg>
