<?xml version="1.0" encoding="UTF-8" standalone="no"?>
<svg
   xmlns:dc="http://purl.org/dc/elements/1.1/"
   xmlns:cc="http://creativecommons.org/ns#"
   xmlns:rdf="http://www.w3.org/1999/02/22-rdf-syntax-ns#"
   xmlns:svg="http://www.w3.org/2000/svg"
   xmlns="http://www.w3.org/2000/svg"
   xmlns:sodipodi="http://sodipodi.sourceforge.net/DTD/sodipodi-0.dtd"
   xmlns:inkscape="http://www.inkscape.org/namespaces/inkscape"
   id="Layer_1"
   data-name="Layer 1"
   viewBox="0 0 1302.621 299.99999"
   version="1.1"
   sodipodi:docname="header-logo-quintrex.svg"
   inkscape:version="0.92.4 (5da689c313, 2019-01-14)"
   width="34.465179cm"
   height="7.9375cm">
  <metadata
     id="metadata4732">
    <rdf:RDF>
      <cc:Work
         rdf:about="">
        <dc:format>image/svg+xml</dc:format>
        <dc:type
           rdf:resource="http://purl.org/dc/dcmitype/StillImage" />
        <dc:title>TrackingExposed</dc:title>
      </cc:Work>
    </rdf:RDF>
  </metadata>
  <sodipodi:namedview
     pagecolor="#ffffff"
     bordercolor="#666666"
     borderopacity="1"
     objecttolerance="10"
     gridtolerance="10"
     guidetolerance="10"
     inkscape:pageopacity="0"
     inkscape:pageshadow="2"
     inkscape:window-width="2560"
     inkscape:window-height="1017"
     id="namedview4730"
     showgrid="false"
     inkscape:zoom="0.51973698"
     inkscape:cx="394.90387"
     inkscape:cy="382.08118"
     inkscape:window-x="1912"
     inkscape:window-y="-8"
     inkscape:window-maximized="1"
     inkscape:current-layer="text1173"
     units="cm"
     inkscape:snap-text-baseline="false" />
  <defs
     id="defs4667">
    <style
       id="style4665">.cls-1{fill:#3b5998;}.cls-2{fill:#1b1b1b;}</style>
  </defs>
  <title
     id="title4669">TrackingExposed</title>
  <g
     inkscape:groupmode="layer"
     id="layer4"
     inkscape:label="pornhub"
     style="display:inline"
     transform="translate(-3.293023,-1.924252)">
    <path
       inkscape:connector-curvature="0"
       class="cls-2"
       d="M 304.05086,151.92425 A 150.38,150.38 0 0 0 164.23086,1.924252 V 23.08425 c 66.36,5.39 118.71,61.11 118.71,128.84 0,67.73 -52.35,123.45 -118.71,128.84 v 21.16 a 150.38,150.38 0 0 0 139.82,-150 z"
       id="path15039"
       style="fill:#ffffff;fill-opacity:1" />
    <path
       inkscape:connector-curvature="0"
       class="cls-2"
       d="m 24.41086,151.92425 c 0,-67.73 52.35,-123.45 118.71,-128.84 V 1.924252 a 150.37,150.37 0 0 0 0,299.999998 v -21.16 c -66.36,-5.39 -118.71,-61.11 -118.71,-128.84 z"
       id="path15041"
       style="fill:#ffffff;fill-opacity:1" />
    <path
       inkscape:connector-curvature="0"
       class="cls-2"
       d="m 102.23086,62.82425 a 102.9,102.9 0 0 0 -42.47,131.1 l 18.42,-10.64 a 81.76,81.76 0 0 1 140.43,-81.08 l 18.43,-10.63 a 102.9,102.9 0 0 0 -134.81,-28.75 z"
       id="path15043"
       style="fill:#ffffff;fill-opacity:1" />
    <path
       inkscape:connector-curvature="0"
       class="cls-2"
       d="m 194.57086,222.75425 a 81.91,81.91 0 0 1 -105.84,-21.15 l -18.43,10.63 a 102.9,102.9 0 0 0 177.29,-102.31 l -18.42,10.6 a 81.9,81.9 0 0 1 -34.6,102.23 z"
       id="path15045"
       style="fill:#ffffff;fill-opacity:1" />
    <path
       inkscape:connector-curvature="0"
       class="cls-2"
       d="m 181.37086,103.92425 a 55.41,55.41 0 0 0 -69.52,11.65 l 18.84,10.88 a 34.29,34.29 0 0 1 56.52,32.63 l 18.84,10.87 a 55.41,55.41 0 0 0 -24.68,-66.03 z"
       id="path15047"
       style="fill:#ffffff;fill-opacity:1" />
    <path
       inkscape:connector-curvature="0"
       class="cls-2"
       d="m 136.53086,181.62425 a 34.35,34.35 0 0 1 -16.39,-36.88 l -18.84,-10.82 a 55.4,55.4 0 0 0 94.2,54.38 l -18.85,-10.88 a 34.33,34.33 0 0 1 -40.12,4.2 z"
       id="path15049"
       style="fill:#ffffff;fill-opacity:1" />
    <flowRoot
       xml:space="preserve"
       id="flowRoot844"
       style="font-style:normal;font-weight:normal;font-size:40px;line-height:1.25;font-family:sans-serif;letter-spacing:0px;word-spacing:0px;fill:#000000;fill-opacity:1;stroke:none"><flowRegion
         id="flowRegion846"><rect
           id="rect848"
           width="950.48077"
           height="450.22772"
           x="382.88599"
           y="-140.22772" /></flowRegion><flowPara
         id="flowPara850" /></flowRoot>    <g
       aria-label="libr.events"
       transform="scale(0.99486926,1.0051572)"
       style="font-style:normal;font-weight:normal;font-size:77.53913116px;line-height:1.25;font-family:sans-serif;letter-spacing:0px;word-spacing:0px;fill:#000000;fill-opacity:1;stroke:none;stroke-width:1.93847847"
       id="text1173">
      <path
         d="M 361.13419,76.214917 H 344.50407 V 199.54591 c 0,18.80958 5.98684,26.29066 27.2734,26.29066 h 3.54776 v -15.38965 h -3.54776 c -7.98246,0 -10.64328,-2.56495 -10.64328,-9.61854 z"
         style="font-style:normal;font-variant:normal;font-weight:normal;font-stretch:normal;font-size:232.61740112px;font-family:'Simplon Norm';-inkscape-font-specification:'Simplon Norm, Normal';font-variant-ligatures:normal;font-variant-caps:normal;font-variant-numeric:normal;font-feature-settings:normal;text-align:start;writing-mode:lr-tb;text-anchor:start;fill:#ffd5d5;stroke-width:1.81419539"
         id="path1175"
         inkscape:connector-curvature="0" />
      <path
         d="m 417.87755,76.214917 h -16.63013 v 20.733287 h 16.63013 z m 0,39.329123 h -16.63013 v 110.29253 h 16.63013 z"
         style="font-style:normal;font-variant:normal;font-weight:normal;font-stretch:normal;font-size:232.61740112px;font-family:'Simplon Norm';-inkscape-font-specification:'Simplon Norm, Normal';font-variant-ligatures:normal;font-variant-caps:normal;font-variant-numeric:normal;font-feature-settings:normal;text-align:start;writing-mode:lr-tb;text-anchor:start;fill:#ffd5d5;stroke-width:1.81419539"
         id="path1177"
         inkscape:connector-curvature="0" />
      <path
         d="m 495.84164,227.97402 c 21.28655,0 44.79046,-10.68726 44.79046,-43.17653 v -29.06935 c 0,-32.48927 -23.50391,-43.17653 -44.79046,-43.17653 -10.42154,0 -22.1735,4.27489 -28.16034,13.46594 V 76.214917 H 451.05118 V 225.83657 h 16.63012 v -11.32849 c 5.98684,9.19103 17.7388,13.46594 28.16034,13.46594 z m 28.16034,-42.96279 c 0,18.38209 -13.3041,27.57314 -28.16034,27.57314 -14.85624,0 -28.16034,-9.19105 -28.16034,-27.57314 v -29.49684 c 0,-18.38208 13.3041,-27.57313 28.16034,-27.57313 14.85624,0 28.16034,9.19105 28.16034,27.57313 z"
         style="font-style:normal;font-variant:normal;font-weight:normal;font-stretch:normal;font-size:232.61740112px;font-family:'Simplon Norm';-inkscape-font-specification:'Simplon Norm, Normal';font-variant-ligatures:normal;font-variant-caps:normal;font-variant-numeric:normal;font-feature-settings:normal;text-align:start;writing-mode:lr-tb;text-anchor:start;fill:#ffd5d5;stroke-width:1.81419539"
         id="path1179"
         inkscape:connector-curvature="0" />
      <path
         d="m 587.21029,115.54404 h -16.63012 v 110.29253 h 16.63012 v -69.25345 c 0,-18.38209 13.3041,-27.57313 28.16034,-27.57313 h 7.31726 v -15.38966 h -7.31726 c -10.42155,0 -22.1735,4.2749 -28.16034,13.46595 z"
         style="font-style:normal;font-variant:normal;font-weight:normal;font-stretch:normal;font-size:232.61740112px;font-family:'Simplon Norm';-inkscape-font-specification:'Simplon Norm, Normal';font-variant-ligatures:normal;font-variant-caps:normal;font-variant-numeric:normal;font-feature-settings:normal;text-align:start;writing-mode:lr-tb;text-anchor:start;fill:#ffd5d5;stroke-width:1.81419539"
         id="path1181"
         inkscape:connector-curvature="0" />
      <path
         d="m 627.3651,225.83657 h 23.28217 V 203.39332 H 627.3651 Z"
         style="font-style:normal;font-variant:normal;font-weight:normal;font-stretch:normal;font-size:232.61740112px;font-family:'Simplon Norm';-inkscape-font-specification:'Simplon Norm, Normal';font-variant-ligatures:normal;font-variant-caps:normal;font-variant-numeric:normal;font-feature-settings:normal;text-align:start;writing-mode:lr-tb;text-anchor:start;fill:#ffd5d5;stroke-width:1.81419539"
         id="path1183"
         inkscape:connector-curvature="0" />
      <path
         d="m 722.26767,212.58437 c -14.85625,0 -28.16034,-9.19105 -28.16034,-27.57314 v -10.68726 h 72.95079 v -18.59583 c 0,-32.48927 -23.5039,-43.17653 -44.79045,-43.17653 -21.28656,0 -44.79047,10.68726 -44.79047,43.17653 v 29.06935 c 0,32.48927 23.50391,43.17653 44.79047,43.17653 19.95614,0 41.68617,-9.40478 44.56872,-36.76418 H 749.7628 c -2.66082,14.53468 -14.19104,21.37453 -27.49513,21.37453 z m 28.16034,-53.00882 h -56.32068 v -4.06116 c 0,-18.38208 13.30409,-27.57313 28.16034,-27.57313 14.85623,0 28.16034,9.19105 28.16034,27.57313 z"
         style="font-style:normal;font-variant:normal;font-weight:normal;font-stretch:normal;font-size:232.61740112px;font-family:'Simplon Norm';-inkscape-font-specification:'Simplon Norm, Normal';font-variant-ligatures:normal;font-variant-caps:normal;font-variant-numeric:normal;font-feature-settings:normal;text-align:start;writing-mode:lr-tb;text-anchor:start;fill:#ffd5d5;stroke-width:1.81419539"
         id="path1185"
         inkscape:connector-curvature="0" />
      <path
         d="m 881.59117,115.54404 h -17.7388 l -32.81677,89.55924 -32.81677,-89.55924 h -17.7388 l 41.2427,110.29253 h 18.62573 z"
         style="font-style:normal;font-variant:normal;font-weight:normal;font-stretch:normal;font-size:232.61740112px;font-family:'Simplon Norm';-inkscape-font-specification:'Simplon Norm, Normal';font-variant-ligatures:normal;font-variant-caps:normal;font-variant-numeric:normal;font-feature-settings:normal;text-align:start;writing-mode:lr-tb;text-anchor:start;fill:#ffd5d5;stroke-width:1.81419539"
         id="path1187"
         inkscape:connector-curvature="0" />
      <path
         d="m 940.9711,212.58437 c -14.85624,0 -28.16034,-9.19105 -28.16034,-27.57314 v -10.68726 h 72.95081 v -18.59583 c 0,-32.48927 -23.50391,-43.17653 -44.79047,-43.17653 -21.28655,0 -44.79045,10.68726 -44.79045,43.17653 v 29.06935 c 0,32.48927 23.5039,43.17653 44.79045,43.17653 19.95615,0 41.68617,-9.40478 44.56873,-36.76418 h -17.07359 c -2.66082,14.53468 -14.19104,21.37453 -27.49514,21.37453 z m 28.16034,-53.00882 h -56.32068 v -4.06116 c 0,-18.38208 13.3041,-27.57313 28.16034,-27.57313 14.85625,0 28.16034,9.19105 28.16034,27.57313 z"
         style="font-style:normal;font-variant:normal;font-weight:normal;font-stretch:normal;font-size:232.61740112px;font-family:'Simplon Norm';-inkscape-font-specification:'Simplon Norm, Normal';font-variant-ligatures:normal;font-variant-caps:normal;font-variant-numeric:normal;font-feature-settings:normal;text-align:start;writing-mode:lr-tb;text-anchor:start;fill:#ffd5d5;stroke-width:1.81419539"
         id="path1189"
         inkscape:connector-curvature="0" />
      <path
         d="m 1059.7065,112.55161 c -10.4215,0 -22.1734,4.27489 -28.1603,13.46594 v -10.47351 h -16.63 v 110.29253 h 16.63 v -70.32218 c 0,-18.38208 13.3042,-27.57313 28.1603,-27.57313 14.8563,0 28.1604,9.19105 28.1604,27.57313 v 70.32218 h 16.6301 v -70.10843 c 0,-32.48927 -23.5039,-43.17653 -44.7905,-43.17653 z"
         style="font-style:normal;font-variant:normal;font-weight:normal;font-stretch:normal;font-size:232.61740112px;font-family:'Simplon Norm';-inkscape-font-specification:'Simplon Norm, Normal';font-variant-ligatures:normal;font-variant-caps:normal;font-variant-numeric:normal;font-feature-settings:normal;text-align:start;writing-mode:lr-tb;text-anchor:start;fill:#ffd5d5;stroke-width:1.81419539"
         id="path1191"
         inkscape:connector-curvature="0" />
      <path
         d="m 1158.1292,130.93369 h 28.1603 v -15.38965 h -28.1603 V 90.535847 h -16.6301 v 25.008193 h -16.1867 v 15.38965 h 16.1867 v 68.61222 c 0,18.80958 5.9867,26.29066 27.2733,26.29066 h 17.5171 v -15.38965 h -17.5171 c -7.9824,0 -10.6432,-2.56495 -10.6432,-9.61854 z"
         style="font-style:normal;font-variant:normal;font-weight:normal;font-stretch:normal;font-size:232.61740112px;font-family:'Simplon Norm';-inkscape-font-specification:'Simplon Norm, Normal';font-variant-ligatures:normal;font-variant-caps:normal;font-variant-numeric:normal;font-feature-settings:normal;text-align:start;writing-mode:lr-tb;text-anchor:start;fill:#ffd5d5;stroke-width:1.81419539"
         id="path1193"
         inkscape:connector-curvature="0" />
      <path
         d="m 1287.3555,147.81957 c -1.7738,-24.5807 -18.8474,-35.26796 -41.9078,-35.26796 -21.0649,0 -38.5819,11.75598 -38.5819,32.06178 0,19.66456 15.7432,27.78688 28.1603,30.56556 l 22.3953,5.34363 c 12.6389,3.20618 15.9648,9.19105 15.9648,16.24464 -0.2217,9.61853 -7.5389,15.81715 -23.5038,15.81715 -15.2998,0 -27.2734,-6.41236 -28.8256,-22.01576 h -17.0736 c 1.7739,26.50441 21.9518,37.40541 45.8992,37.40541 23.2821,0 40.3558,-8.9773 40.3558,-30.77931 0,-20.3058 -11.9738,-28.64186 -29.2691,-32.70302 l -21.5083,-5.12988 c -9.5346,-2.3512 -15.7432,-6.19862 -15.7432,-15.38966 0,-10.04602 9.0912,-16.03089 21.5083,-16.03089 14.191,0 23.0604,7.05359 25.0561,19.87831 z"
         style="font-style:normal;font-variant:normal;font-weight:normal;font-stretch:normal;font-size:232.61740112px;font-family:'Simplon Norm';-inkscape-font-specification:'Simplon Norm, Normal';font-variant-ligatures:normal;font-variant-caps:normal;font-variant-numeric:normal;font-feature-settings:normal;text-align:start;writing-mode:lr-tb;text-anchor:start;fill:#ffd5d5;stroke-width:1.81419539"
         id="path1195"
         inkscape:connector-curvature="0" />
    </g>
  </g>
</svg>
