<?xml version="1.0" encoding="UTF-8" standalone="no"?>
<svg
   xmlns:dc="http://purl.org/dc/elements/1.1/"
   xmlns:cc="http://creativecommons.org/ns#"
   xmlns:rdf="http://www.w3.org/1999/02/22-rdf-syntax-ns#"
   xmlns:svg="http://www.w3.org/2000/svg"
   xmlns="http://www.w3.org/2000/svg"
   xmlns:sodipodi="http://sodipodi.sourceforge.net/DTD/sodipodi-0.dtd"
   xmlns:inkscape="http://www.inkscape.org/namespaces/inkscape"
   id="Layer_1"
   data-name="Layer 1"
   viewBox="0 0 1302.621 299.99999"
   version="1.1"
   sodipodi:docname="logo-wcol-qinterop.svg"
   inkscape:version="0.92.4 (5da689c313, 2019-01-14)"
   width="34.465179cm"
   height="7.9375cm">
  <metadata
     id="metadata4732">
    <rdf:RDF>
      <cc:Work
         rdf:about="">
        <dc:format>image/svg+xml</dc:format>
        <dc:type
           rdf:resource="http://purl.org/dc/dcmitype/StillImage" />
        <dc:title>TrackingExposed</dc:title>
      </cc:Work>
    </rdf:RDF>
  </metadata>
  <sodipodi:namedview
     pagecolor="#ffffff"
     bordercolor="#666666"
     borderopacity="1"
     objecttolerance="10"
     gridtolerance="10"
     guidetolerance="10"
     inkscape:pageopacity="0"
     inkscape:pageshadow="2"
     inkscape:window-width="1890"
     inkscape:window-height="1051"
     id="namedview4730"
     showgrid="false"
     inkscape:zoom="0.51973698"
     inkscape:cx="715.25822"
     inkscape:cy="382.08118"
     inkscape:window-x="30"
     inkscape:window-y="0"
     inkscape:window-maximized="1"
     inkscape:current-layer="layer4"
     units="cm" />
  <defs
     id="defs4667">
    <style
       id="style4665">.cls-1{fill:#3b5998;}.cls-2{fill:#1b1b1b;}</style>
  </defs>
  <title
     id="title4669">TrackingExposed</title>
  <g
     inkscape:groupmode="layer"
     id="layer4"
     inkscape:label="pornhub"
     style="display:inline"
     transform="translate(-3.293023,-1.924252)">
    <path
       inkscape:connector-curvature="0"
       id="path908"
       style="font-style:normal;font-variant:normal;font-weight:bold;font-stretch:normal;font-size:40px;line-height:1.25;font-family:'Simplon Norm';-inkscape-font-specification:'Simplon Norm Bold';letter-spacing:0px;word-spacing:0px;fill:#ffffff;fill-opacity:1;stroke:none;stroke-width:3.50413918"
       d="m 384.20246,164.50809 h -18.78219 v 98.11589 h 18.78219 z" />
    <path
       inkscape:connector-curvature="0"
       id="path910"
       style="font-style:normal;font-variant:normal;font-weight:bold;font-stretch:normal;font-size:40px;line-height:1.25;font-family:'Simplon Norm';-inkscape-font-specification:'Simplon Norm Bold';letter-spacing:0px;word-spacing:0px;fill:#ffffff;fill-opacity:1;stroke:none;stroke-width:3.50413918"
       d="m 460.15334,219.73332 c 0,-21.30517 -14.29689,-31.39709 -29.01427,-31.39709 -6.44762,0 -13.73623,3.36398 -16.96004,8.26977 v -6.30745 h -18.50185 v 72.32543 h 18.50185 v -42.18983 c 0,-9.81159 6.72795,-14.01656 13.73623,-14.01656 7.00828,0 13.73622,4.20497 13.73622,14.01656 v 42.18983 h 18.50186 z" />
    <path
       inkscape:connector-curvature="0"
       id="path912"
       style="font-style:normal;font-variant:normal;font-weight:bold;font-stretch:normal;font-size:40px;line-height:1.25;font-family:'Simplon Norm';-inkscape-font-specification:'Simplon Norm Bold';letter-spacing:0px;word-spacing:0px;fill:#ffffff;fill-opacity:1;stroke:none;stroke-width:3.50413918"
       d="m 503.08121,245.94428 c -4.48529,0 -5.32629,-2.38282 -5.32629,-5.74679 v -33.21924 h 17.80103 v -16.6797 h -17.80103 v -16.39937 h -18.50185 v 16.39937 h -10.23209 v 16.6797 h 10.23209 v 37.14388 c 0,11.63374 5.60662,18.50185 18.50185,18.50185 h 17.80103 v -16.6797 z" />
    <path
       inkscape:connector-curvature="0"
       id="path914"
       style="font-style:normal;font-variant:normal;font-weight:bold;font-stretch:normal;font-size:40px;line-height:1.25;font-family:'Simplon Norm';-inkscape-font-specification:'Simplon Norm Bold';letter-spacing:0px;word-spacing:0px;fill:#ffffff;fill-opacity:1;stroke:none;stroke-width:3.50413918"
       d="m 589.58965,232.76872 v -11.21325 c 0,-20.04367 -11.49358,-33.21924 -32.23808,-33.21924 -20.7445,0 -32.23808,13.17557 -32.23808,33.21924 v 9.25093 c 0,20.04367 11.49358,33.21924 32.23808,33.21924 17.66086,0 28.59377,-9.53126 31.53725,-24.66914 h -18.78219 c -1.82215,4.90579 -6.30745,7.98943 -12.75506,7.98943 -8.83043,0 -13.73623,-5.60662 -13.73623,-14.15672 v -0.42049 z m -32.23808,-27.75279 c 8.26977,0 13.0354,4.76563 13.59606,12.33457 v 0.14017 h -27.33229 v -0.14017 c 0.70083,-7.42877 5.46646,-12.33457 13.73623,-12.33457 z" />
    <path
       inkscape:connector-curvature="0"
       id="path916"
       style="font-style:normal;font-variant:normal;font-weight:bold;font-stretch:normal;font-size:40px;line-height:1.25;font-family:'Simplon Norm';-inkscape-font-specification:'Simplon Norm Bold';letter-spacing:0px;word-spacing:0px;fill:#ffffff;fill-opacity:1;stroke:none;stroke-width:3.50413918"
       d="m 622.51104,221.13497 c 0,-9.81159 6.72794,-14.01655 13.73622,-14.01655 h 8.69027 v -18.08136 h -5.60663 c -8.5501,0 -14.71738,4.34513 -16.81986,9.11076 v -7.84927 h -18.50186 v 72.32543 h 18.50186 z" />
    <path
       inkscape:connector-curvature="0"
       id="path918"
       style="font-style:normal;font-variant:normal;font-weight:bold;font-stretch:normal;font-size:40px;line-height:1.25;font-family:'Simplon Norm';-inkscape-font-specification:'Simplon Norm Bold';letter-spacing:0px;word-spacing:0px;fill:#ffffff;fill-opacity:1;stroke:none;stroke-width:3.50413918"
       d="m 652.41231,230.8064 c 0,20.04367 11.49358,33.21924 32.23808,33.21924 20.7445,0 32.23808,-13.17557 32.23808,-33.21924 v -9.25093 c 0,-20.04367 -11.49358,-33.21924 -32.23808,-33.21924 -20.7445,0 -32.23808,13.17557 -32.23808,33.21924 z m 45.9743,2.38281 c 0,8.5501 -4.90579,14.15672 -13.73622,14.15672 -8.83043,0 -13.73623,-5.60662 -13.73623,-14.15672 v -14.01655 c 0,-8.5501 4.9058,-14.15673 13.73623,-14.15673 8.83043,0 13.73622,5.60663 13.73622,14.15673 z" />
    <path
       inkscape:connector-curvature="0"
       id="path920"
       style="font-style:normal;font-variant:normal;font-weight:bold;font-stretch:normal;font-size:40px;line-height:1.25;font-family:'Simplon Norm';-inkscape-font-specification:'Simplon Norm Bold';letter-spacing:0px;word-spacing:0px;fill:#ffffff;fill-opacity:1;stroke:none;stroke-width:3.50413918"
       d="m 746.0836,255.75587 c 3.22381,4.90579 10.51242,8.26977 16.96003,8.26977 14.71739,0 29.01427,-10.09192 29.01427,-31.39709 v -12.89523 c 0,-21.30517 -14.29688,-31.39709 -29.01427,-31.39709 -6.44761,0 -13.73622,3.36398 -16.96003,8.26977 v -6.30745 h -18.50186 v 98.1159 h 18.50186 z m 27.47245,-23.82815 c 0,9.81159 -6.72795,14.01656 -13.73623,14.01656 -7.00827,0 -13.73622,-4.20497 -13.73622,-14.01656 v -11.49357 c 0,-9.81159 6.72795,-14.01656 13.73622,-14.01656 7.00828,0 13.73623,4.20497 13.73623,14.01656 z" />
    <path
       inkscape:connector-curvature="0"
       id="path922"
       style="font-style:normal;font-variant:normal;font-weight:bold;font-stretch:normal;font-size:40px;line-height:1.25;font-family:'Simplon Norm';-inkscape-font-specification:'Simplon Norm Bold';letter-spacing:0px;word-spacing:0px;fill:#ffffff;fill-opacity:1;stroke:none;stroke-width:3.50413918"
       d="m 866.93216,232.76872 v -11.21325 c 0,-20.04367 -11.49357,-33.21924 -32.23808,-33.21924 -20.7445,0 -32.23808,13.17557 -32.23808,33.21924 v 9.25093 c 0,20.04367 11.49358,33.21924 32.23808,33.21924 17.66086,0 28.59378,-9.53126 31.53726,-24.66914 h -18.78219 c -1.82215,4.90579 -6.30745,7.98943 -12.75507,7.98943 -8.83043,0 -13.73622,-5.60662 -13.73622,-14.15672 v -0.42049 z m -32.23808,-27.75279 c 8.26977,0 13.0354,4.76563 13.59606,12.33457 v 0.14017 h -27.33228 v -0.14017 c 0.70083,-7.42877 5.46646,-12.33457 13.73622,-12.33457 z" />
    <path
       inkscape:connector-curvature="0"
       id="path924"
       style="font-style:normal;font-variant:normal;font-weight:bold;font-stretch:normal;font-size:40px;line-height:1.25;font-family:'Simplon Norm';-inkscape-font-specification:'Simplon Norm Bold';letter-spacing:0px;word-spacing:0px;fill:#ffffff;fill-opacity:1;stroke:none;stroke-width:3.50413918"
       d="m 893.85355,221.13497 c 0,-9.81159 6.72795,-14.01655 13.73623,-14.01655 h 8.69026 v -18.08136 h -5.60662 c -8.5501,0 -14.71739,4.34513 -16.81987,9.11076 v -7.84927 H 875.3517 v 72.32543 h 18.50185 z" />
    <path
       inkscape:connector-curvature="0"
       id="path926"
       style="font-style:normal;font-variant:normal;font-weight:bold;font-stretch:normal;font-size:40px;line-height:1.25;font-family:'Simplon Norm';-inkscape-font-specification:'Simplon Norm Bold';letter-spacing:0px;word-spacing:0px;fill:#ffffff;fill-opacity:1;stroke:none;stroke-width:3.50413918"
       d="m 969.04141,215.66852 c -10.93292,0.84099 -25.36997,1.96232 -32.51841,5.32629 -10.09192,4.76563 -13.73623,11.07308 -13.73623,21.5855 0,13.31572 9.81159,21.44533 26.35113,21.44533 11.07308,0 16.81987,-4.20497 20.18384,-9.67143 v 8.26977 h 18.50185 v -41.06851 c 0,-20.04367 -11.49357,-33.21924 -32.23808,-33.21924 -17.66086,0 -28.45361,9.53126 -31.39708,24.66914 h 18.64202 c 1.82215,-4.90579 6.30745,-7.98944 12.75506,-7.98944 7.56894,0 12.19441,4.06481 13.4559,10.51242 z m -23.82815,18.64202 c 3.50414,-1.82215 13.59606,-2.66315 24.10848,-3.36398 v 2.38282 c 0,9.11076 -7.56894,14.43705 -17.1002,14.43705 -8.26977,0 -10.93291,-3.78447 -10.93291,-7.28861 0,-3.08364 0.84099,-4.62546 3.92463,-6.16728 z" />
    <path
       inkscape:connector-curvature="0"
       id="path928"
       style="font-style:normal;font-variant:normal;font-weight:bold;font-stretch:normal;font-size:40px;line-height:1.25;font-family:'Simplon Norm';-inkscape-font-specification:'Simplon Norm Bold';letter-spacing:0px;word-spacing:0px;fill:#ffffff;fill-opacity:1;stroke:none;stroke-width:3.50413918"
       d="m 1022.2474,255.75587 c 3.2238,4.90579 10.5124,8.26977 16.96,8.26977 14.7174,0 29.0143,-10.09192 29.0143,-31.39709 v -12.89523 c 0,-21.30517 -14.2969,-31.39709 -29.0143,-31.39709 -6.4476,0 -13.7362,3.36398 -16.96,8.26977 v -32.09791 h -18.5019 v 98.11589 h 18.5019 z m 27.4724,-23.82815 c 0,9.81159 -6.7279,14.01656 -13.7362,14.01656 -7.0083,0 -13.7362,-4.20497 -13.7362,-14.01656 v -11.49357 c 0,-9.81159 6.7279,-14.01656 13.7362,-14.01656 7.0083,0 13.7362,4.20497 13.7362,14.01656 z" />
    <path
       inkscape:connector-curvature="0"
       id="path930"
       style="font-style:normal;font-variant:normal;font-weight:bold;font-stretch:normal;font-size:40px;line-height:1.25;font-family:'Simplon Norm';-inkscape-font-specification:'Simplon Norm Bold';letter-spacing:0px;word-spacing:0px;fill:#ffffff;fill-opacity:1;stroke:none;stroke-width:3.50413918"
       d="m 1101.3643,164.50809 h -18.5019 v 16.39937 h 18.5019 z m 0,25.79046 h -18.5019 v 72.32543 h 18.5019 z" />
    <path
       inkscape:connector-curvature="0"
       id="path932"
       style="font-style:normal;font-variant:normal;font-weight:bold;font-stretch:normal;font-size:40px;line-height:1.25;font-family:'Simplon Norm';-inkscape-font-specification:'Simplon Norm Bold';letter-spacing:0px;word-spacing:0px;fill:#ffffff;fill-opacity:1;stroke:none;stroke-width:3.50413918"
       d="m 1141.7254,245.94428 c -4.4853,0 -5.3263,-2.38282 -5.3263,-5.74679 v -75.6894 h -18.5019 v 79.61404 c 0,11.63374 5.6067,18.50185 18.5019,18.50185 h 8.9706 v -16.6797 z" />
    <path
       inkscape:connector-curvature="0"
       id="path934"
       style="font-style:normal;font-variant:normal;font-weight:bold;font-stretch:normal;font-size:40px;line-height:1.25;font-family:'Simplon Norm';-inkscape-font-specification:'Simplon Norm Bold';letter-spacing:0px;word-spacing:0px;fill:#ffffff;fill-opacity:1;stroke:none;stroke-width:3.50413918"
       d="m 1176.101,164.50809 h -18.5019 v 16.39937 h 18.5019 z m 0,25.79046 h -18.5019 v 72.32543 h 18.5019 z" />
    <path
       inkscape:connector-curvature="0"
       id="path936"
       style="font-style:normal;font-variant:normal;font-weight:bold;font-stretch:normal;font-size:40px;line-height:1.25;font-family:'Simplon Norm';-inkscape-font-specification:'Simplon Norm Bold';letter-spacing:0px;word-spacing:0px;fill:#ffffff;fill-opacity:1;stroke:none;stroke-width:3.50413918"
       d="m 1220.1064,245.94428 c -4.4853,0 -5.3263,-2.38282 -5.3263,-5.74679 v -33.21924 h 17.8011 v -16.6797 h -17.8011 v -16.39937 h -18.5018 v 16.39937 h -10.2321 v 16.6797 h 10.2321 v 37.14388 c 0,11.63374 5.6066,18.50185 18.5018,18.50185 h 17.8011 v -16.6797 z" />
    <path
       inkscape:connector-curvature="0"
       id="path938"
       style="font-style:normal;font-variant:normal;font-weight:bold;font-stretch:normal;font-size:40px;line-height:1.25;font-family:'Simplon Norm';-inkscape-font-specification:'Simplon Norm Bold';letter-spacing:0px;word-spacing:0px;fill:#ffffff;fill-opacity:1;stroke:none;stroke-width:3.50413918"
       d="m 1305.914,190.29855 h -19.483 l -16.119,46.11447 -16.1191,-46.11447 h -19.483 l 25.7905,72.32543 -2.1025,5.88695 c -0.5607,1.54183 -1.5418,3.22381 -4.9058,3.22381 h -7.7091 v 16.67971 h 13.7362 c 12.8953,0 14.0166,-7.98944 17.9412,-18.92236 z" />
    <path
       inkscape:connector-curvature="0"
       id="path889"
       style="font-style:normal;font-variant:normal;font-weight:bold;font-stretch:normal;font-size:53.33333206px;line-height:1.25;font-family:'Simplon Norm';-inkscape-font-specification:'Simplon Norm Bold';letter-spacing:0px;word-spacing:0px;fill:#53c1bf;fill-opacity:0.94117647;stroke:none;stroke-width:2.43348122"
       d="M 430.67005,106.70619 V 80.489492 c 0,-20.116778 -12.45942,-33.614485 -34.26341,-33.614485 -21.80399,0 -34.26342,13.497707 -34.26342,33.614485 v 26.216698 c 0,20.11678 12.45943,33.61449 34.26342,33.61449 6.35951,0 12.07006,-1.16807 16.74235,-3.37443 l 7.65736,7.91693 11.81049,-11.55093 -7.00843,-7.13821 c 3.37443,-5.32121 5.06164,-11.94028 5.06164,-19.46785 z m -26.99541,-3.24464 -11.81049,11.55093 7.65734,7.78713 c -1.03827,0.25958 -2.07656,0.25958 -3.11485,0.25958 -9.47435,0 -16.87213,-5.84036 -16.87213,-16.353 V 80.489492 c 0,-10.512639 7.39778,-16.352993 16.87213,-16.352993 9.47437,0 16.87215,5.840354 16.87215,16.352993 v 26.216698 c 0,2.07657 -0.38936,4.02336 -0.90852,5.71057 z" />
    <path
       inkscape:connector-curvature="0"
       id="path891"
       style="font-style:normal;font-variant:normal;font-weight:bold;font-stretch:normal;font-size:53.33333206px;line-height:1.25;font-family:'Simplon Norm';-inkscape-font-specification:'Simplon Norm Bold';letter-spacing:0px;word-spacing:0px;fill:#53c1bf;fill-opacity:0.94117647;stroke:none;stroke-width:2.43348122"
       d="m 474.14217,123.57833 c -6.22971,0 -12.32965,-4.02336 -12.32965,-12.97857 V 72.053423 h -17.1317 v 39.195267 c 0,20.11678 13.10836,29.07199 25.56778,29.07199 8.1765,0 13.36792,-4.02336 16.22322,-8.56585 v 7.26799 H 503.6035 V 72.053423 h -17.13168 v 38.546337 c 0,8.95521 -6.09994,12.97857 -12.32965,12.97857 z" />
    <path
       inkscape:connector-curvature="0"
       id="path893"
       style="font-style:normal;font-variant:normal;font-weight:bold;font-stretch:normal;font-size:53.33333206px;line-height:1.25;font-family:'Simplon Norm';-inkscape-font-specification:'Simplon Norm Bold';letter-spacing:0px;word-spacing:0px;fill:#53c1bf;fill-opacity:0.94117647;stroke:none;stroke-width:2.43348122"
       d="m 536.23244,48.172863 h -17.13171 v 15.184922 h 17.13171 z m 0,23.88056 h -17.13171 v 66.969397 h 17.13171 z" />
    <path
       inkscape:connector-curvature="0"
       id="path895"
       style="font-style:normal;font-variant:normal;font-weight:bold;font-stretch:normal;font-size:53.33333206px;line-height:1.25;font-family:'Simplon Norm';-inkscape-font-specification:'Simplon Norm Bold';letter-spacing:0px;word-spacing:0px;fill:#53c1bf;fill-opacity:0.94117647;stroke:none;stroke-width:2.43348122"
       d="m 592.03418,114.62312 c -0.90851,6.35949 -5.32122,10.25306 -12.45942,10.25306 -8.1765,0 -12.719,-5.19142 -12.719,-13.10835 V 98.789267 c 0,-7.916924 4.5425,-13.10835 12.719,-13.10835 7.1382,0 11.42113,4.023355 12.45942,10.253066 h 17.13171 c -1.81701,-15.704064 -12.19987,-25.69756 -29.59113,-25.69756 -19.20829,0 -29.85071,12.199853 -29.85071,30.759197 v 8.56586 c 0,18.55935 10.64242,30.7592 29.85071,30.7592 17.39126,0 27.77412,-9.9935 29.59113,-25.69756 z" />
    <path
       inkscape:connector-curvature="0"
       id="path897"
       style="font-style:normal;font-variant:normal;font-weight:bold;font-stretch:normal;font-size:53.33333206px;line-height:1.25;font-family:'Simplon Norm';-inkscape-font-specification:'Simplon Norm Bold';letter-spacing:0px;word-spacing:0px;fill:#53c1bf;fill-opacity:0.94117647;stroke:none;stroke-width:2.43348122"
       d="m 638.64143,48.172863 h -17.13171 v 90.849957 h 17.13171 v -21.02527 l 6.35949,-7.00843 19.20829,28.0337 h 20.11676 L 656.55185,98.39991 680.82176,72.053423 h -20.7657 l -21.41463,23.361419 z" />
    <path
       inkscape:connector-curvature="0"
       id="path899"
       style="font-style:normal;font-variant:normal;font-weight:bold;font-stretch:normal;font-size:53.33333206px;line-height:1.25;font-family:'Simplon Norm';-inkscape-font-specification:'Simplon Norm Bold';letter-spacing:0px;word-spacing:0px;fill:#53c1bf;fill-opacity:0.94117647;stroke:none;stroke-width:2.43348122"
       d="m 746.30876,111.37848 v -10.38286 c 0,-18.559344 -10.64242,-30.759197 -29.85069,-30.759197 -19.20829,0 -29.85071,12.199853 -29.85071,30.759197 v 8.56586 c 0,18.55935 10.64242,30.7592 29.85071,30.7592 16.35299,0 26.47628,-8.82543 29.20177,-22.84228 h -17.39128 c -1.68721,4.5425 -5.84036,7.39778 -11.81049,7.39778 -8.1765,0 -12.719,-5.19142 -12.719,-13.10835 v -0.38935 z M 716.45807,85.680917 c 7.65734,0 12.07007,4.412712 12.5892,11.421137 v 0.129778 h -25.3082 v -0.129778 c 0.64893,-6.878638 5.06164,-11.421137 12.719,-11.421137 z" />
    <path
       inkscape:connector-curvature="0"
       id="path901"
       style="font-style:normal;font-variant:normal;font-weight:bold;font-stretch:normal;font-size:53.33333206px;line-height:1.25;font-family:'Simplon Norm';-inkscape-font-specification:'Simplon Norm Bold';letter-spacing:0px;word-spacing:0px;fill:#53c1bf;fill-opacity:0.94117647;stroke:none;stroke-width:2.43348122"
       d="m 819.36188,99.308411 c 0,-19.727421 -13.23813,-29.071988 -26.86563,-29.071988 -5.97013,0 -12.719,3.114856 -15.70405,7.657355 V 72.053423 H 759.66049 V 139.02282 H 776.7922 V 99.957338 c 0,-9.084995 6.22971,-12.978565 12.71897,-12.978565 6.48929,0 12.71901,3.89357 12.71901,12.978565 v 39.065482 h 17.1317 z" />
    <path
       inkscape:connector-curvature="0"
       id="path903"
       style="font-style:normal;font-variant:normal;font-weight:bold;font-stretch:normal;font-size:53.33333206px;line-height:1.25;font-family:'Simplon Norm';-inkscape-font-specification:'Simplon Norm Bold';letter-spacing:0px;word-spacing:0px;fill:#53c1bf;fill-opacity:0.94117647;stroke:none;stroke-width:2.43348122"
       d="m 891.55716,111.37848 v -10.38286 c 0,-18.559344 -10.64242,-30.759197 -29.85069,-30.759197 -19.20829,0 -29.85071,12.199853 -29.85071,30.759197 v 8.56586 c 0,18.55935 10.64242,30.7592 29.85071,30.7592 16.353,0 26.47628,-8.82543 29.20178,-22.84228 h -17.39129 c -1.6872,4.5425 -5.84035,7.39778 -11.81049,7.39778 -8.17649,0 -12.719,-5.19142 -12.719,-13.10835 v -0.38935 z M 861.70647,85.680917 c 7.65734,0 12.07007,4.412712 12.5892,11.421137 v 0.129778 h -25.3082 v -0.129778 c 0.64894,-6.878638 5.06164,-11.421137 12.719,-11.421137 z" />
    <path
       inkscape:connector-curvature="0"
       id="path905"
       style="font-style:normal;font-variant:normal;font-weight:bold;font-stretch:normal;font-size:53.33333206px;line-height:1.25;font-family:'Simplon Norm';-inkscape-font-specification:'Simplon Norm Bold';letter-spacing:0px;word-spacing:0px;fill:#53c1bf;fill-opacity:0.94117647;stroke:none;stroke-width:2.43348122"
       d="m 945.40202,132.66332 v 6.3595 H 962.5337 V 48.172863 h -17.13168 v 29.720915 c -2.98508,-4.542499 -9.73393,-7.657355 -15.70408,-7.657355 -13.6275,0 -26.86564,9.344567 -26.86564,29.071988 v 11.940279 c 0,19.72742 13.23814,29.07199 26.86564,29.07199 5.97015,0 12.719,-3.11486 15.70408,-7.65736 z M 919.96401,99.957338 c 0,-9.084995 6.22971,-12.978565 12.719,-12.978565 6.4893,0 12.71901,3.89357 12.71901,12.978565 v 10.642422 c 0,9.085 -6.22971,12.97857 -12.71901,12.97857 -6.48929,0 -12.719,-3.89357 -12.719,-12.97857 z" />
    <path
       inkscape:connector-curvature="0"
       class="cls-2"
       d="M 304.05086,151.92425 A 150.38,150.38 0 0 0 164.23086,1.924252 V 23.08425 c 66.36,5.39 118.71,61.11 118.71,128.84 0,67.73 -52.35,123.45 -118.71,128.84 v 21.16 a 150.38,150.38 0 0 0 139.82,-150 z"
       id="path15039"
       style="fill:#ffffff;fill-opacity:1" />
    <path
       inkscape:connector-curvature="0"
       class="cls-2"
       d="m 24.41086,151.92425 c 0,-67.73 52.35,-123.45 118.71,-128.84 V 1.924252 a 150.37,150.37 0 0 0 0,299.999998 v -21.16 c -66.36,-5.39 -118.71,-61.11 -118.71,-128.84 z"
       id="path15041"
       style="fill:#ffffff;fill-opacity:1" />
    <path
       inkscape:connector-curvature="0"
       class="cls-2"
       d="m 102.23086,62.82425 a 102.9,102.9 0 0 0 -42.47,131.1 l 18.42,-10.64 a 81.76,81.76 0 0 1 140.43,-81.08 l 18.43,-10.63 a 102.9,102.9 0 0 0 -134.81,-28.75 z"
       id="path15043"
       style="fill:#ffffff;fill-opacity:1" />
    <path
       inkscape:connector-curvature="0"
       class="cls-2"
       d="m 194.57086,222.75425 a 81.91,81.91 0 0 1 -105.84,-21.15 l -18.43,10.63 a 102.9,102.9 0 0 0 177.29,-102.31 l -18.42,10.6 a 81.9,81.9 0 0 1 -34.6,102.23 z"
       id="path15045"
       style="fill:#ffffff;fill-opacity:1" />
    <path
       inkscape:connector-curvature="0"
       class="cls-2"
       d="m 181.37086,103.92425 a 55.41,55.41 0 0 0 -69.52,11.65 l 18.84,10.88 a 34.29,34.29 0 0 1 56.52,32.63 l 18.84,10.87 a 55.41,55.41 0 0 0 -24.68,-66.03 z"
       id="path15047"
       style="fill:#ffffff;fill-opacity:1" />
    <path
       inkscape:connector-curvature="0"
       class="cls-2"
       d="m 136.53086,181.62425 a 34.35,34.35 0 0 1 -16.39,-36.88 l -18.84,-10.82 a 55.4,55.4 0 0 0 94.2,54.38 l -18.85,-10.88 a 34.33,34.33 0 0 1 -40.12,4.2 z"
       id="path15049"
       style="fill:#ffffff;fill-opacity:1" />
    <flowRoot
       xml:space="preserve"
       id="flowRoot844"
       style="font-style:normal;font-weight:normal;font-size:40px;line-height:1.25;font-family:sans-serif;letter-spacing:0px;word-spacing:0px;fill:#000000;fill-opacity:1;stroke:none"><flowRegion
         id="flowRegion846"><rect
           id="rect848"
           width="950.48077"
           height="450.22772"
           x="382.88599"
           y="-140.22772" /></flowRegion><flowPara
         id="flowPara850"></flowPara></flowRoot>  </g>
</svg>
