<!DOCTYPE svg PUBLIC "-//W3C//DTD SVG 1.1//EN" "http://www.w3.org/Graphics/SVG/1.1/DTD/svg11.dtd">
<svg version="1.1" id="Layer_1" xmlns="http://www.w3.org/2000/svg" xmlns:xlink="http://www.w3.org/1999/xlink" x="0px" y="0px"
	 width="120px" height="120px" viewBox="360.945 237.64 120 120" enable-background="new 360.945 237.64 120 120"
	 xml:space="preserve">
<path fill="#F0F0F0" d="M480.945,297.64c0-7.339-1.32-14.37-3.731-20.87l-56.269-2.609l-56.268,2.609
	c-2.412,6.5-3.732,13.53-3.732,20.87c0,7.339,1.32,14.37,3.732,20.869l56.268,2.609l56.269-2.608
	C479.624,312.01,480.945,304.979,480.945,297.64z"/>
<path fill="#0052B4" d="M420.945,357.64c25.798,0,47.79-16.282,56.269-39.131H364.677
	C373.154,341.358,395.147,357.64,420.945,357.64z"/>
<path fill="#D80027" d="M364.677,276.771h112.537c-8.479-22.848-30.471-39.13-56.269-39.13S373.154,253.923,364.677,276.771z"/>
<g>
	<polygon fill="#338AF3" points="436.597,279.38 426.162,279.38 427.902,266.336 434.858,261.118 441.814,266.336 441.814,276.771 	
		"/>
	<polygon fill="#338AF3" points="405.292,279.38 415.727,279.38 413.988,266.336 407.031,261.118 400.075,266.336 400.075,276.771 	
		"/>
</g>
<polygon fill="#0052B4" points="427.902,279.38 413.988,279.38 413.988,266.336 420.945,261.118 427.902,266.336 "/>
<path fill="#F0F0F0" d="M400.075,276.771v28.695c0,6.833,3.301,12.909,8.392,16.719l3.652-0.914l4.609,4.637
	c1.363,0.28,2.773,0.429,4.217,0.429c1.437,0,2.84-0.146,4.195-0.424l5.262-4.381l3.021,0.645c5.089-3.809,8.392-9.879,8.392-16.71
	v-28.695H400.075z"/>
<g>
	<rect x="400.075" y="276.771" fill="#D80027" width="8.348" height="8.348"/>
	<rect x="416.771" y="276.771" fill="#D80027" width="8.348" height="8.348"/>
	<rect x="433.466" y="276.771" fill="#D80027" width="8.348" height="8.348"/>
	<rect x="408.423" y="285.118" fill="#D80027" width="8.348" height="8.348"/>
	<rect x="425.118" y="285.118" fill="#D80027" width="8.348" height="8.348"/>
	<rect x="400.075" y="293.464" fill="#D80027" width="8.348" height="8.348"/>
	<rect x="408.423" y="301.812" fill="#D80027" width="8.348" height="8.348"/>
	<rect x="416.771" y="293.464" fill="#D80027" width="8.348" height="8.348"/>
	<rect x="433.466" y="293.464" fill="#D80027" width="8.348" height="8.348"/>
	<rect x="425.118" y="301.812" fill="#D80027" width="8.348" height="8.348"/>
	<rect x="416.771" y="310.16" fill="#D80027" width="8.348" height="8.348"/>
	<path fill="#D80027" d="M408.423,310.16h-7.809c0.716,3.104,2.125,5.943,4.055,8.349h3.754V310.16z"/>
	<path fill="#D80027" d="M433.466,318.509h3.754c1.932-2.405,3.339-5.245,4.056-8.348h-7.81V318.509z"/>
	<path fill="#D80027" d="M408.423,318.509v3.642c2.428,1.827,5.266,3.138,8.348,3.766v-7.407H408.423L408.423,318.509z"/>
	<path fill="#D80027" d="M425.118,318.509v7.407c3.083-0.628,5.92-1.938,8.348-3.766v-3.642H425.118z"/>
</g>
</svg>
