<!DOCTYPE svg PUBLIC "-//W3C//DTD SVG 1.1//EN" "http://www.w3.org/Graphics/SVG/1.1/DTD/svg11.dtd">
<svg version="1.1" id="Layer_1" xmlns="http://www.w3.org/2000/svg" xmlns:xlink="http://www.w3.org/1999/xlink" x="0px" y="0px"
	 width="120px" height="120px" viewBox="360.945 237.64 120 120" enable-background="new 360.945 237.64 120 120"
	 xml:space="preserve">
<circle fill="#F0F0F0" cx="420.945" cy="297.64" r="60"/>
<g>
	<path fill="#D80027" d="M407.901,289.814h72.536c-3.835-29.439-29.008-52.174-59.492-52.174c-4.48,0-8.843,0.495-13.043,1.426
		V289.814L407.901,289.814z"/>
	<path fill="#D80027" d="M392.249,289.814v-44.878c-16.475,8.989-28.269,25.478-30.796,44.878H392.249L392.249,289.814z"/>
	<path fill="#D80027" d="M392.249,305.467h-30.796c2.527,19.4,14.322,35.89,30.796,44.878V305.467L392.249,305.467z"/>
	<path fill="#D80027" d="M407.901,305.467v50.748c4.2,0.931,8.563,1.426,13.043,1.426c30.484,0,55.657-22.734,59.492-52.174H407.901
		L407.901,305.467z"/>
</g>
</svg>
