<!DOCTYPE svg PUBLIC "-//W3C//DTD SVG 1.1//EN" "http://www.w3.org/Graphics/SVG/1.1/DTD/svg11.dtd">
<svg version="1.1" id="Layer_1" xmlns="http://www.w3.org/2000/svg" xmlns:xlink="http://www.w3.org/1999/xlink" x="0px" y="0px"
	 width="120px" height="120px" viewBox="360.945 237.64 120 120" enable-background="new 360.945 237.64 120 120"
	 xml:space="preserve">
<circle fill="#F0F0F0" cx="420.945" cy="297.641" r="60"/>
<g>
	<path fill="#0052B4" d="M373.465,260.96c-4.733,6.116-8.309,13.172-10.403,20.844l31.214,0.1L373.465,260.96z"/>
	<path fill="#0052B4" d="M478.927,282.174c-2.044-7.684-5.577-14.764-10.27-20.91l-20.943,20.81L478.927,282.174z"/>
	<path fill="#0052B4" d="M362.961,313.109c2.046,7.684,5.577,14.761,10.271,20.909l20.943-20.81L362.961,313.109L362.961,313.109z"
		/>
	<path fill="#0052B4" d="M457.626,250.161c-6.118-4.733-13.173-8.309-20.843-10.404l-0.1,31.214L457.626,250.161z"/>
	<path fill="#0052B4" d="M384.264,345.121c6.116,4.731,13.172,8.31,20.844,10.402l0.1-31.213L384.264,345.121z"/>
	<path fill="#0052B4" d="M405.477,239.657c-7.684,2.046-14.764,5.577-20.91,10.271l20.81,20.943L405.477,239.657z"/>
	<path fill="#0052B4" d="M436.413,355.623c7.684-2.044,14.762-5.577,20.909-10.27l-20.81-20.943L436.413,355.623L436.413,355.623z"
		/>
	<path fill="#0052B4" d="M447.615,313.379l20.811,20.943c4.731-6.117,8.31-13.174,10.402-20.844L447.615,313.379z"/>
</g>
<g>
	<path fill="#D80027" d="M480.463,290.004l-51.666-0.165h-0.001l0.165-51.665c-2.561-0.342-5.172-0.524-7.825-0.533
		c-2.653-0.009-5.265,0.157-7.828,0.483l-0.165,51.665v0l-51.665-0.165c-0.342,2.561-0.525,5.172-0.533,7.825
		c-0.009,2.653,0.157,5.266,0.483,7.828l51.665,0.164l0,0l-0.165,51.667c2.561,0.342,5.172,0.523,7.825,0.532
		c2.654,0.008,5.266-0.156,7.828-0.482l0.165-51.665v-0.001l51.667,0.164c0.341-2.561,0.523-5.171,0.531-7.824
		C480.953,295.179,480.787,292.567,480.463,290.004z"/>
	<path fill="#D80027" d="M436.548,313.344L436.548,313.344l26.688,26.858c1.236-1.227,2.415-2.51,3.539-3.841l-22.849-22.994
		L436.548,313.344L436.548,313.344L436.548,313.344z"/>
	<path fill="#D80027" d="M405.242,313.244L405.242,313.244l-26.859,26.687c1.227,1.236,2.51,2.416,3.841,3.54l22.995-22.849
		L405.242,313.244z"/>
	<path fill="#D80027" d="M405.342,281.939L405.342,281.939l-26.688-26.86c-1.235,1.227-2.414,2.51-3.539,3.841l22.849,22.996
		L405.342,281.939L405.342,281.939z"/>
	<path fill="#D80027" d="M436.649,282.039L436.649,282.039l26.858-26.689c-1.227-1.235-2.51-2.415-3.842-3.54l-22.993,22.85
		L436.649,282.039z"/>
</g>
</svg>
