<!DOCTYPE svg PUBLIC "-//W3C//DTD SVG 1.1//EN" "http://www.w3.org/Graphics/SVG/1.1/DTD/svg11.dtd">
<svg version="1.1" id="Layer_1" xmlns="http://www.w3.org/2000/svg" xmlns:xlink="http://www.w3.org/1999/xlink" x="0px" y="0px"
	 width="120px" height="120px" viewBox="360.945 237.64 120 120" enable-background="new 360.945 237.64 120 120"
	 xml:space="preserve">
<path d="M360.945,297.64c0,7.339,1.32,14.369,3.732,20.869l56.268,2.609l56.269-2.608c2.411-6.501,3.731-13.531,3.731-20.87
	c0-7.339-1.32-14.37-3.731-20.87l-56.269-2.609l-56.268,2.609C362.265,283.271,360.945,290.301,360.945,297.64z"/>
<path fill="#0052B4" d="M420.945,237.64c-25.798,0-47.791,16.282-56.268,39.13h112.537
	C468.735,253.923,446.742,237.64,420.945,237.64z"/>
<path fill="#F0F0F0" d="M477.213,318.51H364.677c8.478,22.849,30.47,39.131,56.268,39.131S468.735,341.358,477.213,318.51z"/>
</svg>
