<!DOCTYPE svg PUBLIC "-//W3C//DTD SVG 1.1//EN" "http://www.w3.org/Graphics/SVG/1.1/DTD/svg11.dtd">
<svg version="1.1" id="Layer_1" xmlns="http://www.w3.org/2000/svg" xmlns:xlink="http://www.w3.org/1999/xlink" x="0px" y="0px"
	 width="120px" height="120px" viewBox="360.945 237.64 120 120" enable-background="new 360.945 237.64 120 120"
	 xml:space="preserve">
<circle fill="#F0F0F0" cx="420.945" cy="297.64" r="60"/>
<g>
	<path fill="#338AF3" d="M420.945,281.988h57.934c-1.505-5.582-3.791-10.841-6.74-15.652h-51.193V281.988z"/>
	<path fill="#338AF3" d="M383.595,344.597h74.699c5.476-4.361,10.171-9.659,13.844-15.652H369.751
		C373.424,334.938,378.12,340.236,383.595,344.597z"/>
	<path fill="#338AF3" d="M381.814,252.157c-4.717,4.062-8.795,8.846-12.063,14.179h12.063V252.157z"/>
	<path fill="#338AF3" d="M420.945,297.64c0-6.111,0-11.227,0-15.652h-23.479v15.652h-15.652v-15.652h-18.803
		c-1.345,4.991-2.067,10.236-2.067,15.652s0.722,10.661,2.067,15.652h115.867c1.345-4.991,2.066-10.236,2.066-15.652H420.945z"/>
	<path fill="#338AF3" d="M420.945,237.64c-8.332,0-16.267,1.7-23.479,4.769v23.927h23.479c0-5.464,0-10.111,0-15.652h37.35
		C448.044,242.521,435.066,237.64,420.945,237.64z"/>
</g>
</svg>
