<!DOCTYPE svg PUBLIC "-//W3C//DTD SVG 1.1//EN" "http://www.w3.org/Graphics/SVG/1.1/DTD/svg11.dtd">
<svg version="1.1" id="Layer_1" xmlns="http://www.w3.org/2000/svg" xmlns:xlink="http://www.w3.org/1999/xlink" x="0px" y="0px"
	 width="120px" height="120px" viewBox="360.945 237.64 120 120" enable-background="new 360.945 237.64 120 120"
	 xml:space="preserve">
<path fill="#6DA544" d="M477.213,318.51c2.411-6.499,3.731-13.53,3.731-20.869c0-7.339-1.32-14.37-3.731-20.87l-56.269-5.217
	l-56.268,5.217c-2.412,6.5-3.732,13.53-3.732,20.87c0,7.339,1.32,14.37,3.732,20.869l56.268,5.218L477.213,318.51z"/>
<path fill="#FFDA44" d="M477.213,276.771c-8.479-22.848-30.471-39.13-56.269-39.13s-47.791,16.282-56.268,39.13H477.213z"/>
<path fill="#D80027" d="M420.945,357.64c25.798,0,47.79-16.282,56.269-39.131H364.677
	C373.154,341.358,395.147,357.64,420.945,357.64z"/>
</svg>
