<!DOCTYPE svg PUBLIC "-//W3C//DTD SVG 1.1//EN" "http://www.w3.org/Graphics/SVG/1.1/DTD/svg11.dtd">
<svg version="1.1" id="Layer_1" xmlns="http://www.w3.org/2000/svg" xmlns:xlink="http://www.w3.org/1999/xlink" x="0px" y="0px"
	 width="120px" height="120px" viewBox="360.945 237.64 120 120" enable-background="new 360.945 237.64 120 120"
	 xml:space="preserve">
<path fill="#6DA544" d="M360.945,297.64c0,25.798,16.282,47.79,39.13,56.268l5.217-56.268l-5.217-56.268
	C377.227,249.85,360.945,271.843,360.945,297.64z"/>
<path fill="#D80027" d="M480.945,297.64c0-33.137-26.863-60-60-60c-7.339,0-14.37,1.32-20.87,3.732v112.537
	c6.5,2.411,13.53,3.731,20.87,3.731C454.081,357.64,480.945,330.777,480.945,297.64z"/>
<circle fill="#FFDA44" cx="400.075" cy="297.64" r="20.869"/>
<path fill="#D80027" d="M388.336,287.205v13.043c0,6.483,5.255,11.739,11.739,11.739c6.484,0,11.739-5.256,11.739-11.739v-13.043
	H388.336z"/>
<path fill="#F0F0F0" d="M400.075,304.162c-2.157,0-3.913-1.755-3.913-3.913v-5.217h7.826v5.217
	C403.988,302.407,402.233,304.162,400.075,304.162z"/>
</svg>
