<!DOCTYPE svg PUBLIC "-//W3C//DTD SVG 1.1//EN" "http://www.w3.org/Graphics/SVG/1.1/DTD/svg11.dtd">
<svg version="1.1" id="Layer_1" xmlns="http://www.w3.org/2000/svg" xmlns:xlink="http://www.w3.org/1999/xlink" x="0px" y="0px"
	 width="120px" height="120px" viewBox="360.945 237.64 120 120" enable-background="new 360.945 237.64 120 120"
	 xml:space="preserve">
<path fill="#FFDA44" d="M441.814,241.372c-6.5-2.411-13.53-3.731-20.869-3.731c-7.339,0-14.37,1.32-20.87,3.731l-5.217,56.269
	l5.217,56.268c6.5,2.412,13.53,3.732,20.87,3.732c7.339,0,14.369-1.32,20.869-3.732l5.218-56.268L441.814,241.372z"/>
<path fill="#D80027" d="M480.945,297.64c0-25.798-16.282-47.791-39.131-56.268v112.537
	C464.662,345.43,480.945,323.438,480.945,297.64z"/>
<path fill="#0052B4" d="M360.945,297.64c0,25.798,16.282,47.79,39.13,56.269V241.372C377.227,249.85,360.945,271.842,360.945,297.64
	z"/>
</svg>
