<!DOCTYPE svg PUBLIC "-//W3C//DTD SVG 1.1//EN" "http://www.w3.org/Graphics/SVG/1.1/DTD/svg11.dtd">
<svg version="1.1" id="Layer_1" xmlns="http://www.w3.org/2000/svg" xmlns:xlink="http://www.w3.org/1999/xlink" x="0px" y="0px"
	 width="120px" height="120px" viewBox="360.945 237.64 120 120" enable-background="new 360.945 237.64 120 120"
	 xml:space="preserve">
<circle fill="#F0F0F0" cx="420.945" cy="297.64" r="60"/>
<path fill="#0052B4" d="M477.213,276.771h-64.095v-15.652h-31.304v15.652h-17.138c-2.412,6.5-3.732,13.53-3.732,20.87
	c0,7.339,1.32,14.369,3.732,20.869l56.268,5.218l56.269-5.218c2.411-6.5,3.731-13.53,3.731-20.869
	C480.945,290.301,479.624,283.27,477.213,276.771z"/>
<path fill="#D80027" d="M420.945,357.64c25.798,0,47.79-16.282,56.269-39.131H364.677
	C373.154,341.358,395.147,357.64,420.945,357.64z"/>
<path fill="#F0F0F0" d="M381.814,276.771v5.217c0,11.981,15.652,15.652,15.652,15.652s15.652-3.671,15.652-15.652v-5.217
	l-5.217,5.218l-10.435-7.826l-10.435,7.826L381.814,276.771z"/>
</svg>
