<!DOCTYPE svg PUBLIC "-//W3C//DTD SVG 1.1//EN" "http://www.w3.org/Graphics/SVG/1.1/DTD/svg11.dtd">
<svg version="1.1" id="Layer_1" xmlns="http://www.w3.org/2000/svg" xmlns:xlink="http://www.w3.org/1999/xlink" x="0px" y="0px"
	 width="120px" height="120px" viewBox="360.945 237.64 120 120" enable-background="new 360.945 237.64 120 120"
	 xml:space="preserve">
<circle fill="#F0F0F0" cx="420.945" cy="297.64" r="60"/>
<path fill="#0052B4" d="M420.945,357.64c33.137,0,60-26.863,60-60c0-7.339-1.32-14.37-3.731-20.87H364.677
	c-2.412,6.5-3.732,13.53-3.732,20.87C360.945,330.777,387.808,357.64,420.945,357.64z"/>
<path fill="#D80027" d="M420.945,357.64c25.798,0,47.79-16.282,56.269-39.131H364.677
	C373.154,341.358,395.147,357.64,420.945,357.64z"/>
<path fill="#F0F0F0" d="M376.46,271.553v29.932c0,17.025,22.243,22.242,22.243,22.242s22.242-5.217,22.242-22.242v-29.932H376.46z"
	/>
<path fill="#D80027" d="M381.677,271.553v29.932c0,1.998,0.444,3.886,1.323,5.655c8.727,0,21.771,0,31.403,0
	c0.879-1.77,1.323-3.657,1.323-5.655v-29.932H381.677z"/>
<polygon fill="#F0F0F0" points="409.137,292.423 401.311,292.423 401.311,287.205 406.529,287.205 406.529,281.988 401.311,281.988 
	401.311,276.771 396.094,276.771 396.094,281.988 390.876,281.988 390.876,287.205 396.094,287.205 396.094,292.423 
	388.267,292.423 388.267,297.64 396.094,297.64 396.094,302.858 401.311,302.858 401.311,297.64 409.137,297.64 "/>
<path fill="#0052B4" d="M390.117,314.424c3.362,2.113,6.816,3.34,8.585,3.886c1.768-0.545,5.222-1.772,8.584-3.886
	c3.391-2.131,5.767-4.567,7.117-7.283c-1.488-1.053-3.305-1.674-5.267-1.674c-0.714,0-1.408,0.085-2.076,0.24
	c-1.414-3.213-4.624-5.458-8.359-5.458s-6.945,2.245-8.359,5.458c-0.667-0.155-1.361-0.24-2.076-0.24
	c-1.962,0-3.778,0.621-5.267,1.674C384.35,309.856,386.727,312.293,390.117,314.424z"/>
</svg>
